%TF.GenerationSoftware,KiCad,Pcbnew,5.1.8-5.1.8*%
%TF.CreationDate,2023-07-26T00:19:43+02:00*%
%TF.ProjectId,C64-PSU-PCB-replacement-for-902503-06,4336342d-5053-4552-9d50-43422d726570,rev?*%
%TF.SameCoordinates,Original*%
%TF.FileFunction,Copper,L1,Top*%
%TF.FilePolarity,Positive*%
%FSLAX46Y46*%
G04 Gerber Fmt 4.6, Leading zero omitted, Abs format (unit mm)*
G04 Created by KiCad (PCBNEW 5.1.8-5.1.8) date 2023-07-26 00:19:43*
%MOMM*%
%LPD*%
G01*
G04 APERTURE LIST*
%TA.AperFunction,NonConductor*%
%ADD10C,0.300000*%
%TD*%
%TA.AperFunction,EtchedComponent*%
%ADD11C,0.010000*%
%TD*%
%TA.AperFunction,ComponentPad*%
%ADD12C,1.500000*%
%TD*%
%TA.AperFunction,ComponentPad*%
%ADD13C,3.000000*%
%TD*%
%TA.AperFunction,ComponentPad*%
%ADD14O,1.905000X2.000000*%
%TD*%
%TA.AperFunction,ComponentPad*%
%ADD15R,1.905000X2.000000*%
%TD*%
%TA.AperFunction,ComponentPad*%
%ADD16O,1.700000X1.700000*%
%TD*%
%TA.AperFunction,ComponentPad*%
%ADD17R,1.700000X1.700000*%
%TD*%
%TA.AperFunction,ComponentPad*%
%ADD18C,1.440000*%
%TD*%
%TA.AperFunction,ComponentPad*%
%ADD19O,1.400000X1.400000*%
%TD*%
%TA.AperFunction,ComponentPad*%
%ADD20C,1.400000*%
%TD*%
%TA.AperFunction,ComponentPad*%
%ADD21O,3.200000X3.200000*%
%TD*%
%TA.AperFunction,ComponentPad*%
%ADD22R,3.200000X3.200000*%
%TD*%
%TA.AperFunction,ComponentPad*%
%ADD23R,3.200001X3.200001*%
%TD*%
%TA.AperFunction,ComponentPad*%
%ADD24O,3.200001X3.200001*%
%TD*%
%TA.AperFunction,ComponentPad*%
%ADD25O,1.600000X1.600000*%
%TD*%
%TA.AperFunction,ComponentPad*%
%ADD26C,1.600000*%
%TD*%
%TA.AperFunction,ComponentPad*%
%ADD27O,2.800000X2.800000*%
%TD*%
%TA.AperFunction,ComponentPad*%
%ADD28R,2.800000X2.800000*%
%TD*%
%TA.AperFunction,Conductor*%
%ADD29C,0.250000*%
%TD*%
%TA.AperFunction,Conductor*%
%ADD30C,1.397000*%
%TD*%
%TA.AperFunction,Conductor*%
%ADD31C,3.048000*%
%TD*%
%TA.AperFunction,Conductor*%
%ADD32C,3.175000*%
%TD*%
G04 APERTURE END LIST*
D10*
X39947714Y-30206000D02*
X39876285Y-30134571D01*
X39733428Y-29920285D01*
X39661999Y-29777428D01*
X39590571Y-29563142D01*
X39519142Y-29206000D01*
X39519142Y-28920285D01*
X39590571Y-28563142D01*
X39661999Y-28348857D01*
X39733428Y-28206000D01*
X39876285Y-27991714D01*
X39947714Y-27920285D01*
X41161999Y-29563142D02*
X41019142Y-29634571D01*
X40733428Y-29634571D01*
X40590571Y-29563142D01*
X40519142Y-29491714D01*
X40447714Y-29348857D01*
X40447714Y-28920285D01*
X40519142Y-28777428D01*
X40590571Y-28706000D01*
X40733428Y-28634571D01*
X41019142Y-28634571D01*
X41161999Y-28706000D01*
X41661999Y-30206000D02*
X41733428Y-30134571D01*
X41876285Y-29920285D01*
X41947714Y-29777428D01*
X42019142Y-29563142D01*
X42090571Y-29206000D01*
X42090571Y-28920285D01*
X42019142Y-28563142D01*
X41947714Y-28348857D01*
X41876285Y-28206000D01*
X41733428Y-27991714D01*
X41661999Y-27920285D01*
X43876285Y-28277428D02*
X43947714Y-28206000D01*
X44090571Y-28134571D01*
X44447714Y-28134571D01*
X44590571Y-28206000D01*
X44661999Y-28277428D01*
X44733428Y-28420285D01*
X44733428Y-28563142D01*
X44661999Y-28777428D01*
X43804857Y-29634571D01*
X44733428Y-29634571D01*
X45661999Y-28134571D02*
X45804857Y-28134571D01*
X45947714Y-28206000D01*
X46019142Y-28277428D01*
X46090571Y-28420285D01*
X46161999Y-28706000D01*
X46161999Y-29063142D01*
X46090571Y-29348857D01*
X46019142Y-29491714D01*
X45947714Y-29563142D01*
X45804857Y-29634571D01*
X45661999Y-29634571D01*
X45519142Y-29563142D01*
X45447714Y-29491714D01*
X45376285Y-29348857D01*
X45304857Y-29063142D01*
X45304857Y-28706000D01*
X45376285Y-28420285D01*
X45447714Y-28277428D01*
X45519142Y-28206000D01*
X45661999Y-28134571D01*
X46733428Y-28277428D02*
X46804857Y-28206000D01*
X46947714Y-28134571D01*
X47304857Y-28134571D01*
X47447714Y-28206000D01*
X47519142Y-28277428D01*
X47590571Y-28420285D01*
X47590571Y-28563142D01*
X47519142Y-28777428D01*
X46661999Y-29634571D01*
X47590571Y-29634571D01*
X48090571Y-28134571D02*
X49019142Y-28134571D01*
X48519142Y-28706000D01*
X48733428Y-28706000D01*
X48876285Y-28777428D01*
X48947714Y-28848857D01*
X49019142Y-28991714D01*
X49019142Y-29348857D01*
X48947714Y-29491714D01*
X48876285Y-29563142D01*
X48733428Y-29634571D01*
X48304857Y-29634571D01*
X48161999Y-29563142D01*
X48090571Y-29491714D01*
X49661999Y-29063142D02*
X50804857Y-29063142D01*
X51804857Y-28134571D02*
X51947714Y-28134571D01*
X52090571Y-28206000D01*
X52161999Y-28277428D01*
X52233428Y-28420285D01*
X52304857Y-28706000D01*
X52304857Y-29063142D01*
X52233428Y-29348857D01*
X52161999Y-29491714D01*
X52090571Y-29563142D01*
X51947714Y-29634571D01*
X51804857Y-29634571D01*
X51661999Y-29563142D01*
X51590571Y-29491714D01*
X51519142Y-29348857D01*
X51447714Y-29063142D01*
X51447714Y-28706000D01*
X51519142Y-28420285D01*
X51590571Y-28277428D01*
X51661999Y-28206000D01*
X51804857Y-28134571D01*
X52804857Y-28134571D02*
X53804857Y-28134571D01*
X53161999Y-29634571D01*
X54376285Y-29063142D02*
X55519142Y-29063142D01*
X56162000Y-28277428D02*
X56233428Y-28206000D01*
X56376285Y-28134571D01*
X56733428Y-28134571D01*
X56876285Y-28206000D01*
X56947714Y-28277428D01*
X57019142Y-28420285D01*
X57019142Y-28563142D01*
X56947714Y-28777428D01*
X56090571Y-29634571D01*
X57019142Y-29634571D01*
X58376285Y-28134571D02*
X57662000Y-28134571D01*
X57590571Y-28848857D01*
X57662000Y-28777428D01*
X57804857Y-28706000D01*
X58162000Y-28706000D01*
X58304857Y-28777428D01*
X58376285Y-28848857D01*
X58447714Y-28991714D01*
X58447714Y-29348857D01*
X58376285Y-29491714D01*
X58304857Y-29563142D01*
X58162000Y-29634571D01*
X57804857Y-29634571D01*
X57662000Y-29563142D01*
X57590571Y-29491714D01*
X60233428Y-29634571D02*
X60233428Y-28134571D01*
X61090571Y-29634571D01*
X61090571Y-28134571D01*
X62019142Y-29634571D02*
X61876285Y-29563142D01*
X61804857Y-29491714D01*
X61733428Y-29348857D01*
X61733428Y-28920285D01*
X61804857Y-28777428D01*
X61876285Y-28706000D01*
X62019142Y-28634571D01*
X62233428Y-28634571D01*
X62376285Y-28706000D01*
X62447714Y-28777428D01*
X62519142Y-28920285D01*
X62519142Y-29348857D01*
X62447714Y-29491714D01*
X62376285Y-29563142D01*
X62233428Y-29634571D01*
X62019142Y-29634571D01*
X63162000Y-29634571D02*
X63162000Y-28634571D01*
X63162000Y-28920285D02*
X63233428Y-28777428D01*
X63304857Y-28706000D01*
X63447714Y-28634571D01*
X63590571Y-28634571D01*
X64090571Y-29634571D02*
X64090571Y-28134571D01*
X64090571Y-28706000D02*
X64233428Y-28634571D01*
X64519142Y-28634571D01*
X64662000Y-28706000D01*
X64733428Y-28777428D01*
X64804857Y-28920285D01*
X64804857Y-29348857D01*
X64733428Y-29491714D01*
X64662000Y-29563142D01*
X64519142Y-29634571D01*
X64233428Y-29634571D01*
X64090571Y-29563142D01*
X66019142Y-29563142D02*
X65876285Y-29634571D01*
X65590571Y-29634571D01*
X65447714Y-29563142D01*
X65376285Y-29420285D01*
X65376285Y-28848857D01*
X65447714Y-28706000D01*
X65590571Y-28634571D01*
X65876285Y-28634571D01*
X66019142Y-28706000D01*
X66090571Y-28848857D01*
X66090571Y-28991714D01*
X65376285Y-29134571D01*
X66733428Y-29634571D02*
X66733428Y-28634571D01*
X66733428Y-28920285D02*
X66804857Y-28777428D01*
X66876285Y-28706000D01*
X67019142Y-28634571D01*
X67162000Y-28634571D01*
X67447714Y-28634571D02*
X68019142Y-28634571D01*
X67662000Y-28134571D02*
X67662000Y-29420285D01*
X67733428Y-29563142D01*
X67876285Y-29634571D01*
X68019142Y-29634571D01*
X69662000Y-29634571D02*
X69662000Y-28134571D01*
X70519142Y-29634571D01*
X70519142Y-28134571D01*
X71876285Y-29634571D02*
X71876285Y-28848857D01*
X71804857Y-28706000D01*
X71662000Y-28634571D01*
X71376285Y-28634571D01*
X71233428Y-28706000D01*
X71876285Y-29563142D02*
X71733428Y-29634571D01*
X71376285Y-29634571D01*
X71233428Y-29563142D01*
X71162000Y-29420285D01*
X71162000Y-29277428D01*
X71233428Y-29134571D01*
X71376285Y-29063142D01*
X71733428Y-29063142D01*
X71876285Y-28991714D01*
X72590571Y-29634571D02*
X72590571Y-28634571D01*
X72590571Y-28920285D02*
X72662000Y-28777428D01*
X72733428Y-28706000D01*
X72876285Y-28634571D01*
X73019142Y-28634571D01*
X73304857Y-28634571D02*
X73876285Y-28634571D01*
X73519142Y-28134571D02*
X73519142Y-29420285D01*
X73590571Y-29563142D01*
X73733428Y-29634571D01*
X73876285Y-29634571D01*
X74947714Y-29563142D02*
X74804857Y-29634571D01*
X74519142Y-29634571D01*
X74376285Y-29563142D01*
X74304857Y-29420285D01*
X74304857Y-28848857D01*
X74376285Y-28706000D01*
X74519142Y-28634571D01*
X74804857Y-28634571D01*
X74947714Y-28706000D01*
X75019142Y-28848857D01*
X75019142Y-28991714D01*
X74304857Y-29134571D01*
X75662000Y-28634571D02*
X75662000Y-29634571D01*
X75662000Y-28777428D02*
X75733428Y-28706000D01*
X75876285Y-28634571D01*
X76090571Y-28634571D01*
X76233428Y-28706000D01*
X76304857Y-28848857D01*
X76304857Y-29634571D01*
D11*
%TO.C,REF\u002A\u002A*%
G36*
X84017886Y-32175505D02*
G01*
X84092539Y-32212727D01*
X84158431Y-32281261D01*
X84176577Y-32306648D01*
X84196345Y-32339866D01*
X84209172Y-32375945D01*
X84216510Y-32424098D01*
X84219813Y-32493536D01*
X84220538Y-32585206D01*
X84217263Y-32710830D01*
X84205877Y-32805154D01*
X84184041Y-32875523D01*
X84149419Y-32929286D01*
X84099670Y-32973788D01*
X84096014Y-32976423D01*
X84046985Y-33003377D01*
X83987945Y-33016712D01*
X83912859Y-33020000D01*
X83790795Y-33020000D01*
X83790744Y-33138497D01*
X83789608Y-33204492D01*
X83782686Y-33243202D01*
X83764598Y-33266419D01*
X83729962Y-33285933D01*
X83721645Y-33289920D01*
X83682720Y-33308603D01*
X83652583Y-33320403D01*
X83630174Y-33321422D01*
X83614433Y-33307761D01*
X83604302Y-33275522D01*
X83598723Y-33220804D01*
X83596635Y-33139711D01*
X83596981Y-33028344D01*
X83598700Y-32882802D01*
X83599237Y-32839269D01*
X83601172Y-32689205D01*
X83602904Y-32591042D01*
X83790692Y-32591042D01*
X83791748Y-32674364D01*
X83796438Y-32728880D01*
X83807051Y-32764837D01*
X83825872Y-32792482D01*
X83838650Y-32805965D01*
X83890890Y-32845417D01*
X83937142Y-32848628D01*
X83984867Y-32816049D01*
X83986077Y-32814846D01*
X84005494Y-32789668D01*
X84017307Y-32755447D01*
X84023265Y-32702748D01*
X84025120Y-32622131D01*
X84025154Y-32604271D01*
X84020670Y-32493175D01*
X84006074Y-32416161D01*
X83979650Y-32369147D01*
X83939683Y-32348050D01*
X83916584Y-32345923D01*
X83861762Y-32355900D01*
X83824158Y-32388752D01*
X83801523Y-32448857D01*
X83791606Y-32540598D01*
X83790692Y-32591042D01*
X83602904Y-32591042D01*
X83603222Y-32573060D01*
X83605873Y-32485679D01*
X83609606Y-32421905D01*
X83614907Y-32376582D01*
X83622258Y-32344555D01*
X83632143Y-32320668D01*
X83645046Y-32299764D01*
X83650579Y-32291898D01*
X83723969Y-32217595D01*
X83816760Y-32175467D01*
X83924096Y-32163722D01*
X84017886Y-32175505D01*
G37*
X84017886Y-32175505D02*
X84092539Y-32212727D01*
X84158431Y-32281261D01*
X84176577Y-32306648D01*
X84196345Y-32339866D01*
X84209172Y-32375945D01*
X84216510Y-32424098D01*
X84219813Y-32493536D01*
X84220538Y-32585206D01*
X84217263Y-32710830D01*
X84205877Y-32805154D01*
X84184041Y-32875523D01*
X84149419Y-32929286D01*
X84099670Y-32973788D01*
X84096014Y-32976423D01*
X84046985Y-33003377D01*
X83987945Y-33016712D01*
X83912859Y-33020000D01*
X83790795Y-33020000D01*
X83790744Y-33138497D01*
X83789608Y-33204492D01*
X83782686Y-33243202D01*
X83764598Y-33266419D01*
X83729962Y-33285933D01*
X83721645Y-33289920D01*
X83682720Y-33308603D01*
X83652583Y-33320403D01*
X83630174Y-33321422D01*
X83614433Y-33307761D01*
X83604302Y-33275522D01*
X83598723Y-33220804D01*
X83596635Y-33139711D01*
X83596981Y-33028344D01*
X83598700Y-32882802D01*
X83599237Y-32839269D01*
X83601172Y-32689205D01*
X83602904Y-32591042D01*
X83790692Y-32591042D01*
X83791748Y-32674364D01*
X83796438Y-32728880D01*
X83807051Y-32764837D01*
X83825872Y-32792482D01*
X83838650Y-32805965D01*
X83890890Y-32845417D01*
X83937142Y-32848628D01*
X83984867Y-32816049D01*
X83986077Y-32814846D01*
X84005494Y-32789668D01*
X84017307Y-32755447D01*
X84023265Y-32702748D01*
X84025120Y-32622131D01*
X84025154Y-32604271D01*
X84020670Y-32493175D01*
X84006074Y-32416161D01*
X83979650Y-32369147D01*
X83939683Y-32348050D01*
X83916584Y-32345923D01*
X83861762Y-32355900D01*
X83824158Y-32388752D01*
X83801523Y-32448857D01*
X83791606Y-32540598D01*
X83790692Y-32591042D01*
X83602904Y-32591042D01*
X83603222Y-32573060D01*
X83605873Y-32485679D01*
X83609606Y-32421905D01*
X83614907Y-32376582D01*
X83622258Y-32344555D01*
X83632143Y-32320668D01*
X83645046Y-32299764D01*
X83650579Y-32291898D01*
X83723969Y-32217595D01*
X83816760Y-32175467D01*
X83924096Y-32163722D01*
X84017886Y-32175505D01*
G36*
X85520664Y-32186089D02*
G01*
X85583367Y-32222358D01*
X85626961Y-32258358D01*
X85658845Y-32296075D01*
X85680810Y-32342199D01*
X85694649Y-32403421D01*
X85702153Y-32486431D01*
X85705117Y-32597919D01*
X85705461Y-32678062D01*
X85705461Y-32973065D01*
X85539385Y-33047515D01*
X85529615Y-32724402D01*
X85525579Y-32603729D01*
X85521344Y-32516141D01*
X85516097Y-32455650D01*
X85509025Y-32416268D01*
X85499311Y-32392007D01*
X85486144Y-32376880D01*
X85481919Y-32373606D01*
X85417909Y-32348034D01*
X85353208Y-32358153D01*
X85314692Y-32385000D01*
X85299025Y-32404024D01*
X85288180Y-32428988D01*
X85281288Y-32466834D01*
X85277479Y-32524502D01*
X85275883Y-32608935D01*
X85275615Y-32696928D01*
X85275563Y-32807323D01*
X85273672Y-32885463D01*
X85267345Y-32938165D01*
X85253983Y-32972242D01*
X85230985Y-32994511D01*
X85195754Y-33011787D01*
X85148697Y-33029738D01*
X85097303Y-33049278D01*
X85103421Y-32702485D01*
X85105884Y-32577468D01*
X85108767Y-32485082D01*
X85112898Y-32418881D01*
X85119107Y-32372420D01*
X85128226Y-32339256D01*
X85141083Y-32312944D01*
X85156584Y-32289729D01*
X85231371Y-32215569D01*
X85322628Y-32172684D01*
X85421883Y-32162412D01*
X85520664Y-32186089D01*
G37*
X85520664Y-32186089D02*
X85583367Y-32222358D01*
X85626961Y-32258358D01*
X85658845Y-32296075D01*
X85680810Y-32342199D01*
X85694649Y-32403421D01*
X85702153Y-32486431D01*
X85705117Y-32597919D01*
X85705461Y-32678062D01*
X85705461Y-32973065D01*
X85539385Y-33047515D01*
X85529615Y-32724402D01*
X85525579Y-32603729D01*
X85521344Y-32516141D01*
X85516097Y-32455650D01*
X85509025Y-32416268D01*
X85499311Y-32392007D01*
X85486144Y-32376880D01*
X85481919Y-32373606D01*
X85417909Y-32348034D01*
X85353208Y-32358153D01*
X85314692Y-32385000D01*
X85299025Y-32404024D01*
X85288180Y-32428988D01*
X85281288Y-32466834D01*
X85277479Y-32524502D01*
X85275883Y-32608935D01*
X85275615Y-32696928D01*
X85275563Y-32807323D01*
X85273672Y-32885463D01*
X85267345Y-32938165D01*
X85253983Y-32972242D01*
X85230985Y-32994511D01*
X85195754Y-33011787D01*
X85148697Y-33029738D01*
X85097303Y-33049278D01*
X85103421Y-32702485D01*
X85105884Y-32577468D01*
X85108767Y-32485082D01*
X85112898Y-32418881D01*
X85119107Y-32372420D01*
X85128226Y-32339256D01*
X85141083Y-32312944D01*
X85156584Y-32289729D01*
X85231371Y-32215569D01*
X85322628Y-32172684D01*
X85421883Y-32162412D01*
X85520664Y-32186089D01*
G36*
X83265886Y-32178256D02*
G01*
X83357464Y-32226409D01*
X83425049Y-32303905D01*
X83449057Y-32353727D01*
X83467738Y-32428533D01*
X83477301Y-32523052D01*
X83478208Y-32626210D01*
X83470921Y-32726935D01*
X83455903Y-32814153D01*
X83433615Y-32876791D01*
X83426765Y-32887579D01*
X83345632Y-32968105D01*
X83249266Y-33016336D01*
X83144701Y-33030450D01*
X83038968Y-33008629D01*
X83009543Y-32995547D01*
X82952241Y-32955231D01*
X82901950Y-32901775D01*
X82897197Y-32894995D01*
X82877878Y-32862321D01*
X82865108Y-32827394D01*
X82857564Y-32781414D01*
X82853924Y-32715584D01*
X82852865Y-32621105D01*
X82852846Y-32599923D01*
X82852894Y-32593182D01*
X83048231Y-32593182D01*
X83049368Y-32682349D01*
X83053841Y-32741520D01*
X83063246Y-32779741D01*
X83079176Y-32806053D01*
X83087308Y-32814846D01*
X83134058Y-32848261D01*
X83179447Y-32846737D01*
X83225340Y-32817752D01*
X83252712Y-32786809D01*
X83268923Y-32741643D01*
X83278026Y-32670420D01*
X83278651Y-32662114D01*
X83280204Y-32533037D01*
X83263965Y-32437172D01*
X83230152Y-32375107D01*
X83178984Y-32347432D01*
X83160720Y-32345923D01*
X83112760Y-32353513D01*
X83079953Y-32379808D01*
X83059895Y-32430095D01*
X83050178Y-32509664D01*
X83048231Y-32593182D01*
X82852894Y-32593182D01*
X82853574Y-32499249D01*
X82856629Y-32428906D01*
X82863322Y-32380163D01*
X82874960Y-32344288D01*
X82892853Y-32312548D01*
X82896808Y-32306648D01*
X82963267Y-32227104D01*
X83035685Y-32180929D01*
X83123849Y-32162599D01*
X83153787Y-32161703D01*
X83265886Y-32178256D01*
G37*
X83265886Y-32178256D02*
X83357464Y-32226409D01*
X83425049Y-32303905D01*
X83449057Y-32353727D01*
X83467738Y-32428533D01*
X83477301Y-32523052D01*
X83478208Y-32626210D01*
X83470921Y-32726935D01*
X83455903Y-32814153D01*
X83433615Y-32876791D01*
X83426765Y-32887579D01*
X83345632Y-32968105D01*
X83249266Y-33016336D01*
X83144701Y-33030450D01*
X83038968Y-33008629D01*
X83009543Y-32995547D01*
X82952241Y-32955231D01*
X82901950Y-32901775D01*
X82897197Y-32894995D01*
X82877878Y-32862321D01*
X82865108Y-32827394D01*
X82857564Y-32781414D01*
X82853924Y-32715584D01*
X82852865Y-32621105D01*
X82852846Y-32599923D01*
X82852894Y-32593182D01*
X83048231Y-32593182D01*
X83049368Y-32682349D01*
X83053841Y-32741520D01*
X83063246Y-32779741D01*
X83079176Y-32806053D01*
X83087308Y-32814846D01*
X83134058Y-32848261D01*
X83179447Y-32846737D01*
X83225340Y-32817752D01*
X83252712Y-32786809D01*
X83268923Y-32741643D01*
X83278026Y-32670420D01*
X83278651Y-32662114D01*
X83280204Y-32533037D01*
X83263965Y-32437172D01*
X83230152Y-32375107D01*
X83178984Y-32347432D01*
X83160720Y-32345923D01*
X83112760Y-32353513D01*
X83079953Y-32379808D01*
X83059895Y-32430095D01*
X83050178Y-32509664D01*
X83048231Y-32593182D01*
X82852894Y-32593182D01*
X82853574Y-32499249D01*
X82856629Y-32428906D01*
X82863322Y-32380163D01*
X82874960Y-32344288D01*
X82892853Y-32312548D01*
X82896808Y-32306648D01*
X82963267Y-32227104D01*
X83035685Y-32180929D01*
X83123849Y-32162599D01*
X83153787Y-32161703D01*
X83265886Y-32178256D01*
G36*
X84783254Y-32190745D02*
G01*
X84860286Y-32242567D01*
X84919816Y-32317412D01*
X84955378Y-32412654D01*
X84962571Y-32482756D01*
X84961754Y-32512009D01*
X84954914Y-32534407D01*
X84936112Y-32554474D01*
X84899408Y-32576733D01*
X84838862Y-32605709D01*
X84748534Y-32645927D01*
X84748077Y-32646129D01*
X84664933Y-32684210D01*
X84596753Y-32718025D01*
X84550505Y-32743933D01*
X84533158Y-32758295D01*
X84533154Y-32758411D01*
X84548443Y-32789685D01*
X84584196Y-32824157D01*
X84625242Y-32848990D01*
X84646037Y-32853923D01*
X84702770Y-32836862D01*
X84751627Y-32794133D01*
X84775465Y-32747155D01*
X84798397Y-32712522D01*
X84843318Y-32673081D01*
X84896123Y-32639009D01*
X84942710Y-32620480D01*
X84952452Y-32619462D01*
X84963418Y-32636215D01*
X84964079Y-32679039D01*
X84956020Y-32736781D01*
X84940827Y-32798289D01*
X84920086Y-32852409D01*
X84919038Y-32854510D01*
X84856621Y-32941660D01*
X84775726Y-33000939D01*
X84683856Y-33030034D01*
X84588513Y-33026634D01*
X84497198Y-32988428D01*
X84493138Y-32985741D01*
X84421306Y-32920642D01*
X84374073Y-32835705D01*
X84347934Y-32724021D01*
X84344426Y-32692643D01*
X84338213Y-32544536D01*
X84345661Y-32475468D01*
X84533154Y-32475468D01*
X84535590Y-32518552D01*
X84548914Y-32531126D01*
X84582132Y-32521719D01*
X84634494Y-32499483D01*
X84693024Y-32471610D01*
X84694479Y-32470872D01*
X84744089Y-32444777D01*
X84764000Y-32427363D01*
X84759090Y-32409107D01*
X84738416Y-32385120D01*
X84685819Y-32350406D01*
X84629177Y-32347856D01*
X84578369Y-32373119D01*
X84543276Y-32421847D01*
X84533154Y-32475468D01*
X84345661Y-32475468D01*
X84350992Y-32426036D01*
X84383778Y-32332055D01*
X84429421Y-32266215D01*
X84511802Y-32199681D01*
X84602546Y-32166676D01*
X84695185Y-32164573D01*
X84783254Y-32190745D01*
G37*
X84783254Y-32190745D02*
X84860286Y-32242567D01*
X84919816Y-32317412D01*
X84955378Y-32412654D01*
X84962571Y-32482756D01*
X84961754Y-32512009D01*
X84954914Y-32534407D01*
X84936112Y-32554474D01*
X84899408Y-32576733D01*
X84838862Y-32605709D01*
X84748534Y-32645927D01*
X84748077Y-32646129D01*
X84664933Y-32684210D01*
X84596753Y-32718025D01*
X84550505Y-32743933D01*
X84533158Y-32758295D01*
X84533154Y-32758411D01*
X84548443Y-32789685D01*
X84584196Y-32824157D01*
X84625242Y-32848990D01*
X84646037Y-32853923D01*
X84702770Y-32836862D01*
X84751627Y-32794133D01*
X84775465Y-32747155D01*
X84798397Y-32712522D01*
X84843318Y-32673081D01*
X84896123Y-32639009D01*
X84942710Y-32620480D01*
X84952452Y-32619462D01*
X84963418Y-32636215D01*
X84964079Y-32679039D01*
X84956020Y-32736781D01*
X84940827Y-32798289D01*
X84920086Y-32852409D01*
X84919038Y-32854510D01*
X84856621Y-32941660D01*
X84775726Y-33000939D01*
X84683856Y-33030034D01*
X84588513Y-33026634D01*
X84497198Y-32988428D01*
X84493138Y-32985741D01*
X84421306Y-32920642D01*
X84374073Y-32835705D01*
X84347934Y-32724021D01*
X84344426Y-32692643D01*
X84338213Y-32544536D01*
X84345661Y-32475468D01*
X84533154Y-32475468D01*
X84535590Y-32518552D01*
X84548914Y-32531126D01*
X84582132Y-32521719D01*
X84634494Y-32499483D01*
X84693024Y-32471610D01*
X84694479Y-32470872D01*
X84744089Y-32444777D01*
X84764000Y-32427363D01*
X84759090Y-32409107D01*
X84738416Y-32385120D01*
X84685819Y-32350406D01*
X84629177Y-32347856D01*
X84578369Y-32373119D01*
X84543276Y-32421847D01*
X84533154Y-32475468D01*
X84345661Y-32475468D01*
X84350992Y-32426036D01*
X84383778Y-32332055D01*
X84429421Y-32266215D01*
X84511802Y-32199681D01*
X84602546Y-32166676D01*
X84695185Y-32164573D01*
X84783254Y-32190745D01*
G36*
X86408846Y-32083120D02*
G01*
X86414572Y-32162980D01*
X86421149Y-32210039D01*
X86430262Y-32230566D01*
X86443598Y-32230829D01*
X86447923Y-32228378D01*
X86505444Y-32210636D01*
X86580268Y-32211672D01*
X86656339Y-32229910D01*
X86703918Y-32253505D01*
X86752702Y-32291198D01*
X86788364Y-32333855D01*
X86812845Y-32388057D01*
X86828087Y-32460384D01*
X86836030Y-32557419D01*
X86838616Y-32685742D01*
X86838662Y-32710358D01*
X86838692Y-32986870D01*
X86777161Y-33008320D01*
X86733459Y-33022912D01*
X86709482Y-33029706D01*
X86708777Y-33029769D01*
X86706415Y-33011345D01*
X86704406Y-32960526D01*
X86702901Y-32883993D01*
X86702053Y-32788430D01*
X86701923Y-32730329D01*
X86701651Y-32615771D01*
X86700252Y-32533667D01*
X86696849Y-32477393D01*
X86690567Y-32440326D01*
X86680529Y-32415844D01*
X86665861Y-32397325D01*
X86656702Y-32388406D01*
X86593789Y-32352466D01*
X86525136Y-32349775D01*
X86462848Y-32380170D01*
X86451329Y-32391144D01*
X86434433Y-32411779D01*
X86422714Y-32436256D01*
X86415233Y-32471647D01*
X86411054Y-32525026D01*
X86409237Y-32603466D01*
X86408846Y-32711617D01*
X86408846Y-32986870D01*
X86347315Y-33008320D01*
X86303613Y-33022912D01*
X86279636Y-33029706D01*
X86278930Y-33029769D01*
X86277126Y-33011069D01*
X86275500Y-32958322D01*
X86274117Y-32876557D01*
X86273042Y-32770805D01*
X86272340Y-32646094D01*
X86272077Y-32507455D01*
X86272077Y-31972806D01*
X86399077Y-31919236D01*
X86408846Y-32083120D01*
G37*
X86408846Y-32083120D02*
X86414572Y-32162980D01*
X86421149Y-32210039D01*
X86430262Y-32230566D01*
X86443598Y-32230829D01*
X86447923Y-32228378D01*
X86505444Y-32210636D01*
X86580268Y-32211672D01*
X86656339Y-32229910D01*
X86703918Y-32253505D01*
X86752702Y-32291198D01*
X86788364Y-32333855D01*
X86812845Y-32388057D01*
X86828087Y-32460384D01*
X86836030Y-32557419D01*
X86838616Y-32685742D01*
X86838662Y-32710358D01*
X86838692Y-32986870D01*
X86777161Y-33008320D01*
X86733459Y-33022912D01*
X86709482Y-33029706D01*
X86708777Y-33029769D01*
X86706415Y-33011345D01*
X86704406Y-32960526D01*
X86702901Y-32883993D01*
X86702053Y-32788430D01*
X86701923Y-32730329D01*
X86701651Y-32615771D01*
X86700252Y-32533667D01*
X86696849Y-32477393D01*
X86690567Y-32440326D01*
X86680529Y-32415844D01*
X86665861Y-32397325D01*
X86656702Y-32388406D01*
X86593789Y-32352466D01*
X86525136Y-32349775D01*
X86462848Y-32380170D01*
X86451329Y-32391144D01*
X86434433Y-32411779D01*
X86422714Y-32436256D01*
X86415233Y-32471647D01*
X86411054Y-32525026D01*
X86409237Y-32603466D01*
X86408846Y-32711617D01*
X86408846Y-32986870D01*
X86347315Y-33008320D01*
X86303613Y-33022912D01*
X86279636Y-33029706D01*
X86278930Y-33029769D01*
X86277126Y-33011069D01*
X86275500Y-32958322D01*
X86274117Y-32876557D01*
X86273042Y-32770805D01*
X86272340Y-32646094D01*
X86272077Y-32507455D01*
X86272077Y-31972806D01*
X86399077Y-31919236D01*
X86408846Y-32083120D01*
G36*
X87302501Y-32217303D02*
G01*
X87379060Y-32245733D01*
X87379936Y-32246279D01*
X87427285Y-32281127D01*
X87462241Y-32321852D01*
X87486825Y-32374925D01*
X87503062Y-32446814D01*
X87512975Y-32543992D01*
X87518586Y-32672928D01*
X87519077Y-32691298D01*
X87526141Y-32968287D01*
X87466695Y-32999028D01*
X87423681Y-33019802D01*
X87397710Y-33029646D01*
X87396509Y-33029769D01*
X87392014Y-33011606D01*
X87388444Y-32962612D01*
X87386248Y-32891031D01*
X87385769Y-32833068D01*
X87385758Y-32739170D01*
X87381466Y-32680203D01*
X87366503Y-32652079D01*
X87334482Y-32650706D01*
X87279014Y-32671998D01*
X87195269Y-32711136D01*
X87133689Y-32743643D01*
X87102017Y-32771845D01*
X87092706Y-32802582D01*
X87092692Y-32804104D01*
X87108057Y-32857054D01*
X87153547Y-32885660D01*
X87223166Y-32889803D01*
X87273313Y-32889084D01*
X87299754Y-32903527D01*
X87316243Y-32938218D01*
X87325733Y-32982416D01*
X87312057Y-33007493D01*
X87306907Y-33011082D01*
X87258425Y-33025496D01*
X87190531Y-33027537D01*
X87120612Y-33017983D01*
X87071068Y-33000522D01*
X87002570Y-32942364D01*
X86963634Y-32861408D01*
X86955923Y-32798160D01*
X86961807Y-32741111D01*
X86983101Y-32694542D01*
X87025265Y-32653181D01*
X87093759Y-32611755D01*
X87194044Y-32564993D01*
X87200154Y-32562350D01*
X87290490Y-32520617D01*
X87346235Y-32486391D01*
X87370129Y-32455635D01*
X87364913Y-32424311D01*
X87333328Y-32388383D01*
X87323883Y-32380116D01*
X87260617Y-32348058D01*
X87195064Y-32349407D01*
X87137972Y-32380838D01*
X87100093Y-32439024D01*
X87096574Y-32450446D01*
X87062300Y-32505837D01*
X87018809Y-32532518D01*
X86955923Y-32558960D01*
X86955923Y-32490548D01*
X86975052Y-32391110D01*
X87031831Y-32299902D01*
X87061378Y-32269389D01*
X87128542Y-32230228D01*
X87213956Y-32212500D01*
X87302501Y-32217303D01*
G37*
X87302501Y-32217303D02*
X87379060Y-32245733D01*
X87379936Y-32246279D01*
X87427285Y-32281127D01*
X87462241Y-32321852D01*
X87486825Y-32374925D01*
X87503062Y-32446814D01*
X87512975Y-32543992D01*
X87518586Y-32672928D01*
X87519077Y-32691298D01*
X87526141Y-32968287D01*
X87466695Y-32999028D01*
X87423681Y-33019802D01*
X87397710Y-33029646D01*
X87396509Y-33029769D01*
X87392014Y-33011606D01*
X87388444Y-32962612D01*
X87386248Y-32891031D01*
X87385769Y-32833068D01*
X87385758Y-32739170D01*
X87381466Y-32680203D01*
X87366503Y-32652079D01*
X87334482Y-32650706D01*
X87279014Y-32671998D01*
X87195269Y-32711136D01*
X87133689Y-32743643D01*
X87102017Y-32771845D01*
X87092706Y-32802582D01*
X87092692Y-32804104D01*
X87108057Y-32857054D01*
X87153547Y-32885660D01*
X87223166Y-32889803D01*
X87273313Y-32889084D01*
X87299754Y-32903527D01*
X87316243Y-32938218D01*
X87325733Y-32982416D01*
X87312057Y-33007493D01*
X87306907Y-33011082D01*
X87258425Y-33025496D01*
X87190531Y-33027537D01*
X87120612Y-33017983D01*
X87071068Y-33000522D01*
X87002570Y-32942364D01*
X86963634Y-32861408D01*
X86955923Y-32798160D01*
X86961807Y-32741111D01*
X86983101Y-32694542D01*
X87025265Y-32653181D01*
X87093759Y-32611755D01*
X87194044Y-32564993D01*
X87200154Y-32562350D01*
X87290490Y-32520617D01*
X87346235Y-32486391D01*
X87370129Y-32455635D01*
X87364913Y-32424311D01*
X87333328Y-32388383D01*
X87323883Y-32380116D01*
X87260617Y-32348058D01*
X87195064Y-32349407D01*
X87137972Y-32380838D01*
X87100093Y-32439024D01*
X87096574Y-32450446D01*
X87062300Y-32505837D01*
X87018809Y-32532518D01*
X86955923Y-32558960D01*
X86955923Y-32490548D01*
X86975052Y-32391110D01*
X87031831Y-32299902D01*
X87061378Y-32269389D01*
X87128542Y-32230228D01*
X87213956Y-32212500D01*
X87302501Y-32217303D01*
G36*
X87962362Y-32215670D02*
G01*
X88051117Y-32248421D01*
X88123022Y-32306350D01*
X88151144Y-32347128D01*
X88181802Y-32421954D01*
X88181165Y-32476058D01*
X88148987Y-32512446D01*
X88137081Y-32518633D01*
X88085675Y-32537925D01*
X88059422Y-32532982D01*
X88050530Y-32500587D01*
X88050077Y-32482692D01*
X88033797Y-32416859D01*
X87991365Y-32370807D01*
X87932388Y-32348564D01*
X87866475Y-32354161D01*
X87812895Y-32383229D01*
X87794798Y-32399810D01*
X87781971Y-32419925D01*
X87773306Y-32450332D01*
X87767696Y-32497788D01*
X87764035Y-32569050D01*
X87761215Y-32670875D01*
X87760484Y-32703115D01*
X87757820Y-32813410D01*
X87754792Y-32891036D01*
X87750250Y-32942396D01*
X87743046Y-32973890D01*
X87732033Y-32991920D01*
X87716060Y-33002888D01*
X87705834Y-33007733D01*
X87662406Y-33024301D01*
X87636842Y-33029769D01*
X87628395Y-33011507D01*
X87623239Y-32956296D01*
X87621346Y-32863499D01*
X87622689Y-32732478D01*
X87623107Y-32712269D01*
X87626058Y-32592733D01*
X87629548Y-32505449D01*
X87634514Y-32443591D01*
X87641893Y-32400336D01*
X87652624Y-32368860D01*
X87667645Y-32342339D01*
X87675502Y-32330975D01*
X87720553Y-32280692D01*
X87770940Y-32241581D01*
X87777108Y-32238167D01*
X87867458Y-32211212D01*
X87962362Y-32215670D01*
G37*
X87962362Y-32215670D02*
X88051117Y-32248421D01*
X88123022Y-32306350D01*
X88151144Y-32347128D01*
X88181802Y-32421954D01*
X88181165Y-32476058D01*
X88148987Y-32512446D01*
X88137081Y-32518633D01*
X88085675Y-32537925D01*
X88059422Y-32532982D01*
X88050530Y-32500587D01*
X88050077Y-32482692D01*
X88033797Y-32416859D01*
X87991365Y-32370807D01*
X87932388Y-32348564D01*
X87866475Y-32354161D01*
X87812895Y-32383229D01*
X87794798Y-32399810D01*
X87781971Y-32419925D01*
X87773306Y-32450332D01*
X87767696Y-32497788D01*
X87764035Y-32569050D01*
X87761215Y-32670875D01*
X87760484Y-32703115D01*
X87757820Y-32813410D01*
X87754792Y-32891036D01*
X87750250Y-32942396D01*
X87743046Y-32973890D01*
X87732033Y-32991920D01*
X87716060Y-33002888D01*
X87705834Y-33007733D01*
X87662406Y-33024301D01*
X87636842Y-33029769D01*
X87628395Y-33011507D01*
X87623239Y-32956296D01*
X87621346Y-32863499D01*
X87622689Y-32732478D01*
X87623107Y-32712269D01*
X87626058Y-32592733D01*
X87629548Y-32505449D01*
X87634514Y-32443591D01*
X87641893Y-32400336D01*
X87652624Y-32368860D01*
X87667645Y-32342339D01*
X87675502Y-32330975D01*
X87720553Y-32280692D01*
X87770940Y-32241581D01*
X87777108Y-32238167D01*
X87867458Y-32211212D01*
X87962362Y-32215670D01*
G36*
X88851081Y-32371289D02*
G01*
X88850833Y-32517320D01*
X88849872Y-32629655D01*
X88847794Y-32713678D01*
X88844193Y-32774769D01*
X88838665Y-32818309D01*
X88830804Y-32849679D01*
X88820207Y-32874262D01*
X88812182Y-32888294D01*
X88745728Y-32964388D01*
X88661470Y-33012084D01*
X88568249Y-33029199D01*
X88474900Y-33013546D01*
X88419312Y-32985418D01*
X88360957Y-32936760D01*
X88321186Y-32877333D01*
X88297190Y-32799507D01*
X88286161Y-32695652D01*
X88284599Y-32619462D01*
X88284809Y-32613986D01*
X88421308Y-32613986D01*
X88422141Y-32701355D01*
X88425961Y-32759192D01*
X88434746Y-32797029D01*
X88450474Y-32824398D01*
X88469266Y-32845042D01*
X88532375Y-32884890D01*
X88600137Y-32888295D01*
X88664179Y-32855025D01*
X88669164Y-32850517D01*
X88690439Y-32827067D01*
X88703779Y-32799166D01*
X88711001Y-32757641D01*
X88713923Y-32693316D01*
X88714385Y-32622200D01*
X88713383Y-32532858D01*
X88709238Y-32473258D01*
X88700236Y-32434089D01*
X88684667Y-32406040D01*
X88671902Y-32391144D01*
X88612600Y-32353575D01*
X88544301Y-32349057D01*
X88479110Y-32377753D01*
X88466528Y-32388406D01*
X88445111Y-32412063D01*
X88431744Y-32440251D01*
X88424566Y-32482245D01*
X88421719Y-32547319D01*
X88421308Y-32613986D01*
X88284809Y-32613986D01*
X88289322Y-32496765D01*
X88305362Y-32404577D01*
X88335528Y-32335269D01*
X88382629Y-32281211D01*
X88419312Y-32253505D01*
X88485990Y-32223572D01*
X88563272Y-32209678D01*
X88635110Y-32213397D01*
X88675308Y-32228400D01*
X88691082Y-32232670D01*
X88701550Y-32216750D01*
X88708856Y-32174089D01*
X88714385Y-32109106D01*
X88720437Y-32036732D01*
X88728844Y-31993187D01*
X88744141Y-31968287D01*
X88770864Y-31951845D01*
X88787654Y-31944564D01*
X88851154Y-31917963D01*
X88851081Y-32371289D01*
G37*
X88851081Y-32371289D02*
X88850833Y-32517320D01*
X88849872Y-32629655D01*
X88847794Y-32713678D01*
X88844193Y-32774769D01*
X88838665Y-32818309D01*
X88830804Y-32849679D01*
X88820207Y-32874262D01*
X88812182Y-32888294D01*
X88745728Y-32964388D01*
X88661470Y-33012084D01*
X88568249Y-33029199D01*
X88474900Y-33013546D01*
X88419312Y-32985418D01*
X88360957Y-32936760D01*
X88321186Y-32877333D01*
X88297190Y-32799507D01*
X88286161Y-32695652D01*
X88284599Y-32619462D01*
X88284809Y-32613986D01*
X88421308Y-32613986D01*
X88422141Y-32701355D01*
X88425961Y-32759192D01*
X88434746Y-32797029D01*
X88450474Y-32824398D01*
X88469266Y-32845042D01*
X88532375Y-32884890D01*
X88600137Y-32888295D01*
X88664179Y-32855025D01*
X88669164Y-32850517D01*
X88690439Y-32827067D01*
X88703779Y-32799166D01*
X88711001Y-32757641D01*
X88713923Y-32693316D01*
X88714385Y-32622200D01*
X88713383Y-32532858D01*
X88709238Y-32473258D01*
X88700236Y-32434089D01*
X88684667Y-32406040D01*
X88671902Y-32391144D01*
X88612600Y-32353575D01*
X88544301Y-32349057D01*
X88479110Y-32377753D01*
X88466528Y-32388406D01*
X88445111Y-32412063D01*
X88431744Y-32440251D01*
X88424566Y-32482245D01*
X88421719Y-32547319D01*
X88421308Y-32613986D01*
X88284809Y-32613986D01*
X88289322Y-32496765D01*
X88305362Y-32404577D01*
X88335528Y-32335269D01*
X88382629Y-32281211D01*
X88419312Y-32253505D01*
X88485990Y-32223572D01*
X88563272Y-32209678D01*
X88635110Y-32213397D01*
X88675308Y-32228400D01*
X88691082Y-32232670D01*
X88701550Y-32216750D01*
X88708856Y-32174089D01*
X88714385Y-32109106D01*
X88720437Y-32036732D01*
X88728844Y-31993187D01*
X88744141Y-31968287D01*
X88770864Y-31951845D01*
X88787654Y-31944564D01*
X88851154Y-31917963D01*
X88851081Y-32371289D01*
G36*
X89644929Y-32227662D02*
G01*
X89647911Y-32279068D01*
X89650247Y-32357192D01*
X89651749Y-32455857D01*
X89652231Y-32559343D01*
X89652231Y-32909533D01*
X89590401Y-32971363D01*
X89547793Y-33009462D01*
X89510390Y-33024895D01*
X89459270Y-33023918D01*
X89438978Y-33021433D01*
X89375554Y-33014200D01*
X89323095Y-33010055D01*
X89310308Y-33009672D01*
X89267199Y-33012176D01*
X89205544Y-33018462D01*
X89181638Y-33021433D01*
X89122922Y-33026028D01*
X89083464Y-33016046D01*
X89044338Y-32985228D01*
X89030215Y-32971363D01*
X88968385Y-32909533D01*
X88968385Y-32254503D01*
X89018150Y-32231829D01*
X89061002Y-32215034D01*
X89086073Y-32209154D01*
X89092501Y-32227736D01*
X89098509Y-32279655D01*
X89103697Y-32359172D01*
X89107664Y-32460546D01*
X89109577Y-32546192D01*
X89114923Y-32883231D01*
X89161560Y-32889825D01*
X89203976Y-32885214D01*
X89224760Y-32870287D01*
X89230570Y-32842377D01*
X89235530Y-32782925D01*
X89239246Y-32699466D01*
X89241324Y-32599532D01*
X89241624Y-32548104D01*
X89241923Y-32252054D01*
X89303454Y-32230604D01*
X89347004Y-32216020D01*
X89370694Y-32209219D01*
X89371377Y-32209154D01*
X89373754Y-32227642D01*
X89376366Y-32278906D01*
X89378995Y-32356649D01*
X89381421Y-32454574D01*
X89383115Y-32546192D01*
X89388461Y-32883231D01*
X89505692Y-32883231D01*
X89511072Y-32575746D01*
X89516451Y-32268261D01*
X89573601Y-32238707D01*
X89615797Y-32218413D01*
X89640770Y-32209204D01*
X89641491Y-32209154D01*
X89644929Y-32227662D01*
G37*
X89644929Y-32227662D02*
X89647911Y-32279068D01*
X89650247Y-32357192D01*
X89651749Y-32455857D01*
X89652231Y-32559343D01*
X89652231Y-32909533D01*
X89590401Y-32971363D01*
X89547793Y-33009462D01*
X89510390Y-33024895D01*
X89459270Y-33023918D01*
X89438978Y-33021433D01*
X89375554Y-33014200D01*
X89323095Y-33010055D01*
X89310308Y-33009672D01*
X89267199Y-33012176D01*
X89205544Y-33018462D01*
X89181638Y-33021433D01*
X89122922Y-33026028D01*
X89083464Y-33016046D01*
X89044338Y-32985228D01*
X89030215Y-32971363D01*
X88968385Y-32909533D01*
X88968385Y-32254503D01*
X89018150Y-32231829D01*
X89061002Y-32215034D01*
X89086073Y-32209154D01*
X89092501Y-32227736D01*
X89098509Y-32279655D01*
X89103697Y-32359172D01*
X89107664Y-32460546D01*
X89109577Y-32546192D01*
X89114923Y-32883231D01*
X89161560Y-32889825D01*
X89203976Y-32885214D01*
X89224760Y-32870287D01*
X89230570Y-32842377D01*
X89235530Y-32782925D01*
X89239246Y-32699466D01*
X89241324Y-32599532D01*
X89241624Y-32548104D01*
X89241923Y-32252054D01*
X89303454Y-32230604D01*
X89347004Y-32216020D01*
X89370694Y-32209219D01*
X89371377Y-32209154D01*
X89373754Y-32227642D01*
X89376366Y-32278906D01*
X89378995Y-32356649D01*
X89381421Y-32454574D01*
X89383115Y-32546192D01*
X89388461Y-32883231D01*
X89505692Y-32883231D01*
X89511072Y-32575746D01*
X89516451Y-32268261D01*
X89573601Y-32238707D01*
X89615797Y-32218413D01*
X89640770Y-32209204D01*
X89641491Y-32209154D01*
X89644929Y-32227662D01*
G36*
X90136333Y-32224528D02*
G01*
X90192590Y-32250117D01*
X90236747Y-32281124D01*
X90269101Y-32315795D01*
X90291438Y-32360520D01*
X90305546Y-32421692D01*
X90313211Y-32505701D01*
X90316220Y-32618940D01*
X90316538Y-32693509D01*
X90316538Y-32984420D01*
X90266773Y-33007095D01*
X90227576Y-33023667D01*
X90208157Y-33029769D01*
X90204442Y-33011610D01*
X90201495Y-32962648D01*
X90199691Y-32891153D01*
X90199308Y-32834385D01*
X90197661Y-32752371D01*
X90193222Y-32687309D01*
X90186740Y-32647467D01*
X90181590Y-32639000D01*
X90146977Y-32647646D01*
X90092640Y-32669823D01*
X90029722Y-32699886D01*
X89969368Y-32732192D01*
X89922721Y-32761098D01*
X89900926Y-32780961D01*
X89900839Y-32781175D01*
X89902714Y-32817935D01*
X89919525Y-32853026D01*
X89949039Y-32881528D01*
X89992116Y-32891061D01*
X90028932Y-32889950D01*
X90081074Y-32889133D01*
X90108444Y-32901349D01*
X90124882Y-32933624D01*
X90126955Y-32939710D01*
X90134081Y-32985739D01*
X90115024Y-33013687D01*
X90065353Y-33027007D01*
X90011697Y-33029470D01*
X89915142Y-33011210D01*
X89865159Y-32985131D01*
X89803429Y-32923868D01*
X89770690Y-32848670D01*
X89767753Y-32769211D01*
X89795424Y-32695167D01*
X89837047Y-32648769D01*
X89878604Y-32622793D01*
X89943922Y-32589907D01*
X90020038Y-32556557D01*
X90032726Y-32551461D01*
X90116333Y-32514565D01*
X90164530Y-32482046D01*
X90180030Y-32449718D01*
X90165550Y-32413394D01*
X90140692Y-32385000D01*
X90081939Y-32350039D01*
X90017293Y-32347417D01*
X89958008Y-32374358D01*
X89915339Y-32428088D01*
X89909739Y-32441950D01*
X89877133Y-32492936D01*
X89829530Y-32530787D01*
X89769461Y-32561850D01*
X89769461Y-32473768D01*
X89772997Y-32419951D01*
X89788156Y-32377534D01*
X89821768Y-32332279D01*
X89854035Y-32297420D01*
X89904209Y-32248062D01*
X89943193Y-32221547D01*
X89985064Y-32210911D01*
X90032460Y-32209154D01*
X90136333Y-32224528D01*
G37*
X90136333Y-32224528D02*
X90192590Y-32250117D01*
X90236747Y-32281124D01*
X90269101Y-32315795D01*
X90291438Y-32360520D01*
X90305546Y-32421692D01*
X90313211Y-32505701D01*
X90316220Y-32618940D01*
X90316538Y-32693509D01*
X90316538Y-32984420D01*
X90266773Y-33007095D01*
X90227576Y-33023667D01*
X90208157Y-33029769D01*
X90204442Y-33011610D01*
X90201495Y-32962648D01*
X90199691Y-32891153D01*
X90199308Y-32834385D01*
X90197661Y-32752371D01*
X90193222Y-32687309D01*
X90186740Y-32647467D01*
X90181590Y-32639000D01*
X90146977Y-32647646D01*
X90092640Y-32669823D01*
X90029722Y-32699886D01*
X89969368Y-32732192D01*
X89922721Y-32761098D01*
X89900926Y-32780961D01*
X89900839Y-32781175D01*
X89902714Y-32817935D01*
X89919525Y-32853026D01*
X89949039Y-32881528D01*
X89992116Y-32891061D01*
X90028932Y-32889950D01*
X90081074Y-32889133D01*
X90108444Y-32901349D01*
X90124882Y-32933624D01*
X90126955Y-32939710D01*
X90134081Y-32985739D01*
X90115024Y-33013687D01*
X90065353Y-33027007D01*
X90011697Y-33029470D01*
X89915142Y-33011210D01*
X89865159Y-32985131D01*
X89803429Y-32923868D01*
X89770690Y-32848670D01*
X89767753Y-32769211D01*
X89795424Y-32695167D01*
X89837047Y-32648769D01*
X89878604Y-32622793D01*
X89943922Y-32589907D01*
X90020038Y-32556557D01*
X90032726Y-32551461D01*
X90116333Y-32514565D01*
X90164530Y-32482046D01*
X90180030Y-32449718D01*
X90165550Y-32413394D01*
X90140692Y-32385000D01*
X90081939Y-32350039D01*
X90017293Y-32347417D01*
X89958008Y-32374358D01*
X89915339Y-32428088D01*
X89909739Y-32441950D01*
X89877133Y-32492936D01*
X89829530Y-32530787D01*
X89769461Y-32561850D01*
X89769461Y-32473768D01*
X89772997Y-32419951D01*
X89788156Y-32377534D01*
X89821768Y-32332279D01*
X89854035Y-32297420D01*
X89904209Y-32248062D01*
X89943193Y-32221547D01*
X89985064Y-32210911D01*
X90032460Y-32209154D01*
X90136333Y-32224528D01*
G36*
X90819807Y-32227782D02*
G01*
X90843161Y-32237988D01*
X90898902Y-32282134D01*
X90946569Y-32345967D01*
X90976048Y-32414087D01*
X90980846Y-32447670D01*
X90964760Y-32494556D01*
X90929475Y-32519365D01*
X90891644Y-32534387D01*
X90874321Y-32537155D01*
X90865886Y-32517066D01*
X90849230Y-32473351D01*
X90841923Y-32453598D01*
X90800948Y-32385271D01*
X90741622Y-32351191D01*
X90665552Y-32352239D01*
X90659918Y-32353581D01*
X90619305Y-32372836D01*
X90589448Y-32410375D01*
X90569055Y-32470809D01*
X90556836Y-32558751D01*
X90551500Y-32678813D01*
X90551000Y-32742698D01*
X90550752Y-32843403D01*
X90549126Y-32912054D01*
X90544801Y-32955673D01*
X90536454Y-32981282D01*
X90522765Y-32995903D01*
X90502411Y-33006558D01*
X90501234Y-33007095D01*
X90462038Y-33023667D01*
X90442619Y-33029769D01*
X90439635Y-33011319D01*
X90437081Y-32960323D01*
X90435140Y-32883308D01*
X90433997Y-32786805D01*
X90433769Y-32716184D01*
X90434932Y-32579525D01*
X90439479Y-32475851D01*
X90448999Y-32399108D01*
X90465081Y-32343246D01*
X90489313Y-32302212D01*
X90523286Y-32269954D01*
X90556833Y-32247440D01*
X90637499Y-32217476D01*
X90731381Y-32210718D01*
X90819807Y-32227782D01*
G37*
X90819807Y-32227782D02*
X90843161Y-32237988D01*
X90898902Y-32282134D01*
X90946569Y-32345967D01*
X90976048Y-32414087D01*
X90980846Y-32447670D01*
X90964760Y-32494556D01*
X90929475Y-32519365D01*
X90891644Y-32534387D01*
X90874321Y-32537155D01*
X90865886Y-32517066D01*
X90849230Y-32473351D01*
X90841923Y-32453598D01*
X90800948Y-32385271D01*
X90741622Y-32351191D01*
X90665552Y-32352239D01*
X90659918Y-32353581D01*
X90619305Y-32372836D01*
X90589448Y-32410375D01*
X90569055Y-32470809D01*
X90556836Y-32558751D01*
X90551500Y-32678813D01*
X90551000Y-32742698D01*
X90550752Y-32843403D01*
X90549126Y-32912054D01*
X90544801Y-32955673D01*
X90536454Y-32981282D01*
X90522765Y-32995903D01*
X90502411Y-33006558D01*
X90501234Y-33007095D01*
X90462038Y-33023667D01*
X90442619Y-33029769D01*
X90439635Y-33011319D01*
X90437081Y-32960323D01*
X90435140Y-32883308D01*
X90433997Y-32786805D01*
X90433769Y-32716184D01*
X90434932Y-32579525D01*
X90439479Y-32475851D01*
X90448999Y-32399108D01*
X90465081Y-32343246D01*
X90489313Y-32302212D01*
X90523286Y-32269954D01*
X90556833Y-32247440D01*
X90637499Y-32217476D01*
X90731381Y-32210718D01*
X90819807Y-32227782D01*
G36*
X91494224Y-32238838D02*
G01*
X91571528Y-32289361D01*
X91608814Y-32334590D01*
X91638353Y-32416663D01*
X91640699Y-32481607D01*
X91635385Y-32568445D01*
X91435115Y-32656103D01*
X91337739Y-32700887D01*
X91274113Y-32736913D01*
X91241029Y-32768117D01*
X91235280Y-32798436D01*
X91253658Y-32831805D01*
X91273923Y-32853923D01*
X91332889Y-32889393D01*
X91397024Y-32891879D01*
X91455926Y-32864235D01*
X91499197Y-32809320D01*
X91506936Y-32789928D01*
X91544006Y-32729364D01*
X91586654Y-32703552D01*
X91645154Y-32681471D01*
X91645154Y-32765184D01*
X91639982Y-32822150D01*
X91619723Y-32870189D01*
X91577262Y-32925346D01*
X91570951Y-32932514D01*
X91523720Y-32981585D01*
X91483121Y-33007920D01*
X91432328Y-33020035D01*
X91390220Y-33024003D01*
X91314902Y-33024991D01*
X91261286Y-33012466D01*
X91227838Y-32993869D01*
X91175268Y-32952975D01*
X91138879Y-32908748D01*
X91115850Y-32853126D01*
X91103359Y-32778047D01*
X91098587Y-32675449D01*
X91098206Y-32623376D01*
X91099501Y-32560948D01*
X91217471Y-32560948D01*
X91218839Y-32594438D01*
X91222249Y-32599923D01*
X91244753Y-32592472D01*
X91293182Y-32572753D01*
X91357908Y-32544718D01*
X91371443Y-32538692D01*
X91453244Y-32497096D01*
X91498312Y-32460538D01*
X91508217Y-32426296D01*
X91484526Y-32391648D01*
X91464960Y-32376339D01*
X91394360Y-32345721D01*
X91328280Y-32350780D01*
X91272959Y-32388151D01*
X91234636Y-32454473D01*
X91222349Y-32507116D01*
X91217471Y-32560948D01*
X91099501Y-32560948D01*
X91100730Y-32501720D01*
X91110032Y-32411710D01*
X91128460Y-32346167D01*
X91158360Y-32297912D01*
X91202080Y-32259767D01*
X91221141Y-32247440D01*
X91307726Y-32215336D01*
X91402522Y-32213316D01*
X91494224Y-32238838D01*
G37*
X91494224Y-32238838D02*
X91571528Y-32289361D01*
X91608814Y-32334590D01*
X91638353Y-32416663D01*
X91640699Y-32481607D01*
X91635385Y-32568445D01*
X91435115Y-32656103D01*
X91337739Y-32700887D01*
X91274113Y-32736913D01*
X91241029Y-32768117D01*
X91235280Y-32798436D01*
X91253658Y-32831805D01*
X91273923Y-32853923D01*
X91332889Y-32889393D01*
X91397024Y-32891879D01*
X91455926Y-32864235D01*
X91499197Y-32809320D01*
X91506936Y-32789928D01*
X91544006Y-32729364D01*
X91586654Y-32703552D01*
X91645154Y-32681471D01*
X91645154Y-32765184D01*
X91639982Y-32822150D01*
X91619723Y-32870189D01*
X91577262Y-32925346D01*
X91570951Y-32932514D01*
X91523720Y-32981585D01*
X91483121Y-33007920D01*
X91432328Y-33020035D01*
X91390220Y-33024003D01*
X91314902Y-33024991D01*
X91261286Y-33012466D01*
X91227838Y-32993869D01*
X91175268Y-32952975D01*
X91138879Y-32908748D01*
X91115850Y-32853126D01*
X91103359Y-32778047D01*
X91098587Y-32675449D01*
X91098206Y-32623376D01*
X91099501Y-32560948D01*
X91217471Y-32560948D01*
X91218839Y-32594438D01*
X91222249Y-32599923D01*
X91244753Y-32592472D01*
X91293182Y-32572753D01*
X91357908Y-32544718D01*
X91371443Y-32538692D01*
X91453244Y-32497096D01*
X91498312Y-32460538D01*
X91508217Y-32426296D01*
X91484526Y-32391648D01*
X91464960Y-32376339D01*
X91394360Y-32345721D01*
X91328280Y-32350780D01*
X91272959Y-32388151D01*
X91234636Y-32454473D01*
X91222349Y-32507116D01*
X91217471Y-32560948D01*
X91099501Y-32560948D01*
X91100730Y-32501720D01*
X91110032Y-32411710D01*
X91128460Y-32346167D01*
X91158360Y-32297912D01*
X91202080Y-32259767D01*
X91221141Y-32247440D01*
X91307726Y-32215336D01*
X91402522Y-32213316D01*
X91494224Y-32238838D01*
G36*
X87388878Y-25878776D02*
G01*
X87494612Y-25879355D01*
X87571132Y-25880922D01*
X87623372Y-25883972D01*
X87656263Y-25888996D01*
X87674737Y-25896489D01*
X87683727Y-25906944D01*
X87688163Y-25920853D01*
X87688594Y-25922654D01*
X87695333Y-25955145D01*
X87707808Y-26019252D01*
X87724719Y-26108151D01*
X87744771Y-26215019D01*
X87766664Y-26333033D01*
X87767429Y-26337178D01*
X87789359Y-26452831D01*
X87809877Y-26555014D01*
X87827659Y-26637598D01*
X87841381Y-26694456D01*
X87849718Y-26719458D01*
X87850116Y-26719901D01*
X87874677Y-26732110D01*
X87925315Y-26752456D01*
X87991095Y-26776545D01*
X87991461Y-26776674D01*
X88074317Y-26807818D01*
X88172000Y-26847491D01*
X88264077Y-26887381D01*
X88268434Y-26889353D01*
X88418407Y-26957420D01*
X88750498Y-26730639D01*
X88852374Y-26661504D01*
X88944657Y-26599697D01*
X89022003Y-26548733D01*
X89079064Y-26512127D01*
X89110495Y-26493394D01*
X89113479Y-26492004D01*
X89136321Y-26498190D01*
X89178982Y-26528035D01*
X89243128Y-26582947D01*
X89330421Y-26664334D01*
X89419535Y-26750922D01*
X89505441Y-26836247D01*
X89582327Y-26914108D01*
X89645564Y-26979697D01*
X89690523Y-27028205D01*
X89712576Y-27054825D01*
X89713396Y-27056195D01*
X89715834Y-27074463D01*
X89706650Y-27104295D01*
X89683574Y-27149721D01*
X89644337Y-27214770D01*
X89586670Y-27303470D01*
X89509795Y-27417657D01*
X89441570Y-27518162D01*
X89380582Y-27608303D01*
X89330356Y-27682849D01*
X89294416Y-27736565D01*
X89276287Y-27764218D01*
X89275146Y-27766095D01*
X89277359Y-27792590D01*
X89294138Y-27844086D01*
X89322142Y-27910851D01*
X89332122Y-27932172D01*
X89375672Y-28027159D01*
X89422134Y-28134937D01*
X89459877Y-28228192D01*
X89487073Y-28297406D01*
X89508675Y-28350006D01*
X89521158Y-28377497D01*
X89522709Y-28379616D01*
X89545668Y-28383124D01*
X89599786Y-28392738D01*
X89677868Y-28407089D01*
X89772719Y-28424807D01*
X89877143Y-28444525D01*
X89983944Y-28464874D01*
X90085926Y-28484486D01*
X90175894Y-28501991D01*
X90246653Y-28516022D01*
X90291006Y-28525209D01*
X90301885Y-28527807D01*
X90313122Y-28534218D01*
X90321605Y-28548697D01*
X90327714Y-28576133D01*
X90331832Y-28621411D01*
X90334341Y-28689420D01*
X90335621Y-28785047D01*
X90336054Y-28913180D01*
X90336077Y-28965701D01*
X90336077Y-29392845D01*
X90233500Y-29413091D01*
X90176431Y-29424070D01*
X90091269Y-29440095D01*
X89988372Y-29459233D01*
X89878096Y-29479551D01*
X89847615Y-29485132D01*
X89745855Y-29504917D01*
X89657205Y-29524373D01*
X89589108Y-29541697D01*
X89549004Y-29555088D01*
X89542323Y-29559079D01*
X89525919Y-29587342D01*
X89502399Y-29642109D01*
X89476316Y-29712588D01*
X89471142Y-29727769D01*
X89436956Y-29821896D01*
X89394523Y-29928101D01*
X89352997Y-30023473D01*
X89352792Y-30023916D01*
X89283640Y-30173525D01*
X89738512Y-30842617D01*
X89446500Y-31135116D01*
X89358180Y-31222170D01*
X89277625Y-31298909D01*
X89209360Y-31361237D01*
X89157908Y-31405056D01*
X89127794Y-31426270D01*
X89123474Y-31427616D01*
X89098111Y-31417016D01*
X89046358Y-31387547D01*
X88973868Y-31342705D01*
X88886294Y-31285984D01*
X88791612Y-31222462D01*
X88695516Y-31157668D01*
X88609837Y-31101287D01*
X88540016Y-31056788D01*
X88491494Y-31027639D01*
X88469782Y-31017308D01*
X88443293Y-31026050D01*
X88393062Y-31049087D01*
X88329451Y-31081631D01*
X88322708Y-31085249D01*
X88237046Y-31128210D01*
X88178306Y-31149279D01*
X88141772Y-31149503D01*
X88122731Y-31129928D01*
X88122620Y-31129654D01*
X88113102Y-31106472D01*
X88090403Y-31051441D01*
X88056282Y-30968822D01*
X88012500Y-30862872D01*
X87960816Y-30737852D01*
X87902992Y-30598020D01*
X87846991Y-30462637D01*
X87785447Y-30313234D01*
X87728939Y-30174832D01*
X87679161Y-30051673D01*
X87637806Y-29948002D01*
X87606568Y-29868059D01*
X87587141Y-29816088D01*
X87581154Y-29796692D01*
X87596168Y-29774443D01*
X87635439Y-29738982D01*
X87687807Y-29699887D01*
X87836941Y-29576245D01*
X87953511Y-29434522D01*
X88036118Y-29277704D01*
X88083366Y-29108775D01*
X88093857Y-28930722D01*
X88086231Y-28848539D01*
X88044682Y-28678031D01*
X87973123Y-28527459D01*
X87875995Y-28398309D01*
X87757734Y-28292064D01*
X87622780Y-28210210D01*
X87475571Y-28154232D01*
X87320544Y-28125615D01*
X87162139Y-28125844D01*
X87004794Y-28156405D01*
X86852946Y-28218782D01*
X86711035Y-28314460D01*
X86651803Y-28368572D01*
X86538203Y-28507520D01*
X86459106Y-28659361D01*
X86413986Y-28819667D01*
X86402316Y-28984012D01*
X86423569Y-29147971D01*
X86477220Y-29307118D01*
X86562740Y-29457025D01*
X86679605Y-29593267D01*
X86810193Y-29699887D01*
X86864588Y-29740642D01*
X86903014Y-29775718D01*
X86916846Y-29796726D01*
X86909603Y-29819635D01*
X86889005Y-29874365D01*
X86856746Y-29956672D01*
X86814521Y-30062315D01*
X86764023Y-30187050D01*
X86706948Y-30326636D01*
X86650854Y-30462670D01*
X86588967Y-30612201D01*
X86531644Y-30750767D01*
X86480644Y-30874107D01*
X86437727Y-30977964D01*
X86404653Y-31058080D01*
X86383181Y-31110195D01*
X86375225Y-31129654D01*
X86356429Y-31149423D01*
X86320074Y-31149365D01*
X86261479Y-31128441D01*
X86175968Y-31085613D01*
X86175292Y-31085249D01*
X86110907Y-31052012D01*
X86058861Y-31027802D01*
X86029512Y-31017404D01*
X86028217Y-31017308D01*
X86006124Y-31027855D01*
X85957348Y-31057184D01*
X85887331Y-31101827D01*
X85801514Y-31158314D01*
X85706388Y-31222462D01*
X85609540Y-31287411D01*
X85522253Y-31343896D01*
X85450181Y-31388421D01*
X85398977Y-31417490D01*
X85374526Y-31427616D01*
X85352010Y-31414307D01*
X85306742Y-31377112D01*
X85243244Y-31320128D01*
X85166039Y-31247449D01*
X85079651Y-31163171D01*
X85051399Y-31135016D01*
X84759287Y-30842416D01*
X84981631Y-30516104D01*
X85049202Y-30415897D01*
X85108507Y-30325963D01*
X85156217Y-30251510D01*
X85189007Y-30197751D01*
X85203548Y-30169894D01*
X85203974Y-30167912D01*
X85196308Y-30141655D01*
X85175689Y-30088837D01*
X85145685Y-30018310D01*
X85124625Y-29971093D01*
X85085248Y-29880694D01*
X85048165Y-29789366D01*
X85019415Y-29712200D01*
X85011605Y-29688692D01*
X84989417Y-29625916D01*
X84967727Y-29577411D01*
X84955813Y-29559079D01*
X84929523Y-29547859D01*
X84872142Y-29531954D01*
X84791118Y-29513167D01*
X84693895Y-29493299D01*
X84650385Y-29485132D01*
X84539896Y-29464829D01*
X84433916Y-29445170D01*
X84342801Y-29428088D01*
X84276908Y-29415518D01*
X84264500Y-29413091D01*
X84161923Y-29392845D01*
X84161923Y-28965701D01*
X84162153Y-28825246D01*
X84163099Y-28718979D01*
X84165141Y-28642013D01*
X84168662Y-28589460D01*
X84174043Y-28556433D01*
X84181666Y-28538045D01*
X84191912Y-28529408D01*
X84196115Y-28527807D01*
X84221470Y-28522127D01*
X84277484Y-28510795D01*
X84356964Y-28495179D01*
X84452712Y-28476647D01*
X84557533Y-28456569D01*
X84664232Y-28436312D01*
X84765613Y-28417246D01*
X84854479Y-28400739D01*
X84923637Y-28388159D01*
X84965889Y-28380875D01*
X84975290Y-28379616D01*
X84983807Y-28362763D01*
X85002660Y-28317870D01*
X85028324Y-28253430D01*
X85038123Y-28228192D01*
X85077648Y-28130686D01*
X85124192Y-28022959D01*
X85165877Y-27932172D01*
X85196550Y-27862753D01*
X85216956Y-27805710D01*
X85223768Y-27770777D01*
X85222682Y-27766095D01*
X85208285Y-27743991D01*
X85175412Y-27694831D01*
X85127590Y-27623848D01*
X85068348Y-27536278D01*
X85001215Y-27437357D01*
X84987941Y-27417830D01*
X84910046Y-27302140D01*
X84852787Y-27214044D01*
X84813881Y-27149486D01*
X84791044Y-27104411D01*
X84781994Y-27074763D01*
X84784448Y-27056485D01*
X84784511Y-27056369D01*
X84803827Y-27032361D01*
X84846551Y-26985947D01*
X84908051Y-26921937D01*
X84983698Y-26845145D01*
X85068861Y-26760382D01*
X85078465Y-26750922D01*
X85185790Y-26646989D01*
X85268615Y-26570675D01*
X85328605Y-26520571D01*
X85367423Y-26495270D01*
X85384520Y-26492004D01*
X85409473Y-26506250D01*
X85461255Y-26539156D01*
X85534520Y-26587208D01*
X85623920Y-26646890D01*
X85724111Y-26714688D01*
X85747501Y-26730639D01*
X86079593Y-26957420D01*
X86229565Y-26889353D01*
X86320770Y-26849685D01*
X86418669Y-26809791D01*
X86502831Y-26777983D01*
X86506538Y-26776674D01*
X86572369Y-26752576D01*
X86623116Y-26732200D01*
X86647842Y-26719936D01*
X86647884Y-26719901D01*
X86655729Y-26697734D01*
X86669066Y-26643217D01*
X86686570Y-26562480D01*
X86706917Y-26461650D01*
X86728782Y-26346856D01*
X86730571Y-26337178D01*
X86752504Y-26218904D01*
X86772640Y-26111542D01*
X86789680Y-26021917D01*
X86802328Y-25956851D01*
X86809284Y-25923168D01*
X86809406Y-25922654D01*
X86813639Y-25908325D01*
X86821871Y-25897507D01*
X86839033Y-25889706D01*
X86870058Y-25884429D01*
X86919878Y-25881182D01*
X86993424Y-25879472D01*
X87095629Y-25878807D01*
X87231425Y-25878693D01*
X87249000Y-25878692D01*
X87388878Y-25878776D01*
G37*
X87388878Y-25878776D02*
X87494612Y-25879355D01*
X87571132Y-25880922D01*
X87623372Y-25883972D01*
X87656263Y-25888996D01*
X87674737Y-25896489D01*
X87683727Y-25906944D01*
X87688163Y-25920853D01*
X87688594Y-25922654D01*
X87695333Y-25955145D01*
X87707808Y-26019252D01*
X87724719Y-26108151D01*
X87744771Y-26215019D01*
X87766664Y-26333033D01*
X87767429Y-26337178D01*
X87789359Y-26452831D01*
X87809877Y-26555014D01*
X87827659Y-26637598D01*
X87841381Y-26694456D01*
X87849718Y-26719458D01*
X87850116Y-26719901D01*
X87874677Y-26732110D01*
X87925315Y-26752456D01*
X87991095Y-26776545D01*
X87991461Y-26776674D01*
X88074317Y-26807818D01*
X88172000Y-26847491D01*
X88264077Y-26887381D01*
X88268434Y-26889353D01*
X88418407Y-26957420D01*
X88750498Y-26730639D01*
X88852374Y-26661504D01*
X88944657Y-26599697D01*
X89022003Y-26548733D01*
X89079064Y-26512127D01*
X89110495Y-26493394D01*
X89113479Y-26492004D01*
X89136321Y-26498190D01*
X89178982Y-26528035D01*
X89243128Y-26582947D01*
X89330421Y-26664334D01*
X89419535Y-26750922D01*
X89505441Y-26836247D01*
X89582327Y-26914108D01*
X89645564Y-26979697D01*
X89690523Y-27028205D01*
X89712576Y-27054825D01*
X89713396Y-27056195D01*
X89715834Y-27074463D01*
X89706650Y-27104295D01*
X89683574Y-27149721D01*
X89644337Y-27214770D01*
X89586670Y-27303470D01*
X89509795Y-27417657D01*
X89441570Y-27518162D01*
X89380582Y-27608303D01*
X89330356Y-27682849D01*
X89294416Y-27736565D01*
X89276287Y-27764218D01*
X89275146Y-27766095D01*
X89277359Y-27792590D01*
X89294138Y-27844086D01*
X89322142Y-27910851D01*
X89332122Y-27932172D01*
X89375672Y-28027159D01*
X89422134Y-28134937D01*
X89459877Y-28228192D01*
X89487073Y-28297406D01*
X89508675Y-28350006D01*
X89521158Y-28377497D01*
X89522709Y-28379616D01*
X89545668Y-28383124D01*
X89599786Y-28392738D01*
X89677868Y-28407089D01*
X89772719Y-28424807D01*
X89877143Y-28444525D01*
X89983944Y-28464874D01*
X90085926Y-28484486D01*
X90175894Y-28501991D01*
X90246653Y-28516022D01*
X90291006Y-28525209D01*
X90301885Y-28527807D01*
X90313122Y-28534218D01*
X90321605Y-28548697D01*
X90327714Y-28576133D01*
X90331832Y-28621411D01*
X90334341Y-28689420D01*
X90335621Y-28785047D01*
X90336054Y-28913180D01*
X90336077Y-28965701D01*
X90336077Y-29392845D01*
X90233500Y-29413091D01*
X90176431Y-29424070D01*
X90091269Y-29440095D01*
X89988372Y-29459233D01*
X89878096Y-29479551D01*
X89847615Y-29485132D01*
X89745855Y-29504917D01*
X89657205Y-29524373D01*
X89589108Y-29541697D01*
X89549004Y-29555088D01*
X89542323Y-29559079D01*
X89525919Y-29587342D01*
X89502399Y-29642109D01*
X89476316Y-29712588D01*
X89471142Y-29727769D01*
X89436956Y-29821896D01*
X89394523Y-29928101D01*
X89352997Y-30023473D01*
X89352792Y-30023916D01*
X89283640Y-30173525D01*
X89738512Y-30842617D01*
X89446500Y-31135116D01*
X89358180Y-31222170D01*
X89277625Y-31298909D01*
X89209360Y-31361237D01*
X89157908Y-31405056D01*
X89127794Y-31426270D01*
X89123474Y-31427616D01*
X89098111Y-31417016D01*
X89046358Y-31387547D01*
X88973868Y-31342705D01*
X88886294Y-31285984D01*
X88791612Y-31222462D01*
X88695516Y-31157668D01*
X88609837Y-31101287D01*
X88540016Y-31056788D01*
X88491494Y-31027639D01*
X88469782Y-31017308D01*
X88443293Y-31026050D01*
X88393062Y-31049087D01*
X88329451Y-31081631D01*
X88322708Y-31085249D01*
X88237046Y-31128210D01*
X88178306Y-31149279D01*
X88141772Y-31149503D01*
X88122731Y-31129928D01*
X88122620Y-31129654D01*
X88113102Y-31106472D01*
X88090403Y-31051441D01*
X88056282Y-30968822D01*
X88012500Y-30862872D01*
X87960816Y-30737852D01*
X87902992Y-30598020D01*
X87846991Y-30462637D01*
X87785447Y-30313234D01*
X87728939Y-30174832D01*
X87679161Y-30051673D01*
X87637806Y-29948002D01*
X87606568Y-29868059D01*
X87587141Y-29816088D01*
X87581154Y-29796692D01*
X87596168Y-29774443D01*
X87635439Y-29738982D01*
X87687807Y-29699887D01*
X87836941Y-29576245D01*
X87953511Y-29434522D01*
X88036118Y-29277704D01*
X88083366Y-29108775D01*
X88093857Y-28930722D01*
X88086231Y-28848539D01*
X88044682Y-28678031D01*
X87973123Y-28527459D01*
X87875995Y-28398309D01*
X87757734Y-28292064D01*
X87622780Y-28210210D01*
X87475571Y-28154232D01*
X87320544Y-28125615D01*
X87162139Y-28125844D01*
X87004794Y-28156405D01*
X86852946Y-28218782D01*
X86711035Y-28314460D01*
X86651803Y-28368572D01*
X86538203Y-28507520D01*
X86459106Y-28659361D01*
X86413986Y-28819667D01*
X86402316Y-28984012D01*
X86423569Y-29147971D01*
X86477220Y-29307118D01*
X86562740Y-29457025D01*
X86679605Y-29593267D01*
X86810193Y-29699887D01*
X86864588Y-29740642D01*
X86903014Y-29775718D01*
X86916846Y-29796726D01*
X86909603Y-29819635D01*
X86889005Y-29874365D01*
X86856746Y-29956672D01*
X86814521Y-30062315D01*
X86764023Y-30187050D01*
X86706948Y-30326636D01*
X86650854Y-30462670D01*
X86588967Y-30612201D01*
X86531644Y-30750767D01*
X86480644Y-30874107D01*
X86437727Y-30977964D01*
X86404653Y-31058080D01*
X86383181Y-31110195D01*
X86375225Y-31129654D01*
X86356429Y-31149423D01*
X86320074Y-31149365D01*
X86261479Y-31128441D01*
X86175968Y-31085613D01*
X86175292Y-31085249D01*
X86110907Y-31052012D01*
X86058861Y-31027802D01*
X86029512Y-31017404D01*
X86028217Y-31017308D01*
X86006124Y-31027855D01*
X85957348Y-31057184D01*
X85887331Y-31101827D01*
X85801514Y-31158314D01*
X85706388Y-31222462D01*
X85609540Y-31287411D01*
X85522253Y-31343896D01*
X85450181Y-31388421D01*
X85398977Y-31417490D01*
X85374526Y-31427616D01*
X85352010Y-31414307D01*
X85306742Y-31377112D01*
X85243244Y-31320128D01*
X85166039Y-31247449D01*
X85079651Y-31163171D01*
X85051399Y-31135016D01*
X84759287Y-30842416D01*
X84981631Y-30516104D01*
X85049202Y-30415897D01*
X85108507Y-30325963D01*
X85156217Y-30251510D01*
X85189007Y-30197751D01*
X85203548Y-30169894D01*
X85203974Y-30167912D01*
X85196308Y-30141655D01*
X85175689Y-30088837D01*
X85145685Y-30018310D01*
X85124625Y-29971093D01*
X85085248Y-29880694D01*
X85048165Y-29789366D01*
X85019415Y-29712200D01*
X85011605Y-29688692D01*
X84989417Y-29625916D01*
X84967727Y-29577411D01*
X84955813Y-29559079D01*
X84929523Y-29547859D01*
X84872142Y-29531954D01*
X84791118Y-29513167D01*
X84693895Y-29493299D01*
X84650385Y-29485132D01*
X84539896Y-29464829D01*
X84433916Y-29445170D01*
X84342801Y-29428088D01*
X84276908Y-29415518D01*
X84264500Y-29413091D01*
X84161923Y-29392845D01*
X84161923Y-28965701D01*
X84162153Y-28825246D01*
X84163099Y-28718979D01*
X84165141Y-28642013D01*
X84168662Y-28589460D01*
X84174043Y-28556433D01*
X84181666Y-28538045D01*
X84191912Y-28529408D01*
X84196115Y-28527807D01*
X84221470Y-28522127D01*
X84277484Y-28510795D01*
X84356964Y-28495179D01*
X84452712Y-28476647D01*
X84557533Y-28456569D01*
X84664232Y-28436312D01*
X84765613Y-28417246D01*
X84854479Y-28400739D01*
X84923637Y-28388159D01*
X84965889Y-28380875D01*
X84975290Y-28379616D01*
X84983807Y-28362763D01*
X85002660Y-28317870D01*
X85028324Y-28253430D01*
X85038123Y-28228192D01*
X85077648Y-28130686D01*
X85124192Y-28022959D01*
X85165877Y-27932172D01*
X85196550Y-27862753D01*
X85216956Y-27805710D01*
X85223768Y-27770777D01*
X85222682Y-27766095D01*
X85208285Y-27743991D01*
X85175412Y-27694831D01*
X85127590Y-27623848D01*
X85068348Y-27536278D01*
X85001215Y-27437357D01*
X84987941Y-27417830D01*
X84910046Y-27302140D01*
X84852787Y-27214044D01*
X84813881Y-27149486D01*
X84791044Y-27104411D01*
X84781994Y-27074763D01*
X84784448Y-27056485D01*
X84784511Y-27056369D01*
X84803827Y-27032361D01*
X84846551Y-26985947D01*
X84908051Y-26921937D01*
X84983698Y-26845145D01*
X85068861Y-26760382D01*
X85078465Y-26750922D01*
X85185790Y-26646989D01*
X85268615Y-26570675D01*
X85328605Y-26520571D01*
X85367423Y-26495270D01*
X85384520Y-26492004D01*
X85409473Y-26506250D01*
X85461255Y-26539156D01*
X85534520Y-26587208D01*
X85623920Y-26646890D01*
X85724111Y-26714688D01*
X85747501Y-26730639D01*
X86079593Y-26957420D01*
X86229565Y-26889353D01*
X86320770Y-26849685D01*
X86418669Y-26809791D01*
X86502831Y-26777983D01*
X86506538Y-26776674D01*
X86572369Y-26752576D01*
X86623116Y-26732200D01*
X86647842Y-26719936D01*
X86647884Y-26719901D01*
X86655729Y-26697734D01*
X86669066Y-26643217D01*
X86686570Y-26562480D01*
X86706917Y-26461650D01*
X86728782Y-26346856D01*
X86730571Y-26337178D01*
X86752504Y-26218904D01*
X86772640Y-26111542D01*
X86789680Y-26021917D01*
X86802328Y-25956851D01*
X86809284Y-25923168D01*
X86809406Y-25922654D01*
X86813639Y-25908325D01*
X86821871Y-25897507D01*
X86839033Y-25889706D01*
X86870058Y-25884429D01*
X86919878Y-25881182D01*
X86993424Y-25879472D01*
X87095629Y-25878807D01*
X87231425Y-25878693D01*
X87249000Y-25878692D01*
X87388878Y-25878776D01*
%TD*%
D12*
%TO.P,PS1,1*%
%TO.N,Net-(PS1-Pad1)*%
X73914000Y-54004000D03*
%TO.P,PS1,2*%
%TO.N,/+16V*%
X73914000Y-55704000D03*
%TO.P,PS1,3*%
%TO.N,GND*%
X73914000Y-57404000D03*
%TO.P,PS1,4*%
%TO.N,/+5\u002C1V*%
X73914000Y-59104000D03*
%TO.P,PS1,5*%
%TO.N,Net-(PS1-Pad5)*%
X73914000Y-60804000D03*
%TD*%
D13*
%TO.P,J4,2*%
%TO.N,Net-(D1-Pad2)*%
X33528000Y-33909000D03*
%TD*%
%TO.P,J3,1*%
%TO.N,Net-(F2-Pad1)*%
X33528000Y-46355000D03*
%TD*%
%TO.P,R2,2*%
%TO.N,Net-(D7-Pad2)*%
%TA.AperFunction,SMDPad,CuDef*%
G36*
G01*
X93134601Y-48207340D02*
X92234599Y-48207340D01*
G75*
G02*
X91984600Y-47957341I0J249999D01*
G01*
X91984600Y-47257339D01*
G75*
G02*
X92234599Y-47007340I249999J0D01*
G01*
X93134601Y-47007340D01*
G75*
G02*
X93384600Y-47257339I0J-249999D01*
G01*
X93384600Y-47957341D01*
G75*
G02*
X93134601Y-48207340I-249999J0D01*
G01*
G37*
%TD.AperFunction*%
%TO.P,R2,1*%
%TO.N,/+5\u002C1V*%
%TA.AperFunction,SMDPad,CuDef*%
G36*
G01*
X93134601Y-50207340D02*
X92234599Y-50207340D01*
G75*
G02*
X91984600Y-49957341I0J249999D01*
G01*
X91984600Y-49257339D01*
G75*
G02*
X92234599Y-49007340I249999J0D01*
G01*
X93134601Y-49007340D01*
G75*
G02*
X93384600Y-49257339I0J-249999D01*
G01*
X93384600Y-49957341D01*
G75*
G02*
X93134601Y-50207340I-249999J0D01*
G01*
G37*
%TD.AperFunction*%
%TD*%
%TO.P,D7,2*%
%TO.N,Net-(D7-Pad2)*%
%TA.AperFunction,SMDPad,CuDef*%
G36*
G01*
X91609600Y-44847000D02*
X93759600Y-44847000D01*
G75*
G02*
X94009600Y-45097000I0J-250000D01*
G01*
X94009600Y-46022000D01*
G75*
G02*
X93759600Y-46272000I-250000J0D01*
G01*
X91609600Y-46272000D01*
G75*
G02*
X91359600Y-46022000I0J250000D01*
G01*
X91359600Y-45097000D01*
G75*
G02*
X91609600Y-44847000I250000J0D01*
G01*
G37*
%TD.AperFunction*%
%TO.P,D7,1*%
%TO.N,GND*%
%TA.AperFunction,SMDPad,CuDef*%
G36*
G01*
X91609600Y-41872000D02*
X93759600Y-41872000D01*
G75*
G02*
X94009600Y-42122000I0J-250000D01*
G01*
X94009600Y-43047000D01*
G75*
G02*
X93759600Y-43297000I-250000J0D01*
G01*
X91609600Y-43297000D01*
G75*
G02*
X91359600Y-43047000I0J250000D01*
G01*
X91359600Y-42122000D01*
G75*
G02*
X91609600Y-41872000I250000J0D01*
G01*
G37*
%TD.AperFunction*%
%TD*%
D14*
%TO.P,U0,3*%
%TO.N,Net-(U0-Pad3)*%
X63754000Y-74803000D03*
%TO.P,U0,2*%
%TO.N,Net-(U0-Pad2)*%
X61214000Y-74803000D03*
D15*
%TO.P,U0,1*%
%TO.N,Net-(U0-Pad1)*%
X58674000Y-74803000D03*
%TD*%
D16*
%TO.P,J1,2*%
%TO.N,Net-(F2-Pad1)*%
X40005000Y-74930000D03*
D17*
%TO.P,J1,1*%
%TO.N,Net-(D2-Pad2)*%
X42545000Y-74930000D03*
%TD*%
D13*
%TO.P,F2,2*%
%TO.N,Net-(D1-Pad2)*%
X33528000Y-28935000D03*
%TO.P,F2,1*%
%TO.N,Net-(F2-Pad1)*%
X33528000Y-51435000D03*
%TD*%
D18*
%TO.P,RV1,3*%
%TO.N,Net-(PS1-Pad5)*%
X79375000Y-59690000D03*
%TO.P,RV1,2*%
%TO.N,GND*%
X81915000Y-57150000D03*
%TO.P,RV1,1*%
X79375000Y-54610000D03*
%TD*%
D19*
%TO.P,R1,2*%
%TO.N,GND*%
X81915000Y-53340000D03*
D20*
%TO.P,R1,1*%
%TO.N,Net-(PS1-Pad5)*%
X81915000Y-60960000D03*
%TD*%
D16*
%TO.P,J2,2*%
%TO.N,GND*%
X85090000Y-74930000D03*
D17*
%TO.P,J2,1*%
%TO.N,/+5\u002C1V*%
X82550000Y-74930000D03*
%TD*%
D21*
%TO.P,D4,2*%
%TO.N,GND*%
X67310000Y-62230000D03*
D22*
%TO.P,D4,1*%
%TO.N,Net-(D2-Pad2)*%
X52070000Y-62230000D03*
%TD*%
D21*
%TO.P,D3,2*%
%TO.N,GND*%
X67310000Y-56515000D03*
D23*
%TO.P,D3,1*%
%TO.N,Net-(D1-Pad2)*%
X52070000Y-56515000D03*
%TD*%
D21*
%TO.P,D2,2*%
%TO.N,Net-(D2-Pad2)*%
X48260000Y-62230000D03*
D22*
%TO.P,D2,1*%
%TO.N,/+16V*%
X33020000Y-62230000D03*
%TD*%
D24*
%TO.P,D1,2*%
%TO.N,Net-(D1-Pad2)*%
X48260000Y-56515000D03*
D22*
%TO.P,D1,1*%
%TO.N,/+16V*%
X33020000Y-56515000D03*
%TD*%
D25*
%TO.P,C6,2*%
%TO.N,GND*%
X92710000Y-62865000D03*
D26*
%TO.P,C6,1*%
%TO.N,/+5\u002C1V*%
X85210000Y-62865000D03*
%TD*%
D25*
%TO.P,C5,2*%
%TO.N,GND*%
X92710000Y-57785000D03*
D26*
%TO.P,C5,1*%
%TO.N,/+5\u002C1V*%
X85210000Y-57785000D03*
%TD*%
D25*
%TO.P,C4,2*%
%TO.N,GND*%
X92710000Y-52705000D03*
D26*
%TO.P,C4,1*%
%TO.N,/+5\u002C1V*%
X85210000Y-52705000D03*
%TD*%
D27*
%TO.P,C1,2*%
%TO.N,GND*%
X92710000Y-40005000D03*
D28*
%TO.P,C1,1*%
%TO.N,/+16V*%
X40710000Y-40005000D03*
%TD*%
D29*
%TO.N,GND*%
X67310000Y-40030400D02*
X67335400Y-40005000D01*
D30*
X81915000Y-57150000D02*
X81915000Y-53340000D01*
D31*
X67310000Y-40030400D02*
X92684600Y-40030400D01*
X67310000Y-56515000D02*
X67310000Y-40030400D01*
D29*
X92684600Y-40030400D02*
X92710000Y-40005000D01*
X92684600Y-42672000D02*
X92684600Y-40030400D01*
D31*
%TO.N,Net-(D1-Pad2)*%
X33528000Y-33909000D02*
X33528000Y-28935000D01*
D29*
X48156500Y-51284500D02*
X48260000Y-51181000D01*
D31*
X48260000Y-51181000D02*
X48260000Y-56515000D01*
X48260000Y-33909000D02*
X48260000Y-51181000D01*
X33528000Y-33909000D02*
X48260000Y-33909000D01*
D29*
X33478000Y-33959000D02*
X33528000Y-33909000D01*
D31*
%TO.N,Net-(F2-Pad1)*%
X33528000Y-46355000D02*
X33528000Y-51435000D01*
D29*
X33016200Y-46351200D02*
X33020000Y-46355000D01*
%TO.N,Net-(D7-Pad2)*%
X92684600Y-47694840D02*
X92684600Y-45472000D01*
%TO.N,/+5\u002C1V*%
X85220800Y-52694200D02*
X85210000Y-52705000D01*
X92682060Y-49517300D02*
X92684600Y-49519840D01*
X85217000Y-49517300D02*
X92682060Y-49517300D01*
X85217000Y-52698000D02*
X85217000Y-49517300D01*
X85210000Y-52705000D02*
X85217000Y-52698000D01*
D32*
%TO.N,/+16V*%
X33020000Y-56515000D02*
X40640000Y-56515000D01*
D29*
X40640000Y-40075000D02*
X40710000Y-40005000D01*
D32*
X40640000Y-56515000D02*
X40640000Y-40075000D01*
%TD*%
M02*
