%FSLAX45Y45*%
G04 Gerber Fmt 4.5, Leading zero omitted, Abs format (unit mm)*
G04 Created by KiCad (PCBNEW 5.1.8-5.1.8) date 2023-07-26 00:19:24*
%MOMM*%
%LPD*%
G01*
G04 APERTURE LIST*
%TA.AperFunction,Profile*%
%ADD10C,0.050000*%
%TD*%
%ADD11C,0.200000*%
%ADD12C,0.300000*%
G04 APERTURE END LIST*
D10*
X2540000Y-7874000D02*
X2540000Y-2540000D01*
X9588500Y-7874000D02*
X2540000Y-7874000D01*
X9588500Y-2540000D02*
X9588500Y-7874000D01*
X2540000Y-2540000D02*
X9588500Y-2540000D01*
D11*
X8156500Y-5299000D02*
X8226500Y-5369000D01*
X8226500Y-5299000D02*
X8156500Y-5369000D01*
X8156500Y-6061000D02*
X8226500Y-6131000D01*
X8226500Y-6061000D02*
X8156500Y-6131000D01*
X7977500Y-5969000D02*
G75*
G03*
X7977500Y-5969000I-40000J0D01*
G01*
X8231500Y-5715000D02*
G75*
G03*
X8231500Y-5715000I-40000J0D01*
G01*
X8561000Y-6286500D02*
G75*
G03*
X8561000Y-6286500I-40000J0D01*
G01*
X8561000Y-5270500D02*
G75*
G03*
X8561000Y-5270500I-40000J0D01*
G01*
X9311000Y-5270500D02*
G75*
G03*
X9311000Y-5270500I-40000J0D01*
G01*
X8561000Y-5778500D02*
G75*
G03*
X8561000Y-5778500I-40000J0D01*
G01*
X9311000Y-5778500D02*
G75*
G03*
X9311000Y-5778500I-40000J0D01*
G01*
X7977500Y-5461000D02*
G75*
G03*
X7977500Y-5461000I-40000J0D01*
G01*
X9311000Y-6286500D02*
G75*
G03*
X9311000Y-6286500I-40000J0D01*
G01*
X8255000Y-7443000D02*
X8255000Y-7543000D01*
X8205000Y-7493000D02*
X8305000Y-7493000D01*
X8509000Y-7443000D02*
X8509000Y-7543000D01*
X8459000Y-7493000D02*
X8559000Y-7493000D01*
X4000500Y-7443000D02*
X4000500Y-7543000D01*
X3950500Y-7493000D02*
X4050500Y-7493000D01*
X4254500Y-7443000D02*
X4254500Y-7543000D01*
X4204500Y-7493000D02*
X4304500Y-7493000D01*
X7428523Y-5437524D02*
X7428523Y-5363277D01*
X7354276Y-5363277D01*
X7354276Y-5437524D01*
X7428523Y-5437524D01*
X7428523Y-5607523D02*
X7428523Y-5533277D01*
X7354276Y-5533277D01*
X7354276Y-5607523D01*
X7428523Y-5607523D01*
X7428523Y-5777523D02*
X7428523Y-5703276D01*
X7354276Y-5703276D01*
X7354276Y-5777523D01*
X7428523Y-5777523D01*
X7428523Y-5947523D02*
X7428523Y-5873276D01*
X7354276Y-5873276D01*
X7354276Y-5947523D01*
X7428523Y-5947523D01*
X7428523Y-6117523D02*
X7428523Y-6043276D01*
X7354276Y-6043276D01*
X7354276Y-6117523D01*
X7428523Y-6117523D01*
X5867400Y-7535300D02*
X5922400Y-7480300D01*
X5867400Y-7425300D01*
X5812400Y-7480300D01*
X5867400Y-7535300D01*
X6121400Y-7535300D02*
X6176400Y-7480300D01*
X6121400Y-7425300D01*
X6066400Y-7480300D01*
X6121400Y-7535300D01*
X6375400Y-7535300D02*
X6430400Y-7480300D01*
X6375400Y-7425300D01*
X6320400Y-7480300D01*
X6375400Y-7535300D01*
X3287800Y-4570500D02*
X3417800Y-4700500D01*
X3417800Y-4570500D02*
X3287800Y-4700500D01*
X3417800Y-4635500D02*
G75*
G03*
X3417800Y-4635500I-65000J0D01*
G01*
X3287800Y-3325900D02*
X3417800Y-3455900D01*
X3417800Y-3325900D02*
X3287800Y-3455900D01*
X3417800Y-3390900D02*
G75*
G03*
X3417800Y-3390900I-65000J0D01*
G01*
X3287800Y-2828500D02*
X3417800Y-2958500D01*
X3417800Y-2828500D02*
X3287800Y-2958500D01*
X3417800Y-2893500D02*
G75*
G03*
X3417800Y-2893500I-65000J0D01*
G01*
X3287800Y-5078500D02*
X3417800Y-5208500D01*
X3417800Y-5078500D02*
X3287800Y-5208500D01*
X3417800Y-5143500D02*
G75*
G03*
X3417800Y-5143500I-65000J0D01*
G01*
X4001000Y-3930500D02*
X4141000Y-4070500D01*
X4141000Y-3930500D02*
X4001000Y-4070500D01*
X4071000Y-3930500D02*
X4071000Y-4070500D01*
X4001000Y-4000500D02*
X4141000Y-4000500D01*
X9201000Y-3930500D02*
X9341000Y-4070500D01*
X9341000Y-3930500D02*
X9201000Y-4070500D01*
X9271000Y-3930500D02*
X9271000Y-4070500D01*
X9201000Y-4000500D02*
X9341000Y-4000500D01*
X5127000Y-6143000D02*
X5287000Y-6303000D01*
X5287000Y-6143000D02*
X5127000Y-6303000D01*
X5263569Y-6279569D02*
X5263569Y-6166431D01*
X5150431Y-6166431D01*
X5150431Y-6279569D01*
X5263569Y-6279569D01*
X6651000Y-6143000D02*
X6811000Y-6303000D01*
X6811000Y-6143000D02*
X6651000Y-6303000D01*
X6787569Y-6279569D02*
X6787569Y-6166431D01*
X6674431Y-6166431D01*
X6674431Y-6279569D01*
X6787569Y-6279569D01*
X3222000Y-5571500D02*
X3382000Y-5731500D01*
X3382000Y-5571500D02*
X3222000Y-5731500D01*
X3358569Y-5708069D02*
X3358569Y-5594931D01*
X3245431Y-5594931D01*
X3245431Y-5708069D01*
X3358569Y-5708069D01*
X4746000Y-5571500D02*
X4906000Y-5731500D01*
X4906000Y-5571500D02*
X4746000Y-5731500D01*
X4882569Y-5708069D02*
X4882569Y-5594931D01*
X4769431Y-5594931D01*
X4769431Y-5708069D01*
X4882569Y-5708069D01*
X5127000Y-5571500D02*
X5287000Y-5731500D01*
X5287000Y-5571500D02*
X5127000Y-5731500D01*
X5263569Y-5708069D02*
X5263569Y-5594931D01*
X5150431Y-5594931D01*
X5150431Y-5708069D01*
X5263569Y-5708069D01*
X6651000Y-5571500D02*
X6811000Y-5731500D01*
X6811000Y-5571500D02*
X6651000Y-5731500D01*
X6787569Y-5708069D02*
X6787569Y-5594931D01*
X6674431Y-5594931D01*
X6674431Y-5708069D01*
X6787569Y-5708069D01*
X3222000Y-6143000D02*
X3382000Y-6303000D01*
X3382000Y-6143000D02*
X3222000Y-6303000D01*
X3358569Y-6279569D02*
X3358569Y-6166431D01*
X3245431Y-6166431D01*
X3245431Y-6279569D01*
X3358569Y-6279569D01*
X4746000Y-6143000D02*
X4906000Y-6303000D01*
X4906000Y-6143000D02*
X4746000Y-6303000D01*
X4882569Y-6279569D02*
X4882569Y-6166431D01*
X4769431Y-6166431D01*
X4769431Y-6279569D01*
X4882569Y-6279569D01*
D12*
X2823928Y-8342214D02*
X2823928Y-8042214D01*
X2895357Y-8042214D01*
X2938214Y-8056500D01*
X2966786Y-8085071D01*
X2981071Y-8113643D01*
X2995357Y-8170786D01*
X2995357Y-8213643D01*
X2981071Y-8270786D01*
X2966786Y-8299357D01*
X2938214Y-8327929D01*
X2895357Y-8342214D01*
X2823928Y-8342214D01*
X3123928Y-8342214D02*
X3123928Y-8142214D01*
X3123928Y-8199357D02*
X3138214Y-8170786D01*
X3152500Y-8156500D01*
X3181071Y-8142214D01*
X3209643Y-8142214D01*
X3309643Y-8342214D02*
X3309643Y-8142214D01*
X3309643Y-8042214D02*
X3295357Y-8056500D01*
X3309643Y-8070786D01*
X3323928Y-8056500D01*
X3309643Y-8042214D01*
X3309643Y-8070786D01*
X3495357Y-8342214D02*
X3466786Y-8327929D01*
X3452500Y-8299357D01*
X3452500Y-8042214D01*
X3652500Y-8342214D02*
X3623928Y-8327929D01*
X3609643Y-8299357D01*
X3609643Y-8042214D01*
X3995357Y-8342214D02*
X3995357Y-8042214D01*
X4095357Y-8256500D01*
X4195357Y-8042214D01*
X4195357Y-8342214D01*
X4466786Y-8342214D02*
X4466786Y-8185071D01*
X4452500Y-8156500D01*
X4423928Y-8142214D01*
X4366786Y-8142214D01*
X4338214Y-8156500D01*
X4466786Y-8327929D02*
X4438214Y-8342214D01*
X4366786Y-8342214D01*
X4338214Y-8327929D01*
X4323928Y-8299357D01*
X4323928Y-8270786D01*
X4338214Y-8242214D01*
X4366786Y-8227929D01*
X4438214Y-8227929D01*
X4466786Y-8213643D01*
X4609643Y-8142214D02*
X4609643Y-8442214D01*
X4609643Y-8156500D02*
X4638214Y-8142214D01*
X4695357Y-8142214D01*
X4723928Y-8156500D01*
X4738214Y-8170786D01*
X4752500Y-8199357D01*
X4752500Y-8285071D01*
X4738214Y-8313643D01*
X4723928Y-8327929D01*
X4695357Y-8342214D01*
X4638214Y-8342214D01*
X4609643Y-8327929D01*
X4881071Y-8313643D02*
X4895357Y-8327929D01*
X4881071Y-8342214D01*
X4866786Y-8327929D01*
X4881071Y-8313643D01*
X4881071Y-8342214D01*
X4881071Y-8156500D02*
X4895357Y-8170786D01*
X4881071Y-8185071D01*
X4866786Y-8170786D01*
X4881071Y-8156500D01*
X4881071Y-8185071D01*
X2467500Y-8801500D02*
X2537500Y-8871500D01*
X2537500Y-8801500D02*
X2467500Y-8871500D01*
X2881071Y-8672214D02*
X2909643Y-8672214D01*
X2938214Y-8686500D01*
X2952500Y-8700786D01*
X2966786Y-8729357D01*
X2981071Y-8786500D01*
X2981071Y-8857929D01*
X2966786Y-8915072D01*
X2952500Y-8943643D01*
X2938214Y-8957929D01*
X2909643Y-8972214D01*
X2881071Y-8972214D01*
X2852500Y-8957929D01*
X2838214Y-8943643D01*
X2823928Y-8915072D01*
X2809643Y-8857929D01*
X2809643Y-8786500D01*
X2823928Y-8729357D01*
X2838214Y-8700786D01*
X2852500Y-8686500D01*
X2881071Y-8672214D01*
X3109643Y-8943643D02*
X3123928Y-8957929D01*
X3109643Y-8972214D01*
X3095357Y-8957929D01*
X3109643Y-8943643D01*
X3109643Y-8972214D01*
X3223928Y-8672214D02*
X3423928Y-8672214D01*
X3295357Y-8972214D01*
X3595357Y-8672214D02*
X3623928Y-8672214D01*
X3652500Y-8686500D01*
X3666786Y-8700786D01*
X3681071Y-8729357D01*
X3695357Y-8786500D01*
X3695357Y-8857929D01*
X3681071Y-8915072D01*
X3666786Y-8943643D01*
X3652500Y-8957929D01*
X3623928Y-8972214D01*
X3595357Y-8972214D01*
X3566786Y-8957929D01*
X3552500Y-8943643D01*
X3538214Y-8915072D01*
X3523928Y-8857929D01*
X3523928Y-8786500D01*
X3538214Y-8729357D01*
X3552500Y-8700786D01*
X3566786Y-8686500D01*
X3595357Y-8672214D01*
X3823928Y-8972214D02*
X3823928Y-8772214D01*
X3823928Y-8800786D02*
X3838214Y-8786500D01*
X3866786Y-8772214D01*
X3909643Y-8772214D01*
X3938214Y-8786500D01*
X3952500Y-8815072D01*
X3952500Y-8972214D01*
X3952500Y-8815072D02*
X3966786Y-8786500D01*
X3995357Y-8772214D01*
X4038214Y-8772214D01*
X4066786Y-8786500D01*
X4081071Y-8815072D01*
X4081071Y-8972214D01*
X4223928Y-8972214D02*
X4223928Y-8772214D01*
X4223928Y-8800786D02*
X4238214Y-8786500D01*
X4266786Y-8772214D01*
X4309643Y-8772214D01*
X4338214Y-8786500D01*
X4352500Y-8815072D01*
X4352500Y-8972214D01*
X4352500Y-8815072D02*
X4366786Y-8786500D01*
X4395357Y-8772214D01*
X4438214Y-8772214D01*
X4466786Y-8786500D01*
X4481071Y-8815072D01*
X4481071Y-8972214D01*
X5066786Y-8657929D02*
X4809643Y-9043643D01*
X5452500Y-8672214D02*
X5481071Y-8672214D01*
X5509643Y-8686500D01*
X5523928Y-8700786D01*
X5538214Y-8729357D01*
X5552500Y-8786500D01*
X5552500Y-8857929D01*
X5538214Y-8915072D01*
X5523928Y-8943643D01*
X5509643Y-8957929D01*
X5481071Y-8972214D01*
X5452500Y-8972214D01*
X5423928Y-8957929D01*
X5409643Y-8943643D01*
X5395357Y-8915072D01*
X5381071Y-8857929D01*
X5381071Y-8786500D01*
X5395357Y-8729357D01*
X5409643Y-8700786D01*
X5423928Y-8686500D01*
X5452500Y-8672214D01*
X5681071Y-8943643D02*
X5695357Y-8957929D01*
X5681071Y-8972214D01*
X5666786Y-8957929D01*
X5681071Y-8943643D01*
X5681071Y-8972214D01*
X5881071Y-8672214D02*
X5909643Y-8672214D01*
X5938214Y-8686500D01*
X5952500Y-8700786D01*
X5966786Y-8729357D01*
X5981071Y-8786500D01*
X5981071Y-8857929D01*
X5966786Y-8915072D01*
X5952500Y-8943643D01*
X5938214Y-8957929D01*
X5909643Y-8972214D01*
X5881071Y-8972214D01*
X5852500Y-8957929D01*
X5838214Y-8943643D01*
X5823928Y-8915072D01*
X5809643Y-8857929D01*
X5809643Y-8786500D01*
X5823928Y-8729357D01*
X5838214Y-8700786D01*
X5852500Y-8686500D01*
X5881071Y-8672214D01*
X6095357Y-8700786D02*
X6109643Y-8686500D01*
X6138214Y-8672214D01*
X6209643Y-8672214D01*
X6238214Y-8686500D01*
X6252500Y-8700786D01*
X6266786Y-8729357D01*
X6266786Y-8757929D01*
X6252500Y-8800786D01*
X6081071Y-8972214D01*
X6266786Y-8972214D01*
X6438214Y-8800786D02*
X6409643Y-8786500D01*
X6395357Y-8772214D01*
X6381071Y-8743643D01*
X6381071Y-8729357D01*
X6395357Y-8700786D01*
X6409643Y-8686500D01*
X6438214Y-8672214D01*
X6495357Y-8672214D01*
X6523928Y-8686500D01*
X6538214Y-8700786D01*
X6552500Y-8729357D01*
X6552500Y-8743643D01*
X6538214Y-8772214D01*
X6523928Y-8786500D01*
X6495357Y-8800786D01*
X6438214Y-8800786D01*
X6409643Y-8815072D01*
X6395357Y-8829357D01*
X6381071Y-8857929D01*
X6381071Y-8915072D01*
X6395357Y-8943643D01*
X6409643Y-8957929D01*
X6438214Y-8972214D01*
X6495357Y-8972214D01*
X6523928Y-8957929D01*
X6538214Y-8943643D01*
X6552500Y-8915072D01*
X6552500Y-8857929D01*
X6538214Y-8829357D01*
X6523928Y-8815072D01*
X6495357Y-8800786D01*
X6666786Y-8672214D02*
X6666786Y-8729357D01*
X6781071Y-8672214D02*
X6781071Y-8729357D01*
X7223928Y-9086500D02*
X7209643Y-9072214D01*
X7181071Y-9029357D01*
X7166786Y-9000786D01*
X7152500Y-8957929D01*
X7138214Y-8886500D01*
X7138214Y-8829357D01*
X7152500Y-8757929D01*
X7166786Y-8715072D01*
X7181071Y-8686500D01*
X7209643Y-8643643D01*
X7223928Y-8629357D01*
X7323928Y-8700786D02*
X7338214Y-8686500D01*
X7366786Y-8672214D01*
X7438214Y-8672214D01*
X7466786Y-8686500D01*
X7481071Y-8700786D01*
X7495357Y-8729357D01*
X7495357Y-8757929D01*
X7481071Y-8800786D01*
X7309643Y-8972214D01*
X7495357Y-8972214D01*
X7852500Y-8972214D02*
X7852500Y-8672214D01*
X7981071Y-8972214D02*
X7981071Y-8815072D01*
X7966786Y-8786500D01*
X7938214Y-8772214D01*
X7895357Y-8772214D01*
X7866786Y-8786500D01*
X7852500Y-8800786D01*
X8166786Y-8972214D02*
X8138214Y-8957929D01*
X8123928Y-8943643D01*
X8109643Y-8915072D01*
X8109643Y-8829357D01*
X8123928Y-8800786D01*
X8138214Y-8786500D01*
X8166786Y-8772214D01*
X8209643Y-8772214D01*
X8238214Y-8786500D01*
X8252500Y-8800786D01*
X8266786Y-8829357D01*
X8266786Y-8915072D01*
X8252500Y-8943643D01*
X8238214Y-8957929D01*
X8209643Y-8972214D01*
X8166786Y-8972214D01*
X8438214Y-8972214D02*
X8409643Y-8957929D01*
X8395357Y-8929357D01*
X8395357Y-8672214D01*
X8666786Y-8957929D02*
X8638214Y-8972214D01*
X8581071Y-8972214D01*
X8552500Y-8957929D01*
X8538214Y-8929357D01*
X8538214Y-8815072D01*
X8552500Y-8786500D01*
X8581071Y-8772214D01*
X8638214Y-8772214D01*
X8666786Y-8786500D01*
X8681071Y-8815072D01*
X8681071Y-8843643D01*
X8538214Y-8872214D01*
X8795357Y-8957929D02*
X8823928Y-8972214D01*
X8881071Y-8972214D01*
X8909643Y-8957929D01*
X8923928Y-8929357D01*
X8923928Y-8915072D01*
X8909643Y-8886500D01*
X8881071Y-8872214D01*
X8838214Y-8872214D01*
X8809643Y-8857929D01*
X8795357Y-8829357D01*
X8795357Y-8815072D01*
X8809643Y-8786500D01*
X8838214Y-8772214D01*
X8881071Y-8772214D01*
X8909643Y-8786500D01*
X9023928Y-9086500D02*
X9038214Y-9072214D01*
X9066786Y-9029357D01*
X9081071Y-9000786D01*
X9095357Y-8957929D01*
X9109643Y-8886500D01*
X9109643Y-8829357D01*
X9095357Y-8757929D01*
X9081071Y-8715072D01*
X9066786Y-8686500D01*
X9038214Y-8643643D01*
X9023928Y-8629357D01*
X2537500Y-9232500D02*
G75*
G03*
X2537500Y-9232500I-40000J0D01*
G01*
X2881071Y-9068214D02*
X2909643Y-9068214D01*
X2938214Y-9082500D01*
X2952500Y-9096786D01*
X2966786Y-9125357D01*
X2981071Y-9182500D01*
X2981071Y-9253929D01*
X2966786Y-9311072D01*
X2952500Y-9339643D01*
X2938214Y-9353929D01*
X2909643Y-9368214D01*
X2881071Y-9368214D01*
X2852500Y-9353929D01*
X2838214Y-9339643D01*
X2823928Y-9311072D01*
X2809643Y-9253929D01*
X2809643Y-9182500D01*
X2823928Y-9125357D01*
X2838214Y-9096786D01*
X2852500Y-9082500D01*
X2881071Y-9068214D01*
X3109643Y-9339643D02*
X3123928Y-9353929D01*
X3109643Y-9368214D01*
X3095357Y-9353929D01*
X3109643Y-9339643D01*
X3109643Y-9368214D01*
X3295357Y-9196786D02*
X3266786Y-9182500D01*
X3252500Y-9168214D01*
X3238214Y-9139643D01*
X3238214Y-9125357D01*
X3252500Y-9096786D01*
X3266786Y-9082500D01*
X3295357Y-9068214D01*
X3352500Y-9068214D01*
X3381071Y-9082500D01*
X3395357Y-9096786D01*
X3409643Y-9125357D01*
X3409643Y-9139643D01*
X3395357Y-9168214D01*
X3381071Y-9182500D01*
X3352500Y-9196786D01*
X3295357Y-9196786D01*
X3266786Y-9211072D01*
X3252500Y-9225357D01*
X3238214Y-9253929D01*
X3238214Y-9311072D01*
X3252500Y-9339643D01*
X3266786Y-9353929D01*
X3295357Y-9368214D01*
X3352500Y-9368214D01*
X3381071Y-9353929D01*
X3395357Y-9339643D01*
X3409643Y-9311072D01*
X3409643Y-9253929D01*
X3395357Y-9225357D01*
X3381071Y-9211072D01*
X3352500Y-9196786D01*
X3595357Y-9068214D02*
X3623928Y-9068214D01*
X3652500Y-9082500D01*
X3666786Y-9096786D01*
X3681071Y-9125357D01*
X3695357Y-9182500D01*
X3695357Y-9253929D01*
X3681071Y-9311072D01*
X3666786Y-9339643D01*
X3652500Y-9353929D01*
X3623928Y-9368214D01*
X3595357Y-9368214D01*
X3566786Y-9353929D01*
X3552500Y-9339643D01*
X3538214Y-9311072D01*
X3523928Y-9253929D01*
X3523928Y-9182500D01*
X3538214Y-9125357D01*
X3552500Y-9096786D01*
X3566786Y-9082500D01*
X3595357Y-9068214D01*
X3823928Y-9368214D02*
X3823928Y-9168214D01*
X3823928Y-9196786D02*
X3838214Y-9182500D01*
X3866786Y-9168214D01*
X3909643Y-9168214D01*
X3938214Y-9182500D01*
X3952500Y-9211072D01*
X3952500Y-9368214D01*
X3952500Y-9211072D02*
X3966786Y-9182500D01*
X3995357Y-9168214D01*
X4038214Y-9168214D01*
X4066786Y-9182500D01*
X4081071Y-9211072D01*
X4081071Y-9368214D01*
X4223928Y-9368214D02*
X4223928Y-9168214D01*
X4223928Y-9196786D02*
X4238214Y-9182500D01*
X4266786Y-9168214D01*
X4309643Y-9168214D01*
X4338214Y-9182500D01*
X4352500Y-9211072D01*
X4352500Y-9368214D01*
X4352500Y-9211072D02*
X4366786Y-9182500D01*
X4395357Y-9168214D01*
X4438214Y-9168214D01*
X4466786Y-9182500D01*
X4481071Y-9211072D01*
X4481071Y-9368214D01*
X5066786Y-9053929D02*
X4809643Y-9439643D01*
X5452500Y-9068214D02*
X5481071Y-9068214D01*
X5509643Y-9082500D01*
X5523928Y-9096786D01*
X5538214Y-9125357D01*
X5552500Y-9182500D01*
X5552500Y-9253929D01*
X5538214Y-9311072D01*
X5523928Y-9339643D01*
X5509643Y-9353929D01*
X5481071Y-9368214D01*
X5452500Y-9368214D01*
X5423928Y-9353929D01*
X5409643Y-9339643D01*
X5395357Y-9311072D01*
X5381071Y-9253929D01*
X5381071Y-9182500D01*
X5395357Y-9125357D01*
X5409643Y-9096786D01*
X5423928Y-9082500D01*
X5452500Y-9068214D01*
X5681071Y-9339643D02*
X5695357Y-9353929D01*
X5681071Y-9368214D01*
X5666786Y-9353929D01*
X5681071Y-9339643D01*
X5681071Y-9368214D01*
X5881071Y-9068214D02*
X5909643Y-9068214D01*
X5938214Y-9082500D01*
X5952500Y-9096786D01*
X5966786Y-9125357D01*
X5981071Y-9182500D01*
X5981071Y-9253929D01*
X5966786Y-9311072D01*
X5952500Y-9339643D01*
X5938214Y-9353929D01*
X5909643Y-9368214D01*
X5881071Y-9368214D01*
X5852500Y-9353929D01*
X5838214Y-9339643D01*
X5823928Y-9311072D01*
X5809643Y-9253929D01*
X5809643Y-9182500D01*
X5823928Y-9125357D01*
X5838214Y-9096786D01*
X5852500Y-9082500D01*
X5881071Y-9068214D01*
X6081071Y-9068214D02*
X6266786Y-9068214D01*
X6166786Y-9182500D01*
X6209643Y-9182500D01*
X6238214Y-9196786D01*
X6252500Y-9211072D01*
X6266786Y-9239643D01*
X6266786Y-9311072D01*
X6252500Y-9339643D01*
X6238214Y-9353929D01*
X6209643Y-9368214D01*
X6123928Y-9368214D01*
X6095357Y-9353929D01*
X6081071Y-9339643D01*
X6552500Y-9368214D02*
X6381071Y-9368214D01*
X6466786Y-9368214D02*
X6466786Y-9068214D01*
X6438214Y-9111072D01*
X6409643Y-9139643D01*
X6381071Y-9153929D01*
X6666786Y-9068214D02*
X6666786Y-9125357D01*
X6781071Y-9068214D02*
X6781071Y-9125357D01*
X7223928Y-9482500D02*
X7209643Y-9468214D01*
X7181071Y-9425357D01*
X7166786Y-9396786D01*
X7152500Y-9353929D01*
X7138214Y-9282500D01*
X7138214Y-9225357D01*
X7152500Y-9153929D01*
X7166786Y-9111072D01*
X7181071Y-9082500D01*
X7209643Y-9039643D01*
X7223928Y-9025357D01*
X7352500Y-9368214D02*
X7409643Y-9368214D01*
X7438214Y-9353929D01*
X7452500Y-9339643D01*
X7481071Y-9296786D01*
X7495357Y-9239643D01*
X7495357Y-9125357D01*
X7481071Y-9096786D01*
X7466786Y-9082500D01*
X7438214Y-9068214D01*
X7381071Y-9068214D01*
X7352500Y-9082500D01*
X7338214Y-9096786D01*
X7323928Y-9125357D01*
X7323928Y-9196786D01*
X7338214Y-9225357D01*
X7352500Y-9239643D01*
X7381071Y-9253929D01*
X7438214Y-9253929D01*
X7466786Y-9239643D01*
X7481071Y-9225357D01*
X7495357Y-9196786D01*
X7852500Y-9368214D02*
X7852500Y-9068214D01*
X7981071Y-9368214D02*
X7981071Y-9211072D01*
X7966786Y-9182500D01*
X7938214Y-9168214D01*
X7895357Y-9168214D01*
X7866786Y-9182500D01*
X7852500Y-9196786D01*
X8166786Y-9368214D02*
X8138214Y-9353929D01*
X8123928Y-9339643D01*
X8109643Y-9311072D01*
X8109643Y-9225357D01*
X8123928Y-9196786D01*
X8138214Y-9182500D01*
X8166786Y-9168214D01*
X8209643Y-9168214D01*
X8238214Y-9182500D01*
X8252500Y-9196786D01*
X8266786Y-9225357D01*
X8266786Y-9311072D01*
X8252500Y-9339643D01*
X8238214Y-9353929D01*
X8209643Y-9368214D01*
X8166786Y-9368214D01*
X8438214Y-9368214D02*
X8409643Y-9353929D01*
X8395357Y-9325357D01*
X8395357Y-9068214D01*
X8666786Y-9353929D02*
X8638214Y-9368214D01*
X8581071Y-9368214D01*
X8552500Y-9353929D01*
X8538214Y-9325357D01*
X8538214Y-9211072D01*
X8552500Y-9182500D01*
X8581071Y-9168214D01*
X8638214Y-9168214D01*
X8666786Y-9182500D01*
X8681071Y-9211072D01*
X8681071Y-9239643D01*
X8538214Y-9268214D01*
X8795357Y-9353929D02*
X8823928Y-9368214D01*
X8881071Y-9368214D01*
X8909643Y-9353929D01*
X8923928Y-9325357D01*
X8923928Y-9311072D01*
X8909643Y-9282500D01*
X8881071Y-9268214D01*
X8838214Y-9268214D01*
X8809643Y-9253929D01*
X8795357Y-9225357D01*
X8795357Y-9211072D01*
X8809643Y-9182500D01*
X8838214Y-9168214D01*
X8881071Y-9168214D01*
X8909643Y-9182500D01*
X9023928Y-9482500D02*
X9038214Y-9468214D01*
X9066786Y-9425357D01*
X9081071Y-9396786D01*
X9095357Y-9353929D01*
X9109643Y-9282500D01*
X9109643Y-9225357D01*
X9095357Y-9153929D01*
X9081071Y-9111072D01*
X9066786Y-9082500D01*
X9038214Y-9039643D01*
X9023928Y-9025357D01*
X2487500Y-9578500D02*
X2487500Y-9678500D01*
X2437500Y-9628500D02*
X2537500Y-9628500D01*
X2981071Y-9764214D02*
X2809643Y-9764214D01*
X2895357Y-9764214D02*
X2895357Y-9464214D01*
X2866786Y-9507072D01*
X2838214Y-9535643D01*
X2809643Y-9549929D01*
X3109643Y-9735643D02*
X3123928Y-9749929D01*
X3109643Y-9764214D01*
X3095357Y-9749929D01*
X3109643Y-9735643D01*
X3109643Y-9764214D01*
X3309643Y-9464214D02*
X3338214Y-9464214D01*
X3366786Y-9478500D01*
X3381071Y-9492786D01*
X3395357Y-9521357D01*
X3409643Y-9578500D01*
X3409643Y-9649929D01*
X3395357Y-9707072D01*
X3381071Y-9735643D01*
X3366786Y-9749929D01*
X3338214Y-9764214D01*
X3309643Y-9764214D01*
X3281071Y-9749929D01*
X3266786Y-9735643D01*
X3252500Y-9707072D01*
X3238214Y-9649929D01*
X3238214Y-9578500D01*
X3252500Y-9521357D01*
X3266786Y-9492786D01*
X3281071Y-9478500D01*
X3309643Y-9464214D01*
X3595357Y-9464214D02*
X3623928Y-9464214D01*
X3652500Y-9478500D01*
X3666786Y-9492786D01*
X3681071Y-9521357D01*
X3695357Y-9578500D01*
X3695357Y-9649929D01*
X3681071Y-9707072D01*
X3666786Y-9735643D01*
X3652500Y-9749929D01*
X3623928Y-9764214D01*
X3595357Y-9764214D01*
X3566786Y-9749929D01*
X3552500Y-9735643D01*
X3538214Y-9707072D01*
X3523928Y-9649929D01*
X3523928Y-9578500D01*
X3538214Y-9521357D01*
X3552500Y-9492786D01*
X3566786Y-9478500D01*
X3595357Y-9464214D01*
X3823928Y-9764214D02*
X3823928Y-9564214D01*
X3823928Y-9592786D02*
X3838214Y-9578500D01*
X3866786Y-9564214D01*
X3909643Y-9564214D01*
X3938214Y-9578500D01*
X3952500Y-9607072D01*
X3952500Y-9764214D01*
X3952500Y-9607072D02*
X3966786Y-9578500D01*
X3995357Y-9564214D01*
X4038214Y-9564214D01*
X4066786Y-9578500D01*
X4081071Y-9607072D01*
X4081071Y-9764214D01*
X4223928Y-9764214D02*
X4223928Y-9564214D01*
X4223928Y-9592786D02*
X4238214Y-9578500D01*
X4266786Y-9564214D01*
X4309643Y-9564214D01*
X4338214Y-9578500D01*
X4352500Y-9607072D01*
X4352500Y-9764214D01*
X4352500Y-9607072D02*
X4366786Y-9578500D01*
X4395357Y-9564214D01*
X4438214Y-9564214D01*
X4466786Y-9578500D01*
X4481071Y-9607072D01*
X4481071Y-9764214D01*
X5066786Y-9449929D02*
X4809643Y-9835643D01*
X5452500Y-9464214D02*
X5481071Y-9464214D01*
X5509643Y-9478500D01*
X5523928Y-9492786D01*
X5538214Y-9521357D01*
X5552500Y-9578500D01*
X5552500Y-9649929D01*
X5538214Y-9707072D01*
X5523928Y-9735643D01*
X5509643Y-9749929D01*
X5481071Y-9764214D01*
X5452500Y-9764214D01*
X5423928Y-9749929D01*
X5409643Y-9735643D01*
X5395357Y-9707072D01*
X5381071Y-9649929D01*
X5381071Y-9578500D01*
X5395357Y-9521357D01*
X5409643Y-9492786D01*
X5423928Y-9478500D01*
X5452500Y-9464214D01*
X5681071Y-9735643D02*
X5695357Y-9749929D01*
X5681071Y-9764214D01*
X5666786Y-9749929D01*
X5681071Y-9735643D01*
X5681071Y-9764214D01*
X5881071Y-9464214D02*
X5909643Y-9464214D01*
X5938214Y-9478500D01*
X5952500Y-9492786D01*
X5966786Y-9521357D01*
X5981071Y-9578500D01*
X5981071Y-9649929D01*
X5966786Y-9707072D01*
X5952500Y-9735643D01*
X5938214Y-9749929D01*
X5909643Y-9764214D01*
X5881071Y-9764214D01*
X5852500Y-9749929D01*
X5838214Y-9735643D01*
X5823928Y-9707072D01*
X5809643Y-9649929D01*
X5809643Y-9578500D01*
X5823928Y-9521357D01*
X5838214Y-9492786D01*
X5852500Y-9478500D01*
X5881071Y-9464214D01*
X6081071Y-9464214D02*
X6266786Y-9464214D01*
X6166786Y-9578500D01*
X6209643Y-9578500D01*
X6238214Y-9592786D01*
X6252500Y-9607072D01*
X6266786Y-9635643D01*
X6266786Y-9707072D01*
X6252500Y-9735643D01*
X6238214Y-9749929D01*
X6209643Y-9764214D01*
X6123928Y-9764214D01*
X6095357Y-9749929D01*
X6081071Y-9735643D01*
X6409643Y-9764214D02*
X6466786Y-9764214D01*
X6495357Y-9749929D01*
X6509643Y-9735643D01*
X6538214Y-9692786D01*
X6552500Y-9635643D01*
X6552500Y-9521357D01*
X6538214Y-9492786D01*
X6523928Y-9478500D01*
X6495357Y-9464214D01*
X6438214Y-9464214D01*
X6409643Y-9478500D01*
X6395357Y-9492786D01*
X6381071Y-9521357D01*
X6381071Y-9592786D01*
X6395357Y-9621357D01*
X6409643Y-9635643D01*
X6438214Y-9649929D01*
X6495357Y-9649929D01*
X6523928Y-9635643D01*
X6538214Y-9621357D01*
X6552500Y-9592786D01*
X6666786Y-9464214D02*
X6666786Y-9521357D01*
X6781071Y-9464214D02*
X6781071Y-9521357D01*
X7223928Y-9878500D02*
X7209643Y-9864214D01*
X7181071Y-9821357D01*
X7166786Y-9792786D01*
X7152500Y-9749929D01*
X7138214Y-9678500D01*
X7138214Y-9621357D01*
X7152500Y-9549929D01*
X7166786Y-9507072D01*
X7181071Y-9478500D01*
X7209643Y-9435643D01*
X7223928Y-9421357D01*
X7466786Y-9564214D02*
X7466786Y-9764214D01*
X7395357Y-9449929D02*
X7323928Y-9664214D01*
X7509643Y-9664214D01*
X7852500Y-9764214D02*
X7852500Y-9464214D01*
X7981071Y-9764214D02*
X7981071Y-9607072D01*
X7966786Y-9578500D01*
X7938214Y-9564214D01*
X7895357Y-9564214D01*
X7866786Y-9578500D01*
X7852500Y-9592786D01*
X8166786Y-9764214D02*
X8138214Y-9749929D01*
X8123928Y-9735643D01*
X8109643Y-9707072D01*
X8109643Y-9621357D01*
X8123928Y-9592786D01*
X8138214Y-9578500D01*
X8166786Y-9564214D01*
X8209643Y-9564214D01*
X8238214Y-9578500D01*
X8252500Y-9592786D01*
X8266786Y-9621357D01*
X8266786Y-9707072D01*
X8252500Y-9735643D01*
X8238214Y-9749929D01*
X8209643Y-9764214D01*
X8166786Y-9764214D01*
X8438214Y-9764214D02*
X8409643Y-9749929D01*
X8395357Y-9721357D01*
X8395357Y-9464214D01*
X8666786Y-9749929D02*
X8638214Y-9764214D01*
X8581071Y-9764214D01*
X8552500Y-9749929D01*
X8538214Y-9721357D01*
X8538214Y-9607072D01*
X8552500Y-9578500D01*
X8581071Y-9564214D01*
X8638214Y-9564214D01*
X8666786Y-9578500D01*
X8681071Y-9607072D01*
X8681071Y-9635643D01*
X8538214Y-9664214D01*
X8795357Y-9749929D02*
X8823928Y-9764214D01*
X8881071Y-9764214D01*
X8909643Y-9749929D01*
X8923928Y-9721357D01*
X8923928Y-9707072D01*
X8909643Y-9678500D01*
X8881071Y-9664214D01*
X8838214Y-9664214D01*
X8809643Y-9649929D01*
X8795357Y-9621357D01*
X8795357Y-9607072D01*
X8809643Y-9578500D01*
X8838214Y-9564214D01*
X8881071Y-9564214D01*
X8909643Y-9578500D01*
X9023928Y-9878500D02*
X9038214Y-9864214D01*
X9066786Y-9821357D01*
X9081071Y-9792786D01*
X9095357Y-9749929D01*
X9109643Y-9678500D01*
X9109643Y-9621357D01*
X9095357Y-9549929D01*
X9081071Y-9507072D01*
X9066786Y-9478500D01*
X9038214Y-9435643D01*
X9023928Y-9421357D01*
X2522123Y-10061624D02*
X2522123Y-9987377D01*
X2447876Y-9987377D01*
X2447876Y-10061624D01*
X2522123Y-10061624D01*
X2981071Y-10160214D02*
X2809643Y-10160214D01*
X2895357Y-10160214D02*
X2895357Y-9860214D01*
X2866786Y-9903072D01*
X2838214Y-9931643D01*
X2809643Y-9945929D01*
X3109643Y-10131643D02*
X3123928Y-10145929D01*
X3109643Y-10160214D01*
X3095357Y-10145929D01*
X3109643Y-10131643D01*
X3109643Y-10160214D01*
X3309643Y-9860214D02*
X3338214Y-9860214D01*
X3366786Y-9874500D01*
X3381071Y-9888786D01*
X3395357Y-9917357D01*
X3409643Y-9974500D01*
X3409643Y-10045929D01*
X3395357Y-10103072D01*
X3381071Y-10131643D01*
X3366786Y-10145929D01*
X3338214Y-10160214D01*
X3309643Y-10160214D01*
X3281071Y-10145929D01*
X3266786Y-10131643D01*
X3252500Y-10103072D01*
X3238214Y-10045929D01*
X3238214Y-9974500D01*
X3252500Y-9917357D01*
X3266786Y-9888786D01*
X3281071Y-9874500D01*
X3309643Y-9860214D01*
X3681071Y-9860214D02*
X3538214Y-9860214D01*
X3523928Y-10003072D01*
X3538214Y-9988786D01*
X3566786Y-9974500D01*
X3638214Y-9974500D01*
X3666786Y-9988786D01*
X3681071Y-10003072D01*
X3695357Y-10031643D01*
X3695357Y-10103072D01*
X3681071Y-10131643D01*
X3666786Y-10145929D01*
X3638214Y-10160214D01*
X3566786Y-10160214D01*
X3538214Y-10145929D01*
X3523928Y-10131643D01*
X3823928Y-10160214D02*
X3823928Y-9960214D01*
X3823928Y-9988786D02*
X3838214Y-9974500D01*
X3866786Y-9960214D01*
X3909643Y-9960214D01*
X3938214Y-9974500D01*
X3952500Y-10003072D01*
X3952500Y-10160214D01*
X3952500Y-10003072D02*
X3966786Y-9974500D01*
X3995357Y-9960214D01*
X4038214Y-9960214D01*
X4066786Y-9974500D01*
X4081071Y-10003072D01*
X4081071Y-10160214D01*
X4223928Y-10160214D02*
X4223928Y-9960214D01*
X4223928Y-9988786D02*
X4238214Y-9974500D01*
X4266786Y-9960214D01*
X4309643Y-9960214D01*
X4338214Y-9974500D01*
X4352500Y-10003072D01*
X4352500Y-10160214D01*
X4352500Y-10003072D02*
X4366786Y-9974500D01*
X4395357Y-9960214D01*
X4438214Y-9960214D01*
X4466786Y-9974500D01*
X4481071Y-10003072D01*
X4481071Y-10160214D01*
X5066786Y-9845929D02*
X4809643Y-10231643D01*
X5452500Y-9860214D02*
X5481071Y-9860214D01*
X5509643Y-9874500D01*
X5523928Y-9888786D01*
X5538214Y-9917357D01*
X5552500Y-9974500D01*
X5552500Y-10045929D01*
X5538214Y-10103072D01*
X5523928Y-10131643D01*
X5509643Y-10145929D01*
X5481071Y-10160214D01*
X5452500Y-10160214D01*
X5423928Y-10145929D01*
X5409643Y-10131643D01*
X5395357Y-10103072D01*
X5381071Y-10045929D01*
X5381071Y-9974500D01*
X5395357Y-9917357D01*
X5409643Y-9888786D01*
X5423928Y-9874500D01*
X5452500Y-9860214D01*
X5681071Y-10131643D02*
X5695357Y-10145929D01*
X5681071Y-10160214D01*
X5666786Y-10145929D01*
X5681071Y-10131643D01*
X5681071Y-10160214D01*
X5881071Y-9860214D02*
X5909643Y-9860214D01*
X5938214Y-9874500D01*
X5952500Y-9888786D01*
X5966786Y-9917357D01*
X5981071Y-9974500D01*
X5981071Y-10045929D01*
X5966786Y-10103072D01*
X5952500Y-10131643D01*
X5938214Y-10145929D01*
X5909643Y-10160214D01*
X5881071Y-10160214D01*
X5852500Y-10145929D01*
X5838214Y-10131643D01*
X5823928Y-10103072D01*
X5809643Y-10045929D01*
X5809643Y-9974500D01*
X5823928Y-9917357D01*
X5838214Y-9888786D01*
X5852500Y-9874500D01*
X5881071Y-9860214D01*
X6238214Y-9960214D02*
X6238214Y-10160214D01*
X6166786Y-9845929D02*
X6095357Y-10060214D01*
X6281071Y-10060214D01*
X6552500Y-10160214D02*
X6381071Y-10160214D01*
X6466786Y-10160214D02*
X6466786Y-9860214D01*
X6438214Y-9903072D01*
X6409643Y-9931643D01*
X6381071Y-9945929D01*
X6666786Y-9860214D02*
X6666786Y-9917357D01*
X6781071Y-9860214D02*
X6781071Y-9917357D01*
X7223928Y-10274500D02*
X7209643Y-10260214D01*
X7181071Y-10217357D01*
X7166786Y-10188786D01*
X7152500Y-10145929D01*
X7138214Y-10074500D01*
X7138214Y-10017357D01*
X7152500Y-9945929D01*
X7166786Y-9903072D01*
X7181071Y-9874500D01*
X7209643Y-9831643D01*
X7223928Y-9817357D01*
X7481071Y-9860214D02*
X7338214Y-9860214D01*
X7323928Y-10003072D01*
X7338214Y-9988786D01*
X7366786Y-9974500D01*
X7438214Y-9974500D01*
X7466786Y-9988786D01*
X7481071Y-10003072D01*
X7495357Y-10031643D01*
X7495357Y-10103072D01*
X7481071Y-10131643D01*
X7466786Y-10145929D01*
X7438214Y-10160214D01*
X7366786Y-10160214D01*
X7338214Y-10145929D01*
X7323928Y-10131643D01*
X7852500Y-10160214D02*
X7852500Y-9860214D01*
X7981071Y-10160214D02*
X7981071Y-10003072D01*
X7966786Y-9974500D01*
X7938214Y-9960214D01*
X7895357Y-9960214D01*
X7866786Y-9974500D01*
X7852500Y-9988786D01*
X8166786Y-10160214D02*
X8138214Y-10145929D01*
X8123928Y-10131643D01*
X8109643Y-10103072D01*
X8109643Y-10017357D01*
X8123928Y-9988786D01*
X8138214Y-9974500D01*
X8166786Y-9960214D01*
X8209643Y-9960214D01*
X8238214Y-9974500D01*
X8252500Y-9988786D01*
X8266786Y-10017357D01*
X8266786Y-10103072D01*
X8252500Y-10131643D01*
X8238214Y-10145929D01*
X8209643Y-10160214D01*
X8166786Y-10160214D01*
X8438214Y-10160214D02*
X8409643Y-10145929D01*
X8395357Y-10117357D01*
X8395357Y-9860214D01*
X8666786Y-10145929D02*
X8638214Y-10160214D01*
X8581071Y-10160214D01*
X8552500Y-10145929D01*
X8538214Y-10117357D01*
X8538214Y-10003072D01*
X8552500Y-9974500D01*
X8581071Y-9960214D01*
X8638214Y-9960214D01*
X8666786Y-9974500D01*
X8681071Y-10003072D01*
X8681071Y-10031643D01*
X8538214Y-10060214D01*
X8795357Y-10145929D02*
X8823928Y-10160214D01*
X8881071Y-10160214D01*
X8909643Y-10145929D01*
X8923928Y-10117357D01*
X8923928Y-10103072D01*
X8909643Y-10074500D01*
X8881071Y-10060214D01*
X8838214Y-10060214D01*
X8809643Y-10045929D01*
X8795357Y-10017357D01*
X8795357Y-10003072D01*
X8809643Y-9974500D01*
X8838214Y-9960214D01*
X8881071Y-9960214D01*
X8909643Y-9974500D01*
X9023928Y-10274500D02*
X9038214Y-10260214D01*
X9066786Y-10217357D01*
X9081071Y-10188786D01*
X9095357Y-10145929D01*
X9109643Y-10074500D01*
X9109643Y-10017357D01*
X9095357Y-9945929D01*
X9081071Y-9903072D01*
X9066786Y-9874500D01*
X9038214Y-9831643D01*
X9023928Y-9817357D01*
X2482500Y-10475500D02*
X2537500Y-10420500D01*
X2482500Y-10365500D01*
X2427500Y-10420500D01*
X2482500Y-10475500D01*
X2981071Y-10556214D02*
X2809643Y-10556214D01*
X2895357Y-10556214D02*
X2895357Y-10256214D01*
X2866786Y-10299072D01*
X2838214Y-10327643D01*
X2809643Y-10341929D01*
X3109643Y-10527643D02*
X3123928Y-10541929D01*
X3109643Y-10556214D01*
X3095357Y-10541929D01*
X3109643Y-10527643D01*
X3109643Y-10556214D01*
X3409643Y-10556214D02*
X3238214Y-10556214D01*
X3323928Y-10556214D02*
X3323928Y-10256214D01*
X3295357Y-10299072D01*
X3266786Y-10327643D01*
X3238214Y-10341929D01*
X3595357Y-10256214D02*
X3623928Y-10256214D01*
X3652500Y-10270500D01*
X3666786Y-10284786D01*
X3681071Y-10313357D01*
X3695357Y-10370500D01*
X3695357Y-10441929D01*
X3681071Y-10499072D01*
X3666786Y-10527643D01*
X3652500Y-10541929D01*
X3623928Y-10556214D01*
X3595357Y-10556214D01*
X3566786Y-10541929D01*
X3552500Y-10527643D01*
X3538214Y-10499072D01*
X3523928Y-10441929D01*
X3523928Y-10370500D01*
X3538214Y-10313357D01*
X3552500Y-10284786D01*
X3566786Y-10270500D01*
X3595357Y-10256214D01*
X3823928Y-10556214D02*
X3823928Y-10356214D01*
X3823928Y-10384786D02*
X3838214Y-10370500D01*
X3866786Y-10356214D01*
X3909643Y-10356214D01*
X3938214Y-10370500D01*
X3952500Y-10399072D01*
X3952500Y-10556214D01*
X3952500Y-10399072D02*
X3966786Y-10370500D01*
X3995357Y-10356214D01*
X4038214Y-10356214D01*
X4066786Y-10370500D01*
X4081071Y-10399072D01*
X4081071Y-10556214D01*
X4223928Y-10556214D02*
X4223928Y-10356214D01*
X4223928Y-10384786D02*
X4238214Y-10370500D01*
X4266786Y-10356214D01*
X4309643Y-10356214D01*
X4338214Y-10370500D01*
X4352500Y-10399072D01*
X4352500Y-10556214D01*
X4352500Y-10399072D02*
X4366786Y-10370500D01*
X4395357Y-10356214D01*
X4438214Y-10356214D01*
X4466786Y-10370500D01*
X4481071Y-10399072D01*
X4481071Y-10556214D01*
X5066786Y-10241929D02*
X4809643Y-10627643D01*
X5452500Y-10256214D02*
X5481071Y-10256214D01*
X5509643Y-10270500D01*
X5523928Y-10284786D01*
X5538214Y-10313357D01*
X5552500Y-10370500D01*
X5552500Y-10441929D01*
X5538214Y-10499072D01*
X5523928Y-10527643D01*
X5509643Y-10541929D01*
X5481071Y-10556214D01*
X5452500Y-10556214D01*
X5423928Y-10541929D01*
X5409643Y-10527643D01*
X5395357Y-10499072D01*
X5381071Y-10441929D01*
X5381071Y-10370500D01*
X5395357Y-10313357D01*
X5409643Y-10284786D01*
X5423928Y-10270500D01*
X5452500Y-10256214D01*
X5681071Y-10527643D02*
X5695357Y-10541929D01*
X5681071Y-10556214D01*
X5666786Y-10541929D01*
X5681071Y-10527643D01*
X5681071Y-10556214D01*
X5881071Y-10256214D02*
X5909643Y-10256214D01*
X5938214Y-10270500D01*
X5952500Y-10284786D01*
X5966786Y-10313357D01*
X5981071Y-10370500D01*
X5981071Y-10441929D01*
X5966786Y-10499072D01*
X5952500Y-10527643D01*
X5938214Y-10541929D01*
X5909643Y-10556214D01*
X5881071Y-10556214D01*
X5852500Y-10541929D01*
X5838214Y-10527643D01*
X5823928Y-10499072D01*
X5809643Y-10441929D01*
X5809643Y-10370500D01*
X5823928Y-10313357D01*
X5838214Y-10284786D01*
X5852500Y-10270500D01*
X5881071Y-10256214D01*
X6238214Y-10356214D02*
X6238214Y-10556214D01*
X6166786Y-10241929D02*
X6095357Y-10456214D01*
X6281071Y-10456214D01*
X6366786Y-10256214D02*
X6552500Y-10256214D01*
X6452500Y-10370500D01*
X6495357Y-10370500D01*
X6523928Y-10384786D01*
X6538214Y-10399072D01*
X6552500Y-10427643D01*
X6552500Y-10499072D01*
X6538214Y-10527643D01*
X6523928Y-10541929D01*
X6495357Y-10556214D01*
X6409643Y-10556214D01*
X6381071Y-10541929D01*
X6366786Y-10527643D01*
X6666786Y-10256214D02*
X6666786Y-10313357D01*
X6781071Y-10256214D02*
X6781071Y-10313357D01*
X7223928Y-10670500D02*
X7209643Y-10656214D01*
X7181071Y-10613357D01*
X7166786Y-10584786D01*
X7152500Y-10541929D01*
X7138214Y-10470500D01*
X7138214Y-10413357D01*
X7152500Y-10341929D01*
X7166786Y-10299072D01*
X7181071Y-10270500D01*
X7209643Y-10227643D01*
X7223928Y-10213357D01*
X7309643Y-10256214D02*
X7495357Y-10256214D01*
X7395357Y-10370500D01*
X7438214Y-10370500D01*
X7466786Y-10384786D01*
X7481071Y-10399072D01*
X7495357Y-10427643D01*
X7495357Y-10499072D01*
X7481071Y-10527643D01*
X7466786Y-10541929D01*
X7438214Y-10556214D01*
X7352500Y-10556214D01*
X7323928Y-10541929D01*
X7309643Y-10527643D01*
X7852500Y-10556214D02*
X7852500Y-10256214D01*
X7981071Y-10556214D02*
X7981071Y-10399072D01*
X7966786Y-10370500D01*
X7938214Y-10356214D01*
X7895357Y-10356214D01*
X7866786Y-10370500D01*
X7852500Y-10384786D01*
X8166786Y-10556214D02*
X8138214Y-10541929D01*
X8123928Y-10527643D01*
X8109643Y-10499072D01*
X8109643Y-10413357D01*
X8123928Y-10384786D01*
X8138214Y-10370500D01*
X8166786Y-10356214D01*
X8209643Y-10356214D01*
X8238214Y-10370500D01*
X8252500Y-10384786D01*
X8266786Y-10413357D01*
X8266786Y-10499072D01*
X8252500Y-10527643D01*
X8238214Y-10541929D01*
X8209643Y-10556214D01*
X8166786Y-10556214D01*
X8438214Y-10556214D02*
X8409643Y-10541929D01*
X8395357Y-10513357D01*
X8395357Y-10256214D01*
X8666786Y-10541929D02*
X8638214Y-10556214D01*
X8581071Y-10556214D01*
X8552500Y-10541929D01*
X8538214Y-10513357D01*
X8538214Y-10399072D01*
X8552500Y-10370500D01*
X8581071Y-10356214D01*
X8638214Y-10356214D01*
X8666786Y-10370500D01*
X8681071Y-10399072D01*
X8681071Y-10427643D01*
X8538214Y-10456214D01*
X8795357Y-10541929D02*
X8823928Y-10556214D01*
X8881071Y-10556214D01*
X8909643Y-10541929D01*
X8923928Y-10513357D01*
X8923928Y-10499072D01*
X8909643Y-10470500D01*
X8881071Y-10456214D01*
X8838214Y-10456214D01*
X8809643Y-10441929D01*
X8795357Y-10413357D01*
X8795357Y-10399072D01*
X8809643Y-10370500D01*
X8838214Y-10356214D01*
X8881071Y-10356214D01*
X8909643Y-10370500D01*
X9023928Y-10670500D02*
X9038214Y-10656214D01*
X9066786Y-10613357D01*
X9081071Y-10584786D01*
X9095357Y-10541929D01*
X9109643Y-10470500D01*
X9109643Y-10413357D01*
X9095357Y-10341929D01*
X9081071Y-10299072D01*
X9066786Y-10270500D01*
X9038214Y-10227643D01*
X9023928Y-10213357D01*
X2407500Y-10751500D02*
X2537500Y-10881500D01*
X2537500Y-10751500D02*
X2407500Y-10881500D01*
X2537500Y-10816500D02*
G75*
G03*
X2537500Y-10816500I-65000J0D01*
G01*
X2981071Y-10952214D02*
X2809643Y-10952214D01*
X2895357Y-10952214D02*
X2895357Y-10652214D01*
X2866786Y-10695072D01*
X2838214Y-10723643D01*
X2809643Y-10737929D01*
X3109643Y-10923643D02*
X3123928Y-10937929D01*
X3109643Y-10952214D01*
X3095357Y-10937929D01*
X3109643Y-10923643D01*
X3109643Y-10952214D01*
X3223928Y-10652214D02*
X3409643Y-10652214D01*
X3309643Y-10766500D01*
X3352500Y-10766500D01*
X3381071Y-10780786D01*
X3395357Y-10795072D01*
X3409643Y-10823643D01*
X3409643Y-10895072D01*
X3395357Y-10923643D01*
X3381071Y-10937929D01*
X3352500Y-10952214D01*
X3266786Y-10952214D01*
X3238214Y-10937929D01*
X3223928Y-10923643D01*
X3595357Y-10652214D02*
X3623928Y-10652214D01*
X3652500Y-10666500D01*
X3666786Y-10680786D01*
X3681071Y-10709357D01*
X3695357Y-10766500D01*
X3695357Y-10837929D01*
X3681071Y-10895072D01*
X3666786Y-10923643D01*
X3652500Y-10937929D01*
X3623928Y-10952214D01*
X3595357Y-10952214D01*
X3566786Y-10937929D01*
X3552500Y-10923643D01*
X3538214Y-10895072D01*
X3523928Y-10837929D01*
X3523928Y-10766500D01*
X3538214Y-10709357D01*
X3552500Y-10680786D01*
X3566786Y-10666500D01*
X3595357Y-10652214D01*
X3823928Y-10952214D02*
X3823928Y-10752214D01*
X3823928Y-10780786D02*
X3838214Y-10766500D01*
X3866786Y-10752214D01*
X3909643Y-10752214D01*
X3938214Y-10766500D01*
X3952500Y-10795072D01*
X3952500Y-10952214D01*
X3952500Y-10795072D02*
X3966786Y-10766500D01*
X3995357Y-10752214D01*
X4038214Y-10752214D01*
X4066786Y-10766500D01*
X4081071Y-10795072D01*
X4081071Y-10952214D01*
X4223928Y-10952214D02*
X4223928Y-10752214D01*
X4223928Y-10780786D02*
X4238214Y-10766500D01*
X4266786Y-10752214D01*
X4309643Y-10752214D01*
X4338214Y-10766500D01*
X4352500Y-10795072D01*
X4352500Y-10952214D01*
X4352500Y-10795072D02*
X4366786Y-10766500D01*
X4395357Y-10752214D01*
X4438214Y-10752214D01*
X4466786Y-10766500D01*
X4481071Y-10795072D01*
X4481071Y-10952214D01*
X5066786Y-10637929D02*
X4809643Y-11023643D01*
X5452500Y-10652214D02*
X5481071Y-10652214D01*
X5509643Y-10666500D01*
X5523928Y-10680786D01*
X5538214Y-10709357D01*
X5552500Y-10766500D01*
X5552500Y-10837929D01*
X5538214Y-10895072D01*
X5523928Y-10923643D01*
X5509643Y-10937929D01*
X5481071Y-10952214D01*
X5452500Y-10952214D01*
X5423928Y-10937929D01*
X5409643Y-10923643D01*
X5395357Y-10895072D01*
X5381071Y-10837929D01*
X5381071Y-10766500D01*
X5395357Y-10709357D01*
X5409643Y-10680786D01*
X5423928Y-10666500D01*
X5452500Y-10652214D01*
X5681071Y-10923643D02*
X5695357Y-10937929D01*
X5681071Y-10952214D01*
X5666786Y-10937929D01*
X5681071Y-10923643D01*
X5681071Y-10952214D01*
X5881071Y-10652214D02*
X5909643Y-10652214D01*
X5938214Y-10666500D01*
X5952500Y-10680786D01*
X5966786Y-10709357D01*
X5981071Y-10766500D01*
X5981071Y-10837929D01*
X5966786Y-10895072D01*
X5952500Y-10923643D01*
X5938214Y-10937929D01*
X5909643Y-10952214D01*
X5881071Y-10952214D01*
X5852500Y-10937929D01*
X5838214Y-10923643D01*
X5823928Y-10895072D01*
X5809643Y-10837929D01*
X5809643Y-10766500D01*
X5823928Y-10709357D01*
X5838214Y-10680786D01*
X5852500Y-10666500D01*
X5881071Y-10652214D01*
X6252500Y-10652214D02*
X6109643Y-10652214D01*
X6095357Y-10795072D01*
X6109643Y-10780786D01*
X6138214Y-10766500D01*
X6209643Y-10766500D01*
X6238214Y-10780786D01*
X6252500Y-10795072D01*
X6266786Y-10823643D01*
X6266786Y-10895072D01*
X6252500Y-10923643D01*
X6238214Y-10937929D01*
X6209643Y-10952214D01*
X6138214Y-10952214D01*
X6109643Y-10937929D01*
X6095357Y-10923643D01*
X6552500Y-10952214D02*
X6381071Y-10952214D01*
X6466786Y-10952214D02*
X6466786Y-10652214D01*
X6438214Y-10695072D01*
X6409643Y-10723643D01*
X6381071Y-10737929D01*
X6666786Y-10652214D02*
X6666786Y-10709357D01*
X6781071Y-10652214D02*
X6781071Y-10709357D01*
X7223928Y-11066500D02*
X7209643Y-11052214D01*
X7181071Y-11009357D01*
X7166786Y-10980786D01*
X7152500Y-10937929D01*
X7138214Y-10866500D01*
X7138214Y-10809357D01*
X7152500Y-10737929D01*
X7166786Y-10695072D01*
X7181071Y-10666500D01*
X7209643Y-10623643D01*
X7223928Y-10609357D01*
X7466786Y-10752214D02*
X7466786Y-10952214D01*
X7395357Y-10637929D02*
X7323928Y-10852214D01*
X7509643Y-10852214D01*
X7852500Y-10952214D02*
X7852500Y-10652214D01*
X7981071Y-10952214D02*
X7981071Y-10795072D01*
X7966786Y-10766500D01*
X7938214Y-10752214D01*
X7895357Y-10752214D01*
X7866786Y-10766500D01*
X7852500Y-10780786D01*
X8166786Y-10952214D02*
X8138214Y-10937929D01*
X8123928Y-10923643D01*
X8109643Y-10895072D01*
X8109643Y-10809357D01*
X8123928Y-10780786D01*
X8138214Y-10766500D01*
X8166786Y-10752214D01*
X8209643Y-10752214D01*
X8238214Y-10766500D01*
X8252500Y-10780786D01*
X8266786Y-10809357D01*
X8266786Y-10895072D01*
X8252500Y-10923643D01*
X8238214Y-10937929D01*
X8209643Y-10952214D01*
X8166786Y-10952214D01*
X8438214Y-10952214D02*
X8409643Y-10937929D01*
X8395357Y-10909357D01*
X8395357Y-10652214D01*
X8666786Y-10937929D02*
X8638214Y-10952214D01*
X8581071Y-10952214D01*
X8552500Y-10937929D01*
X8538214Y-10909357D01*
X8538214Y-10795072D01*
X8552500Y-10766500D01*
X8581071Y-10752214D01*
X8638214Y-10752214D01*
X8666786Y-10766500D01*
X8681071Y-10795072D01*
X8681071Y-10823643D01*
X8538214Y-10852214D01*
X8795357Y-10937929D02*
X8823928Y-10952214D01*
X8881071Y-10952214D01*
X8909643Y-10937929D01*
X8923928Y-10909357D01*
X8923928Y-10895072D01*
X8909643Y-10866500D01*
X8881071Y-10852214D01*
X8838214Y-10852214D01*
X8809643Y-10837929D01*
X8795357Y-10809357D01*
X8795357Y-10795072D01*
X8809643Y-10766500D01*
X8838214Y-10752214D01*
X8881071Y-10752214D01*
X8909643Y-10766500D01*
X9023928Y-11066500D02*
X9038214Y-11052214D01*
X9066786Y-11009357D01*
X9081071Y-10980786D01*
X9095357Y-10937929D01*
X9109643Y-10866500D01*
X9109643Y-10809357D01*
X9095357Y-10737929D01*
X9081071Y-10695072D01*
X9066786Y-10666500D01*
X9038214Y-10623643D01*
X9023928Y-10609357D01*
X2397500Y-11142500D02*
X2537500Y-11282500D01*
X2537500Y-11142500D02*
X2397500Y-11282500D01*
X2467500Y-11142500D02*
X2467500Y-11282500D01*
X2397500Y-11212500D02*
X2537500Y-11212500D01*
X2981071Y-11348214D02*
X2809643Y-11348214D01*
X2895357Y-11348214D02*
X2895357Y-11048214D01*
X2866786Y-11091072D01*
X2838214Y-11119643D01*
X2809643Y-11133929D01*
X3109643Y-11319643D02*
X3123928Y-11333929D01*
X3109643Y-11348214D01*
X3095357Y-11333929D01*
X3109643Y-11319643D01*
X3109643Y-11348214D01*
X3381071Y-11148214D02*
X3381071Y-11348214D01*
X3309643Y-11033929D02*
X3238214Y-11248214D01*
X3423928Y-11248214D01*
X3595357Y-11048214D02*
X3623928Y-11048214D01*
X3652500Y-11062500D01*
X3666786Y-11076786D01*
X3681071Y-11105357D01*
X3695357Y-11162500D01*
X3695357Y-11233929D01*
X3681071Y-11291071D01*
X3666786Y-11319643D01*
X3652500Y-11333929D01*
X3623928Y-11348214D01*
X3595357Y-11348214D01*
X3566786Y-11333929D01*
X3552500Y-11319643D01*
X3538214Y-11291071D01*
X3523928Y-11233929D01*
X3523928Y-11162500D01*
X3538214Y-11105357D01*
X3552500Y-11076786D01*
X3566786Y-11062500D01*
X3595357Y-11048214D01*
X3823928Y-11348214D02*
X3823928Y-11148214D01*
X3823928Y-11176786D02*
X3838214Y-11162500D01*
X3866786Y-11148214D01*
X3909643Y-11148214D01*
X3938214Y-11162500D01*
X3952500Y-11191071D01*
X3952500Y-11348214D01*
X3952500Y-11191071D02*
X3966786Y-11162500D01*
X3995357Y-11148214D01*
X4038214Y-11148214D01*
X4066786Y-11162500D01*
X4081071Y-11191071D01*
X4081071Y-11348214D01*
X4223928Y-11348214D02*
X4223928Y-11148214D01*
X4223928Y-11176786D02*
X4238214Y-11162500D01*
X4266786Y-11148214D01*
X4309643Y-11148214D01*
X4338214Y-11162500D01*
X4352500Y-11191071D01*
X4352500Y-11348214D01*
X4352500Y-11191071D02*
X4366786Y-11162500D01*
X4395357Y-11148214D01*
X4438214Y-11148214D01*
X4466786Y-11162500D01*
X4481071Y-11191071D01*
X4481071Y-11348214D01*
X5066786Y-11033929D02*
X4809643Y-11419643D01*
X5452500Y-11048214D02*
X5481071Y-11048214D01*
X5509643Y-11062500D01*
X5523928Y-11076786D01*
X5538214Y-11105357D01*
X5552500Y-11162500D01*
X5552500Y-11233929D01*
X5538214Y-11291071D01*
X5523928Y-11319643D01*
X5509643Y-11333929D01*
X5481071Y-11348214D01*
X5452500Y-11348214D01*
X5423928Y-11333929D01*
X5409643Y-11319643D01*
X5395357Y-11291071D01*
X5381071Y-11233929D01*
X5381071Y-11162500D01*
X5395357Y-11105357D01*
X5409643Y-11076786D01*
X5423928Y-11062500D01*
X5452500Y-11048214D01*
X5681071Y-11319643D02*
X5695357Y-11333929D01*
X5681071Y-11348214D01*
X5666786Y-11333929D01*
X5681071Y-11319643D01*
X5681071Y-11348214D01*
X5881071Y-11048214D02*
X5909643Y-11048214D01*
X5938214Y-11062500D01*
X5952500Y-11076786D01*
X5966786Y-11105357D01*
X5981071Y-11162500D01*
X5981071Y-11233929D01*
X5966786Y-11291071D01*
X5952500Y-11319643D01*
X5938214Y-11333929D01*
X5909643Y-11348214D01*
X5881071Y-11348214D01*
X5852500Y-11333929D01*
X5838214Y-11319643D01*
X5823928Y-11291071D01*
X5809643Y-11233929D01*
X5809643Y-11162500D01*
X5823928Y-11105357D01*
X5838214Y-11076786D01*
X5852500Y-11062500D01*
X5881071Y-11048214D01*
X6252500Y-11048214D02*
X6109643Y-11048214D01*
X6095357Y-11191071D01*
X6109643Y-11176786D01*
X6138214Y-11162500D01*
X6209643Y-11162500D01*
X6238214Y-11176786D01*
X6252500Y-11191071D01*
X6266786Y-11219643D01*
X6266786Y-11291071D01*
X6252500Y-11319643D01*
X6238214Y-11333929D01*
X6209643Y-11348214D01*
X6138214Y-11348214D01*
X6109643Y-11333929D01*
X6095357Y-11319643D01*
X6538214Y-11048214D02*
X6395357Y-11048214D01*
X6381071Y-11191071D01*
X6395357Y-11176786D01*
X6423928Y-11162500D01*
X6495357Y-11162500D01*
X6523928Y-11176786D01*
X6538214Y-11191071D01*
X6552500Y-11219643D01*
X6552500Y-11291071D01*
X6538214Y-11319643D01*
X6523928Y-11333929D01*
X6495357Y-11348214D01*
X6423928Y-11348214D01*
X6395357Y-11333929D01*
X6381071Y-11319643D01*
X6666786Y-11048214D02*
X6666786Y-11105357D01*
X6781071Y-11048214D02*
X6781071Y-11105357D01*
X7223928Y-11462500D02*
X7209643Y-11448214D01*
X7181071Y-11405357D01*
X7166786Y-11376786D01*
X7152500Y-11333929D01*
X7138214Y-11262500D01*
X7138214Y-11205357D01*
X7152500Y-11133929D01*
X7166786Y-11091072D01*
X7181071Y-11062500D01*
X7209643Y-11019643D01*
X7223928Y-11005357D01*
X7323928Y-11076786D02*
X7338214Y-11062500D01*
X7366786Y-11048214D01*
X7438214Y-11048214D01*
X7466786Y-11062500D01*
X7481071Y-11076786D01*
X7495357Y-11105357D01*
X7495357Y-11133929D01*
X7481071Y-11176786D01*
X7309643Y-11348214D01*
X7495357Y-11348214D01*
X7852500Y-11348214D02*
X7852500Y-11048214D01*
X7981071Y-11348214D02*
X7981071Y-11191071D01*
X7966786Y-11162500D01*
X7938214Y-11148214D01*
X7895357Y-11148214D01*
X7866786Y-11162500D01*
X7852500Y-11176786D01*
X8166786Y-11348214D02*
X8138214Y-11333929D01*
X8123928Y-11319643D01*
X8109643Y-11291071D01*
X8109643Y-11205357D01*
X8123928Y-11176786D01*
X8138214Y-11162500D01*
X8166786Y-11148214D01*
X8209643Y-11148214D01*
X8238214Y-11162500D01*
X8252500Y-11176786D01*
X8266786Y-11205357D01*
X8266786Y-11291071D01*
X8252500Y-11319643D01*
X8238214Y-11333929D01*
X8209643Y-11348214D01*
X8166786Y-11348214D01*
X8438214Y-11348214D02*
X8409643Y-11333929D01*
X8395357Y-11305357D01*
X8395357Y-11048214D01*
X8666786Y-11333929D02*
X8638214Y-11348214D01*
X8581071Y-11348214D01*
X8552500Y-11333929D01*
X8538214Y-11305357D01*
X8538214Y-11191071D01*
X8552500Y-11162500D01*
X8581071Y-11148214D01*
X8638214Y-11148214D01*
X8666786Y-11162500D01*
X8681071Y-11191071D01*
X8681071Y-11219643D01*
X8538214Y-11248214D01*
X8795357Y-11333929D02*
X8823928Y-11348214D01*
X8881071Y-11348214D01*
X8909643Y-11333929D01*
X8923928Y-11305357D01*
X8923928Y-11291071D01*
X8909643Y-11262500D01*
X8881071Y-11248214D01*
X8838214Y-11248214D01*
X8809643Y-11233929D01*
X8795357Y-11205357D01*
X8795357Y-11191071D01*
X8809643Y-11162500D01*
X8838214Y-11148214D01*
X8881071Y-11148214D01*
X8909643Y-11162500D01*
X9023928Y-11462500D02*
X9038214Y-11448214D01*
X9066786Y-11405357D01*
X9081071Y-11376786D01*
X9095357Y-11333929D01*
X9109643Y-11262500D01*
X9109643Y-11205357D01*
X9095357Y-11133929D01*
X9081071Y-11091072D01*
X9066786Y-11062500D01*
X9038214Y-11019643D01*
X9023928Y-11005357D01*
X2377500Y-11528500D02*
X2537500Y-11688500D01*
X2537500Y-11528500D02*
X2377500Y-11688500D01*
X2514069Y-11665069D02*
X2514069Y-11551931D01*
X2400931Y-11551931D01*
X2400931Y-11665069D01*
X2514069Y-11665069D01*
X2981071Y-11744214D02*
X2809643Y-11744214D01*
X2895357Y-11744214D02*
X2895357Y-11444214D01*
X2866786Y-11487071D01*
X2838214Y-11515643D01*
X2809643Y-11529929D01*
X3109643Y-11715643D02*
X3123928Y-11729929D01*
X3109643Y-11744214D01*
X3095357Y-11729929D01*
X3109643Y-11715643D01*
X3109643Y-11744214D01*
X3381071Y-11444214D02*
X3323928Y-11444214D01*
X3295357Y-11458500D01*
X3281071Y-11472786D01*
X3252500Y-11515643D01*
X3238214Y-11572786D01*
X3238214Y-11687071D01*
X3252500Y-11715643D01*
X3266786Y-11729929D01*
X3295357Y-11744214D01*
X3352500Y-11744214D01*
X3381071Y-11729929D01*
X3395357Y-11715643D01*
X3409643Y-11687071D01*
X3409643Y-11615643D01*
X3395357Y-11587071D01*
X3381071Y-11572786D01*
X3352500Y-11558500D01*
X3295357Y-11558500D01*
X3266786Y-11572786D01*
X3252500Y-11587071D01*
X3238214Y-11615643D01*
X3595357Y-11444214D02*
X3623928Y-11444214D01*
X3652500Y-11458500D01*
X3666786Y-11472786D01*
X3681071Y-11501357D01*
X3695357Y-11558500D01*
X3695357Y-11629929D01*
X3681071Y-11687071D01*
X3666786Y-11715643D01*
X3652500Y-11729929D01*
X3623928Y-11744214D01*
X3595357Y-11744214D01*
X3566786Y-11729929D01*
X3552500Y-11715643D01*
X3538214Y-11687071D01*
X3523928Y-11629929D01*
X3523928Y-11558500D01*
X3538214Y-11501357D01*
X3552500Y-11472786D01*
X3566786Y-11458500D01*
X3595357Y-11444214D01*
X3823928Y-11744214D02*
X3823928Y-11544214D01*
X3823928Y-11572786D02*
X3838214Y-11558500D01*
X3866786Y-11544214D01*
X3909643Y-11544214D01*
X3938214Y-11558500D01*
X3952500Y-11587071D01*
X3952500Y-11744214D01*
X3952500Y-11587071D02*
X3966786Y-11558500D01*
X3995357Y-11544214D01*
X4038214Y-11544214D01*
X4066786Y-11558500D01*
X4081071Y-11587071D01*
X4081071Y-11744214D01*
X4223928Y-11744214D02*
X4223928Y-11544214D01*
X4223928Y-11572786D02*
X4238214Y-11558500D01*
X4266786Y-11544214D01*
X4309643Y-11544214D01*
X4338214Y-11558500D01*
X4352500Y-11587071D01*
X4352500Y-11744214D01*
X4352500Y-11587071D02*
X4366786Y-11558500D01*
X4395357Y-11544214D01*
X4438214Y-11544214D01*
X4466786Y-11558500D01*
X4481071Y-11587071D01*
X4481071Y-11744214D01*
X5066786Y-11429929D02*
X4809643Y-11815643D01*
X5452500Y-11444214D02*
X5481071Y-11444214D01*
X5509643Y-11458500D01*
X5523928Y-11472786D01*
X5538214Y-11501357D01*
X5552500Y-11558500D01*
X5552500Y-11629929D01*
X5538214Y-11687071D01*
X5523928Y-11715643D01*
X5509643Y-11729929D01*
X5481071Y-11744214D01*
X5452500Y-11744214D01*
X5423928Y-11729929D01*
X5409643Y-11715643D01*
X5395357Y-11687071D01*
X5381071Y-11629929D01*
X5381071Y-11558500D01*
X5395357Y-11501357D01*
X5409643Y-11472786D01*
X5423928Y-11458500D01*
X5452500Y-11444214D01*
X5681071Y-11715643D02*
X5695357Y-11729929D01*
X5681071Y-11744214D01*
X5666786Y-11729929D01*
X5681071Y-11715643D01*
X5681071Y-11744214D01*
X5881071Y-11444214D02*
X5909643Y-11444214D01*
X5938214Y-11458500D01*
X5952500Y-11472786D01*
X5966786Y-11501357D01*
X5981071Y-11558500D01*
X5981071Y-11629929D01*
X5966786Y-11687071D01*
X5952500Y-11715643D01*
X5938214Y-11729929D01*
X5909643Y-11744214D01*
X5881071Y-11744214D01*
X5852500Y-11729929D01*
X5838214Y-11715643D01*
X5823928Y-11687071D01*
X5809643Y-11629929D01*
X5809643Y-11558500D01*
X5823928Y-11501357D01*
X5838214Y-11472786D01*
X5852500Y-11458500D01*
X5881071Y-11444214D01*
X6238214Y-11444214D02*
X6181071Y-11444214D01*
X6152500Y-11458500D01*
X6138214Y-11472786D01*
X6109643Y-11515643D01*
X6095357Y-11572786D01*
X6095357Y-11687071D01*
X6109643Y-11715643D01*
X6123928Y-11729929D01*
X6152500Y-11744214D01*
X6209643Y-11744214D01*
X6238214Y-11729929D01*
X6252500Y-11715643D01*
X6266786Y-11687071D01*
X6266786Y-11615643D01*
X6252500Y-11587071D01*
X6238214Y-11572786D01*
X6209643Y-11558500D01*
X6152500Y-11558500D01*
X6123928Y-11572786D01*
X6109643Y-11587071D01*
X6095357Y-11615643D01*
X6366786Y-11444214D02*
X6552500Y-11444214D01*
X6452500Y-11558500D01*
X6495357Y-11558500D01*
X6523928Y-11572786D01*
X6538214Y-11587071D01*
X6552500Y-11615643D01*
X6552500Y-11687071D01*
X6538214Y-11715643D01*
X6523928Y-11729929D01*
X6495357Y-11744214D01*
X6409643Y-11744214D01*
X6381071Y-11729929D01*
X6366786Y-11715643D01*
X6666786Y-11444214D02*
X6666786Y-11501357D01*
X6781071Y-11444214D02*
X6781071Y-11501357D01*
X7223928Y-11858500D02*
X7209643Y-11844214D01*
X7181071Y-11801357D01*
X7166786Y-11772786D01*
X7152500Y-11729929D01*
X7138214Y-11658500D01*
X7138214Y-11601357D01*
X7152500Y-11529929D01*
X7166786Y-11487071D01*
X7181071Y-11458500D01*
X7209643Y-11415643D01*
X7223928Y-11401357D01*
X7381071Y-11572786D02*
X7352500Y-11558500D01*
X7338214Y-11544214D01*
X7323928Y-11515643D01*
X7323928Y-11501357D01*
X7338214Y-11472786D01*
X7352500Y-11458500D01*
X7381071Y-11444214D01*
X7438214Y-11444214D01*
X7466786Y-11458500D01*
X7481071Y-11472786D01*
X7495357Y-11501357D01*
X7495357Y-11515643D01*
X7481071Y-11544214D01*
X7466786Y-11558500D01*
X7438214Y-11572786D01*
X7381071Y-11572786D01*
X7352500Y-11587071D01*
X7338214Y-11601357D01*
X7323928Y-11629929D01*
X7323928Y-11687071D01*
X7338214Y-11715643D01*
X7352500Y-11729929D01*
X7381071Y-11744214D01*
X7438214Y-11744214D01*
X7466786Y-11729929D01*
X7481071Y-11715643D01*
X7495357Y-11687071D01*
X7495357Y-11629929D01*
X7481071Y-11601357D01*
X7466786Y-11587071D01*
X7438214Y-11572786D01*
X7852500Y-11744214D02*
X7852500Y-11444214D01*
X7981071Y-11744214D02*
X7981071Y-11587071D01*
X7966786Y-11558500D01*
X7938214Y-11544214D01*
X7895357Y-11544214D01*
X7866786Y-11558500D01*
X7852500Y-11572786D01*
X8166786Y-11744214D02*
X8138214Y-11729929D01*
X8123928Y-11715643D01*
X8109643Y-11687071D01*
X8109643Y-11601357D01*
X8123928Y-11572786D01*
X8138214Y-11558500D01*
X8166786Y-11544214D01*
X8209643Y-11544214D01*
X8238214Y-11558500D01*
X8252500Y-11572786D01*
X8266786Y-11601357D01*
X8266786Y-11687071D01*
X8252500Y-11715643D01*
X8238214Y-11729929D01*
X8209643Y-11744214D01*
X8166786Y-11744214D01*
X8438214Y-11744214D02*
X8409643Y-11729929D01*
X8395357Y-11701357D01*
X8395357Y-11444214D01*
X8666786Y-11729929D02*
X8638214Y-11744214D01*
X8581071Y-11744214D01*
X8552500Y-11729929D01*
X8538214Y-11701357D01*
X8538214Y-11587071D01*
X8552500Y-11558500D01*
X8581071Y-11544214D01*
X8638214Y-11544214D01*
X8666786Y-11558500D01*
X8681071Y-11587071D01*
X8681071Y-11615643D01*
X8538214Y-11644214D01*
X8795357Y-11729929D02*
X8823928Y-11744214D01*
X8881071Y-11744214D01*
X8909643Y-11729929D01*
X8923928Y-11701357D01*
X8923928Y-11687071D01*
X8909643Y-11658500D01*
X8881071Y-11644214D01*
X8838214Y-11644214D01*
X8809643Y-11629929D01*
X8795357Y-11601357D01*
X8795357Y-11587071D01*
X8809643Y-11558500D01*
X8838214Y-11544214D01*
X8881071Y-11544214D01*
X8909643Y-11558500D01*
X9023928Y-11858500D02*
X9038214Y-11844214D01*
X9066786Y-11801357D01*
X9081071Y-11772786D01*
X9095357Y-11729929D01*
X9109643Y-11658500D01*
X9109643Y-11601357D01*
X9095357Y-11529929D01*
X9081071Y-11487071D01*
X9066786Y-11458500D01*
X9038214Y-11415643D01*
X9023928Y-11401357D01*
M02*
