%TF.GenerationSoftware,KiCad,Pcbnew,5.1.8-5.1.8*%
%TF.CreationDate,2023-07-26T00:19:43+02:00*%
%TF.ProjectId,C64-PSU-PCB-replacement-for-902503-06,4336342d-5053-4552-9d50-43422d726570,rev?*%
%TF.SameCoordinates,Original*%
%TF.FileFunction,Soldermask,Bot*%
%TF.FilePolarity,Negative*%
%FSLAX46Y46*%
G04 Gerber Fmt 4.6, Leading zero omitted, Abs format (unit mm)*
G04 Created by KiCad (PCBNEW 5.1.8-5.1.8) date 2023-07-26 00:19:43*
%MOMM*%
%LPD*%
G01*
G04 APERTURE LIST*
%ADD10C,1.500000*%
%ADD11C,3.000000*%
%ADD12R,2.500000X5.000000*%
%ADD13O,1.905000X2.000000*%
%ADD14R,1.905000X2.000000*%
%ADD15O,1.700000X1.700000*%
%ADD16R,1.700000X1.700000*%
%ADD17C,2.700000*%
%ADD18C,1.440000*%
%ADD19O,1.400000X1.400000*%
%ADD20C,1.400000*%
%ADD21O,3.200000X3.200000*%
%ADD22R,3.200000X3.200000*%
%ADD23R,3.200001X3.200001*%
%ADD24O,3.200001X3.200001*%
%ADD25O,1.600000X1.600000*%
%ADD26C,1.600000*%
%ADD27O,2.800000X2.800000*%
%ADD28R,2.800000X2.800000*%
G04 APERTURE END LIST*
D10*
%TO.C,PS1*%
X73914000Y-54004000D03*
X73914000Y-55704000D03*
X73914000Y-57404000D03*
X73914000Y-59104000D03*
X73914000Y-60804000D03*
%TD*%
D11*
%TO.C,J4*%
X33528000Y-33909000D03*
%TD*%
%TO.C,J3*%
X33528000Y-46355000D03*
%TD*%
%TO.C,C3*%
G36*
G01*
X75718660Y-58563220D02*
X76193660Y-58563220D01*
G75*
G02*
X76431160Y-58800720I0J-237500D01*
G01*
X76431160Y-59400720D01*
G75*
G02*
X76193660Y-59638220I-237500J0D01*
G01*
X75718660Y-59638220D01*
G75*
G02*
X75481160Y-59400720I0J237500D01*
G01*
X75481160Y-58800720D01*
G75*
G02*
X75718660Y-58563220I237500J0D01*
G01*
G37*
G36*
G01*
X75718660Y-56838220D02*
X76193660Y-56838220D01*
G75*
G02*
X76431160Y-57075720I0J-237500D01*
G01*
X76431160Y-57675720D01*
G75*
G02*
X76193660Y-57913220I-237500J0D01*
G01*
X75718660Y-57913220D01*
G75*
G02*
X75481160Y-57675720I0J237500D01*
G01*
X75481160Y-57075720D01*
G75*
G02*
X75718660Y-56838220I237500J0D01*
G01*
G37*
%TD*%
%TO.C,C2*%
G36*
G01*
X71542900Y-56879540D02*
X72017900Y-56879540D01*
G75*
G02*
X72255400Y-57117040I0J-237500D01*
G01*
X72255400Y-57717040D01*
G75*
G02*
X72017900Y-57954540I-237500J0D01*
G01*
X71542900Y-57954540D01*
G75*
G02*
X71305400Y-57717040I0J237500D01*
G01*
X71305400Y-57117040D01*
G75*
G02*
X71542900Y-56879540I237500J0D01*
G01*
G37*
G36*
G01*
X71542900Y-55154540D02*
X72017900Y-55154540D01*
G75*
G02*
X72255400Y-55392040I0J-237500D01*
G01*
X72255400Y-55992040D01*
G75*
G02*
X72017900Y-56229540I-237500J0D01*
G01*
X71542900Y-56229540D01*
G75*
G02*
X71305400Y-55992040I0J237500D01*
G01*
X71305400Y-55392040D01*
G75*
G02*
X71542900Y-55154540I237500J0D01*
G01*
G37*
%TD*%
D12*
%TO.C,REF\u002A\u002A*%
X79857600Y-74714100D03*
%TD*%
%TO.C,REF\u002A\u002A*%
X87871300Y-74714100D03*
%TD*%
D13*
%TO.C,U0*%
X63754000Y-74803000D03*
X61214000Y-74803000D03*
D14*
X58674000Y-74803000D03*
%TD*%
D15*
%TO.C,J1*%
X40005000Y-74930000D03*
D16*
X42545000Y-74930000D03*
%TD*%
D17*
%TO.C,F2*%
X33528000Y-40185000D03*
D11*
X33528000Y-28935000D03*
X33528000Y-51435000D03*
%TD*%
D18*
%TO.C,RV1*%
X79375000Y-59690000D03*
X81915000Y-57150000D03*
X79375000Y-54610000D03*
%TD*%
D19*
%TO.C,R1*%
X81915000Y-53340000D03*
D20*
X81915000Y-60960000D03*
%TD*%
D15*
%TO.C,J2*%
X85090000Y-74930000D03*
D16*
X82550000Y-74930000D03*
%TD*%
D21*
%TO.C,D4*%
X67310000Y-62230000D03*
D22*
X52070000Y-62230000D03*
%TD*%
D21*
%TO.C,D3*%
X67310000Y-56515000D03*
D23*
X52070000Y-56515000D03*
%TD*%
D21*
%TO.C,D2*%
X48260000Y-62230000D03*
D22*
X33020000Y-62230000D03*
%TD*%
D24*
%TO.C,D1*%
X48260000Y-56515000D03*
D22*
X33020000Y-56515000D03*
%TD*%
D25*
%TO.C,C6*%
X92710000Y-62865000D03*
D26*
X85210000Y-62865000D03*
%TD*%
D25*
%TO.C,C5*%
X92710000Y-57785000D03*
D26*
X85210000Y-57785000D03*
%TD*%
D25*
%TO.C,C4*%
X92710000Y-52705000D03*
D26*
X85210000Y-52705000D03*
%TD*%
D27*
%TO.C,C1*%
X92710000Y-40005000D03*
D28*
X40710000Y-40005000D03*
%TD*%
M02*
