%FSLAX45Y45*%
G04 Gerber Fmt 4.5, Leading zero omitted, Abs format (unit mm)*
G04 Created by KiCad (PCBNEW 5.1.8-5.1.8) date 2023-07-26 00:19:24*
%MOMM*%
%LPD*%
G01*
G04 APERTURE LIST*
%TA.AperFunction,Profile*%
%ADD10C,0.050000*%
%TD*%
%ADD11C,0.200000*%
%ADD12C,0.300000*%
G04 APERTURE END LIST*
D10*
X2540000Y-7874000D02*
X2540000Y-2540000D01*
X9588500Y-7874000D02*
X2540000Y-7874000D01*
X9588500Y-2540000D02*
X9588500Y-7874000D01*
X2540000Y-2540000D02*
X9588500Y-2540000D01*
D11*
X3217800Y-3883500D02*
X3487800Y-4153500D01*
X3487800Y-3883500D02*
X3217800Y-4153500D01*
D12*
X2823928Y-8342214D02*
X2823928Y-8042214D01*
X2895357Y-8042214D01*
X2938214Y-8056500D01*
X2966786Y-8085071D01*
X2981071Y-8113643D01*
X2995357Y-8170786D01*
X2995357Y-8213643D01*
X2981071Y-8270786D01*
X2966786Y-8299357D01*
X2938214Y-8327929D01*
X2895357Y-8342214D01*
X2823928Y-8342214D01*
X3123928Y-8342214D02*
X3123928Y-8142214D01*
X3123928Y-8199357D02*
X3138214Y-8170786D01*
X3152500Y-8156500D01*
X3181071Y-8142214D01*
X3209643Y-8142214D01*
X3309643Y-8342214D02*
X3309643Y-8142214D01*
X3309643Y-8042214D02*
X3295357Y-8056500D01*
X3309643Y-8070786D01*
X3323928Y-8056500D01*
X3309643Y-8042214D01*
X3309643Y-8070786D01*
X3495357Y-8342214D02*
X3466786Y-8327929D01*
X3452500Y-8299357D01*
X3452500Y-8042214D01*
X3652500Y-8342214D02*
X3623928Y-8327929D01*
X3609643Y-8299357D01*
X3609643Y-8042214D01*
X3995357Y-8342214D02*
X3995357Y-8042214D01*
X4095357Y-8256500D01*
X4195357Y-8042214D01*
X4195357Y-8342214D01*
X4466786Y-8342214D02*
X4466786Y-8185071D01*
X4452500Y-8156500D01*
X4423928Y-8142214D01*
X4366786Y-8142214D01*
X4338214Y-8156500D01*
X4466786Y-8327929D02*
X4438214Y-8342214D01*
X4366786Y-8342214D01*
X4338214Y-8327929D01*
X4323928Y-8299357D01*
X4323928Y-8270786D01*
X4338214Y-8242214D01*
X4366786Y-8227929D01*
X4438214Y-8227929D01*
X4466786Y-8213643D01*
X4609643Y-8142214D02*
X4609643Y-8442214D01*
X4609643Y-8156500D02*
X4638214Y-8142214D01*
X4695357Y-8142214D01*
X4723928Y-8156500D01*
X4738214Y-8170786D01*
X4752500Y-8199357D01*
X4752500Y-8285071D01*
X4738214Y-8313643D01*
X4723928Y-8327929D01*
X4695357Y-8342214D01*
X4638214Y-8342214D01*
X4609643Y-8327929D01*
X4881071Y-8313643D02*
X4895357Y-8327929D01*
X4881071Y-8342214D01*
X4866786Y-8327929D01*
X4881071Y-8313643D01*
X4881071Y-8342214D01*
X4881071Y-8156500D02*
X4895357Y-8170786D01*
X4881071Y-8185071D01*
X4866786Y-8170786D01*
X4881071Y-8156500D01*
X4881071Y-8185071D01*
X2267500Y-8701500D02*
X2537500Y-8971500D01*
X2537500Y-8701500D02*
X2267500Y-8971500D01*
X2809643Y-8700786D02*
X2823928Y-8686500D01*
X2852500Y-8672214D01*
X2923928Y-8672214D01*
X2952500Y-8686500D01*
X2966786Y-8700786D01*
X2981071Y-8729357D01*
X2981071Y-8757929D01*
X2966786Y-8800786D01*
X2795357Y-8972214D01*
X2981071Y-8972214D01*
X3109643Y-8943643D02*
X3123928Y-8957929D01*
X3109643Y-8972214D01*
X3095357Y-8957929D01*
X3109643Y-8943643D01*
X3109643Y-8972214D01*
X3223928Y-8672214D02*
X3423928Y-8672214D01*
X3295357Y-8972214D01*
X3595357Y-8672214D02*
X3623928Y-8672214D01*
X3652500Y-8686500D01*
X3666786Y-8700786D01*
X3681071Y-8729357D01*
X3695357Y-8786500D01*
X3695357Y-8857929D01*
X3681071Y-8915072D01*
X3666786Y-8943643D01*
X3652500Y-8957929D01*
X3623928Y-8972214D01*
X3595357Y-8972214D01*
X3566786Y-8957929D01*
X3552500Y-8943643D01*
X3538214Y-8915072D01*
X3523928Y-8857929D01*
X3523928Y-8786500D01*
X3538214Y-8729357D01*
X3552500Y-8700786D01*
X3566786Y-8686500D01*
X3595357Y-8672214D01*
X3823928Y-8972214D02*
X3823928Y-8772214D01*
X3823928Y-8800786D02*
X3838214Y-8786500D01*
X3866786Y-8772214D01*
X3909643Y-8772214D01*
X3938214Y-8786500D01*
X3952500Y-8815072D01*
X3952500Y-8972214D01*
X3952500Y-8815072D02*
X3966786Y-8786500D01*
X3995357Y-8772214D01*
X4038214Y-8772214D01*
X4066786Y-8786500D01*
X4081071Y-8815072D01*
X4081071Y-8972214D01*
X4223928Y-8972214D02*
X4223928Y-8772214D01*
X4223928Y-8800786D02*
X4238214Y-8786500D01*
X4266786Y-8772214D01*
X4309643Y-8772214D01*
X4338214Y-8786500D01*
X4352500Y-8815072D01*
X4352500Y-8972214D01*
X4352500Y-8815072D02*
X4366786Y-8786500D01*
X4395357Y-8772214D01*
X4438214Y-8772214D01*
X4466786Y-8786500D01*
X4481071Y-8815072D01*
X4481071Y-8972214D01*
X5066786Y-8657929D02*
X4809643Y-9043643D01*
X5452500Y-8672214D02*
X5481071Y-8672214D01*
X5509643Y-8686500D01*
X5523928Y-8700786D01*
X5538214Y-8729357D01*
X5552500Y-8786500D01*
X5552500Y-8857929D01*
X5538214Y-8915072D01*
X5523928Y-8943643D01*
X5509643Y-8957929D01*
X5481071Y-8972214D01*
X5452500Y-8972214D01*
X5423928Y-8957929D01*
X5409643Y-8943643D01*
X5395357Y-8915072D01*
X5381071Y-8857929D01*
X5381071Y-8786500D01*
X5395357Y-8729357D01*
X5409643Y-8700786D01*
X5423928Y-8686500D01*
X5452500Y-8672214D01*
X5681071Y-8943643D02*
X5695357Y-8957929D01*
X5681071Y-8972214D01*
X5666786Y-8957929D01*
X5681071Y-8943643D01*
X5681071Y-8972214D01*
X5981071Y-8972214D02*
X5809643Y-8972214D01*
X5895357Y-8972214D02*
X5895357Y-8672214D01*
X5866786Y-8715072D01*
X5838214Y-8743643D01*
X5809643Y-8757929D01*
X6166786Y-8672214D02*
X6195357Y-8672214D01*
X6223928Y-8686500D01*
X6238214Y-8700786D01*
X6252500Y-8729357D01*
X6266786Y-8786500D01*
X6266786Y-8857929D01*
X6252500Y-8915072D01*
X6238214Y-8943643D01*
X6223928Y-8957929D01*
X6195357Y-8972214D01*
X6166786Y-8972214D01*
X6138214Y-8957929D01*
X6123928Y-8943643D01*
X6109643Y-8915072D01*
X6095357Y-8857929D01*
X6095357Y-8786500D01*
X6109643Y-8729357D01*
X6123928Y-8700786D01*
X6138214Y-8686500D01*
X6166786Y-8672214D01*
X6523928Y-8672214D02*
X6466786Y-8672214D01*
X6438214Y-8686500D01*
X6423928Y-8700786D01*
X6395357Y-8743643D01*
X6381071Y-8800786D01*
X6381071Y-8915072D01*
X6395357Y-8943643D01*
X6409643Y-8957929D01*
X6438214Y-8972214D01*
X6495357Y-8972214D01*
X6523928Y-8957929D01*
X6538214Y-8943643D01*
X6552500Y-8915072D01*
X6552500Y-8843643D01*
X6538214Y-8815072D01*
X6523928Y-8800786D01*
X6495357Y-8786500D01*
X6438214Y-8786500D01*
X6409643Y-8800786D01*
X6395357Y-8815072D01*
X6381071Y-8843643D01*
X6666786Y-8672214D02*
X6666786Y-8729357D01*
X6781071Y-8672214D02*
X6781071Y-8729357D01*
X7223928Y-9086500D02*
X7209643Y-9072214D01*
X7181071Y-9029357D01*
X7166786Y-9000786D01*
X7152500Y-8957929D01*
X7138214Y-8886500D01*
X7138214Y-8829357D01*
X7152500Y-8757929D01*
X7166786Y-8715072D01*
X7181071Y-8686500D01*
X7209643Y-8643643D01*
X7223928Y-8629357D01*
X7495357Y-8972214D02*
X7323928Y-8972214D01*
X7409643Y-8972214D02*
X7409643Y-8672214D01*
X7381071Y-8715072D01*
X7352500Y-8743643D01*
X7323928Y-8757929D01*
X7852500Y-8972214D02*
X7852500Y-8672214D01*
X7981071Y-8972214D02*
X7981071Y-8815072D01*
X7966786Y-8786500D01*
X7938214Y-8772214D01*
X7895357Y-8772214D01*
X7866786Y-8786500D01*
X7852500Y-8800786D01*
X8166786Y-8972214D02*
X8138214Y-8957929D01*
X8123928Y-8943643D01*
X8109643Y-8915072D01*
X8109643Y-8829357D01*
X8123928Y-8800786D01*
X8138214Y-8786500D01*
X8166786Y-8772214D01*
X8209643Y-8772214D01*
X8238214Y-8786500D01*
X8252500Y-8800786D01*
X8266786Y-8829357D01*
X8266786Y-8915072D01*
X8252500Y-8943643D01*
X8238214Y-8957929D01*
X8209643Y-8972214D01*
X8166786Y-8972214D01*
X8438214Y-8972214D02*
X8409643Y-8957929D01*
X8395357Y-8929357D01*
X8395357Y-8672214D01*
X8666786Y-8957929D02*
X8638214Y-8972214D01*
X8581071Y-8972214D01*
X8552500Y-8957929D01*
X8538214Y-8929357D01*
X8538214Y-8815072D01*
X8552500Y-8786500D01*
X8581071Y-8772214D01*
X8638214Y-8772214D01*
X8666786Y-8786500D01*
X8681071Y-8815072D01*
X8681071Y-8843643D01*
X8538214Y-8872214D01*
X8781071Y-9086500D02*
X8795357Y-9072214D01*
X8823928Y-9029357D01*
X8838214Y-9000786D01*
X8852500Y-8957929D01*
X8866786Y-8886500D01*
X8866786Y-8829357D01*
X8852500Y-8757929D01*
X8838214Y-8715072D01*
X8823928Y-8686500D01*
X8795357Y-8643643D01*
X8781071Y-8629357D01*
X9323928Y-9086500D02*
X9309643Y-9072214D01*
X9281071Y-9029357D01*
X9266786Y-9000786D01*
X9252500Y-8957929D01*
X9238214Y-8886500D01*
X9238214Y-8829357D01*
X9252500Y-8757929D01*
X9266786Y-8715072D01*
X9281071Y-8686500D01*
X9309643Y-8643643D01*
X9323928Y-8629357D01*
X9438214Y-8772214D02*
X9438214Y-8972214D01*
X9438214Y-8800786D02*
X9452500Y-8786500D01*
X9481071Y-8772214D01*
X9523928Y-8772214D01*
X9552500Y-8786500D01*
X9566786Y-8815072D01*
X9566786Y-8972214D01*
X9752500Y-8972214D02*
X9723928Y-8957929D01*
X9709643Y-8943643D01*
X9695357Y-8915072D01*
X9695357Y-8829357D01*
X9709643Y-8800786D01*
X9723928Y-8786500D01*
X9752500Y-8772214D01*
X9795357Y-8772214D01*
X9823928Y-8786500D01*
X9838214Y-8800786D01*
X9852500Y-8829357D01*
X9852500Y-8915072D01*
X9838214Y-8943643D01*
X9823928Y-8957929D01*
X9795357Y-8972214D01*
X9752500Y-8972214D01*
X9938214Y-8772214D02*
X10052500Y-8772214D01*
X9981071Y-8672214D02*
X9981071Y-8929357D01*
X9995357Y-8957929D01*
X10023928Y-8972214D01*
X10052500Y-8972214D01*
X10381071Y-8772214D02*
X10381071Y-9072214D01*
X10381071Y-8786500D02*
X10409643Y-8772214D01*
X10466786Y-8772214D01*
X10495357Y-8786500D01*
X10509643Y-8800786D01*
X10523928Y-8829357D01*
X10523928Y-8915072D01*
X10509643Y-8943643D01*
X10495357Y-8957929D01*
X10466786Y-8972214D01*
X10409643Y-8972214D01*
X10381071Y-8957929D01*
X10695357Y-8972214D02*
X10666786Y-8957929D01*
X10652500Y-8929357D01*
X10652500Y-8672214D01*
X10938214Y-8972214D02*
X10938214Y-8815072D01*
X10923928Y-8786500D01*
X10895357Y-8772214D01*
X10838214Y-8772214D01*
X10809643Y-8786500D01*
X10938214Y-8957929D02*
X10909643Y-8972214D01*
X10838214Y-8972214D01*
X10809643Y-8957929D01*
X10795357Y-8929357D01*
X10795357Y-8900786D01*
X10809643Y-8872214D01*
X10838214Y-8857929D01*
X10909643Y-8857929D01*
X10938214Y-8843643D01*
X11038214Y-8772214D02*
X11152500Y-8772214D01*
X11081071Y-8672214D02*
X11081071Y-8929357D01*
X11095357Y-8957929D01*
X11123928Y-8972214D01*
X11152500Y-8972214D01*
X11366786Y-8957929D02*
X11338214Y-8972214D01*
X11281071Y-8972214D01*
X11252500Y-8957929D01*
X11238214Y-8929357D01*
X11238214Y-8815072D01*
X11252500Y-8786500D01*
X11281071Y-8772214D01*
X11338214Y-8772214D01*
X11366786Y-8786500D01*
X11381071Y-8815072D01*
X11381071Y-8843643D01*
X11238214Y-8872214D01*
X11638214Y-8972214D02*
X11638214Y-8672214D01*
X11638214Y-8957929D02*
X11609643Y-8972214D01*
X11552500Y-8972214D01*
X11523928Y-8957929D01*
X11509643Y-8943643D01*
X11495357Y-8915072D01*
X11495357Y-8829357D01*
X11509643Y-8800786D01*
X11523928Y-8786500D01*
X11552500Y-8772214D01*
X11609643Y-8772214D01*
X11638214Y-8786500D01*
X11752500Y-9086500D02*
X11766786Y-9072214D01*
X11795357Y-9029357D01*
X11809643Y-9000786D01*
X11823928Y-8957929D01*
X11838214Y-8886500D01*
X11838214Y-8829357D01*
X11823928Y-8757929D01*
X11809643Y-8715072D01*
X11795357Y-8686500D01*
X11766786Y-8643643D01*
X11752500Y-8629357D01*
M02*
