%TF.GenerationSoftware,KiCad,Pcbnew,5.1.8-5.1.8*%
%TF.CreationDate,2023-07-26T00:19:43+02:00*%
%TF.ProjectId,C64-PSU-PCB-replacement-for-902503-06,4336342d-5053-4552-9d50-43422d726570,rev?*%
%TF.SameCoordinates,Original*%
%TF.FileFunction,Legend,Bot*%
%TF.FilePolarity,Positive*%
%FSLAX46Y46*%
G04 Gerber Fmt 4.6, Leading zero omitted, Abs format (unit mm)*
G04 Created by KiCad (PCBNEW 5.1.8-5.1.8) date 2023-07-26 00:19:43*
%MOMM*%
%LPD*%
G01*
G04 APERTURE LIST*
%ADD10C,0.150000*%
%ADD11C,0.120000*%
G04 APERTURE END LIST*
D10*
X75025000Y-75001428D02*
X74263095Y-75001428D01*
X74644047Y-75382380D02*
X74644047Y-74620476D01*
X73310714Y-74382380D02*
X73786904Y-74382380D01*
X73834523Y-74858571D01*
X73786904Y-74810952D01*
X73691666Y-74763333D01*
X73453571Y-74763333D01*
X73358333Y-74810952D01*
X73310714Y-74858571D01*
X73263095Y-74953809D01*
X73263095Y-75191904D01*
X73310714Y-75287142D01*
X73358333Y-75334761D01*
X73453571Y-75382380D01*
X73691666Y-75382380D01*
X73786904Y-75334761D01*
X73834523Y-75287142D01*
X72786904Y-75334761D02*
X72786904Y-75382380D01*
X72834523Y-75477619D01*
X72882142Y-75525238D01*
X71834523Y-75382380D02*
X72405952Y-75382380D01*
X72120238Y-75382380D02*
X72120238Y-74382380D01*
X72215476Y-74525238D01*
X72310714Y-74620476D01*
X72405952Y-74668095D01*
X71548809Y-74382380D02*
X71215476Y-75382380D01*
X70882142Y-74382380D01*
X93344904Y-74430000D02*
X93440142Y-74382380D01*
X93583000Y-74382380D01*
X93725857Y-74430000D01*
X93821095Y-74525238D01*
X93868714Y-74620476D01*
X93916333Y-74810952D01*
X93916333Y-74953809D01*
X93868714Y-75144285D01*
X93821095Y-75239523D01*
X93725857Y-75334761D01*
X93583000Y-75382380D01*
X93487761Y-75382380D01*
X93344904Y-75334761D01*
X93297285Y-75287142D01*
X93297285Y-74953809D01*
X93487761Y-74953809D01*
X92868714Y-75382380D02*
X92868714Y-74382380D01*
X92297285Y-75382380D01*
X92297285Y-74382380D01*
X91821095Y-75382380D02*
X91821095Y-74382380D01*
X91583000Y-74382380D01*
X91440142Y-74430000D01*
X91344904Y-74525238D01*
X91297285Y-74620476D01*
X91249666Y-74810952D01*
X91249666Y-74953809D01*
X91297285Y-75144285D01*
X91344904Y-75239523D01*
X91440142Y-75334761D01*
X91583000Y-75382380D01*
X91821095Y-75382380D01*
X86380761Y-27027142D02*
X86428380Y-27074761D01*
X86571238Y-27122380D01*
X86666476Y-27122380D01*
X86809333Y-27074761D01*
X86904571Y-26979523D01*
X86952190Y-26884285D01*
X86999809Y-26693809D01*
X86999809Y-26550952D01*
X86952190Y-26360476D01*
X86904571Y-26265238D01*
X86809333Y-26170000D01*
X86666476Y-26122380D01*
X86571238Y-26122380D01*
X86428380Y-26170000D01*
X86380761Y-26217619D01*
X85523619Y-26122380D02*
X85714095Y-26122380D01*
X85809333Y-26170000D01*
X85856952Y-26217619D01*
X85952190Y-26360476D01*
X85999809Y-26550952D01*
X85999809Y-26931904D01*
X85952190Y-27027142D01*
X85904571Y-27074761D01*
X85809333Y-27122380D01*
X85618857Y-27122380D01*
X85523619Y-27074761D01*
X85476000Y-27027142D01*
X85428380Y-26931904D01*
X85428380Y-26693809D01*
X85476000Y-26598571D01*
X85523619Y-26550952D01*
X85618857Y-26503333D01*
X85809333Y-26503333D01*
X85904571Y-26550952D01*
X85952190Y-26598571D01*
X85999809Y-26693809D01*
X84571238Y-26455714D02*
X84571238Y-27122380D01*
X84809333Y-26074761D02*
X85047428Y-26789047D01*
X84428380Y-26789047D01*
X84047428Y-26741428D02*
X83285523Y-26741428D01*
X82809333Y-27122380D02*
X82809333Y-26122380D01*
X82428380Y-26122380D01*
X82333142Y-26170000D01*
X82285523Y-26217619D01*
X82237904Y-26312857D01*
X82237904Y-26455714D01*
X82285523Y-26550952D01*
X82333142Y-26598571D01*
X82428380Y-26646190D01*
X82809333Y-26646190D01*
X81856952Y-27074761D02*
X81714095Y-27122380D01*
X81475999Y-27122380D01*
X81380761Y-27074761D01*
X81333142Y-27027142D01*
X81285523Y-26931904D01*
X81285523Y-26836666D01*
X81333142Y-26741428D01*
X81380761Y-26693809D01*
X81475999Y-26646190D01*
X81666476Y-26598571D01*
X81761714Y-26550952D01*
X81809333Y-26503333D01*
X81856952Y-26408095D01*
X81856952Y-26312857D01*
X81809333Y-26217619D01*
X81761714Y-26170000D01*
X81666476Y-26122380D01*
X81428380Y-26122380D01*
X81285523Y-26170000D01*
X80856952Y-26122380D02*
X80856952Y-26931904D01*
X80809333Y-27027142D01*
X80761714Y-27074761D01*
X80666476Y-27122380D01*
X80475999Y-27122380D01*
X80380761Y-27074761D01*
X80333142Y-27027142D01*
X80285523Y-26931904D01*
X80285523Y-26122380D01*
X79809333Y-26741428D02*
X79047428Y-26741428D01*
X78571238Y-27122380D02*
X78571238Y-26122380D01*
X78190285Y-26122380D01*
X78095047Y-26170000D01*
X78047428Y-26217619D01*
X77999809Y-26312857D01*
X77999809Y-26455714D01*
X78047428Y-26550952D01*
X78095047Y-26598571D01*
X78190285Y-26646190D01*
X78571238Y-26646190D01*
X76999809Y-27027142D02*
X77047428Y-27074761D01*
X77190285Y-27122380D01*
X77285523Y-27122380D01*
X77428380Y-27074761D01*
X77523619Y-26979523D01*
X77571238Y-26884285D01*
X77618857Y-26693809D01*
X77618857Y-26550952D01*
X77571238Y-26360476D01*
X77523619Y-26265238D01*
X77428380Y-26170000D01*
X77285523Y-26122380D01*
X77190285Y-26122380D01*
X77047428Y-26170000D01*
X76999809Y-26217619D01*
X76237904Y-26598571D02*
X76095047Y-26646190D01*
X76047428Y-26693809D01*
X75999809Y-26789047D01*
X75999809Y-26931904D01*
X76047428Y-27027142D01*
X76095047Y-27074761D01*
X76190285Y-27122380D01*
X76571238Y-27122380D01*
X76571238Y-26122380D01*
X76237904Y-26122380D01*
X76142666Y-26170000D01*
X76095047Y-26217619D01*
X76047428Y-26312857D01*
X76047428Y-26408095D01*
X76095047Y-26503333D01*
X76142666Y-26550952D01*
X76237904Y-26598571D01*
X76571238Y-26598571D01*
X74809333Y-27122380D02*
X74809333Y-26455714D01*
X74809333Y-26646190D02*
X74761714Y-26550952D01*
X74714095Y-26503333D01*
X74618857Y-26455714D01*
X74523619Y-26455714D01*
X73809333Y-27074761D02*
X73904571Y-27122380D01*
X74095047Y-27122380D01*
X74190285Y-27074761D01*
X74237904Y-26979523D01*
X74237904Y-26598571D01*
X74190285Y-26503333D01*
X74095047Y-26455714D01*
X73904571Y-26455714D01*
X73809333Y-26503333D01*
X73761714Y-26598571D01*
X73761714Y-26693809D01*
X74237904Y-26789047D01*
X73333142Y-26455714D02*
X73333142Y-27455714D01*
X73333142Y-26503333D02*
X73237904Y-26455714D01*
X73047428Y-26455714D01*
X72952190Y-26503333D01*
X72904571Y-26550952D01*
X72856952Y-26646190D01*
X72856952Y-26931904D01*
X72904571Y-27027142D01*
X72952190Y-27074761D01*
X73047428Y-27122380D01*
X73237904Y-27122380D01*
X73333142Y-27074761D01*
X72285523Y-27122380D02*
X72380761Y-27074761D01*
X72428380Y-26979523D01*
X72428380Y-26122380D01*
X71476000Y-27122380D02*
X71476000Y-26598571D01*
X71523619Y-26503333D01*
X71618857Y-26455714D01*
X71809333Y-26455714D01*
X71904571Y-26503333D01*
X71476000Y-27074761D02*
X71571238Y-27122380D01*
X71809333Y-27122380D01*
X71904571Y-27074761D01*
X71952190Y-26979523D01*
X71952190Y-26884285D01*
X71904571Y-26789047D01*
X71809333Y-26741428D01*
X71571238Y-26741428D01*
X71476000Y-26693809D01*
X70571238Y-27074761D02*
X70666476Y-27122380D01*
X70856952Y-27122380D01*
X70952190Y-27074761D01*
X70999809Y-27027142D01*
X71047428Y-26931904D01*
X71047428Y-26646190D01*
X70999809Y-26550952D01*
X70952190Y-26503333D01*
X70856952Y-26455714D01*
X70666476Y-26455714D01*
X70571238Y-26503333D01*
X69761714Y-27074761D02*
X69856952Y-27122380D01*
X70047428Y-27122380D01*
X70142666Y-27074761D01*
X70190285Y-26979523D01*
X70190285Y-26598571D01*
X70142666Y-26503333D01*
X70047428Y-26455714D01*
X69856952Y-26455714D01*
X69761714Y-26503333D01*
X69714095Y-26598571D01*
X69714095Y-26693809D01*
X70190285Y-26789047D01*
X69285523Y-27122380D02*
X69285523Y-26455714D01*
X69285523Y-26550952D02*
X69237904Y-26503333D01*
X69142666Y-26455714D01*
X68999809Y-26455714D01*
X68904571Y-26503333D01*
X68856952Y-26598571D01*
X68856952Y-27122380D01*
X68856952Y-26598571D02*
X68809333Y-26503333D01*
X68714095Y-26455714D01*
X68571238Y-26455714D01*
X68475999Y-26503333D01*
X68428380Y-26598571D01*
X68428380Y-27122380D01*
X67571238Y-27074761D02*
X67666476Y-27122380D01*
X67856952Y-27122380D01*
X67952190Y-27074761D01*
X67999809Y-26979523D01*
X67999809Y-26598571D01*
X67952190Y-26503333D01*
X67856952Y-26455714D01*
X67666476Y-26455714D01*
X67571238Y-26503333D01*
X67523619Y-26598571D01*
X67523619Y-26693809D01*
X67999809Y-26789047D01*
X67095047Y-26455714D02*
X67095047Y-27122380D01*
X67095047Y-26550952D02*
X67047428Y-26503333D01*
X66952190Y-26455714D01*
X66809333Y-26455714D01*
X66714095Y-26503333D01*
X66666476Y-26598571D01*
X66666476Y-27122380D01*
X66333142Y-26455714D02*
X65952190Y-26455714D01*
X66190285Y-26122380D02*
X66190285Y-26979523D01*
X66142666Y-27074761D01*
X66047428Y-27122380D01*
X65952190Y-27122380D01*
X64571238Y-27503333D02*
X64618857Y-27455714D01*
X64714095Y-27312857D01*
X64761714Y-27217619D01*
X64809333Y-27074761D01*
X64856952Y-26836666D01*
X64856952Y-26646190D01*
X64809333Y-26408095D01*
X64761714Y-26265238D01*
X64714095Y-26170000D01*
X64618857Y-26027142D01*
X64571238Y-25979523D01*
X63618857Y-27122380D02*
X63952190Y-26646190D01*
X64190285Y-27122380D02*
X64190285Y-26122380D01*
X63809333Y-26122380D01*
X63714095Y-26170000D01*
X63666476Y-26217619D01*
X63618857Y-26312857D01*
X63618857Y-26455714D01*
X63666476Y-26550952D01*
X63714095Y-26598571D01*
X63809333Y-26646190D01*
X64190285Y-26646190D01*
X62809333Y-27074761D02*
X62904571Y-27122380D01*
X63095047Y-27122380D01*
X63190285Y-27074761D01*
X63237904Y-26979523D01*
X63237904Y-26598571D01*
X63190285Y-26503333D01*
X63095047Y-26455714D01*
X62904571Y-26455714D01*
X62809333Y-26503333D01*
X62761714Y-26598571D01*
X62761714Y-26693809D01*
X63237904Y-26789047D01*
X62428380Y-26455714D02*
X62190285Y-27122380D01*
X61952190Y-26455714D01*
X61571238Y-27027142D02*
X61523619Y-27074761D01*
X61571238Y-27122380D01*
X61618857Y-27074761D01*
X61571238Y-27027142D01*
X61571238Y-27122380D01*
X60333142Y-27122380D02*
X60333142Y-26122380D01*
X60095047Y-26122380D01*
X59952190Y-26170000D01*
X59856952Y-26265238D01*
X59809333Y-26360476D01*
X59761714Y-26550952D01*
X59761714Y-26693809D01*
X59809333Y-26884285D01*
X59856952Y-26979523D01*
X59952190Y-27074761D01*
X60095047Y-27122380D01*
X60333142Y-27122380D01*
X59428380Y-27503333D02*
X59380761Y-27455714D01*
X59285523Y-27312857D01*
X59237904Y-27217619D01*
X59190285Y-27074761D01*
X59142666Y-26836666D01*
X59142666Y-26646190D01*
X59190285Y-26408095D01*
X59237904Y-26265238D01*
X59285523Y-26170000D01*
X59380761Y-26027142D01*
X59428380Y-25979523D01*
X58047428Y-26455714D02*
X57666476Y-26455714D01*
X57904571Y-27122380D02*
X57904571Y-26265238D01*
X57856952Y-26170000D01*
X57761714Y-26122380D01*
X57666476Y-26122380D01*
X57190285Y-27122380D02*
X57285523Y-27074761D01*
X57333142Y-27027142D01*
X57380761Y-26931904D01*
X57380761Y-26646190D01*
X57333142Y-26550952D01*
X57285523Y-26503333D01*
X57190285Y-26455714D01*
X57047428Y-26455714D01*
X56952190Y-26503333D01*
X56904571Y-26550952D01*
X56856952Y-26646190D01*
X56856952Y-26931904D01*
X56904571Y-27027142D01*
X56952190Y-27074761D01*
X57047428Y-27122380D01*
X57190285Y-27122380D01*
X56428380Y-27122380D02*
X56428380Y-26455714D01*
X56428380Y-26646190D02*
X56380761Y-26550952D01*
X56333142Y-26503333D01*
X56237904Y-26455714D01*
X56142666Y-26455714D01*
X55190285Y-26122380D02*
X54618857Y-26122380D01*
X54904571Y-27122380D02*
X54904571Y-26122380D01*
X54285523Y-27122380D02*
X54285523Y-26455714D01*
X54285523Y-26646190D02*
X54237904Y-26550952D01*
X54190285Y-26503333D01*
X54095047Y-26455714D01*
X53999809Y-26455714D01*
X53237904Y-27122380D02*
X53237904Y-26598571D01*
X53285523Y-26503333D01*
X53380761Y-26455714D01*
X53571238Y-26455714D01*
X53666476Y-26503333D01*
X53237904Y-27074761D02*
X53333142Y-27122380D01*
X53571238Y-27122380D01*
X53666476Y-27074761D01*
X53714095Y-26979523D01*
X53714095Y-26884285D01*
X53666476Y-26789047D01*
X53571238Y-26741428D01*
X53333142Y-26741428D01*
X53237904Y-26693809D01*
X52761714Y-26455714D02*
X52761714Y-27122380D01*
X52761714Y-26550952D02*
X52714095Y-26503333D01*
X52618857Y-26455714D01*
X52475999Y-26455714D01*
X52380761Y-26503333D01*
X52333142Y-26598571D01*
X52333142Y-27122380D01*
X51904571Y-27074761D02*
X51809333Y-27122380D01*
X51618857Y-27122380D01*
X51523619Y-27074761D01*
X51475999Y-26979523D01*
X51475999Y-26931904D01*
X51523619Y-26836666D01*
X51618857Y-26789047D01*
X51761714Y-26789047D01*
X51856952Y-26741428D01*
X51904571Y-26646190D01*
X51904571Y-26598571D01*
X51856952Y-26503333D01*
X51761714Y-26455714D01*
X51618857Y-26455714D01*
X51523619Y-26503333D01*
X51190285Y-26455714D02*
X50809333Y-26455714D01*
X51047428Y-27122380D02*
X51047428Y-26265238D01*
X50999809Y-26170000D01*
X50904571Y-26122380D01*
X50809333Y-26122380D01*
X50333142Y-27122380D02*
X50428380Y-27074761D01*
X50475999Y-27027142D01*
X50523619Y-26931904D01*
X50523619Y-26646190D01*
X50475999Y-26550952D01*
X50428380Y-26503333D01*
X50333142Y-26455714D01*
X50190285Y-26455714D01*
X50095047Y-26503333D01*
X50047428Y-26550952D01*
X49999809Y-26646190D01*
X49999809Y-26931904D01*
X50047428Y-27027142D01*
X50095047Y-27074761D01*
X50190285Y-27122380D01*
X50333142Y-27122380D01*
X49571238Y-27122380D02*
X49571238Y-26455714D01*
X49571238Y-26646190D02*
X49523619Y-26550952D01*
X49475999Y-26503333D01*
X49380761Y-26455714D01*
X49285523Y-26455714D01*
X48952190Y-27122380D02*
X48952190Y-26455714D01*
X48952190Y-26550952D02*
X48904571Y-26503333D01*
X48809333Y-26455714D01*
X48666476Y-26455714D01*
X48571238Y-26503333D01*
X48523619Y-26598571D01*
X48523619Y-27122380D01*
X48523619Y-26598571D02*
X48475999Y-26503333D01*
X48380761Y-26455714D01*
X48237904Y-26455714D01*
X48142666Y-26503333D01*
X48095047Y-26598571D01*
X48095047Y-27122380D01*
X47237904Y-27074761D02*
X47333142Y-27122380D01*
X47523619Y-27122380D01*
X47618857Y-27074761D01*
X47666476Y-26979523D01*
X47666476Y-26598571D01*
X47618857Y-26503333D01*
X47523619Y-26455714D01*
X47333142Y-26455714D01*
X47237904Y-26503333D01*
X47190285Y-26598571D01*
X47190285Y-26693809D01*
X47666476Y-26789047D01*
X46761714Y-27122380D02*
X46761714Y-26455714D01*
X46761714Y-26646190D02*
X46714095Y-26550952D01*
X46666476Y-26503333D01*
X46571238Y-26455714D01*
X46475999Y-26455714D01*
X45333142Y-27122380D02*
X45142666Y-27122380D01*
X45047428Y-27074761D01*
X44999809Y-27027142D01*
X44904571Y-26884285D01*
X44856952Y-26693809D01*
X44856952Y-26312857D01*
X44904571Y-26217619D01*
X44952190Y-26170000D01*
X45047428Y-26122380D01*
X45237904Y-26122380D01*
X45333142Y-26170000D01*
X45380761Y-26217619D01*
X45428380Y-26312857D01*
X45428380Y-26550952D01*
X45380761Y-26646190D01*
X45333142Y-26693809D01*
X45237904Y-26741428D01*
X45047428Y-26741428D01*
X44952190Y-26693809D01*
X44904571Y-26646190D01*
X44856952Y-26550952D01*
X44237904Y-26122380D02*
X44142666Y-26122380D01*
X44047428Y-26170000D01*
X43999809Y-26217619D01*
X43952190Y-26312857D01*
X43904571Y-26503333D01*
X43904571Y-26741428D01*
X43952190Y-26931904D01*
X43999809Y-27027142D01*
X44047428Y-27074761D01*
X44142666Y-27122380D01*
X44237904Y-27122380D01*
X44333142Y-27074761D01*
X44380761Y-27027142D01*
X44428380Y-26931904D01*
X44475999Y-26741428D01*
X44475999Y-26503333D01*
X44428380Y-26312857D01*
X44380761Y-26217619D01*
X44333142Y-26170000D01*
X44237904Y-26122380D01*
X43523619Y-26217619D02*
X43475999Y-26170000D01*
X43380761Y-26122380D01*
X43142666Y-26122380D01*
X43047428Y-26170000D01*
X42999809Y-26217619D01*
X42952190Y-26312857D01*
X42952190Y-26408095D01*
X42999809Y-26550952D01*
X43571238Y-27122380D01*
X42952190Y-27122380D01*
X42047428Y-26122380D02*
X42523619Y-26122380D01*
X42571238Y-26598571D01*
X42523619Y-26550952D01*
X42428380Y-26503333D01*
X42190285Y-26503333D01*
X42095047Y-26550952D01*
X42047428Y-26598571D01*
X41999809Y-26693809D01*
X41999809Y-26931904D01*
X42047428Y-27027142D01*
X42095047Y-27074761D01*
X42190285Y-27122380D01*
X42428380Y-27122380D01*
X42523619Y-27074761D01*
X42571238Y-27027142D01*
X41380761Y-26122380D02*
X41285523Y-26122380D01*
X41190285Y-26170000D01*
X41142666Y-26217619D01*
X41095047Y-26312857D01*
X41047428Y-26503333D01*
X41047428Y-26741428D01*
X41095047Y-26931904D01*
X41142666Y-27027142D01*
X41190285Y-27074761D01*
X41285523Y-27122380D01*
X41380761Y-27122380D01*
X41475999Y-27074761D01*
X41523619Y-27027142D01*
X41571238Y-26931904D01*
X41618857Y-26741428D01*
X41618857Y-26503333D01*
X41571238Y-26312857D01*
X41523619Y-26217619D01*
X41475999Y-26170000D01*
X41380761Y-26122380D01*
X40714095Y-26122380D02*
X40095047Y-26122380D01*
X40428380Y-26503333D01*
X40285523Y-26503333D01*
X40190285Y-26550952D01*
X40142666Y-26598571D01*
X40095047Y-26693809D01*
X40095047Y-26931904D01*
X40142666Y-27027142D01*
X40190285Y-27074761D01*
X40285523Y-27122380D01*
X40571238Y-27122380D01*
X40666476Y-27074761D01*
X40714095Y-27027142D01*
X39666476Y-26741428D02*
X38904571Y-26741428D01*
X38237904Y-26122380D02*
X38142666Y-26122380D01*
X38047428Y-26170000D01*
X37999809Y-26217619D01*
X37952190Y-26312857D01*
X37904571Y-26503333D01*
X37904571Y-26741428D01*
X37952190Y-26931904D01*
X37999809Y-27027142D01*
X38047428Y-27074761D01*
X38142666Y-27122380D01*
X38237904Y-27122380D01*
X38333142Y-27074761D01*
X38380761Y-27027142D01*
X38428380Y-26931904D01*
X38475999Y-26741428D01*
X38475999Y-26503333D01*
X38428380Y-26312857D01*
X38380761Y-26217619D01*
X38333142Y-26170000D01*
X38237904Y-26122380D01*
X37047428Y-26122380D02*
X37237904Y-26122380D01*
X37333142Y-26170000D01*
X37380761Y-26217619D01*
X37475999Y-26360476D01*
X37523619Y-26550952D01*
X37523619Y-26931904D01*
X37475999Y-27027142D01*
X37428380Y-27074761D01*
X37333142Y-27122380D01*
X37142666Y-27122380D01*
X37047428Y-27074761D01*
X36999809Y-27027142D01*
X36952190Y-26931904D01*
X36952190Y-26693809D01*
X36999809Y-26598571D01*
X37047428Y-26550952D01*
X37142666Y-26503333D01*
X37333142Y-26503333D01*
X37428380Y-26550952D01*
X37475999Y-26598571D01*
X37523619Y-26693809D01*
D11*
%TO.C,C3*%
X76466160Y-58091953D02*
X76466160Y-58384487D01*
X75446160Y-58091953D02*
X75446160Y-58384487D01*
%TO.C,C2*%
X72290400Y-56408273D02*
X72290400Y-56700807D01*
X71270400Y-56408273D02*
X71270400Y-56700807D01*
%TO.C,C3*%
D10*
X77593462Y-57984093D02*
X77641081Y-57936474D01*
X77688700Y-57793617D01*
X77688700Y-57698379D01*
X77641081Y-57555521D01*
X77545843Y-57460283D01*
X77450605Y-57412664D01*
X77260129Y-57365045D01*
X77117272Y-57365045D01*
X76926796Y-57412664D01*
X76831558Y-57460283D01*
X76736320Y-57555521D01*
X76688700Y-57698379D01*
X76688700Y-57793617D01*
X76736320Y-57936474D01*
X76783939Y-57984093D01*
X76688700Y-58317426D02*
X76688700Y-58936474D01*
X77069653Y-58603140D01*
X77069653Y-58745998D01*
X77117272Y-58841236D01*
X77164891Y-58888855D01*
X77260129Y-58936474D01*
X77498224Y-58936474D01*
X77593462Y-58888855D01*
X77641081Y-58841236D01*
X77688700Y-58745998D01*
X77688700Y-58460283D01*
X77641081Y-58365045D01*
X77593462Y-58317426D01*
X76286620Y-52589940D02*
X76286620Y-52018512D01*
X76286620Y-52304226D02*
X75286620Y-52304226D01*
X75429478Y-52208988D01*
X75524716Y-52113750D01*
X75572335Y-52018512D01*
X75286620Y-53208988D02*
X75286620Y-53304226D01*
X75334240Y-53399464D01*
X75381859Y-53447083D01*
X75477097Y-53494702D01*
X75667573Y-53542321D01*
X75905668Y-53542321D01*
X76096144Y-53494702D01*
X76191382Y-53447083D01*
X76239001Y-53399464D01*
X76286620Y-53304226D01*
X76286620Y-53208988D01*
X76239001Y-53113750D01*
X76191382Y-53066131D01*
X76096144Y-53018512D01*
X75905668Y-52970893D01*
X75667573Y-52970893D01*
X75477097Y-53018512D01*
X75381859Y-53066131D01*
X75334240Y-53113750D01*
X75286620Y-53208988D01*
X75286620Y-54161369D02*
X75286620Y-54256607D01*
X75334240Y-54351845D01*
X75381859Y-54399464D01*
X75477097Y-54447083D01*
X75667573Y-54494702D01*
X75905668Y-54494702D01*
X76096144Y-54447083D01*
X76191382Y-54399464D01*
X76239001Y-54351845D01*
X76286620Y-54256607D01*
X76286620Y-54161369D01*
X76239001Y-54066131D01*
X76191382Y-54018512D01*
X76096144Y-53970893D01*
X75905668Y-53923274D01*
X75667573Y-53923274D01*
X75477097Y-53970893D01*
X75381859Y-54018512D01*
X75334240Y-54066131D01*
X75286620Y-54161369D01*
X75619954Y-54923274D02*
X76286620Y-54923274D01*
X75715192Y-54923274D02*
X75667573Y-54970893D01*
X75619954Y-55066131D01*
X75619954Y-55208988D01*
X75667573Y-55304226D01*
X75762811Y-55351845D01*
X76286620Y-55351845D01*
X75762811Y-56161369D02*
X75762811Y-55828036D01*
X76286620Y-55828036D02*
X75286620Y-55828036D01*
X75286620Y-56304226D01*
%TO.C,C2*%
X70707542Y-56387873D02*
X70755161Y-56340254D01*
X70802780Y-56197397D01*
X70802780Y-56102159D01*
X70755161Y-55959301D01*
X70659923Y-55864063D01*
X70564685Y-55816444D01*
X70374209Y-55768825D01*
X70231352Y-55768825D01*
X70040876Y-55816444D01*
X69945638Y-55864063D01*
X69850400Y-55959301D01*
X69802780Y-56102159D01*
X69802780Y-56197397D01*
X69850400Y-56340254D01*
X69898019Y-56387873D01*
X69898019Y-56768825D02*
X69850400Y-56816444D01*
X69802780Y-56911682D01*
X69802780Y-57149778D01*
X69850400Y-57245016D01*
X69898019Y-57292635D01*
X69993257Y-57340254D01*
X70088495Y-57340254D01*
X70231352Y-57292635D01*
X70802780Y-56721206D01*
X70802780Y-57340254D01*
X72258180Y-51076100D02*
X72258180Y-50504672D01*
X72258180Y-50790386D02*
X71258180Y-50790386D01*
X71401038Y-50695148D01*
X71496276Y-50599910D01*
X71543895Y-50504672D01*
X71258180Y-51695148D02*
X71258180Y-51790386D01*
X71305800Y-51885624D01*
X71353419Y-51933243D01*
X71448657Y-51980862D01*
X71639133Y-52028481D01*
X71877228Y-52028481D01*
X72067704Y-51980862D01*
X72162942Y-51933243D01*
X72210561Y-51885624D01*
X72258180Y-51790386D01*
X72258180Y-51695148D01*
X72210561Y-51599910D01*
X72162942Y-51552291D01*
X72067704Y-51504672D01*
X71877228Y-51457053D01*
X71639133Y-51457053D01*
X71448657Y-51504672D01*
X71353419Y-51552291D01*
X71305800Y-51599910D01*
X71258180Y-51695148D01*
X71258180Y-52647529D02*
X71258180Y-52742767D01*
X71305800Y-52838005D01*
X71353419Y-52885624D01*
X71448657Y-52933243D01*
X71639133Y-52980862D01*
X71877228Y-52980862D01*
X72067704Y-52933243D01*
X72162942Y-52885624D01*
X72210561Y-52838005D01*
X72258180Y-52742767D01*
X72258180Y-52647529D01*
X72210561Y-52552291D01*
X72162942Y-52504672D01*
X72067704Y-52457053D01*
X71877228Y-52409434D01*
X71639133Y-52409434D01*
X71448657Y-52457053D01*
X71353419Y-52504672D01*
X71305800Y-52552291D01*
X71258180Y-52647529D01*
X71591514Y-53409434D02*
X72258180Y-53409434D01*
X71686752Y-53409434D02*
X71639133Y-53457053D01*
X71591514Y-53552291D01*
X71591514Y-53695148D01*
X71639133Y-53790386D01*
X71734371Y-53838005D01*
X72258180Y-53838005D01*
X71734371Y-54647529D02*
X71734371Y-54314196D01*
X72258180Y-54314196D02*
X71258180Y-54314196D01*
X71258180Y-54790386D01*
%TD*%
M02*
