M48
; DRILL file {KiCad 5.1.8-5.1.8} date Wed Jul 26 00:19:30 2023
; FORMAT={-:-/ absolute / inch / decimal}
; #@! TF.CreationDate,2023-07-26T00:19:30+02:00
; #@! TF.GenerationSoftware,Kicad,Pcbnew,5.1.8-5.1.8
; #@! TF.FileFunction,Plated,1,2,PTH
FMAT,2
INCH
T1C0.0276
T2C0.0315
T3C0.0394
T4C0.0413
T5C0.0433
T6C0.0512
T7C0.0551
T8C0.0630
%
G90
G05
T1
X3.225Y-2.1
X3.225Y-2.4
T2
X3.125Y-2.35
X3.225Y-2.25
X3.3547Y-2.475
X3.3547Y-2.075
X3.65Y-2.075
X3.3547Y-2.275
X3.65Y-2.275
X3.125Y-2.15
X3.65Y-2.475
T3
X3.25Y-2.95
X3.35Y-2.95
X1.575Y-2.95
X1.675Y-2.95
T4
X2.91Y-2.1261
X2.91Y-2.1931
X2.91Y-2.26
X2.91Y-2.3269
X2.91Y-2.3939
T5
X2.31Y-2.945
X2.41Y-2.945
X2.51Y-2.945
T6
X1.32Y-1.825
X1.32Y-1.335
X1.32Y-1.1392
X1.32Y-2.025
T7
X1.6028Y-1.575
X3.65Y-1.575
T8
X2.05Y-2.45
X2.65Y-2.45
X1.3Y-2.225
X1.9Y-2.225
X2.05Y-2.225
X2.65Y-2.225
X1.3Y-2.45
X1.9Y-2.45
T0
M30
