%TF.GenerationSoftware,KiCad,Pcbnew,5.1.8-5.1.8*%
%TF.CreationDate,2023-07-26T00:19:43+02:00*%
%TF.ProjectId,C64-PSU-PCB-replacement-for-902503-06,4336342d-5053-4552-9d50-43422d726570,rev?*%
%TF.SameCoordinates,Original*%
%TF.FileFunction,Copper,L2,Bot*%
%TF.FilePolarity,Positive*%
%FSLAX46Y46*%
G04 Gerber Fmt 4.6, Leading zero omitted, Abs format (unit mm)*
G04 Created by KiCad (PCBNEW 5.1.8-5.1.8) date 2023-07-26 00:19:43*
%MOMM*%
%LPD*%
G01*
G04 APERTURE LIST*
%TA.AperFunction,NonConductor*%
%ADD10C,0.300000*%
%TD*%
%TA.AperFunction,EtchedComponent*%
%ADD11C,0.010000*%
%TD*%
%TA.AperFunction,ComponentPad*%
%ADD12C,1.500000*%
%TD*%
%TA.AperFunction,ComponentPad*%
%ADD13C,3.000000*%
%TD*%
%TA.AperFunction,SMDPad,CuDef*%
%ADD14R,2.500000X5.000000*%
%TD*%
%TA.AperFunction,ComponentPad*%
%ADD15O,1.905000X2.000000*%
%TD*%
%TA.AperFunction,ComponentPad*%
%ADD16R,1.905000X2.000000*%
%TD*%
%TA.AperFunction,ComponentPad*%
%ADD17O,1.700000X1.700000*%
%TD*%
%TA.AperFunction,ComponentPad*%
%ADD18R,1.700000X1.700000*%
%TD*%
%TA.AperFunction,ComponentPad*%
%ADD19C,1.440000*%
%TD*%
%TA.AperFunction,ComponentPad*%
%ADD20O,1.400000X1.400000*%
%TD*%
%TA.AperFunction,ComponentPad*%
%ADD21C,1.400000*%
%TD*%
%TA.AperFunction,ComponentPad*%
%ADD22O,3.200000X3.200000*%
%TD*%
%TA.AperFunction,ComponentPad*%
%ADD23R,3.200000X3.200000*%
%TD*%
%TA.AperFunction,ComponentPad*%
%ADD24R,3.200001X3.200001*%
%TD*%
%TA.AperFunction,ComponentPad*%
%ADD25O,3.200001X3.200001*%
%TD*%
%TA.AperFunction,ComponentPad*%
%ADD26O,1.600000X1.600000*%
%TD*%
%TA.AperFunction,ComponentPad*%
%ADD27C,1.600000*%
%TD*%
%TA.AperFunction,ComponentPad*%
%ADD28O,2.800000X2.800000*%
%TD*%
%TA.AperFunction,ComponentPad*%
%ADD29R,2.800000X2.800000*%
%TD*%
%TA.AperFunction,Conductor*%
%ADD30C,0.250000*%
%TD*%
%TA.AperFunction,Conductor*%
%ADD31C,1.397000*%
%TD*%
%TA.AperFunction,Conductor*%
%ADD32C,3.048000*%
%TD*%
%TA.AperFunction,Conductor*%
%ADD33C,1.524000*%
%TD*%
%TA.AperFunction,Conductor*%
%ADD34C,3.175000*%
%TD*%
%TA.AperFunction,Conductor*%
%ADD35C,1.651000*%
%TD*%
%TA.AperFunction,Conductor*%
%ADD36C,1.727200*%
%TD*%
%TA.AperFunction,Conductor*%
%ADD37C,1.270000*%
%TD*%
%TA.AperFunction,Conductor*%
%ADD38C,0.254000*%
%TD*%
%TA.AperFunction,Conductor*%
%ADD39C,0.100000*%
%TD*%
G04 APERTURE END LIST*
D10*
X75876285Y-30206000D02*
X75947714Y-30134571D01*
X76090571Y-29920285D01*
X76162000Y-29777428D01*
X76233428Y-29563142D01*
X76304857Y-29206000D01*
X76304857Y-28920285D01*
X76233428Y-28563142D01*
X76162000Y-28348857D01*
X76090571Y-28206000D01*
X75947714Y-27991714D01*
X75876285Y-27920285D01*
X74662000Y-29563142D02*
X74804857Y-29634571D01*
X75090571Y-29634571D01*
X75233428Y-29563142D01*
X75304857Y-29491714D01*
X75376285Y-29348857D01*
X75376285Y-28920285D01*
X75304857Y-28777428D01*
X75233428Y-28706000D01*
X75090571Y-28634571D01*
X74804857Y-28634571D01*
X74662000Y-28706000D01*
X74162000Y-30206000D02*
X74090571Y-30134571D01*
X73947714Y-29920285D01*
X73876285Y-29777428D01*
X73804857Y-29563142D01*
X73733428Y-29206000D01*
X73733428Y-28920285D01*
X73804857Y-28563142D01*
X73876285Y-28348857D01*
X73947714Y-28206000D01*
X74090571Y-27991714D01*
X74162000Y-27920285D01*
X71947714Y-28277428D02*
X71876285Y-28206000D01*
X71733428Y-28134571D01*
X71376285Y-28134571D01*
X71233428Y-28206000D01*
X71162000Y-28277428D01*
X71090571Y-28420285D01*
X71090571Y-28563142D01*
X71162000Y-28777428D01*
X72019142Y-29634571D01*
X71090571Y-29634571D01*
X70162000Y-28134571D02*
X70019142Y-28134571D01*
X69876285Y-28206000D01*
X69804857Y-28277428D01*
X69733428Y-28420285D01*
X69662000Y-28706000D01*
X69662000Y-29063142D01*
X69733428Y-29348857D01*
X69804857Y-29491714D01*
X69876285Y-29563142D01*
X70019142Y-29634571D01*
X70162000Y-29634571D01*
X70304857Y-29563142D01*
X70376285Y-29491714D01*
X70447714Y-29348857D01*
X70519142Y-29063142D01*
X70519142Y-28706000D01*
X70447714Y-28420285D01*
X70376285Y-28277428D01*
X70304857Y-28206000D01*
X70162000Y-28134571D01*
X69090571Y-28277428D02*
X69019142Y-28206000D01*
X68876285Y-28134571D01*
X68519142Y-28134571D01*
X68376285Y-28206000D01*
X68304857Y-28277428D01*
X68233428Y-28420285D01*
X68233428Y-28563142D01*
X68304857Y-28777428D01*
X69162000Y-29634571D01*
X68233428Y-29634571D01*
X67733428Y-28134571D02*
X66804857Y-28134571D01*
X67304857Y-28706000D01*
X67090571Y-28706000D01*
X66947714Y-28777428D01*
X66876285Y-28848857D01*
X66804857Y-28991714D01*
X66804857Y-29348857D01*
X66876285Y-29491714D01*
X66947714Y-29563142D01*
X67090571Y-29634571D01*
X67519142Y-29634571D01*
X67662000Y-29563142D01*
X67733428Y-29491714D01*
X66162000Y-29063142D02*
X65019142Y-29063142D01*
X64019142Y-28134571D02*
X63876285Y-28134571D01*
X63733428Y-28206000D01*
X63662000Y-28277428D01*
X63590571Y-28420285D01*
X63519142Y-28706000D01*
X63519142Y-29063142D01*
X63590571Y-29348857D01*
X63662000Y-29491714D01*
X63733428Y-29563142D01*
X63876285Y-29634571D01*
X64019142Y-29634571D01*
X64162000Y-29563142D01*
X64233428Y-29491714D01*
X64304857Y-29348857D01*
X64376285Y-29063142D01*
X64376285Y-28706000D01*
X64304857Y-28420285D01*
X64233428Y-28277428D01*
X64162000Y-28206000D01*
X64019142Y-28134571D01*
X63019142Y-28134571D02*
X62019142Y-28134571D01*
X62662000Y-29634571D01*
X61447714Y-29063142D02*
X60304857Y-29063142D01*
X59662000Y-28277428D02*
X59590571Y-28206000D01*
X59447714Y-28134571D01*
X59090571Y-28134571D01*
X58947714Y-28206000D01*
X58876285Y-28277428D01*
X58804857Y-28420285D01*
X58804857Y-28563142D01*
X58876285Y-28777428D01*
X59733428Y-29634571D01*
X58804857Y-29634571D01*
X57447714Y-28134571D02*
X58162000Y-28134571D01*
X58233428Y-28848857D01*
X58162000Y-28777428D01*
X58019142Y-28706000D01*
X57662000Y-28706000D01*
X57519142Y-28777428D01*
X57447714Y-28848857D01*
X57376285Y-28991714D01*
X57376285Y-29348857D01*
X57447714Y-29491714D01*
X57519142Y-29563142D01*
X57662000Y-29634571D01*
X58019142Y-29634571D01*
X58162000Y-29563142D01*
X58233428Y-29491714D01*
X55590571Y-29634571D02*
X55590571Y-28134571D01*
X54733428Y-29634571D01*
X54733428Y-28134571D01*
X53804857Y-29634571D02*
X53947714Y-29563142D01*
X54019142Y-29491714D01*
X54090571Y-29348857D01*
X54090571Y-28920285D01*
X54019142Y-28777428D01*
X53947714Y-28706000D01*
X53804857Y-28634571D01*
X53590571Y-28634571D01*
X53447714Y-28706000D01*
X53376285Y-28777428D01*
X53304857Y-28920285D01*
X53304857Y-29348857D01*
X53376285Y-29491714D01*
X53447714Y-29563142D01*
X53590571Y-29634571D01*
X53804857Y-29634571D01*
X52662000Y-29634571D02*
X52662000Y-28634571D01*
X52662000Y-28920285D02*
X52590571Y-28777428D01*
X52519142Y-28706000D01*
X52376285Y-28634571D01*
X52233428Y-28634571D01*
X51733428Y-29634571D02*
X51733428Y-28134571D01*
X51733428Y-28706000D02*
X51590571Y-28634571D01*
X51304857Y-28634571D01*
X51162000Y-28706000D01*
X51090571Y-28777428D01*
X51019142Y-28920285D01*
X51019142Y-29348857D01*
X51090571Y-29491714D01*
X51162000Y-29563142D01*
X51304857Y-29634571D01*
X51590571Y-29634571D01*
X51733428Y-29563142D01*
X49804857Y-29563142D02*
X49947714Y-29634571D01*
X50233428Y-29634571D01*
X50376285Y-29563142D01*
X50447714Y-29420285D01*
X50447714Y-28848857D01*
X50376285Y-28706000D01*
X50233428Y-28634571D01*
X49947714Y-28634571D01*
X49804857Y-28706000D01*
X49733428Y-28848857D01*
X49733428Y-28991714D01*
X50447714Y-29134571D01*
X49090571Y-29634571D02*
X49090571Y-28634571D01*
X49090571Y-28920285D02*
X49019142Y-28777428D01*
X48947714Y-28706000D01*
X48804857Y-28634571D01*
X48662000Y-28634571D01*
X48376285Y-28634571D02*
X47804857Y-28634571D01*
X48162000Y-28134571D02*
X48162000Y-29420285D01*
X48090571Y-29563142D01*
X47947714Y-29634571D01*
X47804857Y-29634571D01*
X46162000Y-29634571D02*
X46162000Y-28134571D01*
X45304857Y-29634571D01*
X45304857Y-28134571D01*
X43947714Y-29634571D02*
X43947714Y-28848857D01*
X44019142Y-28706000D01*
X44162000Y-28634571D01*
X44447714Y-28634571D01*
X44590571Y-28706000D01*
X43947714Y-29563142D02*
X44090571Y-29634571D01*
X44447714Y-29634571D01*
X44590571Y-29563142D01*
X44662000Y-29420285D01*
X44662000Y-29277428D01*
X44590571Y-29134571D01*
X44447714Y-29063142D01*
X44090571Y-29063142D01*
X43947714Y-28991714D01*
X43233428Y-29634571D02*
X43233428Y-28634571D01*
X43233428Y-28920285D02*
X43162000Y-28777428D01*
X43090571Y-28706000D01*
X42947714Y-28634571D01*
X42804857Y-28634571D01*
X42519142Y-28634571D02*
X41947714Y-28634571D01*
X42304857Y-28134571D02*
X42304857Y-29420285D01*
X42233428Y-29563142D01*
X42090571Y-29634571D01*
X41947714Y-29634571D01*
X40876285Y-29563142D02*
X41019142Y-29634571D01*
X41304857Y-29634571D01*
X41447714Y-29563142D01*
X41519142Y-29420285D01*
X41519142Y-28848857D01*
X41447714Y-28706000D01*
X41304857Y-28634571D01*
X41019142Y-28634571D01*
X40876285Y-28706000D01*
X40804857Y-28848857D01*
X40804857Y-28991714D01*
X41519142Y-29134571D01*
X40162000Y-28634571D02*
X40162000Y-29634571D01*
X40162000Y-28777428D02*
X40090571Y-28706000D01*
X39947714Y-28634571D01*
X39733428Y-28634571D01*
X39590571Y-28706000D01*
X39519142Y-28848857D01*
X39519142Y-29634571D01*
D11*
%TO.C,REF\u002A\u002A*%
G36*
X90480114Y-32175505D02*
G01*
X90405461Y-32212727D01*
X90339569Y-32281261D01*
X90321423Y-32306648D01*
X90301655Y-32339866D01*
X90288828Y-32375945D01*
X90281490Y-32424098D01*
X90278187Y-32493536D01*
X90277462Y-32585206D01*
X90280737Y-32710830D01*
X90292123Y-32805154D01*
X90313959Y-32875523D01*
X90348581Y-32929286D01*
X90398330Y-32973788D01*
X90401986Y-32976423D01*
X90451015Y-33003377D01*
X90510055Y-33016712D01*
X90585141Y-33020000D01*
X90707205Y-33020000D01*
X90707256Y-33138497D01*
X90708392Y-33204492D01*
X90715314Y-33243202D01*
X90733402Y-33266419D01*
X90768038Y-33285933D01*
X90776355Y-33289920D01*
X90815280Y-33308603D01*
X90845417Y-33320403D01*
X90867826Y-33321422D01*
X90883567Y-33307761D01*
X90893698Y-33275522D01*
X90899277Y-33220804D01*
X90901365Y-33139711D01*
X90901019Y-33028344D01*
X90899300Y-32882802D01*
X90898763Y-32839269D01*
X90896828Y-32689205D01*
X90895096Y-32591042D01*
X90707308Y-32591042D01*
X90706252Y-32674364D01*
X90701562Y-32728880D01*
X90690949Y-32764837D01*
X90672128Y-32792482D01*
X90659350Y-32805965D01*
X90607110Y-32845417D01*
X90560858Y-32848628D01*
X90513133Y-32816049D01*
X90511923Y-32814846D01*
X90492506Y-32789668D01*
X90480693Y-32755447D01*
X90474735Y-32702748D01*
X90472880Y-32622131D01*
X90472846Y-32604271D01*
X90477330Y-32493175D01*
X90491926Y-32416161D01*
X90518350Y-32369147D01*
X90558317Y-32348050D01*
X90581416Y-32345923D01*
X90636238Y-32355900D01*
X90673842Y-32388752D01*
X90696477Y-32448857D01*
X90706394Y-32540598D01*
X90707308Y-32591042D01*
X90895096Y-32591042D01*
X90894778Y-32573060D01*
X90892127Y-32485679D01*
X90888394Y-32421905D01*
X90883093Y-32376582D01*
X90875742Y-32344555D01*
X90865857Y-32320668D01*
X90852954Y-32299764D01*
X90847421Y-32291898D01*
X90774031Y-32217595D01*
X90681240Y-32175467D01*
X90573904Y-32163722D01*
X90480114Y-32175505D01*
G37*
X90480114Y-32175505D02*
X90405461Y-32212727D01*
X90339569Y-32281261D01*
X90321423Y-32306648D01*
X90301655Y-32339866D01*
X90288828Y-32375945D01*
X90281490Y-32424098D01*
X90278187Y-32493536D01*
X90277462Y-32585206D01*
X90280737Y-32710830D01*
X90292123Y-32805154D01*
X90313959Y-32875523D01*
X90348581Y-32929286D01*
X90398330Y-32973788D01*
X90401986Y-32976423D01*
X90451015Y-33003377D01*
X90510055Y-33016712D01*
X90585141Y-33020000D01*
X90707205Y-33020000D01*
X90707256Y-33138497D01*
X90708392Y-33204492D01*
X90715314Y-33243202D01*
X90733402Y-33266419D01*
X90768038Y-33285933D01*
X90776355Y-33289920D01*
X90815280Y-33308603D01*
X90845417Y-33320403D01*
X90867826Y-33321422D01*
X90883567Y-33307761D01*
X90893698Y-33275522D01*
X90899277Y-33220804D01*
X90901365Y-33139711D01*
X90901019Y-33028344D01*
X90899300Y-32882802D01*
X90898763Y-32839269D01*
X90896828Y-32689205D01*
X90895096Y-32591042D01*
X90707308Y-32591042D01*
X90706252Y-32674364D01*
X90701562Y-32728880D01*
X90690949Y-32764837D01*
X90672128Y-32792482D01*
X90659350Y-32805965D01*
X90607110Y-32845417D01*
X90560858Y-32848628D01*
X90513133Y-32816049D01*
X90511923Y-32814846D01*
X90492506Y-32789668D01*
X90480693Y-32755447D01*
X90474735Y-32702748D01*
X90472880Y-32622131D01*
X90472846Y-32604271D01*
X90477330Y-32493175D01*
X90491926Y-32416161D01*
X90518350Y-32369147D01*
X90558317Y-32348050D01*
X90581416Y-32345923D01*
X90636238Y-32355900D01*
X90673842Y-32388752D01*
X90696477Y-32448857D01*
X90706394Y-32540598D01*
X90707308Y-32591042D01*
X90895096Y-32591042D01*
X90894778Y-32573060D01*
X90892127Y-32485679D01*
X90888394Y-32421905D01*
X90883093Y-32376582D01*
X90875742Y-32344555D01*
X90865857Y-32320668D01*
X90852954Y-32299764D01*
X90847421Y-32291898D01*
X90774031Y-32217595D01*
X90681240Y-32175467D01*
X90573904Y-32163722D01*
X90480114Y-32175505D01*
G36*
X88977336Y-32186089D02*
G01*
X88914633Y-32222358D01*
X88871039Y-32258358D01*
X88839155Y-32296075D01*
X88817190Y-32342199D01*
X88803351Y-32403421D01*
X88795847Y-32486431D01*
X88792883Y-32597919D01*
X88792539Y-32678062D01*
X88792539Y-32973065D01*
X88958615Y-33047515D01*
X88968385Y-32724402D01*
X88972421Y-32603729D01*
X88976656Y-32516141D01*
X88981903Y-32455650D01*
X88988975Y-32416268D01*
X88998689Y-32392007D01*
X89011856Y-32376880D01*
X89016081Y-32373606D01*
X89080091Y-32348034D01*
X89144792Y-32358153D01*
X89183308Y-32385000D01*
X89198975Y-32404024D01*
X89209820Y-32428988D01*
X89216712Y-32466834D01*
X89220521Y-32524502D01*
X89222117Y-32608935D01*
X89222385Y-32696928D01*
X89222437Y-32807323D01*
X89224328Y-32885463D01*
X89230655Y-32938165D01*
X89244017Y-32972242D01*
X89267015Y-32994511D01*
X89302246Y-33011787D01*
X89349303Y-33029738D01*
X89400697Y-33049278D01*
X89394579Y-32702485D01*
X89392116Y-32577468D01*
X89389233Y-32485082D01*
X89385102Y-32418881D01*
X89378893Y-32372420D01*
X89369774Y-32339256D01*
X89356917Y-32312944D01*
X89341416Y-32289729D01*
X89266629Y-32215569D01*
X89175372Y-32172684D01*
X89076117Y-32162412D01*
X88977336Y-32186089D01*
G37*
X88977336Y-32186089D02*
X88914633Y-32222358D01*
X88871039Y-32258358D01*
X88839155Y-32296075D01*
X88817190Y-32342199D01*
X88803351Y-32403421D01*
X88795847Y-32486431D01*
X88792883Y-32597919D01*
X88792539Y-32678062D01*
X88792539Y-32973065D01*
X88958615Y-33047515D01*
X88968385Y-32724402D01*
X88972421Y-32603729D01*
X88976656Y-32516141D01*
X88981903Y-32455650D01*
X88988975Y-32416268D01*
X88998689Y-32392007D01*
X89011856Y-32376880D01*
X89016081Y-32373606D01*
X89080091Y-32348034D01*
X89144792Y-32358153D01*
X89183308Y-32385000D01*
X89198975Y-32404024D01*
X89209820Y-32428988D01*
X89216712Y-32466834D01*
X89220521Y-32524502D01*
X89222117Y-32608935D01*
X89222385Y-32696928D01*
X89222437Y-32807323D01*
X89224328Y-32885463D01*
X89230655Y-32938165D01*
X89244017Y-32972242D01*
X89267015Y-32994511D01*
X89302246Y-33011787D01*
X89349303Y-33029738D01*
X89400697Y-33049278D01*
X89394579Y-32702485D01*
X89392116Y-32577468D01*
X89389233Y-32485082D01*
X89385102Y-32418881D01*
X89378893Y-32372420D01*
X89369774Y-32339256D01*
X89356917Y-32312944D01*
X89341416Y-32289729D01*
X89266629Y-32215569D01*
X89175372Y-32172684D01*
X89076117Y-32162412D01*
X88977336Y-32186089D01*
G36*
X91232114Y-32178256D02*
G01*
X91140536Y-32226409D01*
X91072951Y-32303905D01*
X91048943Y-32353727D01*
X91030262Y-32428533D01*
X91020699Y-32523052D01*
X91019792Y-32626210D01*
X91027079Y-32726935D01*
X91042097Y-32814153D01*
X91064385Y-32876791D01*
X91071235Y-32887579D01*
X91152368Y-32968105D01*
X91248734Y-33016336D01*
X91353299Y-33030450D01*
X91459032Y-33008629D01*
X91488457Y-32995547D01*
X91545759Y-32955231D01*
X91596050Y-32901775D01*
X91600803Y-32894995D01*
X91620122Y-32862321D01*
X91632892Y-32827394D01*
X91640436Y-32781414D01*
X91644076Y-32715584D01*
X91645135Y-32621105D01*
X91645154Y-32599923D01*
X91645106Y-32593182D01*
X91449769Y-32593182D01*
X91448632Y-32682349D01*
X91444159Y-32741520D01*
X91434754Y-32779741D01*
X91418824Y-32806053D01*
X91410692Y-32814846D01*
X91363942Y-32848261D01*
X91318553Y-32846737D01*
X91272660Y-32817752D01*
X91245288Y-32786809D01*
X91229077Y-32741643D01*
X91219974Y-32670420D01*
X91219349Y-32662114D01*
X91217796Y-32533037D01*
X91234035Y-32437172D01*
X91267848Y-32375107D01*
X91319016Y-32347432D01*
X91337280Y-32345923D01*
X91385240Y-32353513D01*
X91418047Y-32379808D01*
X91438105Y-32430095D01*
X91447822Y-32509664D01*
X91449769Y-32593182D01*
X91645106Y-32593182D01*
X91644426Y-32499249D01*
X91641371Y-32428906D01*
X91634678Y-32380163D01*
X91623040Y-32344288D01*
X91605147Y-32312548D01*
X91601192Y-32306648D01*
X91534733Y-32227104D01*
X91462315Y-32180929D01*
X91374151Y-32162599D01*
X91344213Y-32161703D01*
X91232114Y-32178256D01*
G37*
X91232114Y-32178256D02*
X91140536Y-32226409D01*
X91072951Y-32303905D01*
X91048943Y-32353727D01*
X91030262Y-32428533D01*
X91020699Y-32523052D01*
X91019792Y-32626210D01*
X91027079Y-32726935D01*
X91042097Y-32814153D01*
X91064385Y-32876791D01*
X91071235Y-32887579D01*
X91152368Y-32968105D01*
X91248734Y-33016336D01*
X91353299Y-33030450D01*
X91459032Y-33008629D01*
X91488457Y-32995547D01*
X91545759Y-32955231D01*
X91596050Y-32901775D01*
X91600803Y-32894995D01*
X91620122Y-32862321D01*
X91632892Y-32827394D01*
X91640436Y-32781414D01*
X91644076Y-32715584D01*
X91645135Y-32621105D01*
X91645154Y-32599923D01*
X91645106Y-32593182D01*
X91449769Y-32593182D01*
X91448632Y-32682349D01*
X91444159Y-32741520D01*
X91434754Y-32779741D01*
X91418824Y-32806053D01*
X91410692Y-32814846D01*
X91363942Y-32848261D01*
X91318553Y-32846737D01*
X91272660Y-32817752D01*
X91245288Y-32786809D01*
X91229077Y-32741643D01*
X91219974Y-32670420D01*
X91219349Y-32662114D01*
X91217796Y-32533037D01*
X91234035Y-32437172D01*
X91267848Y-32375107D01*
X91319016Y-32347432D01*
X91337280Y-32345923D01*
X91385240Y-32353513D01*
X91418047Y-32379808D01*
X91438105Y-32430095D01*
X91447822Y-32509664D01*
X91449769Y-32593182D01*
X91645106Y-32593182D01*
X91644426Y-32499249D01*
X91641371Y-32428906D01*
X91634678Y-32380163D01*
X91623040Y-32344288D01*
X91605147Y-32312548D01*
X91601192Y-32306648D01*
X91534733Y-32227104D01*
X91462315Y-32180929D01*
X91374151Y-32162599D01*
X91344213Y-32161703D01*
X91232114Y-32178256D01*
G36*
X89714746Y-32190745D02*
G01*
X89637714Y-32242567D01*
X89578184Y-32317412D01*
X89542622Y-32412654D01*
X89535429Y-32482756D01*
X89536246Y-32512009D01*
X89543086Y-32534407D01*
X89561888Y-32554474D01*
X89598592Y-32576733D01*
X89659138Y-32605709D01*
X89749466Y-32645927D01*
X89749923Y-32646129D01*
X89833067Y-32684210D01*
X89901247Y-32718025D01*
X89947495Y-32743933D01*
X89964842Y-32758295D01*
X89964846Y-32758411D01*
X89949557Y-32789685D01*
X89913804Y-32824157D01*
X89872758Y-32848990D01*
X89851963Y-32853923D01*
X89795230Y-32836862D01*
X89746373Y-32794133D01*
X89722535Y-32747155D01*
X89699603Y-32712522D01*
X89654682Y-32673081D01*
X89601877Y-32639009D01*
X89555290Y-32620480D01*
X89545548Y-32619462D01*
X89534582Y-32636215D01*
X89533921Y-32679039D01*
X89541980Y-32736781D01*
X89557173Y-32798289D01*
X89577914Y-32852409D01*
X89578962Y-32854510D01*
X89641379Y-32941660D01*
X89722274Y-33000939D01*
X89814144Y-33030034D01*
X89909487Y-33026634D01*
X90000802Y-32988428D01*
X90004862Y-32985741D01*
X90076694Y-32920642D01*
X90123927Y-32835705D01*
X90150066Y-32724021D01*
X90153574Y-32692643D01*
X90159787Y-32544536D01*
X90152339Y-32475468D01*
X89964846Y-32475468D01*
X89962410Y-32518552D01*
X89949086Y-32531126D01*
X89915868Y-32521719D01*
X89863506Y-32499483D01*
X89804976Y-32471610D01*
X89803521Y-32470872D01*
X89753911Y-32444777D01*
X89734000Y-32427363D01*
X89738910Y-32409107D01*
X89759584Y-32385120D01*
X89812181Y-32350406D01*
X89868823Y-32347856D01*
X89919631Y-32373119D01*
X89954724Y-32421847D01*
X89964846Y-32475468D01*
X90152339Y-32475468D01*
X90147008Y-32426036D01*
X90114222Y-32332055D01*
X90068579Y-32266215D01*
X89986198Y-32199681D01*
X89895454Y-32166676D01*
X89802815Y-32164573D01*
X89714746Y-32190745D01*
G37*
X89714746Y-32190745D02*
X89637714Y-32242567D01*
X89578184Y-32317412D01*
X89542622Y-32412654D01*
X89535429Y-32482756D01*
X89536246Y-32512009D01*
X89543086Y-32534407D01*
X89561888Y-32554474D01*
X89598592Y-32576733D01*
X89659138Y-32605709D01*
X89749466Y-32645927D01*
X89749923Y-32646129D01*
X89833067Y-32684210D01*
X89901247Y-32718025D01*
X89947495Y-32743933D01*
X89964842Y-32758295D01*
X89964846Y-32758411D01*
X89949557Y-32789685D01*
X89913804Y-32824157D01*
X89872758Y-32848990D01*
X89851963Y-32853923D01*
X89795230Y-32836862D01*
X89746373Y-32794133D01*
X89722535Y-32747155D01*
X89699603Y-32712522D01*
X89654682Y-32673081D01*
X89601877Y-32639009D01*
X89555290Y-32620480D01*
X89545548Y-32619462D01*
X89534582Y-32636215D01*
X89533921Y-32679039D01*
X89541980Y-32736781D01*
X89557173Y-32798289D01*
X89577914Y-32852409D01*
X89578962Y-32854510D01*
X89641379Y-32941660D01*
X89722274Y-33000939D01*
X89814144Y-33030034D01*
X89909487Y-33026634D01*
X90000802Y-32988428D01*
X90004862Y-32985741D01*
X90076694Y-32920642D01*
X90123927Y-32835705D01*
X90150066Y-32724021D01*
X90153574Y-32692643D01*
X90159787Y-32544536D01*
X90152339Y-32475468D01*
X89964846Y-32475468D01*
X89962410Y-32518552D01*
X89949086Y-32531126D01*
X89915868Y-32521719D01*
X89863506Y-32499483D01*
X89804976Y-32471610D01*
X89803521Y-32470872D01*
X89753911Y-32444777D01*
X89734000Y-32427363D01*
X89738910Y-32409107D01*
X89759584Y-32385120D01*
X89812181Y-32350406D01*
X89868823Y-32347856D01*
X89919631Y-32373119D01*
X89954724Y-32421847D01*
X89964846Y-32475468D01*
X90152339Y-32475468D01*
X90147008Y-32426036D01*
X90114222Y-32332055D01*
X90068579Y-32266215D01*
X89986198Y-32199681D01*
X89895454Y-32166676D01*
X89802815Y-32164573D01*
X89714746Y-32190745D01*
G36*
X88089154Y-32083120D02*
G01*
X88083428Y-32162980D01*
X88076851Y-32210039D01*
X88067738Y-32230566D01*
X88054402Y-32230829D01*
X88050077Y-32228378D01*
X87992556Y-32210636D01*
X87917732Y-32211672D01*
X87841661Y-32229910D01*
X87794082Y-32253505D01*
X87745298Y-32291198D01*
X87709636Y-32333855D01*
X87685155Y-32388057D01*
X87669913Y-32460384D01*
X87661970Y-32557419D01*
X87659384Y-32685742D01*
X87659338Y-32710358D01*
X87659308Y-32986870D01*
X87720839Y-33008320D01*
X87764541Y-33022912D01*
X87788518Y-33029706D01*
X87789223Y-33029769D01*
X87791585Y-33011345D01*
X87793594Y-32960526D01*
X87795099Y-32883993D01*
X87795947Y-32788430D01*
X87796077Y-32730329D01*
X87796349Y-32615771D01*
X87797748Y-32533667D01*
X87801151Y-32477393D01*
X87807433Y-32440326D01*
X87817471Y-32415844D01*
X87832139Y-32397325D01*
X87841298Y-32388406D01*
X87904211Y-32352466D01*
X87972864Y-32349775D01*
X88035152Y-32380170D01*
X88046671Y-32391144D01*
X88063567Y-32411779D01*
X88075286Y-32436256D01*
X88082767Y-32471647D01*
X88086946Y-32525026D01*
X88088763Y-32603466D01*
X88089154Y-32711617D01*
X88089154Y-32986870D01*
X88150685Y-33008320D01*
X88194387Y-33022912D01*
X88218364Y-33029706D01*
X88219070Y-33029769D01*
X88220874Y-33011069D01*
X88222500Y-32958322D01*
X88223883Y-32876557D01*
X88224958Y-32770805D01*
X88225660Y-32646094D01*
X88225923Y-32507455D01*
X88225923Y-31972806D01*
X88098923Y-31919236D01*
X88089154Y-32083120D01*
G37*
X88089154Y-32083120D02*
X88083428Y-32162980D01*
X88076851Y-32210039D01*
X88067738Y-32230566D01*
X88054402Y-32230829D01*
X88050077Y-32228378D01*
X87992556Y-32210636D01*
X87917732Y-32211672D01*
X87841661Y-32229910D01*
X87794082Y-32253505D01*
X87745298Y-32291198D01*
X87709636Y-32333855D01*
X87685155Y-32388057D01*
X87669913Y-32460384D01*
X87661970Y-32557419D01*
X87659384Y-32685742D01*
X87659338Y-32710358D01*
X87659308Y-32986870D01*
X87720839Y-33008320D01*
X87764541Y-33022912D01*
X87788518Y-33029706D01*
X87789223Y-33029769D01*
X87791585Y-33011345D01*
X87793594Y-32960526D01*
X87795099Y-32883993D01*
X87795947Y-32788430D01*
X87796077Y-32730329D01*
X87796349Y-32615771D01*
X87797748Y-32533667D01*
X87801151Y-32477393D01*
X87807433Y-32440326D01*
X87817471Y-32415844D01*
X87832139Y-32397325D01*
X87841298Y-32388406D01*
X87904211Y-32352466D01*
X87972864Y-32349775D01*
X88035152Y-32380170D01*
X88046671Y-32391144D01*
X88063567Y-32411779D01*
X88075286Y-32436256D01*
X88082767Y-32471647D01*
X88086946Y-32525026D01*
X88088763Y-32603466D01*
X88089154Y-32711617D01*
X88089154Y-32986870D01*
X88150685Y-33008320D01*
X88194387Y-33022912D01*
X88218364Y-33029706D01*
X88219070Y-33029769D01*
X88220874Y-33011069D01*
X88222500Y-32958322D01*
X88223883Y-32876557D01*
X88224958Y-32770805D01*
X88225660Y-32646094D01*
X88225923Y-32507455D01*
X88225923Y-31972806D01*
X88098923Y-31919236D01*
X88089154Y-32083120D01*
G36*
X87195499Y-32217303D02*
G01*
X87118940Y-32245733D01*
X87118064Y-32246279D01*
X87070715Y-32281127D01*
X87035759Y-32321852D01*
X87011175Y-32374925D01*
X86994938Y-32446814D01*
X86985025Y-32543992D01*
X86979414Y-32672928D01*
X86978923Y-32691298D01*
X86971859Y-32968287D01*
X87031305Y-32999028D01*
X87074319Y-33019802D01*
X87100290Y-33029646D01*
X87101491Y-33029769D01*
X87105986Y-33011606D01*
X87109556Y-32962612D01*
X87111752Y-32891031D01*
X87112231Y-32833068D01*
X87112242Y-32739170D01*
X87116534Y-32680203D01*
X87131497Y-32652079D01*
X87163518Y-32650706D01*
X87218986Y-32671998D01*
X87302731Y-32711136D01*
X87364311Y-32743643D01*
X87395983Y-32771845D01*
X87405294Y-32802582D01*
X87405308Y-32804104D01*
X87389943Y-32857054D01*
X87344453Y-32885660D01*
X87274834Y-32889803D01*
X87224687Y-32889084D01*
X87198246Y-32903527D01*
X87181757Y-32938218D01*
X87172267Y-32982416D01*
X87185943Y-33007493D01*
X87191093Y-33011082D01*
X87239575Y-33025496D01*
X87307469Y-33027537D01*
X87377388Y-33017983D01*
X87426932Y-33000522D01*
X87495430Y-32942364D01*
X87534366Y-32861408D01*
X87542077Y-32798160D01*
X87536193Y-32741111D01*
X87514899Y-32694542D01*
X87472735Y-32653181D01*
X87404241Y-32611755D01*
X87303956Y-32564993D01*
X87297846Y-32562350D01*
X87207510Y-32520617D01*
X87151765Y-32486391D01*
X87127871Y-32455635D01*
X87133087Y-32424311D01*
X87164672Y-32388383D01*
X87174117Y-32380116D01*
X87237383Y-32348058D01*
X87302936Y-32349407D01*
X87360028Y-32380838D01*
X87397907Y-32439024D01*
X87401426Y-32450446D01*
X87435700Y-32505837D01*
X87479191Y-32532518D01*
X87542077Y-32558960D01*
X87542077Y-32490548D01*
X87522948Y-32391110D01*
X87466169Y-32299902D01*
X87436622Y-32269389D01*
X87369458Y-32230228D01*
X87284044Y-32212500D01*
X87195499Y-32217303D01*
G37*
X87195499Y-32217303D02*
X87118940Y-32245733D01*
X87118064Y-32246279D01*
X87070715Y-32281127D01*
X87035759Y-32321852D01*
X87011175Y-32374925D01*
X86994938Y-32446814D01*
X86985025Y-32543992D01*
X86979414Y-32672928D01*
X86978923Y-32691298D01*
X86971859Y-32968287D01*
X87031305Y-32999028D01*
X87074319Y-33019802D01*
X87100290Y-33029646D01*
X87101491Y-33029769D01*
X87105986Y-33011606D01*
X87109556Y-32962612D01*
X87111752Y-32891031D01*
X87112231Y-32833068D01*
X87112242Y-32739170D01*
X87116534Y-32680203D01*
X87131497Y-32652079D01*
X87163518Y-32650706D01*
X87218986Y-32671998D01*
X87302731Y-32711136D01*
X87364311Y-32743643D01*
X87395983Y-32771845D01*
X87405294Y-32802582D01*
X87405308Y-32804104D01*
X87389943Y-32857054D01*
X87344453Y-32885660D01*
X87274834Y-32889803D01*
X87224687Y-32889084D01*
X87198246Y-32903527D01*
X87181757Y-32938218D01*
X87172267Y-32982416D01*
X87185943Y-33007493D01*
X87191093Y-33011082D01*
X87239575Y-33025496D01*
X87307469Y-33027537D01*
X87377388Y-33017983D01*
X87426932Y-33000522D01*
X87495430Y-32942364D01*
X87534366Y-32861408D01*
X87542077Y-32798160D01*
X87536193Y-32741111D01*
X87514899Y-32694542D01*
X87472735Y-32653181D01*
X87404241Y-32611755D01*
X87303956Y-32564993D01*
X87297846Y-32562350D01*
X87207510Y-32520617D01*
X87151765Y-32486391D01*
X87127871Y-32455635D01*
X87133087Y-32424311D01*
X87164672Y-32388383D01*
X87174117Y-32380116D01*
X87237383Y-32348058D01*
X87302936Y-32349407D01*
X87360028Y-32380838D01*
X87397907Y-32439024D01*
X87401426Y-32450446D01*
X87435700Y-32505837D01*
X87479191Y-32532518D01*
X87542077Y-32558960D01*
X87542077Y-32490548D01*
X87522948Y-32391110D01*
X87466169Y-32299902D01*
X87436622Y-32269389D01*
X87369458Y-32230228D01*
X87284044Y-32212500D01*
X87195499Y-32217303D01*
G36*
X86535638Y-32215670D02*
G01*
X86446883Y-32248421D01*
X86374978Y-32306350D01*
X86346856Y-32347128D01*
X86316198Y-32421954D01*
X86316835Y-32476058D01*
X86349013Y-32512446D01*
X86360919Y-32518633D01*
X86412325Y-32537925D01*
X86438578Y-32532982D01*
X86447470Y-32500587D01*
X86447923Y-32482692D01*
X86464203Y-32416859D01*
X86506635Y-32370807D01*
X86565612Y-32348564D01*
X86631525Y-32354161D01*
X86685105Y-32383229D01*
X86703202Y-32399810D01*
X86716029Y-32419925D01*
X86724694Y-32450332D01*
X86730304Y-32497788D01*
X86733965Y-32569050D01*
X86736785Y-32670875D01*
X86737516Y-32703115D01*
X86740180Y-32813410D01*
X86743208Y-32891036D01*
X86747750Y-32942396D01*
X86754954Y-32973890D01*
X86765967Y-32991920D01*
X86781940Y-33002888D01*
X86792166Y-33007733D01*
X86835594Y-33024301D01*
X86861158Y-33029769D01*
X86869605Y-33011507D01*
X86874761Y-32956296D01*
X86876654Y-32863499D01*
X86875311Y-32732478D01*
X86874893Y-32712269D01*
X86871942Y-32592733D01*
X86868452Y-32505449D01*
X86863486Y-32443591D01*
X86856107Y-32400336D01*
X86845376Y-32368860D01*
X86830355Y-32342339D01*
X86822498Y-32330975D01*
X86777447Y-32280692D01*
X86727060Y-32241581D01*
X86720892Y-32238167D01*
X86630542Y-32211212D01*
X86535638Y-32215670D01*
G37*
X86535638Y-32215670D02*
X86446883Y-32248421D01*
X86374978Y-32306350D01*
X86346856Y-32347128D01*
X86316198Y-32421954D01*
X86316835Y-32476058D01*
X86349013Y-32512446D01*
X86360919Y-32518633D01*
X86412325Y-32537925D01*
X86438578Y-32532982D01*
X86447470Y-32500587D01*
X86447923Y-32482692D01*
X86464203Y-32416859D01*
X86506635Y-32370807D01*
X86565612Y-32348564D01*
X86631525Y-32354161D01*
X86685105Y-32383229D01*
X86703202Y-32399810D01*
X86716029Y-32419925D01*
X86724694Y-32450332D01*
X86730304Y-32497788D01*
X86733965Y-32569050D01*
X86736785Y-32670875D01*
X86737516Y-32703115D01*
X86740180Y-32813410D01*
X86743208Y-32891036D01*
X86747750Y-32942396D01*
X86754954Y-32973890D01*
X86765967Y-32991920D01*
X86781940Y-33002888D01*
X86792166Y-33007733D01*
X86835594Y-33024301D01*
X86861158Y-33029769D01*
X86869605Y-33011507D01*
X86874761Y-32956296D01*
X86876654Y-32863499D01*
X86875311Y-32732478D01*
X86874893Y-32712269D01*
X86871942Y-32592733D01*
X86868452Y-32505449D01*
X86863486Y-32443591D01*
X86856107Y-32400336D01*
X86845376Y-32368860D01*
X86830355Y-32342339D01*
X86822498Y-32330975D01*
X86777447Y-32280692D01*
X86727060Y-32241581D01*
X86720892Y-32238167D01*
X86630542Y-32211212D01*
X86535638Y-32215670D01*
G36*
X85646919Y-32371289D02*
G01*
X85647167Y-32517320D01*
X85648128Y-32629655D01*
X85650206Y-32713678D01*
X85653807Y-32774769D01*
X85659335Y-32818309D01*
X85667196Y-32849679D01*
X85677793Y-32874262D01*
X85685818Y-32888294D01*
X85752272Y-32964388D01*
X85836530Y-33012084D01*
X85929751Y-33029199D01*
X86023100Y-33013546D01*
X86078688Y-32985418D01*
X86137043Y-32936760D01*
X86176814Y-32877333D01*
X86200810Y-32799507D01*
X86211839Y-32695652D01*
X86213401Y-32619462D01*
X86213191Y-32613986D01*
X86076692Y-32613986D01*
X86075859Y-32701355D01*
X86072039Y-32759192D01*
X86063254Y-32797029D01*
X86047526Y-32824398D01*
X86028734Y-32845042D01*
X85965625Y-32884890D01*
X85897863Y-32888295D01*
X85833821Y-32855025D01*
X85828836Y-32850517D01*
X85807561Y-32827067D01*
X85794221Y-32799166D01*
X85786999Y-32757641D01*
X85784077Y-32693316D01*
X85783615Y-32622200D01*
X85784617Y-32532858D01*
X85788762Y-32473258D01*
X85797764Y-32434089D01*
X85813333Y-32406040D01*
X85826098Y-32391144D01*
X85885400Y-32353575D01*
X85953699Y-32349057D01*
X86018890Y-32377753D01*
X86031472Y-32388406D01*
X86052889Y-32412063D01*
X86066256Y-32440251D01*
X86073434Y-32482245D01*
X86076281Y-32547319D01*
X86076692Y-32613986D01*
X86213191Y-32613986D01*
X86208678Y-32496765D01*
X86192638Y-32404577D01*
X86162472Y-32335269D01*
X86115371Y-32281211D01*
X86078688Y-32253505D01*
X86012010Y-32223572D01*
X85934728Y-32209678D01*
X85862890Y-32213397D01*
X85822692Y-32228400D01*
X85806918Y-32232670D01*
X85796450Y-32216750D01*
X85789144Y-32174089D01*
X85783615Y-32109106D01*
X85777563Y-32036732D01*
X85769156Y-31993187D01*
X85753859Y-31968287D01*
X85727136Y-31951845D01*
X85710346Y-31944564D01*
X85646846Y-31917963D01*
X85646919Y-32371289D01*
G37*
X85646919Y-32371289D02*
X85647167Y-32517320D01*
X85648128Y-32629655D01*
X85650206Y-32713678D01*
X85653807Y-32774769D01*
X85659335Y-32818309D01*
X85667196Y-32849679D01*
X85677793Y-32874262D01*
X85685818Y-32888294D01*
X85752272Y-32964388D01*
X85836530Y-33012084D01*
X85929751Y-33029199D01*
X86023100Y-33013546D01*
X86078688Y-32985418D01*
X86137043Y-32936760D01*
X86176814Y-32877333D01*
X86200810Y-32799507D01*
X86211839Y-32695652D01*
X86213401Y-32619462D01*
X86213191Y-32613986D01*
X86076692Y-32613986D01*
X86075859Y-32701355D01*
X86072039Y-32759192D01*
X86063254Y-32797029D01*
X86047526Y-32824398D01*
X86028734Y-32845042D01*
X85965625Y-32884890D01*
X85897863Y-32888295D01*
X85833821Y-32855025D01*
X85828836Y-32850517D01*
X85807561Y-32827067D01*
X85794221Y-32799166D01*
X85786999Y-32757641D01*
X85784077Y-32693316D01*
X85783615Y-32622200D01*
X85784617Y-32532858D01*
X85788762Y-32473258D01*
X85797764Y-32434089D01*
X85813333Y-32406040D01*
X85826098Y-32391144D01*
X85885400Y-32353575D01*
X85953699Y-32349057D01*
X86018890Y-32377753D01*
X86031472Y-32388406D01*
X86052889Y-32412063D01*
X86066256Y-32440251D01*
X86073434Y-32482245D01*
X86076281Y-32547319D01*
X86076692Y-32613986D01*
X86213191Y-32613986D01*
X86208678Y-32496765D01*
X86192638Y-32404577D01*
X86162472Y-32335269D01*
X86115371Y-32281211D01*
X86078688Y-32253505D01*
X86012010Y-32223572D01*
X85934728Y-32209678D01*
X85862890Y-32213397D01*
X85822692Y-32228400D01*
X85806918Y-32232670D01*
X85796450Y-32216750D01*
X85789144Y-32174089D01*
X85783615Y-32109106D01*
X85777563Y-32036732D01*
X85769156Y-31993187D01*
X85753859Y-31968287D01*
X85727136Y-31951845D01*
X85710346Y-31944564D01*
X85646846Y-31917963D01*
X85646919Y-32371289D01*
G36*
X84853071Y-32227662D02*
G01*
X84850089Y-32279068D01*
X84847753Y-32357192D01*
X84846251Y-32455857D01*
X84845769Y-32559343D01*
X84845769Y-32909533D01*
X84907599Y-32971363D01*
X84950207Y-33009462D01*
X84987610Y-33024895D01*
X85038730Y-33023918D01*
X85059022Y-33021433D01*
X85122446Y-33014200D01*
X85174905Y-33010055D01*
X85187692Y-33009672D01*
X85230801Y-33012176D01*
X85292456Y-33018462D01*
X85316362Y-33021433D01*
X85375078Y-33026028D01*
X85414536Y-33016046D01*
X85453662Y-32985228D01*
X85467785Y-32971363D01*
X85529615Y-32909533D01*
X85529615Y-32254503D01*
X85479850Y-32231829D01*
X85436998Y-32215034D01*
X85411927Y-32209154D01*
X85405499Y-32227736D01*
X85399491Y-32279655D01*
X85394303Y-32359172D01*
X85390336Y-32460546D01*
X85388423Y-32546192D01*
X85383077Y-32883231D01*
X85336440Y-32889825D01*
X85294024Y-32885214D01*
X85273240Y-32870287D01*
X85267430Y-32842377D01*
X85262470Y-32782925D01*
X85258754Y-32699466D01*
X85256676Y-32599532D01*
X85256376Y-32548104D01*
X85256077Y-32252054D01*
X85194546Y-32230604D01*
X85150996Y-32216020D01*
X85127306Y-32209219D01*
X85126623Y-32209154D01*
X85124246Y-32227642D01*
X85121634Y-32278906D01*
X85119005Y-32356649D01*
X85116579Y-32454574D01*
X85114885Y-32546192D01*
X85109539Y-32883231D01*
X84992308Y-32883231D01*
X84986928Y-32575746D01*
X84981549Y-32268261D01*
X84924399Y-32238707D01*
X84882203Y-32218413D01*
X84857230Y-32209204D01*
X84856509Y-32209154D01*
X84853071Y-32227662D01*
G37*
X84853071Y-32227662D02*
X84850089Y-32279068D01*
X84847753Y-32357192D01*
X84846251Y-32455857D01*
X84845769Y-32559343D01*
X84845769Y-32909533D01*
X84907599Y-32971363D01*
X84950207Y-33009462D01*
X84987610Y-33024895D01*
X85038730Y-33023918D01*
X85059022Y-33021433D01*
X85122446Y-33014200D01*
X85174905Y-33010055D01*
X85187692Y-33009672D01*
X85230801Y-33012176D01*
X85292456Y-33018462D01*
X85316362Y-33021433D01*
X85375078Y-33026028D01*
X85414536Y-33016046D01*
X85453662Y-32985228D01*
X85467785Y-32971363D01*
X85529615Y-32909533D01*
X85529615Y-32254503D01*
X85479850Y-32231829D01*
X85436998Y-32215034D01*
X85411927Y-32209154D01*
X85405499Y-32227736D01*
X85399491Y-32279655D01*
X85394303Y-32359172D01*
X85390336Y-32460546D01*
X85388423Y-32546192D01*
X85383077Y-32883231D01*
X85336440Y-32889825D01*
X85294024Y-32885214D01*
X85273240Y-32870287D01*
X85267430Y-32842377D01*
X85262470Y-32782925D01*
X85258754Y-32699466D01*
X85256676Y-32599532D01*
X85256376Y-32548104D01*
X85256077Y-32252054D01*
X85194546Y-32230604D01*
X85150996Y-32216020D01*
X85127306Y-32209219D01*
X85126623Y-32209154D01*
X85124246Y-32227642D01*
X85121634Y-32278906D01*
X85119005Y-32356649D01*
X85116579Y-32454574D01*
X85114885Y-32546192D01*
X85109539Y-32883231D01*
X84992308Y-32883231D01*
X84986928Y-32575746D01*
X84981549Y-32268261D01*
X84924399Y-32238707D01*
X84882203Y-32218413D01*
X84857230Y-32209204D01*
X84856509Y-32209154D01*
X84853071Y-32227662D01*
G36*
X84361667Y-32224528D02*
G01*
X84305410Y-32250117D01*
X84261253Y-32281124D01*
X84228899Y-32315795D01*
X84206562Y-32360520D01*
X84192454Y-32421692D01*
X84184789Y-32505701D01*
X84181780Y-32618940D01*
X84181462Y-32693509D01*
X84181462Y-32984420D01*
X84231227Y-33007095D01*
X84270424Y-33023667D01*
X84289843Y-33029769D01*
X84293558Y-33011610D01*
X84296505Y-32962648D01*
X84298309Y-32891153D01*
X84298692Y-32834385D01*
X84300339Y-32752371D01*
X84304778Y-32687309D01*
X84311260Y-32647467D01*
X84316410Y-32639000D01*
X84351023Y-32647646D01*
X84405360Y-32669823D01*
X84468278Y-32699886D01*
X84528632Y-32732192D01*
X84575279Y-32761098D01*
X84597074Y-32780961D01*
X84597161Y-32781175D01*
X84595286Y-32817935D01*
X84578475Y-32853026D01*
X84548961Y-32881528D01*
X84505884Y-32891061D01*
X84469068Y-32889950D01*
X84416926Y-32889133D01*
X84389556Y-32901349D01*
X84373118Y-32933624D01*
X84371045Y-32939710D01*
X84363919Y-32985739D01*
X84382976Y-33013687D01*
X84432647Y-33027007D01*
X84486303Y-33029470D01*
X84582858Y-33011210D01*
X84632841Y-32985131D01*
X84694571Y-32923868D01*
X84727310Y-32848670D01*
X84730247Y-32769211D01*
X84702576Y-32695167D01*
X84660953Y-32648769D01*
X84619396Y-32622793D01*
X84554078Y-32589907D01*
X84477962Y-32556557D01*
X84465274Y-32551461D01*
X84381667Y-32514565D01*
X84333470Y-32482046D01*
X84317970Y-32449718D01*
X84332450Y-32413394D01*
X84357308Y-32385000D01*
X84416061Y-32350039D01*
X84480707Y-32347417D01*
X84539992Y-32374358D01*
X84582661Y-32428088D01*
X84588261Y-32441950D01*
X84620867Y-32492936D01*
X84668470Y-32530787D01*
X84728539Y-32561850D01*
X84728539Y-32473768D01*
X84725003Y-32419951D01*
X84709844Y-32377534D01*
X84676232Y-32332279D01*
X84643965Y-32297420D01*
X84593791Y-32248062D01*
X84554807Y-32221547D01*
X84512936Y-32210911D01*
X84465540Y-32209154D01*
X84361667Y-32224528D01*
G37*
X84361667Y-32224528D02*
X84305410Y-32250117D01*
X84261253Y-32281124D01*
X84228899Y-32315795D01*
X84206562Y-32360520D01*
X84192454Y-32421692D01*
X84184789Y-32505701D01*
X84181780Y-32618940D01*
X84181462Y-32693509D01*
X84181462Y-32984420D01*
X84231227Y-33007095D01*
X84270424Y-33023667D01*
X84289843Y-33029769D01*
X84293558Y-33011610D01*
X84296505Y-32962648D01*
X84298309Y-32891153D01*
X84298692Y-32834385D01*
X84300339Y-32752371D01*
X84304778Y-32687309D01*
X84311260Y-32647467D01*
X84316410Y-32639000D01*
X84351023Y-32647646D01*
X84405360Y-32669823D01*
X84468278Y-32699886D01*
X84528632Y-32732192D01*
X84575279Y-32761098D01*
X84597074Y-32780961D01*
X84597161Y-32781175D01*
X84595286Y-32817935D01*
X84578475Y-32853026D01*
X84548961Y-32881528D01*
X84505884Y-32891061D01*
X84469068Y-32889950D01*
X84416926Y-32889133D01*
X84389556Y-32901349D01*
X84373118Y-32933624D01*
X84371045Y-32939710D01*
X84363919Y-32985739D01*
X84382976Y-33013687D01*
X84432647Y-33027007D01*
X84486303Y-33029470D01*
X84582858Y-33011210D01*
X84632841Y-32985131D01*
X84694571Y-32923868D01*
X84727310Y-32848670D01*
X84730247Y-32769211D01*
X84702576Y-32695167D01*
X84660953Y-32648769D01*
X84619396Y-32622793D01*
X84554078Y-32589907D01*
X84477962Y-32556557D01*
X84465274Y-32551461D01*
X84381667Y-32514565D01*
X84333470Y-32482046D01*
X84317970Y-32449718D01*
X84332450Y-32413394D01*
X84357308Y-32385000D01*
X84416061Y-32350039D01*
X84480707Y-32347417D01*
X84539992Y-32374358D01*
X84582661Y-32428088D01*
X84588261Y-32441950D01*
X84620867Y-32492936D01*
X84668470Y-32530787D01*
X84728539Y-32561850D01*
X84728539Y-32473768D01*
X84725003Y-32419951D01*
X84709844Y-32377534D01*
X84676232Y-32332279D01*
X84643965Y-32297420D01*
X84593791Y-32248062D01*
X84554807Y-32221547D01*
X84512936Y-32210911D01*
X84465540Y-32209154D01*
X84361667Y-32224528D01*
G36*
X83678193Y-32227782D02*
G01*
X83654839Y-32237988D01*
X83599098Y-32282134D01*
X83551431Y-32345967D01*
X83521952Y-32414087D01*
X83517154Y-32447670D01*
X83533240Y-32494556D01*
X83568525Y-32519365D01*
X83606356Y-32534387D01*
X83623679Y-32537155D01*
X83632114Y-32517066D01*
X83648770Y-32473351D01*
X83656077Y-32453598D01*
X83697052Y-32385271D01*
X83756378Y-32351191D01*
X83832448Y-32352239D01*
X83838082Y-32353581D01*
X83878695Y-32372836D01*
X83908552Y-32410375D01*
X83928945Y-32470809D01*
X83941164Y-32558751D01*
X83946500Y-32678813D01*
X83947000Y-32742698D01*
X83947248Y-32843403D01*
X83948874Y-32912054D01*
X83953199Y-32955673D01*
X83961546Y-32981282D01*
X83975235Y-32995903D01*
X83995589Y-33006558D01*
X83996766Y-33007095D01*
X84035962Y-33023667D01*
X84055381Y-33029769D01*
X84058365Y-33011319D01*
X84060919Y-32960323D01*
X84062860Y-32883308D01*
X84064003Y-32786805D01*
X84064231Y-32716184D01*
X84063068Y-32579525D01*
X84058521Y-32475851D01*
X84049001Y-32399108D01*
X84032919Y-32343246D01*
X84008687Y-32302212D01*
X83974714Y-32269954D01*
X83941167Y-32247440D01*
X83860501Y-32217476D01*
X83766619Y-32210718D01*
X83678193Y-32227782D01*
G37*
X83678193Y-32227782D02*
X83654839Y-32237988D01*
X83599098Y-32282134D01*
X83551431Y-32345967D01*
X83521952Y-32414087D01*
X83517154Y-32447670D01*
X83533240Y-32494556D01*
X83568525Y-32519365D01*
X83606356Y-32534387D01*
X83623679Y-32537155D01*
X83632114Y-32517066D01*
X83648770Y-32473351D01*
X83656077Y-32453598D01*
X83697052Y-32385271D01*
X83756378Y-32351191D01*
X83832448Y-32352239D01*
X83838082Y-32353581D01*
X83878695Y-32372836D01*
X83908552Y-32410375D01*
X83928945Y-32470809D01*
X83941164Y-32558751D01*
X83946500Y-32678813D01*
X83947000Y-32742698D01*
X83947248Y-32843403D01*
X83948874Y-32912054D01*
X83953199Y-32955673D01*
X83961546Y-32981282D01*
X83975235Y-32995903D01*
X83995589Y-33006558D01*
X83996766Y-33007095D01*
X84035962Y-33023667D01*
X84055381Y-33029769D01*
X84058365Y-33011319D01*
X84060919Y-32960323D01*
X84062860Y-32883308D01*
X84064003Y-32786805D01*
X84064231Y-32716184D01*
X84063068Y-32579525D01*
X84058521Y-32475851D01*
X84049001Y-32399108D01*
X84032919Y-32343246D01*
X84008687Y-32302212D01*
X83974714Y-32269954D01*
X83941167Y-32247440D01*
X83860501Y-32217476D01*
X83766619Y-32210718D01*
X83678193Y-32227782D01*
G36*
X83003776Y-32238838D02*
G01*
X82926472Y-32289361D01*
X82889186Y-32334590D01*
X82859647Y-32416663D01*
X82857301Y-32481607D01*
X82862615Y-32568445D01*
X83062885Y-32656103D01*
X83160261Y-32700887D01*
X83223887Y-32736913D01*
X83256971Y-32768117D01*
X83262720Y-32798436D01*
X83244342Y-32831805D01*
X83224077Y-32853923D01*
X83165111Y-32889393D01*
X83100976Y-32891879D01*
X83042074Y-32864235D01*
X82998803Y-32809320D01*
X82991064Y-32789928D01*
X82953994Y-32729364D01*
X82911346Y-32703552D01*
X82852846Y-32681471D01*
X82852846Y-32765184D01*
X82858018Y-32822150D01*
X82878277Y-32870189D01*
X82920738Y-32925346D01*
X82927049Y-32932514D01*
X82974280Y-32981585D01*
X83014879Y-33007920D01*
X83065672Y-33020035D01*
X83107780Y-33024003D01*
X83183098Y-33024991D01*
X83236714Y-33012466D01*
X83270162Y-32993869D01*
X83322732Y-32952975D01*
X83359121Y-32908748D01*
X83382150Y-32853126D01*
X83394641Y-32778047D01*
X83399413Y-32675449D01*
X83399794Y-32623376D01*
X83398499Y-32560948D01*
X83280529Y-32560948D01*
X83279161Y-32594438D01*
X83275751Y-32599923D01*
X83253247Y-32592472D01*
X83204818Y-32572753D01*
X83140092Y-32544718D01*
X83126557Y-32538692D01*
X83044756Y-32497096D01*
X82999688Y-32460538D01*
X82989783Y-32426296D01*
X83013474Y-32391648D01*
X83033040Y-32376339D01*
X83103640Y-32345721D01*
X83169720Y-32350780D01*
X83225041Y-32388151D01*
X83263364Y-32454473D01*
X83275651Y-32507116D01*
X83280529Y-32560948D01*
X83398499Y-32560948D01*
X83397270Y-32501720D01*
X83387968Y-32411710D01*
X83369540Y-32346167D01*
X83339640Y-32297912D01*
X83295920Y-32259767D01*
X83276859Y-32247440D01*
X83190274Y-32215336D01*
X83095478Y-32213316D01*
X83003776Y-32238838D01*
G37*
X83003776Y-32238838D02*
X82926472Y-32289361D01*
X82889186Y-32334590D01*
X82859647Y-32416663D01*
X82857301Y-32481607D01*
X82862615Y-32568445D01*
X83062885Y-32656103D01*
X83160261Y-32700887D01*
X83223887Y-32736913D01*
X83256971Y-32768117D01*
X83262720Y-32798436D01*
X83244342Y-32831805D01*
X83224077Y-32853923D01*
X83165111Y-32889393D01*
X83100976Y-32891879D01*
X83042074Y-32864235D01*
X82998803Y-32809320D01*
X82991064Y-32789928D01*
X82953994Y-32729364D01*
X82911346Y-32703552D01*
X82852846Y-32681471D01*
X82852846Y-32765184D01*
X82858018Y-32822150D01*
X82878277Y-32870189D01*
X82920738Y-32925346D01*
X82927049Y-32932514D01*
X82974280Y-32981585D01*
X83014879Y-33007920D01*
X83065672Y-33020035D01*
X83107780Y-33024003D01*
X83183098Y-33024991D01*
X83236714Y-33012466D01*
X83270162Y-32993869D01*
X83322732Y-32952975D01*
X83359121Y-32908748D01*
X83382150Y-32853126D01*
X83394641Y-32778047D01*
X83399413Y-32675449D01*
X83399794Y-32623376D01*
X83398499Y-32560948D01*
X83280529Y-32560948D01*
X83279161Y-32594438D01*
X83275751Y-32599923D01*
X83253247Y-32592472D01*
X83204818Y-32572753D01*
X83140092Y-32544718D01*
X83126557Y-32538692D01*
X83044756Y-32497096D01*
X82999688Y-32460538D01*
X82989783Y-32426296D01*
X83013474Y-32391648D01*
X83033040Y-32376339D01*
X83103640Y-32345721D01*
X83169720Y-32350780D01*
X83225041Y-32388151D01*
X83263364Y-32454473D01*
X83275651Y-32507116D01*
X83280529Y-32560948D01*
X83398499Y-32560948D01*
X83397270Y-32501720D01*
X83387968Y-32411710D01*
X83369540Y-32346167D01*
X83339640Y-32297912D01*
X83295920Y-32259767D01*
X83276859Y-32247440D01*
X83190274Y-32215336D01*
X83095478Y-32213316D01*
X83003776Y-32238838D01*
G36*
X87109122Y-25878776D02*
G01*
X87003388Y-25879355D01*
X86926868Y-25880922D01*
X86874628Y-25883972D01*
X86841737Y-25888996D01*
X86823263Y-25896489D01*
X86814273Y-25906944D01*
X86809837Y-25920853D01*
X86809406Y-25922654D01*
X86802667Y-25955145D01*
X86790192Y-26019252D01*
X86773281Y-26108151D01*
X86753229Y-26215019D01*
X86731336Y-26333033D01*
X86730571Y-26337178D01*
X86708641Y-26452831D01*
X86688123Y-26555014D01*
X86670341Y-26637598D01*
X86656619Y-26694456D01*
X86648282Y-26719458D01*
X86647884Y-26719901D01*
X86623323Y-26732110D01*
X86572685Y-26752456D01*
X86506905Y-26776545D01*
X86506539Y-26776674D01*
X86423683Y-26807818D01*
X86326000Y-26847491D01*
X86233923Y-26887381D01*
X86229566Y-26889353D01*
X86079593Y-26957420D01*
X85747502Y-26730639D01*
X85645626Y-26661504D01*
X85553343Y-26599697D01*
X85475997Y-26548733D01*
X85418936Y-26512127D01*
X85387505Y-26493394D01*
X85384521Y-26492004D01*
X85361679Y-26498190D01*
X85319018Y-26528035D01*
X85254872Y-26582947D01*
X85167579Y-26664334D01*
X85078465Y-26750922D01*
X84992559Y-26836247D01*
X84915673Y-26914108D01*
X84852436Y-26979697D01*
X84807477Y-27028205D01*
X84785424Y-27054825D01*
X84784604Y-27056195D01*
X84782166Y-27074463D01*
X84791350Y-27104295D01*
X84814426Y-27149721D01*
X84853663Y-27214770D01*
X84911330Y-27303470D01*
X84988205Y-27417657D01*
X85056430Y-27518162D01*
X85117418Y-27608303D01*
X85167644Y-27682849D01*
X85203584Y-27736565D01*
X85221713Y-27764218D01*
X85222854Y-27766095D01*
X85220641Y-27792590D01*
X85203862Y-27844086D01*
X85175858Y-27910851D01*
X85165878Y-27932172D01*
X85122328Y-28027159D01*
X85075866Y-28134937D01*
X85038123Y-28228192D01*
X85010927Y-28297406D01*
X84989325Y-28350006D01*
X84976842Y-28377497D01*
X84975291Y-28379616D01*
X84952332Y-28383124D01*
X84898214Y-28392738D01*
X84820132Y-28407089D01*
X84725281Y-28424807D01*
X84620857Y-28444525D01*
X84514056Y-28464874D01*
X84412074Y-28484486D01*
X84322106Y-28501991D01*
X84251347Y-28516022D01*
X84206994Y-28525209D01*
X84196115Y-28527807D01*
X84184878Y-28534218D01*
X84176395Y-28548697D01*
X84170286Y-28576133D01*
X84166168Y-28621411D01*
X84163659Y-28689420D01*
X84162379Y-28785047D01*
X84161946Y-28913180D01*
X84161923Y-28965701D01*
X84161923Y-29392845D01*
X84264500Y-29413091D01*
X84321569Y-29424070D01*
X84406731Y-29440095D01*
X84509628Y-29459233D01*
X84619904Y-29479551D01*
X84650385Y-29485132D01*
X84752145Y-29504917D01*
X84840795Y-29524373D01*
X84908892Y-29541697D01*
X84948996Y-29555088D01*
X84955677Y-29559079D01*
X84972081Y-29587342D01*
X84995601Y-29642109D01*
X85021684Y-29712588D01*
X85026858Y-29727769D01*
X85061044Y-29821896D01*
X85103477Y-29928101D01*
X85145003Y-30023473D01*
X85145208Y-30023916D01*
X85214360Y-30173525D01*
X84759488Y-30842617D01*
X85051500Y-31135116D01*
X85139820Y-31222170D01*
X85220375Y-31298909D01*
X85288640Y-31361237D01*
X85340092Y-31405056D01*
X85370206Y-31426270D01*
X85374526Y-31427616D01*
X85399889Y-31417016D01*
X85451642Y-31387547D01*
X85524132Y-31342705D01*
X85611706Y-31285984D01*
X85706388Y-31222462D01*
X85802484Y-31157668D01*
X85888163Y-31101287D01*
X85957984Y-31056788D01*
X86006506Y-31027639D01*
X86028218Y-31017308D01*
X86054707Y-31026050D01*
X86104938Y-31049087D01*
X86168549Y-31081631D01*
X86175292Y-31085249D01*
X86260954Y-31128210D01*
X86319694Y-31149279D01*
X86356228Y-31149503D01*
X86375269Y-31129928D01*
X86375380Y-31129654D01*
X86384898Y-31106472D01*
X86407597Y-31051441D01*
X86441718Y-30968822D01*
X86485500Y-30862872D01*
X86537184Y-30737852D01*
X86595008Y-30598020D01*
X86651009Y-30462637D01*
X86712553Y-30313234D01*
X86769061Y-30174832D01*
X86818839Y-30051673D01*
X86860194Y-29948002D01*
X86891432Y-29868059D01*
X86910859Y-29816088D01*
X86916846Y-29796692D01*
X86901832Y-29774443D01*
X86862561Y-29738982D01*
X86810193Y-29699887D01*
X86661059Y-29576245D01*
X86544489Y-29434522D01*
X86461882Y-29277704D01*
X86414634Y-29108775D01*
X86404143Y-28930722D01*
X86411769Y-28848539D01*
X86453318Y-28678031D01*
X86524877Y-28527459D01*
X86622005Y-28398309D01*
X86740266Y-28292064D01*
X86875220Y-28210210D01*
X87022429Y-28154232D01*
X87177456Y-28125615D01*
X87335861Y-28125844D01*
X87493206Y-28156405D01*
X87645054Y-28218782D01*
X87786965Y-28314460D01*
X87846197Y-28368572D01*
X87959797Y-28507520D01*
X88038894Y-28659361D01*
X88084014Y-28819667D01*
X88095684Y-28984012D01*
X88074431Y-29147971D01*
X88020780Y-29307118D01*
X87935260Y-29457025D01*
X87818395Y-29593267D01*
X87687807Y-29699887D01*
X87633412Y-29740642D01*
X87594986Y-29775718D01*
X87581154Y-29796726D01*
X87588397Y-29819635D01*
X87608995Y-29874365D01*
X87641254Y-29956672D01*
X87683479Y-30062315D01*
X87733977Y-30187050D01*
X87791052Y-30326636D01*
X87847146Y-30462670D01*
X87909033Y-30612201D01*
X87966356Y-30750767D01*
X88017356Y-30874107D01*
X88060273Y-30977964D01*
X88093347Y-31058080D01*
X88114819Y-31110195D01*
X88122775Y-31129654D01*
X88141571Y-31149423D01*
X88177926Y-31149365D01*
X88236521Y-31128441D01*
X88322032Y-31085613D01*
X88322708Y-31085249D01*
X88387093Y-31052012D01*
X88439139Y-31027802D01*
X88468488Y-31017404D01*
X88469783Y-31017308D01*
X88491876Y-31027855D01*
X88540652Y-31057184D01*
X88610669Y-31101827D01*
X88696486Y-31158314D01*
X88791612Y-31222462D01*
X88888460Y-31287411D01*
X88975747Y-31343896D01*
X89047819Y-31388421D01*
X89099023Y-31417490D01*
X89123474Y-31427616D01*
X89145990Y-31414307D01*
X89191258Y-31377112D01*
X89254756Y-31320128D01*
X89331961Y-31247449D01*
X89418349Y-31163171D01*
X89446601Y-31135016D01*
X89738713Y-30842416D01*
X89516369Y-30516104D01*
X89448798Y-30415897D01*
X89389493Y-30325963D01*
X89341783Y-30251510D01*
X89308993Y-30197751D01*
X89294452Y-30169894D01*
X89294026Y-30167912D01*
X89301692Y-30141655D01*
X89322311Y-30088837D01*
X89352315Y-30018310D01*
X89373375Y-29971093D01*
X89412752Y-29880694D01*
X89449835Y-29789366D01*
X89478585Y-29712200D01*
X89486395Y-29688692D01*
X89508583Y-29625916D01*
X89530273Y-29577411D01*
X89542187Y-29559079D01*
X89568477Y-29547859D01*
X89625858Y-29531954D01*
X89706882Y-29513167D01*
X89804105Y-29493299D01*
X89847615Y-29485132D01*
X89958104Y-29464829D01*
X90064084Y-29445170D01*
X90155199Y-29428088D01*
X90221092Y-29415518D01*
X90233500Y-29413091D01*
X90336077Y-29392845D01*
X90336077Y-28965701D01*
X90335847Y-28825246D01*
X90334901Y-28718979D01*
X90332859Y-28642013D01*
X90329338Y-28589460D01*
X90323957Y-28556433D01*
X90316334Y-28538045D01*
X90306088Y-28529408D01*
X90301885Y-28527807D01*
X90276530Y-28522127D01*
X90220516Y-28510795D01*
X90141036Y-28495179D01*
X90045288Y-28476647D01*
X89940467Y-28456569D01*
X89833768Y-28436312D01*
X89732387Y-28417246D01*
X89643521Y-28400739D01*
X89574363Y-28388159D01*
X89532111Y-28380875D01*
X89522710Y-28379616D01*
X89514193Y-28362763D01*
X89495340Y-28317870D01*
X89469676Y-28253430D01*
X89459877Y-28228192D01*
X89420352Y-28130686D01*
X89373808Y-28022959D01*
X89332123Y-27932172D01*
X89301450Y-27862753D01*
X89281044Y-27805710D01*
X89274232Y-27770777D01*
X89275318Y-27766095D01*
X89289715Y-27743991D01*
X89322588Y-27694831D01*
X89370410Y-27623848D01*
X89429652Y-27536278D01*
X89496785Y-27437357D01*
X89510059Y-27417830D01*
X89587954Y-27302140D01*
X89645213Y-27214044D01*
X89684119Y-27149486D01*
X89706956Y-27104411D01*
X89716006Y-27074763D01*
X89713552Y-27056485D01*
X89713489Y-27056369D01*
X89694173Y-27032361D01*
X89651449Y-26985947D01*
X89589949Y-26921937D01*
X89514302Y-26845145D01*
X89429139Y-26760382D01*
X89419535Y-26750922D01*
X89312210Y-26646989D01*
X89229385Y-26570675D01*
X89169395Y-26520571D01*
X89130577Y-26495270D01*
X89113480Y-26492004D01*
X89088527Y-26506250D01*
X89036745Y-26539156D01*
X88963480Y-26587208D01*
X88874080Y-26646890D01*
X88773889Y-26714688D01*
X88750499Y-26730639D01*
X88418407Y-26957420D01*
X88268435Y-26889353D01*
X88177230Y-26849685D01*
X88079331Y-26809791D01*
X87995169Y-26777983D01*
X87991462Y-26776674D01*
X87925631Y-26752576D01*
X87874884Y-26732200D01*
X87850158Y-26719936D01*
X87850116Y-26719901D01*
X87842271Y-26697734D01*
X87828934Y-26643217D01*
X87811430Y-26562480D01*
X87791083Y-26461650D01*
X87769218Y-26346856D01*
X87767429Y-26337178D01*
X87745496Y-26218904D01*
X87725360Y-26111542D01*
X87708320Y-26021917D01*
X87695672Y-25956851D01*
X87688716Y-25923168D01*
X87688594Y-25922654D01*
X87684361Y-25908325D01*
X87676129Y-25897507D01*
X87658967Y-25889706D01*
X87627942Y-25884429D01*
X87578122Y-25881182D01*
X87504576Y-25879472D01*
X87402371Y-25878807D01*
X87266575Y-25878693D01*
X87249000Y-25878692D01*
X87109122Y-25878776D01*
G37*
X87109122Y-25878776D02*
X87003388Y-25879355D01*
X86926868Y-25880922D01*
X86874628Y-25883972D01*
X86841737Y-25888996D01*
X86823263Y-25896489D01*
X86814273Y-25906944D01*
X86809837Y-25920853D01*
X86809406Y-25922654D01*
X86802667Y-25955145D01*
X86790192Y-26019252D01*
X86773281Y-26108151D01*
X86753229Y-26215019D01*
X86731336Y-26333033D01*
X86730571Y-26337178D01*
X86708641Y-26452831D01*
X86688123Y-26555014D01*
X86670341Y-26637598D01*
X86656619Y-26694456D01*
X86648282Y-26719458D01*
X86647884Y-26719901D01*
X86623323Y-26732110D01*
X86572685Y-26752456D01*
X86506905Y-26776545D01*
X86506539Y-26776674D01*
X86423683Y-26807818D01*
X86326000Y-26847491D01*
X86233923Y-26887381D01*
X86229566Y-26889353D01*
X86079593Y-26957420D01*
X85747502Y-26730639D01*
X85645626Y-26661504D01*
X85553343Y-26599697D01*
X85475997Y-26548733D01*
X85418936Y-26512127D01*
X85387505Y-26493394D01*
X85384521Y-26492004D01*
X85361679Y-26498190D01*
X85319018Y-26528035D01*
X85254872Y-26582947D01*
X85167579Y-26664334D01*
X85078465Y-26750922D01*
X84992559Y-26836247D01*
X84915673Y-26914108D01*
X84852436Y-26979697D01*
X84807477Y-27028205D01*
X84785424Y-27054825D01*
X84784604Y-27056195D01*
X84782166Y-27074463D01*
X84791350Y-27104295D01*
X84814426Y-27149721D01*
X84853663Y-27214770D01*
X84911330Y-27303470D01*
X84988205Y-27417657D01*
X85056430Y-27518162D01*
X85117418Y-27608303D01*
X85167644Y-27682849D01*
X85203584Y-27736565D01*
X85221713Y-27764218D01*
X85222854Y-27766095D01*
X85220641Y-27792590D01*
X85203862Y-27844086D01*
X85175858Y-27910851D01*
X85165878Y-27932172D01*
X85122328Y-28027159D01*
X85075866Y-28134937D01*
X85038123Y-28228192D01*
X85010927Y-28297406D01*
X84989325Y-28350006D01*
X84976842Y-28377497D01*
X84975291Y-28379616D01*
X84952332Y-28383124D01*
X84898214Y-28392738D01*
X84820132Y-28407089D01*
X84725281Y-28424807D01*
X84620857Y-28444525D01*
X84514056Y-28464874D01*
X84412074Y-28484486D01*
X84322106Y-28501991D01*
X84251347Y-28516022D01*
X84206994Y-28525209D01*
X84196115Y-28527807D01*
X84184878Y-28534218D01*
X84176395Y-28548697D01*
X84170286Y-28576133D01*
X84166168Y-28621411D01*
X84163659Y-28689420D01*
X84162379Y-28785047D01*
X84161946Y-28913180D01*
X84161923Y-28965701D01*
X84161923Y-29392845D01*
X84264500Y-29413091D01*
X84321569Y-29424070D01*
X84406731Y-29440095D01*
X84509628Y-29459233D01*
X84619904Y-29479551D01*
X84650385Y-29485132D01*
X84752145Y-29504917D01*
X84840795Y-29524373D01*
X84908892Y-29541697D01*
X84948996Y-29555088D01*
X84955677Y-29559079D01*
X84972081Y-29587342D01*
X84995601Y-29642109D01*
X85021684Y-29712588D01*
X85026858Y-29727769D01*
X85061044Y-29821896D01*
X85103477Y-29928101D01*
X85145003Y-30023473D01*
X85145208Y-30023916D01*
X85214360Y-30173525D01*
X84759488Y-30842617D01*
X85051500Y-31135116D01*
X85139820Y-31222170D01*
X85220375Y-31298909D01*
X85288640Y-31361237D01*
X85340092Y-31405056D01*
X85370206Y-31426270D01*
X85374526Y-31427616D01*
X85399889Y-31417016D01*
X85451642Y-31387547D01*
X85524132Y-31342705D01*
X85611706Y-31285984D01*
X85706388Y-31222462D01*
X85802484Y-31157668D01*
X85888163Y-31101287D01*
X85957984Y-31056788D01*
X86006506Y-31027639D01*
X86028218Y-31017308D01*
X86054707Y-31026050D01*
X86104938Y-31049087D01*
X86168549Y-31081631D01*
X86175292Y-31085249D01*
X86260954Y-31128210D01*
X86319694Y-31149279D01*
X86356228Y-31149503D01*
X86375269Y-31129928D01*
X86375380Y-31129654D01*
X86384898Y-31106472D01*
X86407597Y-31051441D01*
X86441718Y-30968822D01*
X86485500Y-30862872D01*
X86537184Y-30737852D01*
X86595008Y-30598020D01*
X86651009Y-30462637D01*
X86712553Y-30313234D01*
X86769061Y-30174832D01*
X86818839Y-30051673D01*
X86860194Y-29948002D01*
X86891432Y-29868059D01*
X86910859Y-29816088D01*
X86916846Y-29796692D01*
X86901832Y-29774443D01*
X86862561Y-29738982D01*
X86810193Y-29699887D01*
X86661059Y-29576245D01*
X86544489Y-29434522D01*
X86461882Y-29277704D01*
X86414634Y-29108775D01*
X86404143Y-28930722D01*
X86411769Y-28848539D01*
X86453318Y-28678031D01*
X86524877Y-28527459D01*
X86622005Y-28398309D01*
X86740266Y-28292064D01*
X86875220Y-28210210D01*
X87022429Y-28154232D01*
X87177456Y-28125615D01*
X87335861Y-28125844D01*
X87493206Y-28156405D01*
X87645054Y-28218782D01*
X87786965Y-28314460D01*
X87846197Y-28368572D01*
X87959797Y-28507520D01*
X88038894Y-28659361D01*
X88084014Y-28819667D01*
X88095684Y-28984012D01*
X88074431Y-29147971D01*
X88020780Y-29307118D01*
X87935260Y-29457025D01*
X87818395Y-29593267D01*
X87687807Y-29699887D01*
X87633412Y-29740642D01*
X87594986Y-29775718D01*
X87581154Y-29796726D01*
X87588397Y-29819635D01*
X87608995Y-29874365D01*
X87641254Y-29956672D01*
X87683479Y-30062315D01*
X87733977Y-30187050D01*
X87791052Y-30326636D01*
X87847146Y-30462670D01*
X87909033Y-30612201D01*
X87966356Y-30750767D01*
X88017356Y-30874107D01*
X88060273Y-30977964D01*
X88093347Y-31058080D01*
X88114819Y-31110195D01*
X88122775Y-31129654D01*
X88141571Y-31149423D01*
X88177926Y-31149365D01*
X88236521Y-31128441D01*
X88322032Y-31085613D01*
X88322708Y-31085249D01*
X88387093Y-31052012D01*
X88439139Y-31027802D01*
X88468488Y-31017404D01*
X88469783Y-31017308D01*
X88491876Y-31027855D01*
X88540652Y-31057184D01*
X88610669Y-31101827D01*
X88696486Y-31158314D01*
X88791612Y-31222462D01*
X88888460Y-31287411D01*
X88975747Y-31343896D01*
X89047819Y-31388421D01*
X89099023Y-31417490D01*
X89123474Y-31427616D01*
X89145990Y-31414307D01*
X89191258Y-31377112D01*
X89254756Y-31320128D01*
X89331961Y-31247449D01*
X89418349Y-31163171D01*
X89446601Y-31135016D01*
X89738713Y-30842416D01*
X89516369Y-30516104D01*
X89448798Y-30415897D01*
X89389493Y-30325963D01*
X89341783Y-30251510D01*
X89308993Y-30197751D01*
X89294452Y-30169894D01*
X89294026Y-30167912D01*
X89301692Y-30141655D01*
X89322311Y-30088837D01*
X89352315Y-30018310D01*
X89373375Y-29971093D01*
X89412752Y-29880694D01*
X89449835Y-29789366D01*
X89478585Y-29712200D01*
X89486395Y-29688692D01*
X89508583Y-29625916D01*
X89530273Y-29577411D01*
X89542187Y-29559079D01*
X89568477Y-29547859D01*
X89625858Y-29531954D01*
X89706882Y-29513167D01*
X89804105Y-29493299D01*
X89847615Y-29485132D01*
X89958104Y-29464829D01*
X90064084Y-29445170D01*
X90155199Y-29428088D01*
X90221092Y-29415518D01*
X90233500Y-29413091D01*
X90336077Y-29392845D01*
X90336077Y-28965701D01*
X90335847Y-28825246D01*
X90334901Y-28718979D01*
X90332859Y-28642013D01*
X90329338Y-28589460D01*
X90323957Y-28556433D01*
X90316334Y-28538045D01*
X90306088Y-28529408D01*
X90301885Y-28527807D01*
X90276530Y-28522127D01*
X90220516Y-28510795D01*
X90141036Y-28495179D01*
X90045288Y-28476647D01*
X89940467Y-28456569D01*
X89833768Y-28436312D01*
X89732387Y-28417246D01*
X89643521Y-28400739D01*
X89574363Y-28388159D01*
X89532111Y-28380875D01*
X89522710Y-28379616D01*
X89514193Y-28362763D01*
X89495340Y-28317870D01*
X89469676Y-28253430D01*
X89459877Y-28228192D01*
X89420352Y-28130686D01*
X89373808Y-28022959D01*
X89332123Y-27932172D01*
X89301450Y-27862753D01*
X89281044Y-27805710D01*
X89274232Y-27770777D01*
X89275318Y-27766095D01*
X89289715Y-27743991D01*
X89322588Y-27694831D01*
X89370410Y-27623848D01*
X89429652Y-27536278D01*
X89496785Y-27437357D01*
X89510059Y-27417830D01*
X89587954Y-27302140D01*
X89645213Y-27214044D01*
X89684119Y-27149486D01*
X89706956Y-27104411D01*
X89716006Y-27074763D01*
X89713552Y-27056485D01*
X89713489Y-27056369D01*
X89694173Y-27032361D01*
X89651449Y-26985947D01*
X89589949Y-26921937D01*
X89514302Y-26845145D01*
X89429139Y-26760382D01*
X89419535Y-26750922D01*
X89312210Y-26646989D01*
X89229385Y-26570675D01*
X89169395Y-26520571D01*
X89130577Y-26495270D01*
X89113480Y-26492004D01*
X89088527Y-26506250D01*
X89036745Y-26539156D01*
X88963480Y-26587208D01*
X88874080Y-26646890D01*
X88773889Y-26714688D01*
X88750499Y-26730639D01*
X88418407Y-26957420D01*
X88268435Y-26889353D01*
X88177230Y-26849685D01*
X88079331Y-26809791D01*
X87995169Y-26777983D01*
X87991462Y-26776674D01*
X87925631Y-26752576D01*
X87874884Y-26732200D01*
X87850158Y-26719936D01*
X87850116Y-26719901D01*
X87842271Y-26697734D01*
X87828934Y-26643217D01*
X87811430Y-26562480D01*
X87791083Y-26461650D01*
X87769218Y-26346856D01*
X87767429Y-26337178D01*
X87745496Y-26218904D01*
X87725360Y-26111542D01*
X87708320Y-26021917D01*
X87695672Y-25956851D01*
X87688716Y-25923168D01*
X87688594Y-25922654D01*
X87684361Y-25908325D01*
X87676129Y-25897507D01*
X87658967Y-25889706D01*
X87627942Y-25884429D01*
X87578122Y-25881182D01*
X87504576Y-25879472D01*
X87402371Y-25878807D01*
X87266575Y-25878693D01*
X87249000Y-25878692D01*
X87109122Y-25878776D01*
%TD*%
D12*
%TO.P,PS1,1*%
%TO.N,Net-(PS1-Pad1)*%
X73914000Y-54004000D03*
%TO.P,PS1,2*%
%TO.N,/+16V*%
X73914000Y-55704000D03*
%TO.P,PS1,3*%
%TO.N,GND*%
X73914000Y-57404000D03*
%TO.P,PS1,4*%
%TO.N,/+5\u002C1V*%
X73914000Y-59104000D03*
%TO.P,PS1,5*%
%TO.N,Net-(PS1-Pad5)*%
X73914000Y-60804000D03*
%TD*%
D13*
%TO.P,J4,2*%
%TO.N,Net-(D1-Pad2)*%
X33528000Y-33909000D03*
%TD*%
%TO.P,J3,1*%
%TO.N,Net-(F2-Pad1)*%
X33528000Y-46355000D03*
%TD*%
%TO.P,C3,2*%
%TO.N,/+5\u002C1V*%
%TA.AperFunction,SMDPad,CuDef*%
G36*
G01*
X75718660Y-58563220D02*
X76193660Y-58563220D01*
G75*
G02*
X76431160Y-58800720I0J-237500D01*
G01*
X76431160Y-59400720D01*
G75*
G02*
X76193660Y-59638220I-237500J0D01*
G01*
X75718660Y-59638220D01*
G75*
G02*
X75481160Y-59400720I0J237500D01*
G01*
X75481160Y-58800720D01*
G75*
G02*
X75718660Y-58563220I237500J0D01*
G01*
G37*
%TD.AperFunction*%
%TO.P,C3,1*%
%TO.N,GND*%
%TA.AperFunction,SMDPad,CuDef*%
G36*
G01*
X75718660Y-56838220D02*
X76193660Y-56838220D01*
G75*
G02*
X76431160Y-57075720I0J-237500D01*
G01*
X76431160Y-57675720D01*
G75*
G02*
X76193660Y-57913220I-237500J0D01*
G01*
X75718660Y-57913220D01*
G75*
G02*
X75481160Y-57675720I0J237500D01*
G01*
X75481160Y-57075720D01*
G75*
G02*
X75718660Y-56838220I237500J0D01*
G01*
G37*
%TD.AperFunction*%
%TD*%
%TO.P,C2,2*%
%TO.N,GND*%
%TA.AperFunction,SMDPad,CuDef*%
G36*
G01*
X71542900Y-56879540D02*
X72017900Y-56879540D01*
G75*
G02*
X72255400Y-57117040I0J-237500D01*
G01*
X72255400Y-57717040D01*
G75*
G02*
X72017900Y-57954540I-237500J0D01*
G01*
X71542900Y-57954540D01*
G75*
G02*
X71305400Y-57717040I0J237500D01*
G01*
X71305400Y-57117040D01*
G75*
G02*
X71542900Y-56879540I237500J0D01*
G01*
G37*
%TD.AperFunction*%
%TO.P,C2,1*%
%TO.N,/+16V*%
%TA.AperFunction,SMDPad,CuDef*%
G36*
G01*
X71542900Y-55154540D02*
X72017900Y-55154540D01*
G75*
G02*
X72255400Y-55392040I0J-237500D01*
G01*
X72255400Y-55992040D01*
G75*
G02*
X72017900Y-56229540I-237500J0D01*
G01*
X71542900Y-56229540D01*
G75*
G02*
X71305400Y-55992040I0J237500D01*
G01*
X71305400Y-55392040D01*
G75*
G02*
X71542900Y-55154540I237500J0D01*
G01*
G37*
%TD.AperFunction*%
%TD*%
D14*
%TO.P,REF\u002A\u002A,1*%
%TO.N,/+5\u002C1V*%
X79857600Y-74714100D03*
%TD*%
%TO.P,REF\u002A\u002A,1*%
%TO.N,GND*%
X87871300Y-74714100D03*
%TD*%
D15*
%TO.P,U0,3*%
%TO.N,Net-(U0-Pad3)*%
X63754000Y-74803000D03*
%TO.P,U0,2*%
%TO.N,Net-(U0-Pad2)*%
X61214000Y-74803000D03*
D16*
%TO.P,U0,1*%
%TO.N,Net-(U0-Pad1)*%
X58674000Y-74803000D03*
%TD*%
D17*
%TO.P,J1,2*%
%TO.N,Net-(F2-Pad1)*%
X40005000Y-74930000D03*
D18*
%TO.P,J1,1*%
%TO.N,Net-(D2-Pad2)*%
X42545000Y-74930000D03*
%TD*%
D13*
%TO.P,F2,2*%
%TO.N,Net-(D1-Pad2)*%
X33528000Y-28935000D03*
%TO.P,F2,1*%
%TO.N,Net-(F2-Pad1)*%
X33528000Y-51435000D03*
%TD*%
D19*
%TO.P,RV1,3*%
%TO.N,Net-(PS1-Pad5)*%
X79375000Y-59690000D03*
%TO.P,RV1,2*%
%TO.N,GND*%
X81915000Y-57150000D03*
%TO.P,RV1,1*%
X79375000Y-54610000D03*
%TD*%
D20*
%TO.P,R1,2*%
%TO.N,GND*%
X81915000Y-53340000D03*
D21*
%TO.P,R1,1*%
%TO.N,Net-(PS1-Pad5)*%
X81915000Y-60960000D03*
%TD*%
D17*
%TO.P,J2,2*%
%TO.N,GND*%
X85090000Y-74930000D03*
D18*
%TO.P,J2,1*%
%TO.N,/+5\u002C1V*%
X82550000Y-74930000D03*
%TD*%
D22*
%TO.P,D4,2*%
%TO.N,GND*%
X67310000Y-62230000D03*
D23*
%TO.P,D4,1*%
%TO.N,Net-(D2-Pad2)*%
X52070000Y-62230000D03*
%TD*%
D22*
%TO.P,D3,2*%
%TO.N,GND*%
X67310000Y-56515000D03*
D24*
%TO.P,D3,1*%
%TO.N,Net-(D1-Pad2)*%
X52070000Y-56515000D03*
%TD*%
D22*
%TO.P,D2,2*%
%TO.N,Net-(D2-Pad2)*%
X48260000Y-62230000D03*
D23*
%TO.P,D2,1*%
%TO.N,/+16V*%
X33020000Y-62230000D03*
%TD*%
D25*
%TO.P,D1,2*%
%TO.N,Net-(D1-Pad2)*%
X48260000Y-56515000D03*
D23*
%TO.P,D1,1*%
%TO.N,/+16V*%
X33020000Y-56515000D03*
%TD*%
D26*
%TO.P,C6,2*%
%TO.N,GND*%
X92710000Y-62865000D03*
D27*
%TO.P,C6,1*%
%TO.N,/+5\u002C1V*%
X85210000Y-62865000D03*
%TD*%
D26*
%TO.P,C5,2*%
%TO.N,GND*%
X92710000Y-57785000D03*
D27*
%TO.P,C5,1*%
%TO.N,/+5\u002C1V*%
X85210000Y-57785000D03*
%TD*%
D26*
%TO.P,C4,2*%
%TO.N,GND*%
X92710000Y-52705000D03*
D27*
%TO.P,C4,1*%
%TO.N,/+5\u002C1V*%
X85210000Y-52705000D03*
%TD*%
D28*
%TO.P,C1,2*%
%TO.N,GND*%
X92710000Y-40005000D03*
D29*
%TO.P,C1,1*%
%TO.N,/+16V*%
X40710000Y-40005000D03*
%TD*%
D30*
%TO.N,GND*%
X85020000Y-74860000D02*
X85090000Y-74930000D01*
D31*
X73914000Y-57404000D02*
X76581000Y-57404000D01*
X80645000Y-53340000D02*
X79375000Y-54610000D01*
X81915000Y-53340000D02*
X80645000Y-53340000D01*
D32*
X92710000Y-40005000D02*
X92710000Y-62865000D01*
D33*
X85090000Y-76200000D02*
X85090000Y-75565000D01*
X93980000Y-68580000D02*
X93980000Y-69850000D01*
X93980000Y-69850000D02*
X93980000Y-71120000D01*
D30*
X85090000Y-72390000D02*
X93980000Y-72390000D01*
D33*
X93980000Y-72390000D02*
X93980000Y-73660000D01*
D30*
X93980000Y-73660000D02*
X85090000Y-73660000D01*
D33*
X85090000Y-74930000D02*
X93980000Y-74930000D01*
X93980000Y-74930000D02*
X93980000Y-76200000D01*
X93980000Y-71120000D02*
X93980000Y-74930000D01*
D30*
X86360000Y-76200000D02*
X87630000Y-76200000D01*
D33*
X87630000Y-76200000D02*
X85090000Y-76200000D01*
X87630000Y-76200000D02*
X88900000Y-76200000D01*
X90170000Y-76200000D02*
X87630000Y-76200000D01*
X93980000Y-76200000D02*
X91440000Y-76200000D01*
X91440000Y-76200000D02*
X90170000Y-76200000D01*
X92710000Y-66675000D02*
X92710000Y-76200000D01*
D30*
X91440000Y-66675000D02*
X92710000Y-66675000D01*
X92710000Y-66675000D02*
X93980000Y-66675000D01*
D32*
X92710000Y-66675000D02*
X92710000Y-62865000D01*
D30*
X84455000Y-73025000D02*
X85090000Y-73025000D01*
D33*
X85090000Y-74930000D02*
X85090000Y-73025000D01*
X85090000Y-74930000D02*
X86360000Y-73660000D01*
D30*
X93980000Y-66675000D02*
X93980000Y-66040000D01*
X84455000Y-76835000D02*
X85090000Y-76835000D01*
X84455000Y-76835000D02*
X84455000Y-76200000D01*
X84455000Y-76200000D02*
X85090000Y-76200000D01*
D33*
X81915000Y-53340000D02*
X81915000Y-40005000D01*
X81915000Y-40005000D02*
X92710000Y-40005000D01*
D34*
X67310000Y-56515000D02*
X67310000Y-62230000D01*
D31*
X78517750Y-55467250D02*
X79375000Y-54610000D01*
X76581000Y-57404000D02*
X78517750Y-55467250D01*
D30*
X73900960Y-57417040D02*
X73914000Y-57404000D01*
D31*
X71612760Y-57417040D02*
X73900960Y-57417040D01*
D32*
%TO.N,Net-(D1-Pad2)*%
X33528000Y-33909000D02*
X33528000Y-28935000D01*
D34*
X48260000Y-56515000D02*
X52070000Y-56515000D01*
%TO.N,Net-(D2-Pad2)*%
X48260000Y-62230000D02*
X52070000Y-62230000D01*
D35*
X48260000Y-62230000D02*
X42545000Y-62230000D01*
D36*
X42545000Y-74930000D02*
X52070000Y-74930000D01*
D30*
X52070000Y-74930000D02*
X52705000Y-75565000D01*
X53975000Y-75565000D02*
X51435000Y-75565000D01*
D37*
X42545000Y-74930000D02*
X43815000Y-73660000D01*
D30*
X53975000Y-76835000D02*
X41910000Y-76835000D01*
X41910000Y-75565000D02*
X42545000Y-74930000D01*
X41910000Y-76835000D02*
X41910000Y-75565000D01*
D33*
X42545000Y-74930000D02*
X43815000Y-76200000D01*
X42545000Y-74930000D02*
X42545000Y-76200000D01*
D35*
X42545000Y-62230000D02*
X42545000Y-73660000D01*
D31*
%TO.N,Net-(PS1-Pad5)*%
X78261000Y-60804000D02*
X79375000Y-59690000D01*
X73914000Y-60804000D02*
X78261000Y-60804000D01*
X80645000Y-60960000D02*
X79375000Y-59690000D01*
X81915000Y-60960000D02*
X80645000Y-60960000D01*
X74070000Y-60960000D02*
X73914000Y-60804000D01*
X81915000Y-60960000D02*
X74070000Y-60960000D01*
D32*
%TO.N,Net-(F2-Pad1)*%
X33528000Y-46355000D02*
X33528000Y-51435000D01*
D35*
X40005000Y-66040000D02*
X40005000Y-74930000D01*
X40005000Y-74930000D02*
X38735000Y-73660000D01*
D33*
X40005000Y-74930000D02*
X38100000Y-74930000D01*
D35*
X40005000Y-74930000D02*
X38735000Y-76200000D01*
D33*
X40005000Y-74930000D02*
X40005000Y-76200000D01*
D35*
X33020000Y-51435000D02*
X40005000Y-51435000D01*
X40005000Y-62230000D02*
X40005000Y-74930000D01*
X40005000Y-51435000D02*
X40005000Y-62230000D01*
D31*
%TO.N,/+5\u002C1V*%
X85210000Y-52705000D02*
X85210000Y-62865000D01*
X73914000Y-59104000D02*
X76786000Y-59104000D01*
X82670000Y-55245000D02*
X85210000Y-52705000D01*
X77421000Y-59104000D02*
X81280000Y-55245000D01*
X81280000Y-55245000D02*
X82670000Y-55245000D01*
X76786000Y-59104000D02*
X77421000Y-59104000D01*
D33*
X82550000Y-73660000D02*
X82550000Y-74295000D01*
X82550000Y-72390000D02*
X82550000Y-73660000D01*
X82550000Y-71120000D02*
X82550000Y-72390000D01*
D30*
X83820000Y-69850000D02*
X82550000Y-71120000D01*
X85090000Y-68580000D02*
X83820000Y-69850000D01*
X71120000Y-68580000D02*
X71120000Y-76200000D01*
X71120000Y-68580000D02*
X85090000Y-68580000D01*
X71120000Y-68580000D02*
X71120000Y-66675000D01*
X72390000Y-66675000D02*
X72390000Y-76200000D01*
D33*
X72390000Y-76200000D02*
X71120000Y-76200000D01*
D30*
X73660000Y-76200000D02*
X73660000Y-66675000D01*
D33*
X73660000Y-76200000D02*
X72390000Y-76200000D01*
D30*
X76200000Y-66675000D02*
X76200000Y-76200000D01*
D33*
X82550000Y-76200000D02*
X82550000Y-74930000D01*
D30*
X74930000Y-76200000D02*
X74930000Y-66675000D01*
D33*
X73660000Y-76200000D02*
X74930000Y-76200000D01*
X76200000Y-76200000D02*
X74930000Y-76200000D01*
D30*
X77470000Y-66675000D02*
X77470000Y-76200000D01*
D33*
X76200000Y-76200000D02*
X77470000Y-76200000D01*
D30*
X78740000Y-76200000D02*
X78740000Y-66675000D01*
D33*
X77470000Y-76200000D02*
X78740000Y-76200000D01*
D30*
X80010000Y-76200000D02*
X80010000Y-66675000D01*
D33*
X78740000Y-76200000D02*
X80010000Y-76200000D01*
X80010000Y-76200000D02*
X81280000Y-76200000D01*
X81280000Y-76200000D02*
X82550000Y-76200000D01*
D30*
X82550000Y-71120000D02*
X82550000Y-66675000D01*
X83820000Y-69850000D02*
X83820000Y-66675000D01*
D32*
X85210000Y-67190000D02*
X85210000Y-62865000D01*
D30*
X85090000Y-66675000D02*
X85090000Y-67310000D01*
X85090000Y-67310000D02*
X85090000Y-68580000D01*
X85210000Y-68458590D02*
X85210000Y-67190000D01*
X85090000Y-68578590D02*
X85210000Y-68458590D01*
X85090000Y-68580000D02*
X85090000Y-68578590D01*
X85210000Y-67190000D02*
X85210000Y-68065000D01*
X85210000Y-68065000D02*
X85725000Y-68580000D01*
X83185000Y-71120000D02*
X82550000Y-71120000D01*
X85725000Y-68580000D02*
X83185000Y-71120000D01*
X81280000Y-73660000D02*
X81280000Y-66675000D01*
D33*
X82550000Y-74930000D02*
X81280000Y-73660000D01*
D30*
X81280000Y-76200000D02*
X81280000Y-73660000D01*
X82550000Y-76200000D02*
X83185000Y-76835000D01*
X83185000Y-76835000D02*
X83185000Y-76200000D01*
X83185000Y-76200000D02*
X82550000Y-76835000D01*
X82550000Y-76835000D02*
X83185000Y-76835000D01*
%TO.N,/+16V*%
X73912200Y-55702200D02*
X73914000Y-55704000D01*
D31*
X71120000Y-55702200D02*
X73912200Y-55702200D01*
X71120000Y-40005000D02*
X71120000Y-55702200D01*
X40640000Y-40005000D02*
X71120000Y-40005000D01*
D34*
X33020000Y-62230000D02*
X33020000Y-56515000D01*
%TD*%
D38*
%TO.N,GND*%
X94615000Y-77089000D02*
X84455000Y-77089000D01*
X84455000Y-76264476D01*
X84585901Y-76326825D01*
X84733110Y-76371476D01*
X84963000Y-76250155D01*
X84963000Y-75057000D01*
X85217000Y-75057000D01*
X85217000Y-76250155D01*
X85446890Y-76371476D01*
X85594099Y-76326825D01*
X85856920Y-76201641D01*
X86090269Y-76027588D01*
X86285178Y-75811355D01*
X86434157Y-75561252D01*
X86531481Y-75286891D01*
X86410814Y-75057000D01*
X85217000Y-75057000D01*
X84963000Y-75057000D01*
X84943000Y-75057000D01*
X84943000Y-74803000D01*
X84963000Y-74803000D01*
X84963000Y-73609845D01*
X85217000Y-73609845D01*
X85217000Y-74803000D01*
X86410814Y-74803000D01*
X86531481Y-74573109D01*
X86434157Y-74298748D01*
X86285178Y-74048645D01*
X86090269Y-73832412D01*
X85856920Y-73658359D01*
X85594099Y-73533175D01*
X85446890Y-73488524D01*
X85217000Y-73609845D01*
X84963000Y-73609845D01*
X84733110Y-73488524D01*
X84585901Y-73533175D01*
X84455000Y-73595524D01*
X84455000Y-71934606D01*
X87846803Y-68542803D01*
X87862597Y-68523557D01*
X87874333Y-68501601D01*
X87881560Y-68477776D01*
X87884000Y-68453000D01*
X87884000Y-66167000D01*
X94615000Y-66167000D01*
X94615000Y-77089000D01*
%TA.AperFunction,Conductor*%
D39*
G36*
X94615000Y-77089000D02*
G01*
X84455000Y-77089000D01*
X84455000Y-76264476D01*
X84585901Y-76326825D01*
X84733110Y-76371476D01*
X84963000Y-76250155D01*
X84963000Y-75057000D01*
X85217000Y-75057000D01*
X85217000Y-76250155D01*
X85446890Y-76371476D01*
X85594099Y-76326825D01*
X85856920Y-76201641D01*
X86090269Y-76027588D01*
X86285178Y-75811355D01*
X86434157Y-75561252D01*
X86531481Y-75286891D01*
X86410814Y-75057000D01*
X85217000Y-75057000D01*
X84963000Y-75057000D01*
X84943000Y-75057000D01*
X84943000Y-74803000D01*
X84963000Y-74803000D01*
X84963000Y-73609845D01*
X85217000Y-73609845D01*
X85217000Y-74803000D01*
X86410814Y-74803000D01*
X86531481Y-74573109D01*
X86434157Y-74298748D01*
X86285178Y-74048645D01*
X86090269Y-73832412D01*
X85856920Y-73658359D01*
X85594099Y-73533175D01*
X85446890Y-73488524D01*
X85217000Y-73609845D01*
X84963000Y-73609845D01*
X84733110Y-73488524D01*
X84585901Y-73533175D01*
X84455000Y-73595524D01*
X84455000Y-71934606D01*
X87846803Y-68542803D01*
X87862597Y-68523557D01*
X87874333Y-68501601D01*
X87881560Y-68477776D01*
X87884000Y-68453000D01*
X87884000Y-66167000D01*
X94615000Y-66167000D01*
X94615000Y-77089000D01*
G37*
%TD.AperFunction*%
%TD*%
D38*
%TO.N,/+5\u002C1V*%
X86202702Y-63678097D02*
X86446671Y-63606514D01*
X86567571Y-63351004D01*
X86614000Y-63165780D01*
X86614000Y-67892394D01*
X83222197Y-71284197D01*
X83206403Y-71303443D01*
X83194667Y-71325399D01*
X83187440Y-71349224D01*
X83185000Y-71374000D01*
X83185000Y-73443099D01*
X82835750Y-73445000D01*
X82677000Y-73603750D01*
X82677000Y-74803000D01*
X82697000Y-74803000D01*
X82697000Y-75057000D01*
X82677000Y-75057000D01*
X82677000Y-76256250D01*
X82835750Y-76415000D01*
X83185000Y-76416901D01*
X83185000Y-77089000D01*
X69977000Y-77089000D01*
X69977000Y-75780000D01*
X81061928Y-75780000D01*
X81074188Y-75904482D01*
X81110498Y-76024180D01*
X81169463Y-76134494D01*
X81248815Y-76231185D01*
X81345506Y-76310537D01*
X81455820Y-76369502D01*
X81575518Y-76405812D01*
X81700000Y-76418072D01*
X82264250Y-76415000D01*
X82423000Y-76256250D01*
X82423000Y-75057000D01*
X81223750Y-75057000D01*
X81065000Y-75215750D01*
X81061928Y-75780000D01*
X69977000Y-75780000D01*
X69977000Y-74080000D01*
X81061928Y-74080000D01*
X81065000Y-74644250D01*
X81223750Y-74803000D01*
X82423000Y-74803000D01*
X82423000Y-73603750D01*
X82264250Y-73445000D01*
X81700000Y-73441928D01*
X81575518Y-73454188D01*
X81455820Y-73490498D01*
X81345506Y-73549463D01*
X81248815Y-73628815D01*
X81169463Y-73725506D01*
X81110498Y-73835820D01*
X81074188Y-73955518D01*
X81061928Y-74080000D01*
X69977000Y-74080000D01*
X69977000Y-66167000D01*
X83820000Y-66167000D01*
X83844776Y-66164560D01*
X83868601Y-66157333D01*
X83890557Y-66145597D01*
X83909803Y-66129803D01*
X83925597Y-66110557D01*
X83937333Y-66088601D01*
X83944560Y-66064776D01*
X83947000Y-66040000D01*
X83947000Y-63857702D01*
X84396903Y-63857702D01*
X84468486Y-64101671D01*
X84723996Y-64222571D01*
X84998184Y-64291300D01*
X85280512Y-64305217D01*
X85560130Y-64263787D01*
X85826292Y-64168603D01*
X85951514Y-64101671D01*
X86023097Y-63857702D01*
X85210000Y-63044605D01*
X84396903Y-63857702D01*
X83947000Y-63857702D01*
X83947000Y-63557255D01*
X83973329Y-63606514D01*
X84217298Y-63678097D01*
X84903395Y-62992000D01*
X85516605Y-62992000D01*
X86202702Y-63678097D01*
%TA.AperFunction,Conductor*%
D39*
G36*
X86202702Y-63678097D02*
G01*
X86446671Y-63606514D01*
X86567571Y-63351004D01*
X86614000Y-63165780D01*
X86614000Y-67892394D01*
X83222197Y-71284197D01*
X83206403Y-71303443D01*
X83194667Y-71325399D01*
X83187440Y-71349224D01*
X83185000Y-71374000D01*
X83185000Y-73443099D01*
X82835750Y-73445000D01*
X82677000Y-73603750D01*
X82677000Y-74803000D01*
X82697000Y-74803000D01*
X82697000Y-75057000D01*
X82677000Y-75057000D01*
X82677000Y-76256250D01*
X82835750Y-76415000D01*
X83185000Y-76416901D01*
X83185000Y-77089000D01*
X69977000Y-77089000D01*
X69977000Y-75780000D01*
X81061928Y-75780000D01*
X81074188Y-75904482D01*
X81110498Y-76024180D01*
X81169463Y-76134494D01*
X81248815Y-76231185D01*
X81345506Y-76310537D01*
X81455820Y-76369502D01*
X81575518Y-76405812D01*
X81700000Y-76418072D01*
X82264250Y-76415000D01*
X82423000Y-76256250D01*
X82423000Y-75057000D01*
X81223750Y-75057000D01*
X81065000Y-75215750D01*
X81061928Y-75780000D01*
X69977000Y-75780000D01*
X69977000Y-74080000D01*
X81061928Y-74080000D01*
X81065000Y-74644250D01*
X81223750Y-74803000D01*
X82423000Y-74803000D01*
X82423000Y-73603750D01*
X82264250Y-73445000D01*
X81700000Y-73441928D01*
X81575518Y-73454188D01*
X81455820Y-73490498D01*
X81345506Y-73549463D01*
X81248815Y-73628815D01*
X81169463Y-73725506D01*
X81110498Y-73835820D01*
X81074188Y-73955518D01*
X81061928Y-74080000D01*
X69977000Y-74080000D01*
X69977000Y-66167000D01*
X83820000Y-66167000D01*
X83844776Y-66164560D01*
X83868601Y-66157333D01*
X83890557Y-66145597D01*
X83909803Y-66129803D01*
X83925597Y-66110557D01*
X83937333Y-66088601D01*
X83944560Y-66064776D01*
X83947000Y-66040000D01*
X83947000Y-63857702D01*
X84396903Y-63857702D01*
X84468486Y-64101671D01*
X84723996Y-64222571D01*
X84998184Y-64291300D01*
X85280512Y-64305217D01*
X85560130Y-64263787D01*
X85826292Y-64168603D01*
X85951514Y-64101671D01*
X86023097Y-63857702D01*
X85210000Y-63044605D01*
X84396903Y-63857702D01*
X83947000Y-63857702D01*
X83947000Y-63557255D01*
X83973329Y-63606514D01*
X84217298Y-63678097D01*
X84903395Y-62992000D01*
X85516605Y-62992000D01*
X86202702Y-63678097D01*
G37*
%TD.AperFunction*%
%TD*%
D38*
%TO.N,Net-(D2-Pad2)*%
X53975000Y-77089000D02*
X41910000Y-77089000D01*
X41910000Y-76416901D01*
X42259250Y-76415000D01*
X42418000Y-76256250D01*
X42418000Y-75057000D01*
X42672000Y-75057000D01*
X42672000Y-76256250D01*
X42830750Y-76415000D01*
X43395000Y-76418072D01*
X43519482Y-76405812D01*
X43639180Y-76369502D01*
X43749494Y-76310537D01*
X43846185Y-76231185D01*
X43925537Y-76134494D01*
X43984502Y-76024180D01*
X44020812Y-75904482D01*
X44033072Y-75780000D01*
X44030000Y-75215750D01*
X43871250Y-75057000D01*
X42672000Y-75057000D01*
X42418000Y-75057000D01*
X42398000Y-75057000D01*
X42398000Y-74803000D01*
X42418000Y-74803000D01*
X42418000Y-73603750D01*
X42672000Y-73603750D01*
X42672000Y-74803000D01*
X43871250Y-74803000D01*
X44030000Y-74644250D01*
X44033072Y-74080000D01*
X44020812Y-73955518D01*
X43984502Y-73835820D01*
X43925537Y-73725506D01*
X43846185Y-73628815D01*
X43749494Y-73549463D01*
X43639180Y-73490498D01*
X43519482Y-73454188D01*
X43395000Y-73441928D01*
X42830750Y-73445000D01*
X42672000Y-73603750D01*
X42418000Y-73603750D01*
X42259250Y-73445000D01*
X41910000Y-73443099D01*
X41910000Y-66167000D01*
X53975000Y-66167000D01*
X53975000Y-77089000D01*
%TA.AperFunction,Conductor*%
D39*
G36*
X53975000Y-77089000D02*
G01*
X41910000Y-77089000D01*
X41910000Y-76416901D01*
X42259250Y-76415000D01*
X42418000Y-76256250D01*
X42418000Y-75057000D01*
X42672000Y-75057000D01*
X42672000Y-76256250D01*
X42830750Y-76415000D01*
X43395000Y-76418072D01*
X43519482Y-76405812D01*
X43639180Y-76369502D01*
X43749494Y-76310537D01*
X43846185Y-76231185D01*
X43925537Y-76134494D01*
X43984502Y-76024180D01*
X44020812Y-75904482D01*
X44033072Y-75780000D01*
X44030000Y-75215750D01*
X43871250Y-75057000D01*
X42672000Y-75057000D01*
X42418000Y-75057000D01*
X42398000Y-75057000D01*
X42398000Y-74803000D01*
X42418000Y-74803000D01*
X42418000Y-73603750D01*
X42672000Y-73603750D01*
X42672000Y-74803000D01*
X43871250Y-74803000D01*
X44030000Y-74644250D01*
X44033072Y-74080000D01*
X44020812Y-73955518D01*
X43984502Y-73835820D01*
X43925537Y-73725506D01*
X43846185Y-73628815D01*
X43749494Y-73549463D01*
X43639180Y-73490498D01*
X43519482Y-73454188D01*
X43395000Y-73441928D01*
X42830750Y-73445000D01*
X42672000Y-73603750D01*
X42418000Y-73603750D01*
X42259250Y-73445000D01*
X41910000Y-73443099D01*
X41910000Y-66167000D01*
X53975000Y-66167000D01*
X53975000Y-77089000D01*
G37*
%TD.AperFunction*%
%TD*%
D38*
%TO.N,Net-(F2-Pad1)*%
X40640000Y-73595524D02*
X40509099Y-73533175D01*
X40361890Y-73488524D01*
X40132000Y-73609845D01*
X40132000Y-74803000D01*
X40152000Y-74803000D01*
X40152000Y-75057000D01*
X40132000Y-75057000D01*
X40132000Y-76250155D01*
X40361890Y-76371476D01*
X40509099Y-76326825D01*
X40640000Y-76264476D01*
X40640000Y-77089000D01*
X29083000Y-77089000D01*
X29083000Y-75286891D01*
X38563519Y-75286891D01*
X38660843Y-75561252D01*
X38809822Y-75811355D01*
X39004731Y-76027588D01*
X39238080Y-76201641D01*
X39500901Y-76326825D01*
X39648110Y-76371476D01*
X39878000Y-76250155D01*
X39878000Y-75057000D01*
X38684186Y-75057000D01*
X38563519Y-75286891D01*
X29083000Y-75286891D01*
X29083000Y-74573109D01*
X38563519Y-74573109D01*
X38684186Y-74803000D01*
X39878000Y-74803000D01*
X39878000Y-73609845D01*
X39648110Y-73488524D01*
X39500901Y-73533175D01*
X39238080Y-73658359D01*
X39004731Y-73832412D01*
X38809822Y-74048645D01*
X38660843Y-74298748D01*
X38563519Y-74573109D01*
X29083000Y-74573109D01*
X29083000Y-66040000D01*
X40640000Y-66040000D01*
X40640000Y-73595524D01*
%TA.AperFunction,Conductor*%
D39*
G36*
X40640000Y-73595524D02*
G01*
X40509099Y-73533175D01*
X40361890Y-73488524D01*
X40132000Y-73609845D01*
X40132000Y-74803000D01*
X40152000Y-74803000D01*
X40152000Y-75057000D01*
X40132000Y-75057000D01*
X40132000Y-76250155D01*
X40361890Y-76371476D01*
X40509099Y-76326825D01*
X40640000Y-76264476D01*
X40640000Y-77089000D01*
X29083000Y-77089000D01*
X29083000Y-75286891D01*
X38563519Y-75286891D01*
X38660843Y-75561252D01*
X38809822Y-75811355D01*
X39004731Y-76027588D01*
X39238080Y-76201641D01*
X39500901Y-76326825D01*
X39648110Y-76371476D01*
X39878000Y-76250155D01*
X39878000Y-75057000D01*
X38684186Y-75057000D01*
X38563519Y-75286891D01*
X29083000Y-75286891D01*
X29083000Y-74573109D01*
X38563519Y-74573109D01*
X38684186Y-74803000D01*
X39878000Y-74803000D01*
X39878000Y-73609845D01*
X39648110Y-73488524D01*
X39500901Y-73533175D01*
X39238080Y-73658359D01*
X39004731Y-73832412D01*
X38809822Y-74048645D01*
X38660843Y-74298748D01*
X38563519Y-74573109D01*
X29083000Y-74573109D01*
X29083000Y-66040000D01*
X40640000Y-66040000D01*
X40640000Y-73595524D01*
G37*
%TD.AperFunction*%
%TD*%
M02*
