%TF.GenerationSoftware,KiCad,Pcbnew,7.0.9*%
%TF.CreationDate,2025-04-20T12:54:36+02:00*%
%TF.ProjectId,C64-PSU-PCB-replacement-for-902503-06,4336342d-5053-4552-9d50-43422d726570,D*%
%TF.SameCoordinates,Original*%
%TF.FileFunction,Drillmap*%
%TF.FilePolarity,Positive*%
%FSLAX45Y45*%
G04 Gerber Fmt 4.5, Leading zero omitted, Abs format (unit mm)*
G04 Created by KiCad (PCBNEW 7.0.9) date 2025-04-20 12:54:36*
%MOMM*%
%LPD*%
G01*
G04 APERTURE LIST*
%ADD10C,0.050000*%
%ADD11C,0.200000*%
%ADD12C,0.270000*%
G04 APERTURE END LIST*
D10*
X2540000Y-7874000D02*
X2540000Y-2540000D01*
X9588500Y-7874000D02*
X2540000Y-7874000D01*
X2540000Y-2540000D02*
X9588500Y-2540000D01*
X9588500Y-2540000D02*
X9588500Y-7874000D01*
D11*
D12*
X3217800Y-3883500D02*
X3487800Y-4153500D01*
X3487800Y-3883500D02*
X3217800Y-4153500D01*
D11*
X2798277Y-8187984D02*
X2798277Y-7987984D01*
X2798277Y-7987984D02*
X2845896Y-7987984D01*
X2845896Y-7987984D02*
X2874467Y-7997508D01*
X2874467Y-7997508D02*
X2893515Y-8016555D01*
X2893515Y-8016555D02*
X2903039Y-8035603D01*
X2903039Y-8035603D02*
X2912562Y-8073698D01*
X2912562Y-8073698D02*
X2912562Y-8102269D01*
X2912562Y-8102269D02*
X2903039Y-8140365D01*
X2903039Y-8140365D02*
X2893515Y-8159412D01*
X2893515Y-8159412D02*
X2874467Y-8178460D01*
X2874467Y-8178460D02*
X2845896Y-8187984D01*
X2845896Y-8187984D02*
X2798277Y-8187984D01*
X2998277Y-8187984D02*
X2998277Y-8054650D01*
X2998277Y-8092746D02*
X3007801Y-8073698D01*
X3007801Y-8073698D02*
X3017324Y-8064174D01*
X3017324Y-8064174D02*
X3036372Y-8054650D01*
X3036372Y-8054650D02*
X3055420Y-8054650D01*
X3122086Y-8187984D02*
X3122086Y-8054650D01*
X3122086Y-7987984D02*
X3112562Y-7997508D01*
X3112562Y-7997508D02*
X3122086Y-8007031D01*
X3122086Y-8007031D02*
X3131610Y-7997508D01*
X3131610Y-7997508D02*
X3122086Y-7987984D01*
X3122086Y-7987984D02*
X3122086Y-8007031D01*
X3245896Y-8187984D02*
X3226848Y-8178460D01*
X3226848Y-8178460D02*
X3217324Y-8159412D01*
X3217324Y-8159412D02*
X3217324Y-7987984D01*
X3350658Y-8187984D02*
X3331610Y-8178460D01*
X3331610Y-8178460D02*
X3322086Y-8159412D01*
X3322086Y-8159412D02*
X3322086Y-7987984D01*
X3579229Y-8187984D02*
X3579229Y-7987984D01*
X3579229Y-7987984D02*
X3645896Y-8130841D01*
X3645896Y-8130841D02*
X3712562Y-7987984D01*
X3712562Y-7987984D02*
X3712562Y-8187984D01*
X3893515Y-8187984D02*
X3893515Y-8083222D01*
X3893515Y-8083222D02*
X3883991Y-8064174D01*
X3883991Y-8064174D02*
X3864943Y-8054650D01*
X3864943Y-8054650D02*
X3826848Y-8054650D01*
X3826848Y-8054650D02*
X3807801Y-8064174D01*
X3893515Y-8178460D02*
X3874467Y-8187984D01*
X3874467Y-8187984D02*
X3826848Y-8187984D01*
X3826848Y-8187984D02*
X3807801Y-8178460D01*
X3807801Y-8178460D02*
X3798277Y-8159412D01*
X3798277Y-8159412D02*
X3798277Y-8140365D01*
X3798277Y-8140365D02*
X3807801Y-8121317D01*
X3807801Y-8121317D02*
X3826848Y-8111793D01*
X3826848Y-8111793D02*
X3874467Y-8111793D01*
X3874467Y-8111793D02*
X3893515Y-8102269D01*
X3988753Y-8054650D02*
X3988753Y-8254650D01*
X3988753Y-8064174D02*
X4007801Y-8054650D01*
X4007801Y-8054650D02*
X4045896Y-8054650D01*
X4045896Y-8054650D02*
X4064943Y-8064174D01*
X4064943Y-8064174D02*
X4074467Y-8073698D01*
X4074467Y-8073698D02*
X4083991Y-8092746D01*
X4083991Y-8092746D02*
X4083991Y-8149888D01*
X4083991Y-8149888D02*
X4074467Y-8168936D01*
X4074467Y-8168936D02*
X4064943Y-8178460D01*
X4064943Y-8178460D02*
X4045896Y-8187984D01*
X4045896Y-8187984D02*
X4007801Y-8187984D01*
X4007801Y-8187984D02*
X3988753Y-8178460D01*
X4169705Y-8168936D02*
X4179229Y-8178460D01*
X4179229Y-8178460D02*
X4169705Y-8187984D01*
X4169705Y-8187984D02*
X4160182Y-8178460D01*
X4160182Y-8178460D02*
X4169705Y-8168936D01*
X4169705Y-8168936D02*
X4169705Y-8187984D01*
X4169705Y-8064174D02*
X4179229Y-8073698D01*
X4179229Y-8073698D02*
X4169705Y-8083222D01*
X4169705Y-8083222D02*
X4160182Y-8073698D01*
X4160182Y-8073698D02*
X4169705Y-8064174D01*
X4169705Y-8064174D02*
X4169705Y-8083222D01*
X2337500Y-8416500D02*
X2537500Y-8616500D01*
X2537500Y-8416500D02*
X2337500Y-8616500D01*
X2788753Y-8427031D02*
X2798277Y-8417508D01*
X2798277Y-8417508D02*
X2817324Y-8407984D01*
X2817324Y-8407984D02*
X2864943Y-8407984D01*
X2864943Y-8407984D02*
X2883991Y-8417508D01*
X2883991Y-8417508D02*
X2893515Y-8427031D01*
X2893515Y-8427031D02*
X2903039Y-8446079D01*
X2903039Y-8446079D02*
X2903039Y-8465127D01*
X2903039Y-8465127D02*
X2893515Y-8493698D01*
X2893515Y-8493698D02*
X2779229Y-8607984D01*
X2779229Y-8607984D02*
X2903039Y-8607984D01*
X2988753Y-8588936D02*
X2998277Y-8598460D01*
X2998277Y-8598460D02*
X2988753Y-8607984D01*
X2988753Y-8607984D02*
X2979229Y-8598460D01*
X2979229Y-8598460D02*
X2988753Y-8588936D01*
X2988753Y-8588936D02*
X2988753Y-8607984D01*
X3064943Y-8407984D02*
X3198277Y-8407984D01*
X3198277Y-8407984D02*
X3112562Y-8607984D01*
X3312562Y-8407984D02*
X3331610Y-8407984D01*
X3331610Y-8407984D02*
X3350658Y-8417508D01*
X3350658Y-8417508D02*
X3360182Y-8427031D01*
X3360182Y-8427031D02*
X3369705Y-8446079D01*
X3369705Y-8446079D02*
X3379229Y-8484174D01*
X3379229Y-8484174D02*
X3379229Y-8531793D01*
X3379229Y-8531793D02*
X3369705Y-8569889D01*
X3369705Y-8569889D02*
X3360182Y-8588936D01*
X3360182Y-8588936D02*
X3350658Y-8598460D01*
X3350658Y-8598460D02*
X3331610Y-8607984D01*
X3331610Y-8607984D02*
X3312562Y-8607984D01*
X3312562Y-8607984D02*
X3293515Y-8598460D01*
X3293515Y-8598460D02*
X3283991Y-8588936D01*
X3283991Y-8588936D02*
X3274467Y-8569889D01*
X3274467Y-8569889D02*
X3264943Y-8531793D01*
X3264943Y-8531793D02*
X3264943Y-8484174D01*
X3264943Y-8484174D02*
X3274467Y-8446079D01*
X3274467Y-8446079D02*
X3283991Y-8427031D01*
X3283991Y-8427031D02*
X3293515Y-8417508D01*
X3293515Y-8417508D02*
X3312562Y-8407984D01*
X3503039Y-8407984D02*
X3522086Y-8407984D01*
X3522086Y-8407984D02*
X3541134Y-8417508D01*
X3541134Y-8417508D02*
X3550658Y-8427031D01*
X3550658Y-8427031D02*
X3560182Y-8446079D01*
X3560182Y-8446079D02*
X3569705Y-8484174D01*
X3569705Y-8484174D02*
X3569705Y-8531793D01*
X3569705Y-8531793D02*
X3560182Y-8569889D01*
X3560182Y-8569889D02*
X3550658Y-8588936D01*
X3550658Y-8588936D02*
X3541134Y-8598460D01*
X3541134Y-8598460D02*
X3522086Y-8607984D01*
X3522086Y-8607984D02*
X3503039Y-8607984D01*
X3503039Y-8607984D02*
X3483991Y-8598460D01*
X3483991Y-8598460D02*
X3474467Y-8588936D01*
X3474467Y-8588936D02*
X3464943Y-8569889D01*
X3464943Y-8569889D02*
X3455420Y-8531793D01*
X3455420Y-8531793D02*
X3455420Y-8484174D01*
X3455420Y-8484174D02*
X3464943Y-8446079D01*
X3464943Y-8446079D02*
X3474467Y-8427031D01*
X3474467Y-8427031D02*
X3483991Y-8417508D01*
X3483991Y-8417508D02*
X3503039Y-8407984D01*
X3655420Y-8607984D02*
X3655420Y-8474650D01*
X3655420Y-8493698D02*
X3664943Y-8484174D01*
X3664943Y-8484174D02*
X3683991Y-8474650D01*
X3683991Y-8474650D02*
X3712563Y-8474650D01*
X3712563Y-8474650D02*
X3731610Y-8484174D01*
X3731610Y-8484174D02*
X3741134Y-8503222D01*
X3741134Y-8503222D02*
X3741134Y-8607984D01*
X3741134Y-8503222D02*
X3750658Y-8484174D01*
X3750658Y-8484174D02*
X3769705Y-8474650D01*
X3769705Y-8474650D02*
X3798277Y-8474650D01*
X3798277Y-8474650D02*
X3817324Y-8484174D01*
X3817324Y-8484174D02*
X3826848Y-8503222D01*
X3826848Y-8503222D02*
X3826848Y-8607984D01*
X3922086Y-8607984D02*
X3922086Y-8474650D01*
X3922086Y-8493698D02*
X3931610Y-8484174D01*
X3931610Y-8484174D02*
X3950658Y-8474650D01*
X3950658Y-8474650D02*
X3979229Y-8474650D01*
X3979229Y-8474650D02*
X3998277Y-8484174D01*
X3998277Y-8484174D02*
X4007801Y-8503222D01*
X4007801Y-8503222D02*
X4007801Y-8607984D01*
X4007801Y-8503222D02*
X4017324Y-8484174D01*
X4017324Y-8484174D02*
X4036372Y-8474650D01*
X4036372Y-8474650D02*
X4064943Y-8474650D01*
X4064943Y-8474650D02*
X4083991Y-8484174D01*
X4083991Y-8484174D02*
X4093515Y-8503222D01*
X4093515Y-8503222D02*
X4093515Y-8607984D01*
X4483991Y-8398460D02*
X4312563Y-8655603D01*
X4741134Y-8407984D02*
X4760182Y-8407984D01*
X4760182Y-8407984D02*
X4779229Y-8417508D01*
X4779229Y-8417508D02*
X4788753Y-8427031D01*
X4788753Y-8427031D02*
X4798277Y-8446079D01*
X4798277Y-8446079D02*
X4807801Y-8484174D01*
X4807801Y-8484174D02*
X4807801Y-8531793D01*
X4807801Y-8531793D02*
X4798277Y-8569889D01*
X4798277Y-8569889D02*
X4788753Y-8588936D01*
X4788753Y-8588936D02*
X4779229Y-8598460D01*
X4779229Y-8598460D02*
X4760182Y-8607984D01*
X4760182Y-8607984D02*
X4741134Y-8607984D01*
X4741134Y-8607984D02*
X4722087Y-8598460D01*
X4722087Y-8598460D02*
X4712563Y-8588936D01*
X4712563Y-8588936D02*
X4703039Y-8569889D01*
X4703039Y-8569889D02*
X4693515Y-8531793D01*
X4693515Y-8531793D02*
X4693515Y-8484174D01*
X4693515Y-8484174D02*
X4703039Y-8446079D01*
X4703039Y-8446079D02*
X4712563Y-8427031D01*
X4712563Y-8427031D02*
X4722087Y-8417508D01*
X4722087Y-8417508D02*
X4741134Y-8407984D01*
X4893515Y-8588936D02*
X4903039Y-8598460D01*
X4903039Y-8598460D02*
X4893515Y-8607984D01*
X4893515Y-8607984D02*
X4883991Y-8598460D01*
X4883991Y-8598460D02*
X4893515Y-8588936D01*
X4893515Y-8588936D02*
X4893515Y-8607984D01*
X5093515Y-8607984D02*
X4979229Y-8607984D01*
X5036372Y-8607984D02*
X5036372Y-8407984D01*
X5036372Y-8407984D02*
X5017325Y-8436555D01*
X5017325Y-8436555D02*
X4998277Y-8455603D01*
X4998277Y-8455603D02*
X4979229Y-8465127D01*
X5217325Y-8407984D02*
X5236372Y-8407984D01*
X5236372Y-8407984D02*
X5255420Y-8417508D01*
X5255420Y-8417508D02*
X5264944Y-8427031D01*
X5264944Y-8427031D02*
X5274468Y-8446079D01*
X5274468Y-8446079D02*
X5283991Y-8484174D01*
X5283991Y-8484174D02*
X5283991Y-8531793D01*
X5283991Y-8531793D02*
X5274468Y-8569889D01*
X5274468Y-8569889D02*
X5264944Y-8588936D01*
X5264944Y-8588936D02*
X5255420Y-8598460D01*
X5255420Y-8598460D02*
X5236372Y-8607984D01*
X5236372Y-8607984D02*
X5217325Y-8607984D01*
X5217325Y-8607984D02*
X5198277Y-8598460D01*
X5198277Y-8598460D02*
X5188753Y-8588936D01*
X5188753Y-8588936D02*
X5179229Y-8569889D01*
X5179229Y-8569889D02*
X5169706Y-8531793D01*
X5169706Y-8531793D02*
X5169706Y-8484174D01*
X5169706Y-8484174D02*
X5179229Y-8446079D01*
X5179229Y-8446079D02*
X5188753Y-8427031D01*
X5188753Y-8427031D02*
X5198277Y-8417508D01*
X5198277Y-8417508D02*
X5217325Y-8407984D01*
X5455420Y-8407984D02*
X5417325Y-8407984D01*
X5417325Y-8407984D02*
X5398277Y-8417508D01*
X5398277Y-8417508D02*
X5388753Y-8427031D01*
X5388753Y-8427031D02*
X5369706Y-8455603D01*
X5369706Y-8455603D02*
X5360182Y-8493698D01*
X5360182Y-8493698D02*
X5360182Y-8569889D01*
X5360182Y-8569889D02*
X5369706Y-8588936D01*
X5369706Y-8588936D02*
X5379229Y-8598460D01*
X5379229Y-8598460D02*
X5398277Y-8607984D01*
X5398277Y-8607984D02*
X5436372Y-8607984D01*
X5436372Y-8607984D02*
X5455420Y-8598460D01*
X5455420Y-8598460D02*
X5464944Y-8588936D01*
X5464944Y-8588936D02*
X5474468Y-8569889D01*
X5474468Y-8569889D02*
X5474468Y-8522270D01*
X5474468Y-8522270D02*
X5464944Y-8503222D01*
X5464944Y-8503222D02*
X5455420Y-8493698D01*
X5455420Y-8493698D02*
X5436372Y-8484174D01*
X5436372Y-8484174D02*
X5398277Y-8484174D01*
X5398277Y-8484174D02*
X5379229Y-8493698D01*
X5379229Y-8493698D02*
X5369706Y-8503222D01*
X5369706Y-8503222D02*
X5360182Y-8522270D01*
X5541134Y-8407984D02*
X5664944Y-8407984D01*
X5664944Y-8407984D02*
X5598277Y-8484174D01*
X5598277Y-8484174D02*
X5626848Y-8484174D01*
X5626848Y-8484174D02*
X5645896Y-8493698D01*
X5645896Y-8493698D02*
X5655420Y-8503222D01*
X5655420Y-8503222D02*
X5664944Y-8522270D01*
X5664944Y-8522270D02*
X5664944Y-8569889D01*
X5664944Y-8569889D02*
X5655420Y-8588936D01*
X5655420Y-8588936D02*
X5645896Y-8598460D01*
X5645896Y-8598460D02*
X5626848Y-8607984D01*
X5626848Y-8607984D02*
X5569706Y-8607984D01*
X5569706Y-8607984D02*
X5550658Y-8598460D01*
X5550658Y-8598460D02*
X5541134Y-8588936D01*
X5741134Y-8407984D02*
X5741134Y-8446079D01*
X5817325Y-8407984D02*
X5817325Y-8446079D01*
X6112563Y-8684174D02*
X6103039Y-8674650D01*
X6103039Y-8674650D02*
X6083991Y-8646079D01*
X6083991Y-8646079D02*
X6074468Y-8627031D01*
X6074468Y-8627031D02*
X6064944Y-8598460D01*
X6064944Y-8598460D02*
X6055420Y-8550841D01*
X6055420Y-8550841D02*
X6055420Y-8512746D01*
X6055420Y-8512746D02*
X6064944Y-8465127D01*
X6064944Y-8465127D02*
X6074468Y-8436555D01*
X6074468Y-8436555D02*
X6083991Y-8417508D01*
X6083991Y-8417508D02*
X6103039Y-8388936D01*
X6103039Y-8388936D02*
X6112563Y-8379412D01*
X6293515Y-8607984D02*
X6179229Y-8607984D01*
X6236372Y-8607984D02*
X6236372Y-8407984D01*
X6236372Y-8407984D02*
X6217325Y-8436555D01*
X6217325Y-8436555D02*
X6198277Y-8455603D01*
X6198277Y-8455603D02*
X6179229Y-8465127D01*
X6531610Y-8607984D02*
X6531610Y-8407984D01*
X6617325Y-8607984D02*
X6617325Y-8503222D01*
X6617325Y-8503222D02*
X6607801Y-8484174D01*
X6607801Y-8484174D02*
X6588753Y-8474650D01*
X6588753Y-8474650D02*
X6560182Y-8474650D01*
X6560182Y-8474650D02*
X6541134Y-8484174D01*
X6541134Y-8484174D02*
X6531610Y-8493698D01*
X6741134Y-8607984D02*
X6722087Y-8598460D01*
X6722087Y-8598460D02*
X6712563Y-8588936D01*
X6712563Y-8588936D02*
X6703039Y-8569889D01*
X6703039Y-8569889D02*
X6703039Y-8512746D01*
X6703039Y-8512746D02*
X6712563Y-8493698D01*
X6712563Y-8493698D02*
X6722087Y-8484174D01*
X6722087Y-8484174D02*
X6741134Y-8474650D01*
X6741134Y-8474650D02*
X6769706Y-8474650D01*
X6769706Y-8474650D02*
X6788753Y-8484174D01*
X6788753Y-8484174D02*
X6798277Y-8493698D01*
X6798277Y-8493698D02*
X6807801Y-8512746D01*
X6807801Y-8512746D02*
X6807801Y-8569889D01*
X6807801Y-8569889D02*
X6798277Y-8588936D01*
X6798277Y-8588936D02*
X6788753Y-8598460D01*
X6788753Y-8598460D02*
X6769706Y-8607984D01*
X6769706Y-8607984D02*
X6741134Y-8607984D01*
X6922087Y-8607984D02*
X6903039Y-8598460D01*
X6903039Y-8598460D02*
X6893515Y-8579412D01*
X6893515Y-8579412D02*
X6893515Y-8407984D01*
X7074468Y-8598460D02*
X7055420Y-8607984D01*
X7055420Y-8607984D02*
X7017325Y-8607984D01*
X7017325Y-8607984D02*
X6998277Y-8598460D01*
X6998277Y-8598460D02*
X6988753Y-8579412D01*
X6988753Y-8579412D02*
X6988753Y-8503222D01*
X6988753Y-8503222D02*
X6998277Y-8484174D01*
X6998277Y-8484174D02*
X7017325Y-8474650D01*
X7017325Y-8474650D02*
X7055420Y-8474650D01*
X7055420Y-8474650D02*
X7074468Y-8484174D01*
X7074468Y-8484174D02*
X7083991Y-8503222D01*
X7083991Y-8503222D02*
X7083991Y-8522270D01*
X7083991Y-8522270D02*
X6988753Y-8541317D01*
X7150658Y-8684174D02*
X7160182Y-8674650D01*
X7160182Y-8674650D02*
X7179230Y-8646079D01*
X7179230Y-8646079D02*
X7188753Y-8627031D01*
X7188753Y-8627031D02*
X7198277Y-8598460D01*
X7198277Y-8598460D02*
X7207801Y-8550841D01*
X7207801Y-8550841D02*
X7207801Y-8512746D01*
X7207801Y-8512746D02*
X7198277Y-8465127D01*
X7198277Y-8465127D02*
X7188753Y-8436555D01*
X7188753Y-8436555D02*
X7179230Y-8417508D01*
X7179230Y-8417508D02*
X7160182Y-8388936D01*
X7160182Y-8388936D02*
X7150658Y-8379412D01*
X7512563Y-8684174D02*
X7503039Y-8674650D01*
X7503039Y-8674650D02*
X7483991Y-8646079D01*
X7483991Y-8646079D02*
X7474468Y-8627031D01*
X7474468Y-8627031D02*
X7464944Y-8598460D01*
X7464944Y-8598460D02*
X7455420Y-8550841D01*
X7455420Y-8550841D02*
X7455420Y-8512746D01*
X7455420Y-8512746D02*
X7464944Y-8465127D01*
X7464944Y-8465127D02*
X7474468Y-8436555D01*
X7474468Y-8436555D02*
X7483991Y-8417508D01*
X7483991Y-8417508D02*
X7503039Y-8388936D01*
X7503039Y-8388936D02*
X7512563Y-8379412D01*
X7588753Y-8474650D02*
X7588753Y-8607984D01*
X7588753Y-8493698D02*
X7598277Y-8484174D01*
X7598277Y-8484174D02*
X7617325Y-8474650D01*
X7617325Y-8474650D02*
X7645896Y-8474650D01*
X7645896Y-8474650D02*
X7664944Y-8484174D01*
X7664944Y-8484174D02*
X7674468Y-8503222D01*
X7674468Y-8503222D02*
X7674468Y-8607984D01*
X7798277Y-8607984D02*
X7779230Y-8598460D01*
X7779230Y-8598460D02*
X7769706Y-8588936D01*
X7769706Y-8588936D02*
X7760182Y-8569889D01*
X7760182Y-8569889D02*
X7760182Y-8512746D01*
X7760182Y-8512746D02*
X7769706Y-8493698D01*
X7769706Y-8493698D02*
X7779230Y-8484174D01*
X7779230Y-8484174D02*
X7798277Y-8474650D01*
X7798277Y-8474650D02*
X7826849Y-8474650D01*
X7826849Y-8474650D02*
X7845896Y-8484174D01*
X7845896Y-8484174D02*
X7855420Y-8493698D01*
X7855420Y-8493698D02*
X7864944Y-8512746D01*
X7864944Y-8512746D02*
X7864944Y-8569889D01*
X7864944Y-8569889D02*
X7855420Y-8588936D01*
X7855420Y-8588936D02*
X7845896Y-8598460D01*
X7845896Y-8598460D02*
X7826849Y-8607984D01*
X7826849Y-8607984D02*
X7798277Y-8607984D01*
X7922087Y-8474650D02*
X7998277Y-8474650D01*
X7950658Y-8407984D02*
X7950658Y-8579412D01*
X7950658Y-8579412D02*
X7960182Y-8598460D01*
X7960182Y-8598460D02*
X7979230Y-8607984D01*
X7979230Y-8607984D02*
X7998277Y-8607984D01*
X8217325Y-8474650D02*
X8217325Y-8674650D01*
X8217325Y-8484174D02*
X8236372Y-8474650D01*
X8236372Y-8474650D02*
X8274468Y-8474650D01*
X8274468Y-8474650D02*
X8293515Y-8484174D01*
X8293515Y-8484174D02*
X8303039Y-8493698D01*
X8303039Y-8493698D02*
X8312563Y-8512746D01*
X8312563Y-8512746D02*
X8312563Y-8569889D01*
X8312563Y-8569889D02*
X8303039Y-8588936D01*
X8303039Y-8588936D02*
X8293515Y-8598460D01*
X8293515Y-8598460D02*
X8274468Y-8607984D01*
X8274468Y-8607984D02*
X8236372Y-8607984D01*
X8236372Y-8607984D02*
X8217325Y-8598460D01*
X8426849Y-8607984D02*
X8407801Y-8598460D01*
X8407801Y-8598460D02*
X8398277Y-8579412D01*
X8398277Y-8579412D02*
X8398277Y-8407984D01*
X8588754Y-8607984D02*
X8588754Y-8503222D01*
X8588754Y-8503222D02*
X8579230Y-8484174D01*
X8579230Y-8484174D02*
X8560182Y-8474650D01*
X8560182Y-8474650D02*
X8522087Y-8474650D01*
X8522087Y-8474650D02*
X8503039Y-8484174D01*
X8588754Y-8598460D02*
X8569706Y-8607984D01*
X8569706Y-8607984D02*
X8522087Y-8607984D01*
X8522087Y-8607984D02*
X8503039Y-8598460D01*
X8503039Y-8598460D02*
X8493515Y-8579412D01*
X8493515Y-8579412D02*
X8493515Y-8560365D01*
X8493515Y-8560365D02*
X8503039Y-8541317D01*
X8503039Y-8541317D02*
X8522087Y-8531793D01*
X8522087Y-8531793D02*
X8569706Y-8531793D01*
X8569706Y-8531793D02*
X8588754Y-8522270D01*
X8655420Y-8474650D02*
X8731611Y-8474650D01*
X8683992Y-8407984D02*
X8683992Y-8579412D01*
X8683992Y-8579412D02*
X8693515Y-8598460D01*
X8693515Y-8598460D02*
X8712563Y-8607984D01*
X8712563Y-8607984D02*
X8731611Y-8607984D01*
X8874468Y-8598460D02*
X8855420Y-8607984D01*
X8855420Y-8607984D02*
X8817325Y-8607984D01*
X8817325Y-8607984D02*
X8798277Y-8598460D01*
X8798277Y-8598460D02*
X8788754Y-8579412D01*
X8788754Y-8579412D02*
X8788754Y-8503222D01*
X8788754Y-8503222D02*
X8798277Y-8484174D01*
X8798277Y-8484174D02*
X8817325Y-8474650D01*
X8817325Y-8474650D02*
X8855420Y-8474650D01*
X8855420Y-8474650D02*
X8874468Y-8484174D01*
X8874468Y-8484174D02*
X8883992Y-8503222D01*
X8883992Y-8503222D02*
X8883992Y-8522270D01*
X8883992Y-8522270D02*
X8788754Y-8541317D01*
X9055420Y-8607984D02*
X9055420Y-8407984D01*
X9055420Y-8598460D02*
X9036373Y-8607984D01*
X9036373Y-8607984D02*
X8998277Y-8607984D01*
X8998277Y-8607984D02*
X8979230Y-8598460D01*
X8979230Y-8598460D02*
X8969706Y-8588936D01*
X8969706Y-8588936D02*
X8960182Y-8569889D01*
X8960182Y-8569889D02*
X8960182Y-8512746D01*
X8960182Y-8512746D02*
X8969706Y-8493698D01*
X8969706Y-8493698D02*
X8979230Y-8484174D01*
X8979230Y-8484174D02*
X8998277Y-8474650D01*
X8998277Y-8474650D02*
X9036373Y-8474650D01*
X9036373Y-8474650D02*
X9055420Y-8484174D01*
X9131611Y-8684174D02*
X9141135Y-8674650D01*
X9141135Y-8674650D02*
X9160182Y-8646079D01*
X9160182Y-8646079D02*
X9169706Y-8627031D01*
X9169706Y-8627031D02*
X9179230Y-8598460D01*
X9179230Y-8598460D02*
X9188754Y-8550841D01*
X9188754Y-8550841D02*
X9188754Y-8512746D01*
X9188754Y-8512746D02*
X9179230Y-8465127D01*
X9179230Y-8465127D02*
X9169706Y-8436555D01*
X9169706Y-8436555D02*
X9160182Y-8417508D01*
X9160182Y-8417508D02*
X9141135Y-8388936D01*
X9141135Y-8388936D02*
X9131611Y-8379412D01*
M02*
