%TF.GenerationSoftware,KiCad,Pcbnew,5.1.8-5.1.8*%
%TF.CreationDate,2023-07-26T00:19:43+02:00*%
%TF.ProjectId,C64-PSU-PCB-replacement-for-902503-06,4336342d-5053-4552-9d50-43422d726570,rev?*%
%TF.SameCoordinates,Original*%
%TF.FileFunction,Soldermask,Top*%
%TF.FilePolarity,Negative*%
%FSLAX46Y46*%
G04 Gerber Fmt 4.6, Leading zero omitted, Abs format (unit mm)*
G04 Created by KiCad (PCBNEW 5.1.8-5.1.8) date 2023-07-26 00:19:43*
%MOMM*%
%LPD*%
G01*
G04 APERTURE LIST*
%ADD10C,1.500000*%
%ADD11C,3.000000*%
%ADD12O,1.905000X2.000000*%
%ADD13R,1.905000X2.000000*%
%ADD14O,1.700000X1.700000*%
%ADD15R,1.700000X1.700000*%
%ADD16C,2.700000*%
%ADD17C,1.440000*%
%ADD18O,1.400000X1.400000*%
%ADD19C,1.400000*%
%ADD20O,3.200000X3.200000*%
%ADD21R,3.200000X3.200000*%
%ADD22R,3.200001X3.200001*%
%ADD23O,3.200001X3.200001*%
%ADD24O,1.600000X1.600000*%
%ADD25C,1.600000*%
%ADD26O,2.800000X2.800000*%
%ADD27R,2.800000X2.800000*%
G04 APERTURE END LIST*
D10*
%TO.C,PS1*%
X73914000Y-54004000D03*
X73914000Y-55704000D03*
X73914000Y-57404000D03*
X73914000Y-59104000D03*
X73914000Y-60804000D03*
%TD*%
D11*
%TO.C,J4*%
X33528000Y-33909000D03*
%TD*%
%TO.C,J3*%
X33528000Y-46355000D03*
%TD*%
%TO.C,R2*%
G36*
G01*
X93134601Y-48207340D02*
X92234599Y-48207340D01*
G75*
G02*
X91984600Y-47957341I0J249999D01*
G01*
X91984600Y-47257339D01*
G75*
G02*
X92234599Y-47007340I249999J0D01*
G01*
X93134601Y-47007340D01*
G75*
G02*
X93384600Y-47257339I0J-249999D01*
G01*
X93384600Y-47957341D01*
G75*
G02*
X93134601Y-48207340I-249999J0D01*
G01*
G37*
G36*
G01*
X93134601Y-50207340D02*
X92234599Y-50207340D01*
G75*
G02*
X91984600Y-49957341I0J249999D01*
G01*
X91984600Y-49257339D01*
G75*
G02*
X92234599Y-49007340I249999J0D01*
G01*
X93134601Y-49007340D01*
G75*
G02*
X93384600Y-49257339I0J-249999D01*
G01*
X93384600Y-49957341D01*
G75*
G02*
X93134601Y-50207340I-249999J0D01*
G01*
G37*
%TD*%
%TO.C,D7*%
G36*
G01*
X91609600Y-44847000D02*
X93759600Y-44847000D01*
G75*
G02*
X94009600Y-45097000I0J-250000D01*
G01*
X94009600Y-46022000D01*
G75*
G02*
X93759600Y-46272000I-250000J0D01*
G01*
X91609600Y-46272000D01*
G75*
G02*
X91359600Y-46022000I0J250000D01*
G01*
X91359600Y-45097000D01*
G75*
G02*
X91609600Y-44847000I250000J0D01*
G01*
G37*
G36*
G01*
X91609600Y-41872000D02*
X93759600Y-41872000D01*
G75*
G02*
X94009600Y-42122000I0J-250000D01*
G01*
X94009600Y-43047000D01*
G75*
G02*
X93759600Y-43297000I-250000J0D01*
G01*
X91609600Y-43297000D01*
G75*
G02*
X91359600Y-43047000I0J250000D01*
G01*
X91359600Y-42122000D01*
G75*
G02*
X91609600Y-41872000I250000J0D01*
G01*
G37*
%TD*%
D12*
%TO.C,U0*%
X63754000Y-74803000D03*
X61214000Y-74803000D03*
D13*
X58674000Y-74803000D03*
%TD*%
D14*
%TO.C,J1*%
X40005000Y-74930000D03*
D15*
X42545000Y-74930000D03*
%TD*%
D16*
%TO.C,F2*%
X33528000Y-40185000D03*
D11*
X33528000Y-28935000D03*
X33528000Y-51435000D03*
%TD*%
D17*
%TO.C,RV1*%
X79375000Y-59690000D03*
X81915000Y-57150000D03*
X79375000Y-54610000D03*
%TD*%
D18*
%TO.C,R1*%
X81915000Y-53340000D03*
D19*
X81915000Y-60960000D03*
%TD*%
D14*
%TO.C,J2*%
X85090000Y-74930000D03*
D15*
X82550000Y-74930000D03*
%TD*%
D20*
%TO.C,D4*%
X67310000Y-62230000D03*
D21*
X52070000Y-62230000D03*
%TD*%
D20*
%TO.C,D3*%
X67310000Y-56515000D03*
D22*
X52070000Y-56515000D03*
%TD*%
D20*
%TO.C,D2*%
X48260000Y-62230000D03*
D21*
X33020000Y-62230000D03*
%TD*%
D23*
%TO.C,D1*%
X48260000Y-56515000D03*
D21*
X33020000Y-56515000D03*
%TD*%
D24*
%TO.C,C6*%
X92710000Y-62865000D03*
D25*
X85210000Y-62865000D03*
%TD*%
D24*
%TO.C,C5*%
X92710000Y-57785000D03*
D25*
X85210000Y-57785000D03*
%TD*%
D24*
%TO.C,C4*%
X92710000Y-52705000D03*
D25*
X85210000Y-52705000D03*
%TD*%
D26*
%TO.C,C1*%
X92710000Y-40005000D03*
D27*
X40710000Y-40005000D03*
%TD*%
M02*
