%TF.GenerationSoftware,KiCad,Pcbnew,7.0.9*%
%TF.CreationDate,2025-04-20T12:55:00+02:00*%
%TF.ProjectId,C64-PSU-PCB-replacement-for-902503-06,4336342d-5053-4552-9d50-43422d726570,D*%
%TF.SameCoordinates,Original*%
%TF.FileFunction,Soldermask,Top*%
%TF.FilePolarity,Negative*%
%FSLAX46Y46*%
G04 Gerber Fmt 4.6, Leading zero omitted, Abs format (unit mm)*
G04 Created by KiCad (PCBNEW 7.0.9) date 2025-04-20 12:55:00*
%MOMM*%
%LPD*%
G01*
G04 APERTURE LIST*
G04 Aperture macros list*
%AMRoundRect*
0 Rectangle with rounded corners*
0 $1 Rounding radius*
0 $2 $3 $4 $5 $6 $7 $8 $9 X,Y pos of 4 corners*
0 Add a 4 corners polygon primitive as box body*
4,1,4,$2,$3,$4,$5,$6,$7,$8,$9,$2,$3,0*
0 Add four circle primitives for the rounded corners*
1,1,$1+$1,$2,$3*
1,1,$1+$1,$4,$5*
1,1,$1+$1,$6,$7*
1,1,$1+$1,$8,$9*
0 Add four rect primitives between the rounded corners*
20,1,$1+$1,$2,$3,$4,$5,0*
20,1,$1+$1,$4,$5,$6,$7,0*
20,1,$1+$1,$6,$7,$8,$9,0*
20,1,$1+$1,$8,$9,$2,$3,0*%
G04 Aperture macros list end*
%ADD10R,2.800000X2.800000*%
%ADD11O,2.800000X2.800000*%
%ADD12C,1.600000*%
%ADD13O,1.600000X1.600000*%
%ADD14R,3.200000X3.200000*%
%ADD15O,3.200001X3.200001*%
%ADD16R,3.200001X3.200001*%
%ADD17O,3.200000X3.200000*%
%ADD18R,1.700000X1.700000*%
%ADD19O,1.700000X1.700000*%
%ADD20C,1.500000*%
%ADD21C,1.400000*%
%ADD22O,1.400000X1.400000*%
%ADD23C,1.440000*%
%ADD24C,2.700000*%
%ADD25C,3.000000*%
%ADD26R,1.905000X2.000000*%
%ADD27O,1.905000X2.000000*%
%ADD28RoundRect,0.250000X-1.075000X0.462500X-1.075000X-0.462500X1.075000X-0.462500X1.075000X0.462500X0*%
%ADD29RoundRect,0.249999X0.450001X-0.350001X0.450001X0.350001X-0.450001X0.350001X-0.450001X-0.350001X0*%
G04 APERTURE END LIST*
D10*
%TO.C,C1*%
X40710000Y-40005000D03*
D11*
X92710000Y-40005000D03*
%TD*%
D12*
%TO.C,C4*%
X85210000Y-52705000D03*
D13*
X92710000Y-52705000D03*
%TD*%
D12*
%TO.C,C5*%
X85210000Y-57785000D03*
D13*
X92710000Y-57785000D03*
%TD*%
D12*
%TO.C,C6*%
X85210000Y-62865000D03*
D13*
X92710000Y-62865000D03*
%TD*%
D14*
%TO.C,D1*%
X33020000Y-56515000D03*
D15*
X48260000Y-56515000D03*
%TD*%
D16*
%TO.C,D3*%
X52070000Y-56515000D03*
D17*
X67310000Y-56515000D03*
%TD*%
D14*
%TO.C,D4*%
X52070000Y-62230000D03*
D17*
X67310000Y-62230000D03*
%TD*%
D18*
%TO.C,J1*%
X42545000Y-74930000D03*
D19*
X40005000Y-74930000D03*
%TD*%
D18*
%TO.C,J2*%
X82550000Y-74930000D03*
D19*
X85090000Y-74930000D03*
%TD*%
D20*
%TO.C,PS1*%
X73914000Y-54004000D03*
X73914000Y-55704000D03*
X73914000Y-57404000D03*
X73914000Y-59104000D03*
X73914000Y-60804000D03*
%TD*%
D21*
%TO.C,R1*%
X81915000Y-60960000D03*
D22*
X81915000Y-53340000D03*
%TD*%
D23*
%TO.C,RV1*%
X79375000Y-54610000D03*
X81915000Y-57150000D03*
X79375000Y-59690000D03*
%TD*%
D24*
%TO.C,F2*%
X33528000Y-40185000D03*
D25*
X33528000Y-51435000D03*
X33528000Y-28935000D03*
%TD*%
D26*
%TO.C,U0*%
X58674000Y-74803000D03*
D27*
X61214000Y-74803000D03*
X63754000Y-74803000D03*
%TD*%
D14*
%TO.C,D2*%
X33020000Y-62230000D03*
D17*
X48260000Y-62230000D03*
%TD*%
D25*
%TO.C,J3*%
X33528000Y-46355000D03*
%TD*%
%TO.C,J4*%
X33528000Y-33909000D03*
%TD*%
D28*
%TO.C,D7*%
X92684600Y-42584500D03*
X92684600Y-45559500D03*
%TD*%
D29*
%TO.C,R2*%
X92684600Y-49607340D03*
X92684600Y-47607340D03*
%TD*%
M02*
