%TF.GenerationSoftware,KiCad,Pcbnew,5.1.8-5.1.8*%
%TF.CreationDate,2023-07-26T00:19:43+02:00*%
%TF.ProjectId,C64-PSU-PCB-replacement-for-902503-06,4336342d-5053-4552-9d50-43422d726570,rev?*%
%TF.SameCoordinates,Original*%
%TF.FileFunction,Legend,Top*%
%TF.FilePolarity,Positive*%
%FSLAX46Y46*%
G04 Gerber Fmt 4.6, Leading zero omitted, Abs format (unit mm)*
G04 Created by KiCad (PCBNEW 5.1.8-5.1.8) date 2023-07-26 00:19:43*
%MOMM*%
%LPD*%
G01*
G04 APERTURE LIST*
%ADD10C,0.152400*%
%ADD11C,0.150000*%
%ADD12C,0.200000*%
%ADD13C,0.100000*%
%ADD14C,0.120000*%
%ADD15C,0.254000*%
G04 APERTURE END LIST*
D10*
X81047166Y-70753393D02*
X80623833Y-71049726D01*
X81047166Y-71261393D02*
X80158166Y-71261393D01*
X80158166Y-70922726D01*
X80200500Y-70838060D01*
X80242833Y-70795726D01*
X80327500Y-70753393D01*
X80454500Y-70753393D01*
X80539166Y-70795726D01*
X80581500Y-70838060D01*
X80623833Y-70922726D01*
X80623833Y-71261393D01*
X80158166Y-70499393D02*
X81047166Y-70203060D01*
X80158166Y-69906726D01*
X81047166Y-69144726D02*
X81047166Y-69652726D01*
X81047166Y-69398726D02*
X80158166Y-69398726D01*
X80285166Y-69483393D01*
X80369833Y-69568060D01*
X80412166Y-69652726D01*
X81047166Y-67959393D02*
X81004833Y-68044060D01*
X80962500Y-68086393D01*
X80877833Y-68128726D01*
X80623833Y-68128726D01*
X80539166Y-68086393D01*
X80496833Y-68044060D01*
X80454500Y-67959393D01*
X80454500Y-67832393D01*
X80496833Y-67747726D01*
X80539166Y-67705393D01*
X80623833Y-67663060D01*
X80877833Y-67663060D01*
X80962500Y-67705393D01*
X81004833Y-67747726D01*
X81047166Y-67832393D01*
X81047166Y-67959393D01*
X81047166Y-66901060D02*
X80158166Y-66901060D01*
X81004833Y-66901060D02*
X81047166Y-66985726D01*
X81047166Y-67155060D01*
X81004833Y-67239726D01*
X80962500Y-67282060D01*
X80877833Y-67324393D01*
X80623833Y-67324393D01*
X80539166Y-67282060D01*
X80496833Y-67239726D01*
X80454500Y-67155060D01*
X80454500Y-66985726D01*
X80496833Y-66901060D01*
X80962500Y-66477726D02*
X81004833Y-66435393D01*
X81047166Y-66477726D01*
X81004833Y-66520060D01*
X80962500Y-66477726D01*
X81047166Y-66477726D01*
X81047166Y-64869060D02*
X80623833Y-65165393D01*
X81047166Y-65377060D02*
X80158166Y-65377060D01*
X80158166Y-65038393D01*
X80200500Y-64953726D01*
X80242833Y-64911393D01*
X80327500Y-64869060D01*
X80454500Y-64869060D01*
X80539166Y-64911393D01*
X80581500Y-64953726D01*
X80623833Y-65038393D01*
X80623833Y-65377060D01*
X81047166Y-64022393D02*
X81047166Y-64530393D01*
X81047166Y-64276393D02*
X80158166Y-64276393D01*
X80285166Y-64361060D01*
X80369833Y-64445726D01*
X80412166Y-64530393D01*
D11*
X39976000Y-27027142D02*
X39928380Y-27074761D01*
X39785523Y-27122380D01*
X39690285Y-27122380D01*
X39547428Y-27074761D01*
X39452190Y-26979523D01*
X39404571Y-26884285D01*
X39356952Y-26693809D01*
X39356952Y-26550952D01*
X39404571Y-26360476D01*
X39452190Y-26265238D01*
X39547428Y-26170000D01*
X39690285Y-26122380D01*
X39785523Y-26122380D01*
X39928380Y-26170000D01*
X39976000Y-26217619D01*
X40833142Y-26122380D02*
X40642666Y-26122380D01*
X40547428Y-26170000D01*
X40499809Y-26217619D01*
X40404571Y-26360476D01*
X40356952Y-26550952D01*
X40356952Y-26931904D01*
X40404571Y-27027142D01*
X40452190Y-27074761D01*
X40547428Y-27122380D01*
X40737904Y-27122380D01*
X40833142Y-27074761D01*
X40880761Y-27027142D01*
X40928380Y-26931904D01*
X40928380Y-26693809D01*
X40880761Y-26598571D01*
X40833142Y-26550952D01*
X40737904Y-26503333D01*
X40547428Y-26503333D01*
X40452190Y-26550952D01*
X40404571Y-26598571D01*
X40356952Y-26693809D01*
X41785523Y-26455714D02*
X41785523Y-27122380D01*
X41547428Y-26074761D02*
X41309333Y-26789047D01*
X41928380Y-26789047D01*
X42309333Y-26741428D02*
X43071238Y-26741428D01*
X43547428Y-27122380D02*
X43547428Y-26122380D01*
X44118857Y-27122380D01*
X44118857Y-26122380D01*
X44976000Y-27074761D02*
X44880761Y-27122380D01*
X44690285Y-27122380D01*
X44595047Y-27074761D01*
X44547428Y-26979523D01*
X44547428Y-26598571D01*
X44595047Y-26503333D01*
X44690285Y-26455714D01*
X44880761Y-26455714D01*
X44976000Y-26503333D01*
X45023619Y-26598571D01*
X45023619Y-26693809D01*
X44547428Y-26789047D01*
X45309333Y-26455714D02*
X45690285Y-26455714D01*
X45452190Y-26122380D02*
X45452190Y-26979523D01*
X45499809Y-27074761D01*
X45595047Y-27122380D01*
X45690285Y-27122380D01*
X45928380Y-26455714D02*
X46452190Y-26455714D01*
X45928380Y-27122380D01*
X46452190Y-27122380D01*
X46690285Y-26455714D02*
X47071238Y-26455714D01*
X46833142Y-26122380D02*
X46833142Y-26979523D01*
X46880761Y-27074761D01*
X46976000Y-27122380D01*
X47071238Y-27122380D01*
X47785523Y-27074761D02*
X47690285Y-27122380D01*
X47499809Y-27122380D01*
X47404571Y-27074761D01*
X47356952Y-26979523D01*
X47356952Y-26598571D01*
X47404571Y-26503333D01*
X47499809Y-26455714D01*
X47690285Y-26455714D01*
X47785523Y-26503333D01*
X47833142Y-26598571D01*
X47833142Y-26693809D01*
X47356952Y-26789047D01*
X48261714Y-27122380D02*
X48261714Y-26455714D01*
X48261714Y-26122380D02*
X48214095Y-26170000D01*
X48261714Y-26217619D01*
X48309333Y-26170000D01*
X48261714Y-26122380D01*
X48261714Y-26217619D01*
X48880761Y-27122380D02*
X48785523Y-27074761D01*
X48737904Y-26979523D01*
X48737904Y-26122380D01*
X49261714Y-26455714D02*
X49261714Y-27455714D01*
X49261714Y-26503333D02*
X49356952Y-26455714D01*
X49547428Y-26455714D01*
X49642666Y-26503333D01*
X49690285Y-26550952D01*
X49737904Y-26646190D01*
X49737904Y-26931904D01*
X49690285Y-27027142D01*
X49642666Y-27074761D01*
X49547428Y-27122380D01*
X49356952Y-27122380D01*
X49261714Y-27074761D01*
X50309333Y-27122380D02*
X50214095Y-27074761D01*
X50166476Y-26979523D01*
X50166476Y-26122380D01*
X51118857Y-27122380D02*
X51118857Y-26598571D01*
X51071238Y-26503333D01*
X50976000Y-26455714D01*
X50785523Y-26455714D01*
X50690285Y-26503333D01*
X51118857Y-27074761D02*
X51023619Y-27122380D01*
X50785523Y-27122380D01*
X50690285Y-27074761D01*
X50642666Y-26979523D01*
X50642666Y-26884285D01*
X50690285Y-26789047D01*
X50785523Y-26741428D01*
X51023619Y-26741428D01*
X51118857Y-26693809D01*
X51452190Y-26455714D02*
X51833142Y-26455714D01*
X51595047Y-26122380D02*
X51595047Y-26979523D01*
X51642666Y-27074761D01*
X51737904Y-27122380D01*
X51833142Y-27122380D01*
X52166476Y-27122380D02*
X52166476Y-26455714D01*
X52166476Y-26122380D02*
X52118857Y-26170000D01*
X52166476Y-26217619D01*
X52214095Y-26170000D01*
X52166476Y-26122380D01*
X52166476Y-26217619D01*
X52642666Y-26455714D02*
X52642666Y-27122380D01*
X52642666Y-26550952D02*
X52690285Y-26503333D01*
X52785523Y-26455714D01*
X52928380Y-26455714D01*
X53023619Y-26503333D01*
X53071238Y-26598571D01*
X53071238Y-27122380D01*
X53928380Y-27074761D02*
X53833142Y-27122380D01*
X53642666Y-27122380D01*
X53547428Y-27074761D01*
X53499809Y-26979523D01*
X53499809Y-26598571D01*
X53547428Y-26503333D01*
X53642666Y-26455714D01*
X53833142Y-26455714D01*
X53928380Y-26503333D01*
X53976000Y-26598571D01*
X53976000Y-26693809D01*
X53499809Y-26789047D01*
X55452190Y-27503333D02*
X55404571Y-27455714D01*
X55309333Y-27312857D01*
X55261714Y-27217619D01*
X55214095Y-27074761D01*
X55166476Y-26836666D01*
X55166476Y-26646190D01*
X55214095Y-26408095D01*
X55261714Y-26265238D01*
X55309333Y-26170000D01*
X55404571Y-26027142D01*
X55452190Y-25979523D01*
X56404571Y-27122380D02*
X56071238Y-26646190D01*
X55833142Y-27122380D02*
X55833142Y-26122380D01*
X56214095Y-26122380D01*
X56309333Y-26170000D01*
X56356952Y-26217619D01*
X56404571Y-26312857D01*
X56404571Y-26455714D01*
X56356952Y-26550952D01*
X56309333Y-26598571D01*
X56214095Y-26646190D01*
X55833142Y-26646190D01*
X57214095Y-27074761D02*
X57118857Y-27122380D01*
X56928380Y-27122380D01*
X56833142Y-27074761D01*
X56785523Y-26979523D01*
X56785523Y-26598571D01*
X56833142Y-26503333D01*
X56928380Y-26455714D01*
X57118857Y-26455714D01*
X57214095Y-26503333D01*
X57261714Y-26598571D01*
X57261714Y-26693809D01*
X56785523Y-26789047D01*
X57595047Y-26455714D02*
X57833142Y-27122380D01*
X58071238Y-26455714D01*
X58452190Y-27027142D02*
X58499809Y-27074761D01*
X58452190Y-27122380D01*
X58404571Y-27074761D01*
X58452190Y-27027142D01*
X58452190Y-27122380D01*
X59690285Y-27122380D02*
X59690285Y-26122380D01*
X59928380Y-26122380D01*
X60071238Y-26170000D01*
X60166476Y-26265238D01*
X60214095Y-26360476D01*
X60261714Y-26550952D01*
X60261714Y-26693809D01*
X60214095Y-26884285D01*
X60166476Y-26979523D01*
X60071238Y-27074761D01*
X59928380Y-27122380D01*
X59690285Y-27122380D01*
X60595047Y-27503333D02*
X60642666Y-27455714D01*
X60737904Y-27312857D01*
X60785523Y-27217619D01*
X60833142Y-27074761D01*
X60880761Y-26836666D01*
X60880761Y-26646190D01*
X60833142Y-26408095D01*
X60785523Y-26265238D01*
X60737904Y-26170000D01*
X60642666Y-26027142D01*
X60595047Y-25979523D01*
X61976000Y-26455714D02*
X62356952Y-26455714D01*
X62118857Y-27122380D02*
X62118857Y-26265238D01*
X62166476Y-26170000D01*
X62261714Y-26122380D01*
X62356952Y-26122380D01*
X63118857Y-26455714D02*
X63118857Y-27122380D01*
X62690285Y-26455714D02*
X62690285Y-26979523D01*
X62737904Y-27074761D01*
X62833142Y-27122380D01*
X62976000Y-27122380D01*
X63071238Y-27074761D01*
X63118857Y-27027142D01*
X62737904Y-26122380D02*
X62785523Y-26170000D01*
X62737904Y-26217619D01*
X62690285Y-26170000D01*
X62737904Y-26122380D01*
X62737904Y-26217619D01*
X63118857Y-26122380D02*
X63166476Y-26170000D01*
X63118857Y-26217619D01*
X63071238Y-26170000D01*
X63118857Y-26122380D01*
X63118857Y-26217619D01*
X63595047Y-27122380D02*
X63595047Y-26455714D01*
X63595047Y-26646190D02*
X63642666Y-26550952D01*
X63690285Y-26503333D01*
X63785523Y-26455714D01*
X63880761Y-26455714D01*
X64833142Y-26122380D02*
X65404571Y-26122380D01*
X65118857Y-27122380D02*
X65118857Y-26122380D01*
X65737904Y-27122380D02*
X65737904Y-26455714D01*
X65737904Y-26646190D02*
X65785523Y-26550952D01*
X65833142Y-26503333D01*
X65928380Y-26455714D01*
X66023619Y-26455714D01*
X66785523Y-27122380D02*
X66785523Y-26598571D01*
X66737904Y-26503333D01*
X66642666Y-26455714D01*
X66452190Y-26455714D01*
X66356952Y-26503333D01*
X66785523Y-27074761D02*
X66690285Y-27122380D01*
X66452190Y-27122380D01*
X66356952Y-27074761D01*
X66309333Y-26979523D01*
X66309333Y-26884285D01*
X66356952Y-26789047D01*
X66452190Y-26741428D01*
X66690285Y-26741428D01*
X66785523Y-26693809D01*
X67261714Y-26455714D02*
X67261714Y-27122380D01*
X67261714Y-26550952D02*
X67309333Y-26503333D01*
X67404571Y-26455714D01*
X67547428Y-26455714D01*
X67642666Y-26503333D01*
X67690285Y-26598571D01*
X67690285Y-27122380D01*
X68118857Y-27074761D02*
X68214095Y-27122380D01*
X68404571Y-27122380D01*
X68499809Y-27074761D01*
X68547428Y-26979523D01*
X68547428Y-26931904D01*
X68499809Y-26836666D01*
X68404571Y-26789047D01*
X68261714Y-26789047D01*
X68166476Y-26741428D01*
X68118857Y-26646190D01*
X68118857Y-26598571D01*
X68166476Y-26503333D01*
X68261714Y-26455714D01*
X68404571Y-26455714D01*
X68499809Y-26503333D01*
X68833142Y-26455714D02*
X69214095Y-26455714D01*
X68976000Y-27122380D02*
X68976000Y-26265238D01*
X69023619Y-26170000D01*
X69118857Y-26122380D01*
X69214095Y-26122380D01*
X69690285Y-27122380D02*
X69595047Y-27074761D01*
X69547428Y-27027142D01*
X69499809Y-26931904D01*
X69499809Y-26646190D01*
X69547428Y-26550952D01*
X69595047Y-26503333D01*
X69690285Y-26455714D01*
X69833142Y-26455714D01*
X69928380Y-26503333D01*
X69976000Y-26550952D01*
X70023619Y-26646190D01*
X70023619Y-26931904D01*
X69976000Y-27027142D01*
X69928380Y-27074761D01*
X69833142Y-27122380D01*
X69690285Y-27122380D01*
X70452190Y-27122380D02*
X70452190Y-26455714D01*
X70452190Y-26646190D02*
X70499809Y-26550952D01*
X70547428Y-26503333D01*
X70642666Y-26455714D01*
X70737904Y-26455714D01*
X71071238Y-27122380D02*
X71071238Y-26455714D01*
X71071238Y-26550952D02*
X71118857Y-26503333D01*
X71214095Y-26455714D01*
X71356952Y-26455714D01*
X71452190Y-26503333D01*
X71499809Y-26598571D01*
X71499809Y-27122380D01*
X71499809Y-26598571D02*
X71547428Y-26503333D01*
X71642666Y-26455714D01*
X71785523Y-26455714D01*
X71880761Y-26503333D01*
X71928380Y-26598571D01*
X71928380Y-27122380D01*
X72833142Y-27122380D02*
X72833142Y-26598571D01*
X72785523Y-26503333D01*
X72690285Y-26455714D01*
X72499809Y-26455714D01*
X72404571Y-26503333D01*
X72833142Y-27074761D02*
X72737904Y-27122380D01*
X72499809Y-27122380D01*
X72404571Y-27074761D01*
X72356952Y-26979523D01*
X72356952Y-26884285D01*
X72404571Y-26789047D01*
X72499809Y-26741428D01*
X72737904Y-26741428D01*
X72833142Y-26693809D01*
X73166476Y-26455714D02*
X73547428Y-26455714D01*
X73309333Y-26122380D02*
X73309333Y-26979523D01*
X73356952Y-27074761D01*
X73452190Y-27122380D01*
X73547428Y-27122380D01*
X74023619Y-27122380D02*
X73928380Y-27074761D01*
X73880761Y-27027142D01*
X73833142Y-26931904D01*
X73833142Y-26646190D01*
X73880761Y-26550952D01*
X73928380Y-26503333D01*
X74023619Y-26455714D01*
X74166476Y-26455714D01*
X74261714Y-26503333D01*
X74309333Y-26550952D01*
X74356952Y-26646190D01*
X74356952Y-26931904D01*
X74309333Y-27027142D01*
X74261714Y-27074761D01*
X74166476Y-27122380D01*
X74023619Y-27122380D01*
X74785523Y-27122380D02*
X74785523Y-26455714D01*
X74785523Y-26646190D02*
X74833142Y-26550952D01*
X74880761Y-26503333D01*
X74976000Y-26455714D01*
X75071238Y-26455714D01*
X76214095Y-27122380D02*
X76404571Y-27122380D01*
X76499809Y-27074761D01*
X76547428Y-27027142D01*
X76642666Y-26884285D01*
X76690285Y-26693809D01*
X76690285Y-26312857D01*
X76642666Y-26217619D01*
X76595047Y-26170000D01*
X76499809Y-26122380D01*
X76309333Y-26122380D01*
X76214095Y-26170000D01*
X76166476Y-26217619D01*
X76118857Y-26312857D01*
X76118857Y-26550952D01*
X76166476Y-26646190D01*
X76214095Y-26693809D01*
X76309333Y-26741428D01*
X76499809Y-26741428D01*
X76595047Y-26693809D01*
X76642666Y-26646190D01*
X76690285Y-26550952D01*
X77309333Y-26122380D02*
X77404571Y-26122380D01*
X77499809Y-26170000D01*
X77547428Y-26217619D01*
X77595047Y-26312857D01*
X77642666Y-26503333D01*
X77642666Y-26741428D01*
X77595047Y-26931904D01*
X77547428Y-27027142D01*
X77499809Y-27074761D01*
X77404571Y-27122380D01*
X77309333Y-27122380D01*
X77214095Y-27074761D01*
X77166476Y-27027142D01*
X77118857Y-26931904D01*
X77071238Y-26741428D01*
X77071238Y-26503333D01*
X77118857Y-26312857D01*
X77166476Y-26217619D01*
X77214095Y-26170000D01*
X77309333Y-26122380D01*
X78023619Y-26217619D02*
X78071238Y-26170000D01*
X78166476Y-26122380D01*
X78404571Y-26122380D01*
X78499809Y-26170000D01*
X78547428Y-26217619D01*
X78595047Y-26312857D01*
X78595047Y-26408095D01*
X78547428Y-26550952D01*
X77976000Y-27122380D01*
X78595047Y-27122380D01*
X79499809Y-26122380D02*
X79023619Y-26122380D01*
X78976000Y-26598571D01*
X79023619Y-26550952D01*
X79118857Y-26503333D01*
X79356952Y-26503333D01*
X79452190Y-26550952D01*
X79499809Y-26598571D01*
X79547428Y-26693809D01*
X79547428Y-26931904D01*
X79499809Y-27027142D01*
X79452190Y-27074761D01*
X79356952Y-27122380D01*
X79118857Y-27122380D01*
X79023619Y-27074761D01*
X78976000Y-27027142D01*
X80166476Y-26122380D02*
X80261714Y-26122380D01*
X80356952Y-26170000D01*
X80404571Y-26217619D01*
X80452190Y-26312857D01*
X80499809Y-26503333D01*
X80499809Y-26741428D01*
X80452190Y-26931904D01*
X80404571Y-27027142D01*
X80356952Y-27074761D01*
X80261714Y-27122380D01*
X80166476Y-27122380D01*
X80071238Y-27074761D01*
X80023619Y-27027142D01*
X79976000Y-26931904D01*
X79928380Y-26741428D01*
X79928380Y-26503333D01*
X79976000Y-26312857D01*
X80023619Y-26217619D01*
X80071238Y-26170000D01*
X80166476Y-26122380D01*
X80833142Y-26122380D02*
X81452190Y-26122380D01*
X81118857Y-26503333D01*
X81261714Y-26503333D01*
X81356952Y-26550952D01*
X81404571Y-26598571D01*
X81452190Y-26693809D01*
X81452190Y-26931904D01*
X81404571Y-27027142D01*
X81356952Y-27074761D01*
X81261714Y-27122380D01*
X80976000Y-27122380D01*
X80880761Y-27074761D01*
X80833142Y-27027142D01*
X81880761Y-26741428D02*
X82642666Y-26741428D01*
X83309333Y-26122380D02*
X83404571Y-26122380D01*
X83499809Y-26170000D01*
X83547428Y-26217619D01*
X83595047Y-26312857D01*
X83642666Y-26503333D01*
X83642666Y-26741428D01*
X83595047Y-26931904D01*
X83547428Y-27027142D01*
X83499809Y-27074761D01*
X83404571Y-27122380D01*
X83309333Y-27122380D01*
X83214095Y-27074761D01*
X83166476Y-27027142D01*
X83118857Y-26931904D01*
X83071238Y-26741428D01*
X83071238Y-26503333D01*
X83118857Y-26312857D01*
X83166476Y-26217619D01*
X83214095Y-26170000D01*
X83309333Y-26122380D01*
X84499809Y-26122380D02*
X84309333Y-26122380D01*
X84214095Y-26170000D01*
X84166476Y-26217619D01*
X84071238Y-26360476D01*
X84023619Y-26550952D01*
X84023619Y-26931904D01*
X84071238Y-27027142D01*
X84118857Y-27074761D01*
X84214095Y-27122380D01*
X84404571Y-27122380D01*
X84499809Y-27074761D01*
X84547428Y-27027142D01*
X84595047Y-26931904D01*
X84595047Y-26693809D01*
X84547428Y-26598571D01*
X84499809Y-26550952D01*
X84404571Y-26503333D01*
X84214095Y-26503333D01*
X84118857Y-26550952D01*
X84071238Y-26598571D01*
X84023619Y-26693809D01*
D12*
%TO.C,PS1*%
X76914000Y-54104000D02*
X76914000Y-54104000D01*
X76914000Y-53904000D02*
X76914000Y-53904000D01*
D13*
X76454000Y-52204000D02*
X70354000Y-52204000D01*
X76454000Y-62604000D02*
X76454000Y-52204000D01*
X70354000Y-62604000D02*
X76454000Y-62604000D01*
X70354000Y-52204000D02*
X70354000Y-62604000D01*
D12*
X76914000Y-54104000D02*
G75*
G02*
X76914000Y-53904000I0J100000D01*
G01*
X76914000Y-53904000D02*
G75*
G02*
X76914000Y-54104000I0J-100000D01*
G01*
D14*
%TO.C,J4*%
X35128781Y-33909000D02*
G75*
G03*
X35128781Y-33909000I-1600781J0D01*
G01*
%TO.C,J3*%
X35128781Y-46355000D02*
G75*
G03*
X35128781Y-46355000I-1600781J0D01*
G01*
%TO.C,R2*%
X93419600Y-48834404D02*
X93419600Y-48380276D01*
X91949600Y-48834404D02*
X91949600Y-48380276D01*
%TO.C,D7*%
X94269600Y-45672000D02*
X94269600Y-41612000D01*
X94269600Y-41612000D02*
X91099600Y-41612000D01*
X91099600Y-41612000D02*
X91099600Y-45672000D01*
%TO.C,U0*%
X63065000Y-71533000D02*
X63065000Y-73043000D01*
X59364000Y-71533000D02*
X59364000Y-73043000D01*
X56094000Y-73043000D02*
X66334000Y-73043000D01*
X66334000Y-71533000D02*
X66334000Y-76174000D01*
X56094000Y-71533000D02*
X56094000Y-76174000D01*
X56094000Y-76174000D02*
X66334000Y-76174000D01*
X56094000Y-71533000D02*
X66334000Y-71533000D01*
%TO.C,J1*%
X38675000Y-73600000D02*
X38675000Y-76260000D01*
X41275000Y-73600000D02*
X38675000Y-73600000D01*
X41275000Y-76260000D02*
X38675000Y-76260000D01*
X41275000Y-73600000D02*
X41275000Y-76260000D01*
X42545000Y-73600000D02*
X43875000Y-73600000D01*
X43875000Y-73600000D02*
X43875000Y-74930000D01*
%TO.C,F2*%
X38438000Y-51545000D02*
X35278000Y-51545000D01*
X38438000Y-51545000D02*
X38438000Y-28825000D01*
X28618000Y-51545000D02*
X28618000Y-28825000D01*
X31778000Y-51545000D02*
X28618000Y-51545000D01*
X31778000Y-28825000D02*
X28618000Y-28825000D01*
X38438000Y-28825000D02*
X35278000Y-28825000D01*
%TO.C,RV1*%
X78105000Y-62035000D02*
X78105000Y-52265000D01*
X83175000Y-62035000D02*
X83175000Y-52265000D01*
X78105000Y-62035000D02*
X83175000Y-62035000D01*
X78105000Y-52265000D02*
X83175000Y-52265000D01*
X80570000Y-63555000D02*
X80570000Y-62036000D01*
X83000000Y-63555000D02*
X83000000Y-62036000D01*
X80570000Y-63555000D02*
X83000000Y-63555000D01*
X80570000Y-62036000D02*
X83000000Y-62036000D01*
X81785000Y-63555000D02*
X81785000Y-62796000D01*
%TO.C,R1*%
X80995000Y-59070000D02*
X82835000Y-59070000D01*
X82835000Y-59070000D02*
X82835000Y-55230000D01*
X82835000Y-55230000D02*
X80995000Y-55230000D01*
X80995000Y-55230000D02*
X80995000Y-59070000D01*
X81915000Y-60020000D02*
X81915000Y-59070000D01*
X81915000Y-54280000D02*
X81915000Y-55230000D01*
%TO.C,J2*%
X86420000Y-76260000D02*
X86420000Y-73600000D01*
X83820000Y-76260000D02*
X86420000Y-76260000D01*
X83820000Y-73600000D02*
X86420000Y-73600000D01*
X83820000Y-76260000D02*
X83820000Y-73600000D01*
X82550000Y-76260000D02*
X81220000Y-76260000D01*
X81220000Y-76260000D02*
X81220000Y-74930000D01*
%TO.C,D4*%
X54820000Y-59510000D02*
X54820000Y-64950000D01*
X54820000Y-64950000D02*
X64560000Y-64950000D01*
X64560000Y-64950000D02*
X64560000Y-59510000D01*
X64560000Y-59510000D02*
X54820000Y-59510000D01*
X53910000Y-62230000D02*
X54820000Y-62230000D01*
X65470000Y-62230000D02*
X64560000Y-62230000D01*
X56365000Y-59510000D02*
X56365000Y-64950000D01*
X56485000Y-59510000D02*
X56485000Y-64950000D01*
X56245000Y-59510000D02*
X56245000Y-64950000D01*
%TO.C,D3*%
X54820000Y-53795000D02*
X54820000Y-59235000D01*
X54820000Y-59235000D02*
X64560000Y-59235000D01*
X64560000Y-59235000D02*
X64560000Y-53795000D01*
X64560000Y-53795000D02*
X54820000Y-53795000D01*
X53910000Y-56515000D02*
X54820000Y-56515000D01*
X65470000Y-56515000D02*
X64560000Y-56515000D01*
X56365000Y-53795000D02*
X56365000Y-59235000D01*
X56485000Y-53795000D02*
X56485000Y-59235000D01*
X56245000Y-53795000D02*
X56245000Y-59235000D01*
%TO.C,D2*%
X35770000Y-59510000D02*
X35770000Y-64950000D01*
X35770000Y-64950000D02*
X45510000Y-64950000D01*
X45510000Y-64950000D02*
X45510000Y-59510000D01*
X45510000Y-59510000D02*
X35770000Y-59510000D01*
X34860000Y-62230000D02*
X35770000Y-62230000D01*
X46420000Y-62230000D02*
X45510000Y-62230000D01*
X37315000Y-59510000D02*
X37315000Y-64950000D01*
X37435000Y-59510000D02*
X37435000Y-64950000D01*
X37195000Y-59510000D02*
X37195000Y-64950000D01*
%TO.C,D1*%
X35770000Y-53795000D02*
X35770000Y-59235000D01*
X35770000Y-59235000D02*
X45510000Y-59235000D01*
X45510000Y-59235000D02*
X45510000Y-53795000D01*
X45510000Y-53795000D02*
X35770000Y-53795000D01*
X34860000Y-56515000D02*
X35770000Y-56515000D01*
X46420000Y-56515000D02*
X45510000Y-56515000D01*
X37315000Y-53795000D02*
X37315000Y-59235000D01*
X37435000Y-53795000D02*
X37435000Y-59235000D01*
X37195000Y-53795000D02*
X37195000Y-59235000D01*
%TO.C,C6*%
X86940000Y-61445000D02*
X86940000Y-64285000D01*
X86940000Y-64285000D02*
X90980000Y-64285000D01*
X90980000Y-64285000D02*
X90980000Y-61445000D01*
X90980000Y-61445000D02*
X86940000Y-61445000D01*
X86250000Y-62865000D02*
X86940000Y-62865000D01*
X91670000Y-62865000D02*
X90980000Y-62865000D01*
%TO.C,C5*%
X86940000Y-56365000D02*
X86940000Y-59205000D01*
X86940000Y-59205000D02*
X90980000Y-59205000D01*
X90980000Y-59205000D02*
X90980000Y-56365000D01*
X90980000Y-56365000D02*
X86940000Y-56365000D01*
X86250000Y-57785000D02*
X86940000Y-57785000D01*
X91670000Y-57785000D02*
X90980000Y-57785000D01*
%TO.C,C4*%
X86940000Y-51285000D02*
X86940000Y-54125000D01*
X86940000Y-54125000D02*
X90980000Y-54125000D01*
X90980000Y-54125000D02*
X90980000Y-51285000D01*
X90980000Y-51285000D02*
X86940000Y-51285000D01*
X86250000Y-52705000D02*
X86940000Y-52705000D01*
X91670000Y-52705000D02*
X90980000Y-52705000D01*
%TO.C,C1*%
X41140000Y-37005000D02*
X43240000Y-37005000D01*
X42190000Y-35955000D02*
X42190000Y-38055000D01*
X43590000Y-29885000D02*
X43590000Y-50125000D01*
X89830000Y-29885000D02*
X89830000Y-50125000D01*
X43590000Y-29885000D02*
X45690000Y-29885000D01*
X45690000Y-29885000D02*
X46740000Y-30935000D01*
X46740000Y-30935000D02*
X47790000Y-29885000D01*
X47790000Y-29885000D02*
X89830000Y-29885000D01*
X43590000Y-50125000D02*
X45690000Y-50125000D01*
X45690000Y-50125000D02*
X46740000Y-49075000D01*
X46740000Y-49075000D02*
X47790000Y-50125000D01*
X47790000Y-50125000D02*
X89830000Y-50125000D01*
X42350000Y-40005000D02*
X43590000Y-40005000D01*
X91070000Y-40005000D02*
X89830000Y-40005000D01*
%TO.C,PS1*%
D15*
X73978523Y-58946142D02*
X72708523Y-58946142D01*
X72708523Y-58462333D01*
X72769000Y-58341380D01*
X72829476Y-58280904D01*
X72950428Y-58220428D01*
X73131857Y-58220428D01*
X73252809Y-58280904D01*
X73313285Y-58341380D01*
X73373761Y-58462333D01*
X73373761Y-58946142D01*
X73918047Y-57736619D02*
X73978523Y-57555190D01*
X73978523Y-57252809D01*
X73918047Y-57131857D01*
X73857571Y-57071380D01*
X73736619Y-57010904D01*
X73615666Y-57010904D01*
X73494714Y-57071380D01*
X73434238Y-57131857D01*
X73373761Y-57252809D01*
X73313285Y-57494714D01*
X73252809Y-57615666D01*
X73192333Y-57676142D01*
X73071380Y-57736619D01*
X72950428Y-57736619D01*
X72829476Y-57676142D01*
X72769000Y-57615666D01*
X72708523Y-57494714D01*
X72708523Y-57192333D01*
X72769000Y-57010904D01*
X73978523Y-55801380D02*
X73978523Y-56527095D01*
X73978523Y-56164238D02*
X72708523Y-56164238D01*
X72889952Y-56285190D01*
X73010904Y-56406142D01*
X73071380Y-56527095D01*
%TO.C,J3*%
D11*
X33194666Y-48207380D02*
X33194666Y-48921666D01*
X33147047Y-49064523D01*
X33051809Y-49159761D01*
X32908952Y-49207380D01*
X32813714Y-49207380D01*
X33575619Y-48207380D02*
X34194666Y-48207380D01*
X33861333Y-48588333D01*
X34004190Y-48588333D01*
X34099428Y-48635952D01*
X34147047Y-48683571D01*
X34194666Y-48778809D01*
X34194666Y-49016904D01*
X34147047Y-49112142D01*
X34099428Y-49159761D01*
X34004190Y-49207380D01*
X33718476Y-49207380D01*
X33623238Y-49159761D01*
X33575619Y-49112142D01*
%TO.C,R2*%
X91486980Y-48774006D02*
X91010790Y-49107340D01*
X91486980Y-49345435D02*
X90486980Y-49345435D01*
X90486980Y-48964482D01*
X90534600Y-48869244D01*
X90582219Y-48821625D01*
X90677457Y-48774006D01*
X90820314Y-48774006D01*
X90915552Y-48821625D01*
X90963171Y-48869244D01*
X91010790Y-48964482D01*
X91010790Y-49345435D01*
X90582219Y-48393054D02*
X90534600Y-48345435D01*
X90486980Y-48250197D01*
X90486980Y-48012101D01*
X90534600Y-47916863D01*
X90582219Y-47869244D01*
X90677457Y-47821625D01*
X90772695Y-47821625D01*
X90915552Y-47869244D01*
X91486980Y-48440673D01*
X91486980Y-47821625D01*
X94908714Y-49393054D02*
X95575380Y-49393054D01*
X94527761Y-49631149D02*
X95242047Y-49869244D01*
X95242047Y-49250197D01*
X95575380Y-48869244D02*
X94575380Y-48869244D01*
X95575380Y-48297816D02*
X95003952Y-48726387D01*
X94575380Y-48297816D02*
X95146809Y-48869244D01*
X94575380Y-47964482D02*
X94575380Y-47297816D01*
X95575380Y-47726387D01*
%TO.C,D7*%
X95416980Y-44810095D02*
X94416980Y-44810095D01*
X94416980Y-44572000D01*
X94464600Y-44429142D01*
X94559838Y-44333904D01*
X94655076Y-44286285D01*
X94845552Y-44238666D01*
X94988409Y-44238666D01*
X95178885Y-44286285D01*
X95274123Y-44333904D01*
X95369361Y-44429142D01*
X95416980Y-44572000D01*
X95416980Y-44810095D01*
X94416980Y-43905333D02*
X94416980Y-43238666D01*
X95416980Y-43667238D01*
%TO.C,J1*%
X44327380Y-75263333D02*
X45041666Y-75263333D01*
X45184523Y-75310952D01*
X45279761Y-75406190D01*
X45327380Y-75549047D01*
X45327380Y-75644285D01*
X45327380Y-74263333D02*
X45327380Y-74834761D01*
X45327380Y-74549047D02*
X44327380Y-74549047D01*
X44470238Y-74644285D01*
X44565476Y-74739523D01*
X44613095Y-74834761D01*
%TO.C,F2*%
X37393571Y-40518333D02*
X37393571Y-40851666D01*
X37917380Y-40851666D02*
X36917380Y-40851666D01*
X36917380Y-40375476D01*
X37012619Y-40042142D02*
X36965000Y-39994523D01*
X36917380Y-39899285D01*
X36917380Y-39661190D01*
X36965000Y-39565952D01*
X37012619Y-39518333D01*
X37107857Y-39470714D01*
X37203095Y-39470714D01*
X37345952Y-39518333D01*
X37917380Y-40089761D01*
X37917380Y-39470714D01*
%TO.C,RV1*%
X79420980Y-57770638D02*
X78944790Y-58103971D01*
X79420980Y-58342066D02*
X78420980Y-58342066D01*
X78420980Y-57961114D01*
X78468600Y-57865876D01*
X78516219Y-57818257D01*
X78611457Y-57770638D01*
X78754314Y-57770638D01*
X78849552Y-57818257D01*
X78897171Y-57865876D01*
X78944790Y-57961114D01*
X78944790Y-58342066D01*
X78420980Y-57484923D02*
X79420980Y-57151590D01*
X78420980Y-56818257D01*
X79420980Y-55961114D02*
X79420980Y-56532542D01*
X79420980Y-56246828D02*
X78420980Y-56246828D01*
X78563838Y-56342066D01*
X78659076Y-56437304D01*
X78706695Y-56532542D01*
D10*
X78507166Y-69356393D02*
X78507166Y-69779726D01*
X78930500Y-69822060D01*
X78888166Y-69779726D01*
X78845833Y-69695060D01*
X78845833Y-69483393D01*
X78888166Y-69398726D01*
X78930500Y-69356393D01*
X79015166Y-69314060D01*
X79226833Y-69314060D01*
X79311500Y-69356393D01*
X79353833Y-69398726D01*
X79396166Y-69483393D01*
X79396166Y-69695060D01*
X79353833Y-69779726D01*
X79311500Y-69822060D01*
X78507166Y-68763726D02*
X78507166Y-68679060D01*
X78549500Y-68594393D01*
X78591833Y-68552060D01*
X78676500Y-68509726D01*
X78845833Y-68467393D01*
X79057500Y-68467393D01*
X79226833Y-68509726D01*
X79311500Y-68552060D01*
X79353833Y-68594393D01*
X79396166Y-68679060D01*
X79396166Y-68763726D01*
X79353833Y-68848393D01*
X79311500Y-68890726D01*
X79226833Y-68933060D01*
X79057500Y-68975393D01*
X78845833Y-68975393D01*
X78676500Y-68933060D01*
X78591833Y-68890726D01*
X78549500Y-68848393D01*
X78507166Y-68763726D01*
X78507166Y-67917060D02*
X78507166Y-67832393D01*
X78549500Y-67747726D01*
X78591833Y-67705393D01*
X78676500Y-67663060D01*
X78845833Y-67620726D01*
X79057500Y-67620726D01*
X79226833Y-67663060D01*
X79311500Y-67705393D01*
X79353833Y-67747726D01*
X79396166Y-67832393D01*
X79396166Y-67917060D01*
X79353833Y-68001726D01*
X79311500Y-68044060D01*
X79226833Y-68086393D01*
X79057500Y-68128726D01*
X78845833Y-68128726D01*
X78676500Y-68086393D01*
X78591833Y-68044060D01*
X78549500Y-68001726D01*
X78507166Y-67917060D01*
X78507166Y-66393060D02*
X78507166Y-66223726D01*
X78549500Y-66139060D01*
X78634166Y-66054393D01*
X78803500Y-66012060D01*
X79099833Y-66012060D01*
X79269166Y-66054393D01*
X79353833Y-66139060D01*
X79396166Y-66223726D01*
X79396166Y-66393060D01*
X79353833Y-66477726D01*
X79269166Y-66562393D01*
X79099833Y-66604726D01*
X78803500Y-66604726D01*
X78634166Y-66562393D01*
X78549500Y-66477726D01*
X78507166Y-66393060D01*
X79396166Y-65631060D02*
X78507166Y-65631060D01*
X79396166Y-65250060D02*
X78930500Y-65250060D01*
X78845833Y-65292393D01*
X78803500Y-65377060D01*
X78803500Y-65504060D01*
X78845833Y-65588726D01*
X78888166Y-65631060D01*
X79396166Y-64826726D02*
X78803500Y-64826726D01*
X78888166Y-64826726D02*
X78845833Y-64784393D01*
X78803500Y-64699726D01*
X78803500Y-64572726D01*
X78845833Y-64488060D01*
X78930500Y-64445726D01*
X79396166Y-64445726D01*
X78930500Y-64445726D02*
X78845833Y-64403393D01*
X78803500Y-64318726D01*
X78803500Y-64191726D01*
X78845833Y-64107060D01*
X78930500Y-64064726D01*
X79396166Y-64064726D01*
%TO.C,R1*%
D11*
X80716380Y-57443666D02*
X80240190Y-57777000D01*
X80716380Y-58015095D02*
X79716380Y-58015095D01*
X79716380Y-57634142D01*
X79764000Y-57538904D01*
X79811619Y-57491285D01*
X79906857Y-57443666D01*
X80049714Y-57443666D01*
X80144952Y-57491285D01*
X80192571Y-57538904D01*
X80240190Y-57634142D01*
X80240190Y-58015095D01*
X80716380Y-56491285D02*
X80716380Y-57062714D01*
X80716380Y-56777000D02*
X79716380Y-56777000D01*
X79859238Y-56872238D01*
X79954476Y-56967476D01*
X80002095Y-57062714D01*
D10*
X81893833Y-71092060D02*
X81851500Y-71049726D01*
X81809166Y-70965060D01*
X81809166Y-70753393D01*
X81851500Y-70668726D01*
X81893833Y-70626393D01*
X81978500Y-70584060D01*
X82063166Y-70584060D01*
X82190166Y-70626393D01*
X82698166Y-71134393D01*
X82698166Y-70584060D01*
X81809166Y-69822060D02*
X81809166Y-69991393D01*
X81851500Y-70076060D01*
X81893833Y-70118393D01*
X82020833Y-70203060D01*
X82190166Y-70245393D01*
X82528833Y-70245393D01*
X82613500Y-70203060D01*
X82655833Y-70160726D01*
X82698166Y-70076060D01*
X82698166Y-69906726D01*
X82655833Y-69822060D01*
X82613500Y-69779726D01*
X82528833Y-69737393D01*
X82317166Y-69737393D01*
X82232500Y-69779726D01*
X82190166Y-69822060D01*
X82147833Y-69906726D01*
X82147833Y-70076060D01*
X82190166Y-70160726D01*
X82232500Y-70203060D01*
X82317166Y-70245393D01*
X81893833Y-69398726D02*
X81851500Y-69356393D01*
X81809166Y-69271726D01*
X81809166Y-69060060D01*
X81851500Y-68975393D01*
X81893833Y-68933060D01*
X81978500Y-68890726D01*
X82063166Y-68890726D01*
X82190166Y-68933060D01*
X82698166Y-69441060D01*
X82698166Y-68890726D01*
X82655833Y-68467393D02*
X82698166Y-68467393D01*
X82782833Y-68509726D01*
X82825166Y-68552060D01*
X82698166Y-67620726D02*
X82698166Y-68128726D01*
X82698166Y-67874726D02*
X81809166Y-67874726D01*
X81936166Y-67959393D01*
X82020833Y-68044060D01*
X82063166Y-68128726D01*
X81809166Y-66393060D02*
X81809166Y-66223726D01*
X81851500Y-66139060D01*
X81936166Y-66054393D01*
X82105500Y-66012060D01*
X82401833Y-66012060D01*
X82571166Y-66054393D01*
X82655833Y-66139060D01*
X82698166Y-66223726D01*
X82698166Y-66393060D01*
X82655833Y-66477726D01*
X82571166Y-66562393D01*
X82401833Y-66604726D01*
X82105500Y-66604726D01*
X81936166Y-66562393D01*
X81851500Y-66477726D01*
X81809166Y-66393060D01*
X82698166Y-65631060D02*
X81809166Y-65631060D01*
X82698166Y-65250060D02*
X82232500Y-65250060D01*
X82147833Y-65292393D01*
X82105500Y-65377060D01*
X82105500Y-65504060D01*
X82147833Y-65588726D01*
X82190166Y-65631060D01*
X82698166Y-64826726D02*
X82105500Y-64826726D01*
X82190166Y-64826726D02*
X82147833Y-64784393D01*
X82105500Y-64699726D01*
X82105500Y-64572726D01*
X82147833Y-64488060D01*
X82232500Y-64445726D01*
X82698166Y-64445726D01*
X82232500Y-64445726D02*
X82147833Y-64403393D01*
X82105500Y-64318726D01*
X82105500Y-64191726D01*
X82147833Y-64107060D01*
X82232500Y-64064726D01*
X82698166Y-64064726D01*
%TO.C,J2*%
D11*
X79672380Y-75263333D02*
X80386666Y-75263333D01*
X80529523Y-75310952D01*
X80624761Y-75406190D01*
X80672380Y-75549047D01*
X80672380Y-75644285D01*
X79767619Y-74834761D02*
X79720000Y-74787142D01*
X79672380Y-74691904D01*
X79672380Y-74453809D01*
X79720000Y-74358571D01*
X79767619Y-74310952D01*
X79862857Y-74263333D01*
X79958095Y-74263333D01*
X80100952Y-74310952D01*
X80672380Y-74882380D01*
X80672380Y-74263333D01*
%TO.C,D4*%
X57046904Y-60904380D02*
X57046904Y-59904380D01*
X57285000Y-59904380D01*
X57427857Y-59952000D01*
X57523095Y-60047238D01*
X57570714Y-60142476D01*
X57618333Y-60332952D01*
X57618333Y-60475809D01*
X57570714Y-60666285D01*
X57523095Y-60761523D01*
X57427857Y-60856761D01*
X57285000Y-60904380D01*
X57046904Y-60904380D01*
X58475476Y-60237714D02*
X58475476Y-60904380D01*
X58237380Y-59856761D02*
X57999285Y-60571047D01*
X58618333Y-60571047D01*
X57547142Y-64714380D02*
X56975714Y-64714380D01*
X57261428Y-64714380D02*
X57261428Y-63714380D01*
X57166190Y-63857238D01*
X57070952Y-63952476D01*
X56975714Y-64000095D01*
X57975714Y-64714380D02*
X57975714Y-63714380D01*
X58547142Y-64714380D01*
X58547142Y-63714380D01*
X59499523Y-63714380D02*
X59023333Y-63714380D01*
X58975714Y-64190571D01*
X59023333Y-64142952D01*
X59118571Y-64095333D01*
X59356666Y-64095333D01*
X59451904Y-64142952D01*
X59499523Y-64190571D01*
X59547142Y-64285809D01*
X59547142Y-64523904D01*
X59499523Y-64619142D01*
X59451904Y-64666761D01*
X59356666Y-64714380D01*
X59118571Y-64714380D01*
X59023333Y-64666761D01*
X58975714Y-64619142D01*
X60118571Y-64142952D02*
X60023333Y-64095333D01*
X59975714Y-64047714D01*
X59928095Y-63952476D01*
X59928095Y-63904857D01*
X59975714Y-63809619D01*
X60023333Y-63762000D01*
X60118571Y-63714380D01*
X60309047Y-63714380D01*
X60404285Y-63762000D01*
X60451904Y-63809619D01*
X60499523Y-63904857D01*
X60499523Y-63952476D01*
X60451904Y-64047714D01*
X60404285Y-64095333D01*
X60309047Y-64142952D01*
X60118571Y-64142952D01*
X60023333Y-64190571D01*
X59975714Y-64238190D01*
X59928095Y-64333428D01*
X59928095Y-64523904D01*
X59975714Y-64619142D01*
X60023333Y-64666761D01*
X60118571Y-64714380D01*
X60309047Y-64714380D01*
X60404285Y-64666761D01*
X60451904Y-64619142D01*
X60499523Y-64523904D01*
X60499523Y-64333428D01*
X60451904Y-64238190D01*
X60404285Y-64190571D01*
X60309047Y-64142952D01*
X60880476Y-63809619D02*
X60928095Y-63762000D01*
X61023333Y-63714380D01*
X61261428Y-63714380D01*
X61356666Y-63762000D01*
X61404285Y-63809619D01*
X61451904Y-63904857D01*
X61451904Y-64000095D01*
X61404285Y-64142952D01*
X60832857Y-64714380D01*
X61451904Y-64714380D01*
X61832857Y-63809619D02*
X61880476Y-63762000D01*
X61975714Y-63714380D01*
X62213809Y-63714380D01*
X62309047Y-63762000D01*
X62356666Y-63809619D01*
X62404285Y-63904857D01*
X62404285Y-64000095D01*
X62356666Y-64142952D01*
X61785238Y-64714380D01*
X62404285Y-64714380D01*
X51808095Y-60082380D02*
X51808095Y-59082380D01*
X52379523Y-60082380D02*
X51950952Y-59510952D01*
X52379523Y-59082380D02*
X51808095Y-59653809D01*
%TO.C,D3*%
X57046904Y-55062380D02*
X57046904Y-54062380D01*
X57285000Y-54062380D01*
X57427857Y-54110000D01*
X57523095Y-54205238D01*
X57570714Y-54300476D01*
X57618333Y-54490952D01*
X57618333Y-54633809D01*
X57570714Y-54824285D01*
X57523095Y-54919523D01*
X57427857Y-55014761D01*
X57285000Y-55062380D01*
X57046904Y-55062380D01*
X57951666Y-54062380D02*
X58570714Y-54062380D01*
X58237380Y-54443333D01*
X58380238Y-54443333D01*
X58475476Y-54490952D01*
X58523095Y-54538571D01*
X58570714Y-54633809D01*
X58570714Y-54871904D01*
X58523095Y-54967142D01*
X58475476Y-55014761D01*
X58380238Y-55062380D01*
X58094523Y-55062380D01*
X57999285Y-55014761D01*
X57951666Y-54967142D01*
X57547142Y-58872380D02*
X56975714Y-58872380D01*
X57261428Y-58872380D02*
X57261428Y-57872380D01*
X57166190Y-58015238D01*
X57070952Y-58110476D01*
X56975714Y-58158095D01*
X57975714Y-58872380D02*
X57975714Y-57872380D01*
X58547142Y-58872380D01*
X58547142Y-57872380D01*
X59499523Y-57872380D02*
X59023333Y-57872380D01*
X58975714Y-58348571D01*
X59023333Y-58300952D01*
X59118571Y-58253333D01*
X59356666Y-58253333D01*
X59451904Y-58300952D01*
X59499523Y-58348571D01*
X59547142Y-58443809D01*
X59547142Y-58681904D01*
X59499523Y-58777142D01*
X59451904Y-58824761D01*
X59356666Y-58872380D01*
X59118571Y-58872380D01*
X59023333Y-58824761D01*
X58975714Y-58777142D01*
X60118571Y-58300952D02*
X60023333Y-58253333D01*
X59975714Y-58205714D01*
X59928095Y-58110476D01*
X59928095Y-58062857D01*
X59975714Y-57967619D01*
X60023333Y-57920000D01*
X60118571Y-57872380D01*
X60309047Y-57872380D01*
X60404285Y-57920000D01*
X60451904Y-57967619D01*
X60499523Y-58062857D01*
X60499523Y-58110476D01*
X60451904Y-58205714D01*
X60404285Y-58253333D01*
X60309047Y-58300952D01*
X60118571Y-58300952D01*
X60023333Y-58348571D01*
X59975714Y-58396190D01*
X59928095Y-58491428D01*
X59928095Y-58681904D01*
X59975714Y-58777142D01*
X60023333Y-58824761D01*
X60118571Y-58872380D01*
X60309047Y-58872380D01*
X60404285Y-58824761D01*
X60451904Y-58777142D01*
X60499523Y-58681904D01*
X60499523Y-58491428D01*
X60451904Y-58396190D01*
X60404285Y-58348571D01*
X60309047Y-58300952D01*
X60880476Y-57967619D02*
X60928095Y-57920000D01*
X61023333Y-57872380D01*
X61261428Y-57872380D01*
X61356666Y-57920000D01*
X61404285Y-57967619D01*
X61451904Y-58062857D01*
X61451904Y-58158095D01*
X61404285Y-58300952D01*
X60832857Y-58872380D01*
X61451904Y-58872380D01*
X61832857Y-57967619D02*
X61880476Y-57920000D01*
X61975714Y-57872380D01*
X62213809Y-57872380D01*
X62309047Y-57920000D01*
X62356666Y-57967619D01*
X62404285Y-58062857D01*
X62404285Y-58158095D01*
X62356666Y-58300952D01*
X61785238Y-58872380D01*
X62404285Y-58872380D01*
X51808095Y-54367380D02*
X51808095Y-53367380D01*
X52379523Y-54367380D02*
X51950952Y-53795952D01*
X52379523Y-53367380D02*
X51808095Y-53938809D01*
%TO.C,D2*%
X37996904Y-60904380D02*
X37996904Y-59904380D01*
X38235000Y-59904380D01*
X38377857Y-59952000D01*
X38473095Y-60047238D01*
X38520714Y-60142476D01*
X38568333Y-60332952D01*
X38568333Y-60475809D01*
X38520714Y-60666285D01*
X38473095Y-60761523D01*
X38377857Y-60856761D01*
X38235000Y-60904380D01*
X37996904Y-60904380D01*
X38949285Y-59999619D02*
X38996904Y-59952000D01*
X39092142Y-59904380D01*
X39330238Y-59904380D01*
X39425476Y-59952000D01*
X39473095Y-59999619D01*
X39520714Y-60094857D01*
X39520714Y-60190095D01*
X39473095Y-60332952D01*
X38901666Y-60904380D01*
X39520714Y-60904380D01*
X38497142Y-64714380D02*
X37925714Y-64714380D01*
X38211428Y-64714380D02*
X38211428Y-63714380D01*
X38116190Y-63857238D01*
X38020952Y-63952476D01*
X37925714Y-64000095D01*
X38925714Y-64714380D02*
X38925714Y-63714380D01*
X39497142Y-64714380D01*
X39497142Y-63714380D01*
X40449523Y-63714380D02*
X39973333Y-63714380D01*
X39925714Y-64190571D01*
X39973333Y-64142952D01*
X40068571Y-64095333D01*
X40306666Y-64095333D01*
X40401904Y-64142952D01*
X40449523Y-64190571D01*
X40497142Y-64285809D01*
X40497142Y-64523904D01*
X40449523Y-64619142D01*
X40401904Y-64666761D01*
X40306666Y-64714380D01*
X40068571Y-64714380D01*
X39973333Y-64666761D01*
X39925714Y-64619142D01*
X41068571Y-64142952D02*
X40973333Y-64095333D01*
X40925714Y-64047714D01*
X40878095Y-63952476D01*
X40878095Y-63904857D01*
X40925714Y-63809619D01*
X40973333Y-63762000D01*
X41068571Y-63714380D01*
X41259047Y-63714380D01*
X41354285Y-63762000D01*
X41401904Y-63809619D01*
X41449523Y-63904857D01*
X41449523Y-63952476D01*
X41401904Y-64047714D01*
X41354285Y-64095333D01*
X41259047Y-64142952D01*
X41068571Y-64142952D01*
X40973333Y-64190571D01*
X40925714Y-64238190D01*
X40878095Y-64333428D01*
X40878095Y-64523904D01*
X40925714Y-64619142D01*
X40973333Y-64666761D01*
X41068571Y-64714380D01*
X41259047Y-64714380D01*
X41354285Y-64666761D01*
X41401904Y-64619142D01*
X41449523Y-64523904D01*
X41449523Y-64333428D01*
X41401904Y-64238190D01*
X41354285Y-64190571D01*
X41259047Y-64142952D01*
X41830476Y-63809619D02*
X41878095Y-63762000D01*
X41973333Y-63714380D01*
X42211428Y-63714380D01*
X42306666Y-63762000D01*
X42354285Y-63809619D01*
X42401904Y-63904857D01*
X42401904Y-64000095D01*
X42354285Y-64142952D01*
X41782857Y-64714380D01*
X42401904Y-64714380D01*
X42782857Y-63809619D02*
X42830476Y-63762000D01*
X42925714Y-63714380D01*
X43163809Y-63714380D01*
X43259047Y-63762000D01*
X43306666Y-63809619D01*
X43354285Y-63904857D01*
X43354285Y-64000095D01*
X43306666Y-64142952D01*
X42735238Y-64714380D01*
X43354285Y-64714380D01*
X32758095Y-60082380D02*
X32758095Y-59082380D01*
X33329523Y-60082380D02*
X32900952Y-59510952D01*
X33329523Y-59082380D02*
X32758095Y-59653809D01*
%TO.C,D1*%
X37996904Y-55062380D02*
X37996904Y-54062380D01*
X38235000Y-54062380D01*
X38377857Y-54110000D01*
X38473095Y-54205238D01*
X38520714Y-54300476D01*
X38568333Y-54490952D01*
X38568333Y-54633809D01*
X38520714Y-54824285D01*
X38473095Y-54919523D01*
X38377857Y-55014761D01*
X38235000Y-55062380D01*
X37996904Y-55062380D01*
X39520714Y-55062380D02*
X38949285Y-55062380D01*
X39235000Y-55062380D02*
X39235000Y-54062380D01*
X39139761Y-54205238D01*
X39044523Y-54300476D01*
X38949285Y-54348095D01*
X38497142Y-58872380D02*
X37925714Y-58872380D01*
X38211428Y-58872380D02*
X38211428Y-57872380D01*
X38116190Y-58015238D01*
X38020952Y-58110476D01*
X37925714Y-58158095D01*
X38925714Y-58872380D02*
X38925714Y-57872380D01*
X39497142Y-58872380D01*
X39497142Y-57872380D01*
X40449523Y-57872380D02*
X39973333Y-57872380D01*
X39925714Y-58348571D01*
X39973333Y-58300952D01*
X40068571Y-58253333D01*
X40306666Y-58253333D01*
X40401904Y-58300952D01*
X40449523Y-58348571D01*
X40497142Y-58443809D01*
X40497142Y-58681904D01*
X40449523Y-58777142D01*
X40401904Y-58824761D01*
X40306666Y-58872380D01*
X40068571Y-58872380D01*
X39973333Y-58824761D01*
X39925714Y-58777142D01*
X41068571Y-58300952D02*
X40973333Y-58253333D01*
X40925714Y-58205714D01*
X40878095Y-58110476D01*
X40878095Y-58062857D01*
X40925714Y-57967619D01*
X40973333Y-57920000D01*
X41068571Y-57872380D01*
X41259047Y-57872380D01*
X41354285Y-57920000D01*
X41401904Y-57967619D01*
X41449523Y-58062857D01*
X41449523Y-58110476D01*
X41401904Y-58205714D01*
X41354285Y-58253333D01*
X41259047Y-58300952D01*
X41068571Y-58300952D01*
X40973333Y-58348571D01*
X40925714Y-58396190D01*
X40878095Y-58491428D01*
X40878095Y-58681904D01*
X40925714Y-58777142D01*
X40973333Y-58824761D01*
X41068571Y-58872380D01*
X41259047Y-58872380D01*
X41354285Y-58824761D01*
X41401904Y-58777142D01*
X41449523Y-58681904D01*
X41449523Y-58491428D01*
X41401904Y-58396190D01*
X41354285Y-58348571D01*
X41259047Y-58300952D01*
X41830476Y-57967619D02*
X41878095Y-57920000D01*
X41973333Y-57872380D01*
X42211428Y-57872380D01*
X42306666Y-57920000D01*
X42354285Y-57967619D01*
X42401904Y-58062857D01*
X42401904Y-58158095D01*
X42354285Y-58300952D01*
X41782857Y-58872380D01*
X42401904Y-58872380D01*
X42782857Y-57967619D02*
X42830476Y-57920000D01*
X42925714Y-57872380D01*
X43163809Y-57872380D01*
X43259047Y-57920000D01*
X43306666Y-57967619D01*
X43354285Y-58062857D01*
X43354285Y-58158095D01*
X43306666Y-58300952D01*
X42735238Y-58872380D01*
X43354285Y-58872380D01*
X32758095Y-54367380D02*
X32758095Y-53367380D01*
X33329523Y-54367380D02*
X32900952Y-53795952D01*
X33329523Y-53367380D02*
X32758095Y-53938809D01*
%TO.C,C6*%
X88793333Y-63222142D02*
X88745714Y-63269761D01*
X88602857Y-63317380D01*
X88507619Y-63317380D01*
X88364761Y-63269761D01*
X88269523Y-63174523D01*
X88221904Y-63079285D01*
X88174285Y-62888809D01*
X88174285Y-62745952D01*
X88221904Y-62555476D01*
X88269523Y-62460238D01*
X88364761Y-62365000D01*
X88507619Y-62317380D01*
X88602857Y-62317380D01*
X88745714Y-62365000D01*
X88793333Y-62412619D01*
X89650476Y-62317380D02*
X89460000Y-62317380D01*
X89364761Y-62365000D01*
X89317142Y-62412619D01*
X89221904Y-62555476D01*
X89174285Y-62745952D01*
X89174285Y-63126904D01*
X89221904Y-63222142D01*
X89269523Y-63269761D01*
X89364761Y-63317380D01*
X89555238Y-63317380D01*
X89650476Y-63269761D01*
X89698095Y-63222142D01*
X89745714Y-63126904D01*
X89745714Y-62888809D01*
X89698095Y-62793571D01*
X89650476Y-62745952D01*
X89555238Y-62698333D01*
X89364761Y-62698333D01*
X89269523Y-62745952D01*
X89221904Y-62793571D01*
X89174285Y-62888809D01*
X87817142Y-65737380D02*
X87245714Y-65737380D01*
X87531428Y-65737380D02*
X87531428Y-64737380D01*
X87436190Y-64880238D01*
X87340952Y-64975476D01*
X87245714Y-65023095D01*
X88436190Y-64737380D02*
X88531428Y-64737380D01*
X88626666Y-64785000D01*
X88674285Y-64832619D01*
X88721904Y-64927857D01*
X88769523Y-65118333D01*
X88769523Y-65356428D01*
X88721904Y-65546904D01*
X88674285Y-65642142D01*
X88626666Y-65689761D01*
X88531428Y-65737380D01*
X88436190Y-65737380D01*
X88340952Y-65689761D01*
X88293333Y-65642142D01*
X88245714Y-65546904D01*
X88198095Y-65356428D01*
X88198095Y-65118333D01*
X88245714Y-64927857D01*
X88293333Y-64832619D01*
X88340952Y-64785000D01*
X88436190Y-64737380D01*
X89198095Y-65070714D02*
X89198095Y-66070714D01*
X89674285Y-65594523D02*
X89721904Y-65689761D01*
X89817142Y-65737380D01*
X89198095Y-65594523D02*
X89245714Y-65689761D01*
X89340952Y-65737380D01*
X89531428Y-65737380D01*
X89626666Y-65689761D01*
X89674285Y-65594523D01*
X89674285Y-65070714D01*
X90579047Y-65213571D02*
X90245714Y-65213571D01*
X90245714Y-65737380D02*
X90245714Y-64737380D01*
X90721904Y-64737380D01*
%TO.C,C5*%
X88793333Y-58142142D02*
X88745714Y-58189761D01*
X88602857Y-58237380D01*
X88507619Y-58237380D01*
X88364761Y-58189761D01*
X88269523Y-58094523D01*
X88221904Y-57999285D01*
X88174285Y-57808809D01*
X88174285Y-57665952D01*
X88221904Y-57475476D01*
X88269523Y-57380238D01*
X88364761Y-57285000D01*
X88507619Y-57237380D01*
X88602857Y-57237380D01*
X88745714Y-57285000D01*
X88793333Y-57332619D01*
X89698095Y-57237380D02*
X89221904Y-57237380D01*
X89174285Y-57713571D01*
X89221904Y-57665952D01*
X89317142Y-57618333D01*
X89555238Y-57618333D01*
X89650476Y-57665952D01*
X89698095Y-57713571D01*
X89745714Y-57808809D01*
X89745714Y-58046904D01*
X89698095Y-58142142D01*
X89650476Y-58189761D01*
X89555238Y-58237380D01*
X89317142Y-58237380D01*
X89221904Y-58189761D01*
X89174285Y-58142142D01*
X87817142Y-60657380D02*
X87245714Y-60657380D01*
X87531428Y-60657380D02*
X87531428Y-59657380D01*
X87436190Y-59800238D01*
X87340952Y-59895476D01*
X87245714Y-59943095D01*
X88436190Y-59657380D02*
X88531428Y-59657380D01*
X88626666Y-59705000D01*
X88674285Y-59752619D01*
X88721904Y-59847857D01*
X88769523Y-60038333D01*
X88769523Y-60276428D01*
X88721904Y-60466904D01*
X88674285Y-60562142D01*
X88626666Y-60609761D01*
X88531428Y-60657380D01*
X88436190Y-60657380D01*
X88340952Y-60609761D01*
X88293333Y-60562142D01*
X88245714Y-60466904D01*
X88198095Y-60276428D01*
X88198095Y-60038333D01*
X88245714Y-59847857D01*
X88293333Y-59752619D01*
X88340952Y-59705000D01*
X88436190Y-59657380D01*
X89198095Y-59990714D02*
X89198095Y-60990714D01*
X89674285Y-60514523D02*
X89721904Y-60609761D01*
X89817142Y-60657380D01*
X89198095Y-60514523D02*
X89245714Y-60609761D01*
X89340952Y-60657380D01*
X89531428Y-60657380D01*
X89626666Y-60609761D01*
X89674285Y-60514523D01*
X89674285Y-59990714D01*
X90579047Y-60133571D02*
X90245714Y-60133571D01*
X90245714Y-60657380D02*
X90245714Y-59657380D01*
X90721904Y-59657380D01*
%TO.C,C4*%
X88793333Y-53062142D02*
X88745714Y-53109761D01*
X88602857Y-53157380D01*
X88507619Y-53157380D01*
X88364761Y-53109761D01*
X88269523Y-53014523D01*
X88221904Y-52919285D01*
X88174285Y-52728809D01*
X88174285Y-52585952D01*
X88221904Y-52395476D01*
X88269523Y-52300238D01*
X88364761Y-52205000D01*
X88507619Y-52157380D01*
X88602857Y-52157380D01*
X88745714Y-52205000D01*
X88793333Y-52252619D01*
X89650476Y-52490714D02*
X89650476Y-53157380D01*
X89412380Y-52109761D02*
X89174285Y-52824047D01*
X89793333Y-52824047D01*
X87817142Y-55577380D02*
X87245714Y-55577380D01*
X87531428Y-55577380D02*
X87531428Y-54577380D01*
X87436190Y-54720238D01*
X87340952Y-54815476D01*
X87245714Y-54863095D01*
X88436190Y-54577380D02*
X88531428Y-54577380D01*
X88626666Y-54625000D01*
X88674285Y-54672619D01*
X88721904Y-54767857D01*
X88769523Y-54958333D01*
X88769523Y-55196428D01*
X88721904Y-55386904D01*
X88674285Y-55482142D01*
X88626666Y-55529761D01*
X88531428Y-55577380D01*
X88436190Y-55577380D01*
X88340952Y-55529761D01*
X88293333Y-55482142D01*
X88245714Y-55386904D01*
X88198095Y-55196428D01*
X88198095Y-54958333D01*
X88245714Y-54767857D01*
X88293333Y-54672619D01*
X88340952Y-54625000D01*
X88436190Y-54577380D01*
X89198095Y-54910714D02*
X89198095Y-55910714D01*
X89674285Y-55434523D02*
X89721904Y-55529761D01*
X89817142Y-55577380D01*
X89198095Y-55434523D02*
X89245714Y-55529761D01*
X89340952Y-55577380D01*
X89531428Y-55577380D01*
X89626666Y-55529761D01*
X89674285Y-55434523D01*
X89674285Y-54910714D01*
X90579047Y-55053571D02*
X90245714Y-55053571D01*
X90245714Y-55577380D02*
X90245714Y-54577380D01*
X90721904Y-54577380D01*
%TO.C,C1*%
X66508333Y-47347142D02*
X66460714Y-47394761D01*
X66317857Y-47442380D01*
X66222619Y-47442380D01*
X66079761Y-47394761D01*
X65984523Y-47299523D01*
X65936904Y-47204285D01*
X65889285Y-47013809D01*
X65889285Y-46870952D01*
X65936904Y-46680476D01*
X65984523Y-46585238D01*
X66079761Y-46490000D01*
X66222619Y-46442380D01*
X66317857Y-46442380D01*
X66460714Y-46490000D01*
X66508333Y-46537619D01*
X67460714Y-47442380D02*
X66889285Y-47442380D01*
X67175000Y-47442380D02*
X67175000Y-46442380D01*
X67079761Y-46585238D01*
X66984523Y-46680476D01*
X66889285Y-46728095D01*
X62579761Y-48680714D02*
X62579761Y-49347380D01*
X62341666Y-48299761D02*
X62103571Y-49014047D01*
X62722619Y-49014047D01*
X63008333Y-48347380D02*
X63675000Y-48347380D01*
X63246428Y-49347380D01*
X64246428Y-48347380D02*
X64341666Y-48347380D01*
X64436904Y-48395000D01*
X64484523Y-48442619D01*
X64532142Y-48537857D01*
X64579761Y-48728333D01*
X64579761Y-48966428D01*
X64532142Y-49156904D01*
X64484523Y-49252142D01*
X64436904Y-49299761D01*
X64341666Y-49347380D01*
X64246428Y-49347380D01*
X64151190Y-49299761D01*
X64103571Y-49252142D01*
X64055952Y-49156904D01*
X64008333Y-48966428D01*
X64008333Y-48728333D01*
X64055952Y-48537857D01*
X64103571Y-48442619D01*
X64151190Y-48395000D01*
X64246428Y-48347380D01*
X65198809Y-48347380D02*
X65294047Y-48347380D01*
X65389285Y-48395000D01*
X65436904Y-48442619D01*
X65484523Y-48537857D01*
X65532142Y-48728333D01*
X65532142Y-48966428D01*
X65484523Y-49156904D01*
X65436904Y-49252142D01*
X65389285Y-49299761D01*
X65294047Y-49347380D01*
X65198809Y-49347380D01*
X65103571Y-49299761D01*
X65055952Y-49252142D01*
X65008333Y-49156904D01*
X64960714Y-48966428D01*
X64960714Y-48728333D01*
X65008333Y-48537857D01*
X65055952Y-48442619D01*
X65103571Y-48395000D01*
X65198809Y-48347380D01*
X65960714Y-48680714D02*
X65960714Y-49680714D01*
X66436904Y-49204523D02*
X66484523Y-49299761D01*
X66579761Y-49347380D01*
X65960714Y-49204523D02*
X66008333Y-49299761D01*
X66103571Y-49347380D01*
X66294047Y-49347380D01*
X66389285Y-49299761D01*
X66436904Y-49204523D01*
X66436904Y-48680714D01*
X67341666Y-48823571D02*
X67008333Y-48823571D01*
X67008333Y-49347380D02*
X67008333Y-48347380D01*
X67484523Y-48347380D01*
X68579761Y-48299761D02*
X67722619Y-49585476D01*
X69436904Y-49347380D02*
X68865476Y-49347380D01*
X69151190Y-49347380D02*
X69151190Y-48347380D01*
X69055952Y-48490238D01*
X68960714Y-48585476D01*
X68865476Y-48633095D01*
X70294047Y-48347380D02*
X70103571Y-48347380D01*
X70008333Y-48395000D01*
X69960714Y-48442619D01*
X69865476Y-48585476D01*
X69817857Y-48775952D01*
X69817857Y-49156904D01*
X69865476Y-49252142D01*
X69913095Y-49299761D01*
X70008333Y-49347380D01*
X70198809Y-49347380D01*
X70294047Y-49299761D01*
X70341666Y-49252142D01*
X70389285Y-49156904D01*
X70389285Y-48918809D01*
X70341666Y-48823571D01*
X70294047Y-48775952D01*
X70198809Y-48728333D01*
X70008333Y-48728333D01*
X69913095Y-48775952D01*
X69865476Y-48823571D01*
X69817857Y-48918809D01*
X70675000Y-48347380D02*
X71008333Y-49347380D01*
X71341666Y-48347380D01*
%TD*%
M02*
